<?xml version="1.0" encoding="UTF-8" standalone="no"?>
<svg xmlns="http://www.w3.org/2000/svg"
   xmlns:dc="http://purl.org/dc/elements/1.1/"
   xmlns:cc="http://creativecommons.org/ns#"
   xmlns:rdf="http://www.w3.org/1999/02/22-rdf-syntax-ns#"
   version="1.0" width="1000" height="1000" viewBox="0 0 1000 1000">
  <metadata><rdf:RDF><cc:Work rdf:about="">
    <dc:format>image/svg+xml</dc:format>
    <dc:type rdf:resource="http://purl.org/dc/dcmitype/StillImage"/>
  </cc:Work></rdf:RDF></metadata>
  <title>Flower of Life 19-circles</title>
  <g style="fill:none;stroke:#000000;stroke-width:8"
     transform="rotate(30,500,500)">
    <circle cx="347.67708" cy="763.83104" r="152.32292"/>
    <circle cx="500" cy="763.83104" r="152.32292"/>
    <circle cx="652.32292" cy="763.83104" r="152.32292"/>
    <circle cx="271.51562" cy="631.91552" r="152.32292"/>
    <circle cx="423.83854" cy="631.91552" r="152.32292"/>
    <circle cx="576.16146" cy="631.91552" r="152.32292"/>
    <circle cx="728.48438" cy="631.91552" r="152.32292"/>
    <circle cx="195.35416" cy="500" r="152.32292"/>
    <circle cx="347.67708" cy="500" r="152.32292"/>
    <circle cx="500" cy="500" r="152.32292"/>
    <circle cx="652.32292" cy="500" r="152.32292"/>
    <circle cx="804.64584" cy="500" r="152.32292"/>
    <circle cx="271.51562" cy="368.08448" r="152.32292"/>
    <circle cx="423.83854" cy="368.08448" r="152.32292"/>
    <circle cx="576.16146" cy="368.08448" r="152.32292"/>
    <circle cx="728.48438" cy="368.08448" r="152.32292"/>
    <circle cx="347.67708" cy="236.16896" r="152.32292"/>
    <circle cx="500" cy="236.16896" r="152.32292"/>
    <circle cx="652.32292" cy="236.16896" r="152.32292"/>
  </g>
</svg>