<svg id="Layer_1" data-name="Layer 1" xmlns="http://www.w3.org/2000/svg" viewBox="0 0 300 660"><defs><style>.cls-1{fill:#f9c2c4;}.cls-1,.cls-6{stroke:#deaaa7;}.cls-1,.cls-12,.cls-6{stroke-miterlimit:10;}.cls-2{fill:#c2000b;}.cls-12,.cls-3{fill:#fff;}.cls-4{fill:#72a4a3;}.cls-5{fill:#1a1a1a;}.cls-6{fill:none;}.cls-7{fill:#ab7d4a;}.cls-8{fill:#ff4000;}.cls-9{fill:#f24aa2;}.cls-10{fill:#7c411e;}.cls-11{fill:#310d0a;opacity:0.05;}.cls-12{stroke:#e0ded7;}.cls-13{fill:#6257a6;}</style></defs><title>dreams</title><path class="cls-1" d="M124,173.63c3.28,9.24,10.07,30.05,9.68,41.19-1.43,5.41-10.36,11.33-16.37,21.81-1.28,2.22-3.29,3.94-4.7,6.12-5.07,6-12.45,10.79-16.6,17.36-4.71,7.47-5.27,18-6.75,26.31a706.88,706.88,0,0,0-11,120c0,11.59,1.08,39.7,16.27,40.78,11.54.82,5.28-6.43,2.73-11.78-2.92-6.11-3.25-13.09-2.85-20.85a12.62,12.62,0,0,1,5.67,0c2,6.92,9,11.56,10.39,2,.94-6.22-5-8.22-7.22-14.22-2.52-6.65-2.26-16.19-4-24-2-8.81,3.91-18,4-27.47.16-16.6-4-27.25-.95-42.49,2-9.94.71-27.12,6.5-35.33V274c-4.17,16.06,7.21,42.31,7.21,58.22,0,15.56-7.63,31.36-6.85,46.85,1.81.15,3.58.34,5.32.56l3.12,208.09,0,2.39a13.25,13.25,0,0,0-.35,2c-.4,7.12-4.45,8.79-9.7,12-4.64,2.81-9.87,5.62-15.46,6.78-4.64,1-12.65-.28-13.84,5.26-1.65,7.67,5.93,6.32,10.85,7.08,2.78.43,4.88,1.47,7.82,1.59a56.08,56.08,0,0,0,9.91-.66c6.58-.94,13.29-1,20.1-1.68,5.94-.6,15.38,1.53,16.66-5.3,1.5-8-3.17-15.46-2.33-23l.07-4.19h0v-1.84h0l-3.07-204.72c3,.38,6.15.66,9.42.8v.1h.12c.71,0,1.4,0,2.09,0s1.38,0,2.09,0h.12v-.1c3.27-.14,6.4-.42,9.42-.8l-3.07,204.72h0v1.84h0l.07,4.19c.83,7.57-3.83,15-2.33,23,1.28,6.83,10.72,4.7,16.66,5.3,6.81.69,13.52.74,20.1,1.68a56.08,56.08,0,0,0,9.91.66c2.94-.12,5-1.17,7.82-1.59,4.93-.75,12.5.59,10.85-7.08-1.19-5.54-9.2-4.3-13.84-5.26-5.59-1.15-10.82-4-15.46-6.78-5.25-3.17-9.3-4.84-9.7-12a13.25,13.25,0,0,0-.35-2l0-2.39,3.12-208.09c1.74-.22,3.51-.41,5.32-.56.79-15.49-6.85-31.29-6.85-46.85,0-15.91,11.39-42.15,7.21-58.22v-.86c5.79,8.21,4.49,25.39,6.5,35.33,3.08,15.24-1.11,25.89-.95,42.49.09,9.52,6,18.67,4,27.47-1.74,7.79-1.49,17.32-4,24-2.27,6-8.16,8-7.22,14.22,1.44,9.52,8.36,4.87,10.39-2a12.62,12.62,0,0,1,5.67,0c.4,7.76.07,14.73-2.85,20.85-2.55,5.35-8.81,12.6,2.73,11.78,15.19-1.08,16.29-29.19,16.27-40.78a706.87,706.87,0,0,0-11-120c-1.47-8.35-2-18.84-6.75-26.31-4.15-6.57-11.52-11.36-16.6-17.36-1.41-2.18-5.43-3.89-6.7-6.12-12-20.84-11.82-40.19-11.82-40.19.5-8.74,3.56-17.61,5.4-22.81"/><path class="cls-2" d="M144.46,605.29c-.8-5.48-2.09-10.5-2.12-14.2-5.78-.27-17.16-3.31-22.42-1.06-2.57,1.1-10.44,7.47-13.28,9.32-3.08,2-5.29,4-8.88,5.22-.79.26-1.68.49-2.64.72H83c-7.3,0-13.22,8.36-13.22,18.69h0c-.2,2.88,8,2.89,15.28,2.89h57.51l1.95-2.89h.06V605.29Z"/><path class="cls-2" d="M155.54,605.29c.8-5.48,2.09-10.5,2.12-14.2,5.78-.27,17.16-3.31,22.42-1.06,2.57,1.1,10.44,7.47,13.28,9.32,3.08,2,5.29,4,8.88,5.22.79.26,1.68.49,2.64.72H217c7.3,0,13.22,8.36,13.22,18.69h0c.2,2.88-8,2.89-15.28,2.89H157.44L155.49,624h-.06V605.29Z"/><path class="cls-1" d="M182,144.24c-.81-6-3.45-11.56-4.41-17.47s-.39-12-2.75-17.47c-5-11.67-15.47-16-26.26-15.46-10.79-.51-21.22,3.79-26.26,15.46-2.37,5.49-1.82,11.69-2.75,17.47s-3.6,11.5-4.41,17.47c-1.39,10.25,5.73,26,11.22,34,5.25,7.63,11.5,16.82,20.84,16.93.45,0,.9,0,1.35,0s.89,0,1.34,0c9.34-.1,15.6-9.29,20.84-16.93C176.3,170.27,183.42,154.49,182,144.24Z"/><path class="cls-1" d="M180.19,143.83c.37-3,4.87-7.62,6.85-2.09,1.61,4.5-3.41,8.61-2.15,13.08a8.19,8.19,0,0,1-2.29,2,10.06,10.06,0,0,1-1-3.83"/><path class="cls-3" d="M154.71,139.1c8.9-7.09,11.23-3.09,17.79,1.44-4.52,1.15-12,3.36-17.79-1.44"/><path class="cls-4" d="M168,138.61a4.36,4.36,0,0,0-.29-1.54c-2.32-1.56-4.39-2.37-7.27-1.41a4.34,4.34,0,0,0,.27,6.17,19.14,19.14,0,0,0,5.85,0A4.34,4.34,0,0,0,168,138.61Z"/><circle class="cls-5" cx="163.6" cy="138.79" r="1.5"/><path class="cls-6" d="M155.8,142.67c2.85,2.14,6.18,2.65,9.47,3.36"/><path class="cls-6" d="M150.85,131.33c3.16-.52,6.59-3.19,9.68-3.27,4.06-.1,6,2.3,9.68,3.27"/><path class="cls-3" d="M140.54,139.34c-8.9-7.09-11.23-3.09-17.79,1.44,4.52,1.15,12,3.36,17.79-1.44"/><path class="cls-4" d="M127.29,138.85a4.33,4.33,0,0,1,.29-1.54c2.32-1.56,4.39-2.37,7.27-1.41a4.34,4.34,0,0,1-.27,6.17,19.12,19.12,0,0,1-5.85,0A4.34,4.34,0,0,1,127.29,138.85Z"/><circle class="cls-5" cx="131.65" cy="139.03" r="1.5"/><path class="cls-6" d="M139.45,142.91c-2.85,2.14-6.18,2.64-9.47,3.36"/><path class="cls-6" d="M144.4,131.57c-3.16-.52-6.59-3.19-9.68-3.27-4.06-.1-6,2.3-9.68,3.27"/><circle class="cls-7" cx="145.22" cy="158.3" r="1.49"/><circle class="cls-7" cx="151.53" cy="158.3" r="1.49"/><path class="cls-8" d="M157.29,171.9c-.33-.11-.67-.21-1-.3l-1-.24-1-.22-1-.23c-.33-.08-.65-.17-1-.28a7.28,7.28,0,0,1-.89-.36,5.22,5.22,0,0,1-.8-.48,2,2,0,0,1-.26.24l-.32.22-.35.21-.36.21-.36.23-.34.26-.19.19-.19-.19-.34-.26-.36-.23-.36-.21-.35-.21-.32-.22a2.1,2.1,0,0,1-.26-.24,5.17,5.17,0,0,1-.8.48,7.35,7.35,0,0,1-.89.36c-.31.11-.63.2-1,.28l-1,.23-1,.22-1,.24c-.34.09-.68.19-1,.3a8.79,8.79,0,0,0-1,.39l2.16.79c.8.29,1.67.6,2.59.91s1.87.61,2.84.88c.56.16,1.13.3,1.69.43l0,.27.62-.13.62.13,0-.27c.57-.13,1.13-.27,1.7-.43,1-.27,1.92-.57,2.84-.88s1.79-.62,2.59-.91l2.16-.79A8.79,8.79,0,0,0,157.29,171.9Z"/><path class="cls-1" d="M116.56,143.83c-.37-3-4.87-7.62-6.85-2.09-1.61,4.5,3.41,8.61,2.15,13.08a8.23,8.23,0,0,0,2.29,2,10,10,0,0,0,1-3.83"/><path class="cls-9" d="M122.8,437.68c3.22,0,3.22-5,0-5s-3.22,5,0,5Z"/><path class="cls-9" d="M130.8,446.68c3.22,0,3.22-5,0-5s-3.22,5,0,5Z"/><path class="cls-9" d="M120.8,473.68c3.22,0,3.22-5,0-5s-3.22,5,0,5Z"/><path class="cls-9" d="M120.8,461.68c3.22,0,3.22-5,0-5s-3.22,5,0,5Z"/><path class="cls-9" d="M127.8,462.68c3.22,0,3.22-5,0-5s-3.22,5,0,5Z"/><path class="cls-9" d="M130.8,490.68c3.22,0,3.22-5,0-5s-3.22,5,0,5Z"/><path class="cls-9" d="M130.8,466.68c3.22,0,3.22-5,0-5s-3.22,5,0,5Z"/><path class="cls-9" d="M130.8,472.68c3.22,0,3.22-5,0-5s-3.22,5,0,5Z"/><path class="cls-9" d="M126.8,488.68c3.22,0,3.22-5,0-5s-3.22,5,0,5Z"/><path class="cls-9" d="M114.8,493.68c3.22,0,3.22-5,0-5s-3.22,5,0,5Z"/><path class="cls-9" d="M135.8,515.68c3.22,0,3.22-5,0-5s-3.22,5,0,5Z"/><path class="cls-9" d="M121.8,525.68c3.22,0,3.22-5,0-5s-3.22,5,0,5Z"/><path class="cls-9" d="M123.8,513.68c3.22,0,3.22-5,0-5s-3.22,5,0,5Z"/><path class="cls-9" d="M123.8,513.68c3.22,0,3.22-5,0-5s-3.22,5,0,5Z"/><path class="cls-9" d="M134.8,433.68c3.22,0,3.22-5,0-5s-3.22,5,0,5Z"/><path class="cls-9" d="M138.8,457.68c3.22,0,3.22-5,0-5s-3.22,5,0,5Z"/><path class="cls-9" d="M118.8,446.68c3.22,0,3.22-5,0-5s-3.22,5,0,5Z"/><path class="cls-10" d="M178.39,119.43a60.27,60.27,0,0,1-2.11-5.67,29.67,29.67,0,0,1-.87-6.32,26.79,26.79,0,0,0-1-6.46,18.41,18.41,0,0,0-9.89-10.88,32.35,32.35,0,0,0-16.14-2.7,32.35,32.35,0,0,0-16.14,2.7A18.41,18.41,0,0,0,122.35,101a26.75,26.75,0,0,0-1,6.46,29.78,29.78,0,0,1-.87,6.32,60.52,60.52,0,0,1-2.11,5.67c-.76,1.85-1.52,3.69-2.1,5.61a29.34,29.34,0,0,0-1.21,11.59c.37,3.77,2.55,6.22,2.55,4.47a60.16,60.16,0,0,1,.5-7.88,61.73,61.73,0,0,1,1.52-7.63c1.57-6,3.67-10.53,7.15-14s8.31-5.9,15.33-7.65a49.53,49.53,0,0,1,6.28-1.09,49.52,49.52,0,0,1,6.27,1.09c7,1.75,11.86,4.17,15.33,7.65s5.58,8,7.15,14a61.73,61.73,0,0,1,1.52,7.63,60.16,60.16,0,0,1,.5,7.88c0,1.75,2.18-.7,2.55-4.47A29.34,29.34,0,0,0,180.49,125C179.91,123.12,179.15,121.28,178.39,119.43Z"/><path class="cls-10" d="M113.86,142.68l-.3-.51C113.38,142.84,113.4,143.17,113.86,142.68Z"/><path class="cls-10" d="M183.19,142.17l-.3.51C183.35,143.17,183.37,142.84,183.19,142.17Z"/><path class="cls-11" d="M177.34,157.83c-7.08,6.07-9.08,7.86-11.23,11.2-1.92,3-6.25,9.72-9.29,11.88-2,1.43-6.41,3.73-8,5.51a5,5,0,0,0-.43.56,4.89,4.89,0,0,0-.43-.56c-1.61-1.79-6-4.08-8-5.51-3-2.15-7.37-8.9-9.29-11.88-2.15-3.33-4.15-5.13-11.23-11.2-3-2.59.83,9.67,2,11.92,1.74,3.3,4.49,9.24,7.15,11.93a99.81,99.81,0,0,0,7.81,7.36c2.75,2.28,10.27,5.85,12,4.23,1.72,1.62,9.25-1.95,12-4.23a99.84,99.84,0,0,0,7.81-7.36c2.66-2.68,5.41-8.63,7.15-11.93C176.52,167.5,180.37,155.24,177.34,157.83Z"/><path class="cls-11" d="M157.88,163.2c-3.28-.29-6.29.32-9.51.47-3.22-.15-6.23-.76-9.51-.47s-6.06,1.82-8.91,2.31l.27.33c.95,2.48,7.31.56,10,.33,1.93-.17,6.55.07,8.17-1,1.62,1.06,6.24.82,8.17,1,2.66.23,9,2.15,10-.33l.27-.33C163.94,165,161.09,163.48,157.88,163.2Z"/><polygon class="cls-5" points="144.47 596.75 136.22 596.75 127.97 596.75 119.72 596.75 111.47 596.75 107.97 562.55 107.58 494.56 107.58 447.56 111.47 365.75 119.72 365.75 127.97 365.75 136.22 365.75 144.47 365.75 155.85 364.93 144.65 468.75 144.4 571.56 144.47 596.75"/><path class="cls-12" d="M107.91,342.86c0-2.51,0-4.9.1-7.1,1.05-23.13,49.75-112.58,16.08-109.93L98,241.56c-10.44,32.8-15.39,66.92-17.91,101.3Z"/><path class="cls-12" d="M193.14,342.86c0-2.51,0-4.9-.1-7.1C192,312.63,143.3,223.18,177,225.83L203,241.56c10.44,32.8,15.39,66.92,17.91,101.3Z"/><polygon class="cls-5" points="156.76 596.75 165.01 596.75 173.26 596.75 181.51 596.75 189.76 596.75 193.26 562.55 193.65 494.56 193.65 447.56 189.76 365.75 181.51 365.75 173.26 365.75 165.01 365.75 156.76 365.75 145.38 364.93 156.58 468.75 156.82 571.56 156.76 596.75"/><path class="cls-13" d="M211.76,265c-8.21-13.3-7.11-34-31.15-44.28-8.92,0-13,.71-23.13,1.11h-15c-10.16-.4-14.2-1.11-23.13-1.11-24,10.32-22.94,31-31.15,44.28-12.7,20.56,10.42,27.65,17,30.69-.54,12.05,0,60.35-.54,72.15C104,384.49,100,389,114.78,389c7.8,0,15.65.13,23.51.27v.19l4.23-.07v.07h19.19v-.19c7.86-.14,15.71-.28,23.51-.27,14.76,0,10.82-4.47,10-21.1-.55-11.8,0-59.1-.54-71.15C201.34,293.66,224.46,285.56,211.76,265Z"/></svg>