<svg id="Layer_1" data-name="Layer 1" xmlns="http://www.w3.org/2000/svg" viewBox="0 0 300 660"><defs><style>.cls-1{fill:#f9c2c4;}.cls-1,.cls-5{stroke:#deaaa7;}.cls-1,.cls-14,.cls-5{stroke-miterlimit:10;}.cls-2{fill:#1a1a1a;}.cls-3{fill:#fff;}.cls-4{fill:#72a4a3;}.cls-14,.cls-5{fill:none;}.cls-6{fill:#ab7d4a;}.cls-7{fill:#ff4000;}.cls-8{fill:#97a7c4;}.cls-9{fill:#ae9e97;}.cls-10{fill:#f24aa2;}.cls-11{fill:#69000c;}.cls-12{fill:#e4f34f;}.cls-13{fill:#7c411e;}.cls-14{stroke:#e4f34f;stroke-width:3px;}.cls-15{fill:#40a629;}.cls-16{fill:red;}.cls-17{fill:#ffe610;}</style></defs><title>ghost</title><path class="cls-1" d="M124,162.77c3.28,9.24,10.07,30.05,9.68,41.19-1.43,5.41-10.36,11.33-16.37,21.81-1.28,2.22-3.29,3.94-4.7,6.12-5.07,6-12.45,10.79-16.6,17.36-4.71,7.47-5.27,18-6.75,26.31a706.89,706.89,0,0,0-11,120c0,11.59,1.08,39.7,16.27,40.78,11.54.82,5.28-6.43,2.73-11.78-2.92-6.11-3.25-13.09-2.85-20.85a12.62,12.62,0,0,1,5.67,0c2,6.92,9,11.56,10.39,2,.94-6.22-5-8.22-7.22-14.22-2.52-6.65-2.26-16.19-4-24-2-8.81,3.91-18,4-27.47.16-16.6-4-27.25-.95-42.49,2-9.94.71-27.12,6.5-35.33v.86c-4.17,16.06.21,42.31.21,58.22,0,15.56-.63,31.36.15,46.85,1.81.15,3.58.34,5.32.56l3.12,208.09,0,2.39a13.25,13.25,0,0,0-.35,2c-.4,7.12-4.45,8.79-9.7,12C103,596,97.8,598.82,92.21,600c-4.64,1-12.65-.28-13.84,5.26-1.65,7.67,5.93,6.32,10.85,7.08,2.78.43,4.88,1.47,7.82,1.59a56.08,56.08,0,0,0,9.91-.66c6.58-.94,13.29-1,20.1-1.68,5.94-.6,15.38,1.53,16.66-5.3,1.5-8-3.17-15.46-2.33-23l.07-4.19h0V577.2h0l-3.07-204.72c3,.38,6.15.66,9.42.8v.1h.12c.71,0,1.4,0,2.09,0s1.38,0,2.09,0h.12v-.1c3.27-.14,6.4-.42,9.42-.8l-3.07,204.72h0V579h0l.07,4.19c.83,7.57-3.83,15-2.33,23,1.28,6.83,10.72,4.7,16.66,5.3,6.81.69,13.52.74,20.1,1.68a56.08,56.08,0,0,0,9.91.66c2.94-.12,5-1.17,7.82-1.59,4.93-.75,12.5.59,10.85-7.08-1.19-5.54-9.2-4.3-13.84-5.26-5.59-1.15-10.82-4-15.46-6.78-5.25-3.17-9.3-4.84-9.7-12a13.25,13.25,0,0,0-.35-2l0-2.39,3.12-208.09c1.74-.22,3.51-.41,5.32-.56.79-15.49.15-31.29.15-46.85,0-15.91,4.39-42.15.21-58.22v-.86c5.79,8.21,4.49,25.39,6.5,35.33,3.08,15.24-1.11,25.89-.95,42.49.09,9.52,6,18.67,4,27.47-1.74,7.79-1.49,17.32-4,24-2.27,6-8.16,8-7.22,14.22,1.44,9.52,8.36,4.87,10.39-2a12.62,12.62,0,0,1,5.67,0c.4,7.76.07,14.73-2.85,20.85-2.55,5.35-8.81,12.6,2.73,11.78,15.19-1.08,16.29-29.19,16.27-40.78a706.88,706.88,0,0,0-11-120c-1.47-8.35-2-18.84-6.75-26.31-4.15-6.57-11.52-11.36-16.6-17.36-1.41-2.18-5.43-3.89-6.7-6.12-12-20.84-11.82-40.19-11.82-40.19.5-8.74,3.56-17.61,5.4-22.81"/><polygon class="cls-2" points="156.76 585.89 165.01 585.89 173.26 585.89 181.51 585.89 189.76 585.89 193.26 551.68 193.65 483.69 193.65 436.69 189.76 354.89 181.51 354.89 173.26 354.89 165.01 354.89 156.76 354.89 145.38 354.06 156.58 457.89 156.82 560.69 156.76 585.89"/><path class="cls-2" d="M144.46,594.43c-.8-5.48-2.09-10.5-2.12-14.2-5.78-.27-17.16-3.31-22.42-1.06-2.57,1.1-10.44,7.47-13.28,9.32-3.08,2-5.29,4-8.88,5.22-.79.26-1.68.49-2.64.72H83c-7.3,0-13.22,8.36-13.22,18.69h0c-.2,2.88,8,2.89,15.28,2.89h57.51l1.95-2.89h.06V594.43Z"/><path class="cls-2" d="M155.54,594.43c.8-5.48,2.09-10.5,2.12-14.2,5.78-.27,17.16-3.31,22.42-1.06,2.57,1.1,10.44,7.47,13.28,9.32,3.08,2,5.29,4,8.88,5.22.79.26,1.68.49,2.64.72H217c7.3,0,13.22,8.36,13.22,18.69h0c.2,2.88-8,2.89-15.28,2.89H157.44l-1.95-2.89h-.06V594.43Z"/><path class="cls-1" d="M182,133.37c-.81-6-3.45-11.56-4.41-17.47s-.39-12-2.75-17.47c-5-11.67-15.47-16-26.26-15.46-10.79-.51-21.22,3.79-26.26,15.46-2.37,5.49-1.82,11.69-2.75,17.47s-3.6,11.5-4.41,17.47c-1.39,10.25,5.73,26,11.22,34,5.25,7.63,11.5,16.82,20.84,16.93.45,0,.9,0,1.35,0s.89,0,1.34,0c9.34-.1,15.6-9.29,20.84-16.93C176.3,159.41,183.42,143.62,182,133.37Z"/><path class="cls-1" d="M180.19,133c.37-3,4.87-7.62,6.85-2.09,1.61,4.5-3.41,8.61-2.15,13.08a8.19,8.19,0,0,1-2.29,2,10.06,10.06,0,0,1-1-3.83"/><path class="cls-3" d="M154.71,128.23c8.9-7.09,11.23-3.09,17.79,1.44-4.52,1.15-12,3.36-17.79-1.44"/><path class="cls-4" d="M168,127.74a4.36,4.36,0,0,0-.29-1.54c-2.32-1.56-4.39-2.37-7.27-1.41a4.34,4.34,0,0,0,.27,6.17,19.14,19.14,0,0,0,5.85,0A4.34,4.34,0,0,0,168,127.74Z"/><circle class="cls-2" cx="163.6" cy="127.92" r="1.5"/><path class="cls-5" d="M155.8,131.81c2.85,2.14,6.18,2.65,9.47,3.36"/><path class="cls-5" d="M150.85,120.46c3.16-.52,6.59-3.19,9.68-3.27,4.06-.1,6,2.3,9.68,3.27"/><path class="cls-3" d="M140.54,128.47c-8.9-7.09-11.23-3.09-17.79,1.44,4.52,1.15,12,3.36,17.79-1.44"/><path class="cls-4" d="M127.29,128a4.33,4.33,0,0,1,.29-1.54c2.32-1.56,4.39-2.37,7.27-1.41a4.34,4.34,0,0,1-.27,6.17,19.12,19.12,0,0,1-5.85,0A4.34,4.34,0,0,1,127.29,128Z"/><circle class="cls-2" cx="131.65" cy="128.16" r="1.5"/><path class="cls-5" d="M139.45,132c-2.85,2.14-6.18,2.64-9.47,3.36"/><path class="cls-5" d="M144.4,120.7c-3.16-.52-6.59-3.19-9.68-3.27-4.06-.1-6,2.3-9.68,3.27"/><circle class="cls-6" cx="145.22" cy="147.43" r="1.49"/><circle class="cls-6" cx="151.53" cy="147.43" r="1.49"/><path class="cls-7" d="M157.29,161c-.33-.11-.67-.21-1-.3l-1-.24-1-.22-1-.23c-.33-.08-.65-.17-1-.28a7.28,7.28,0,0,1-.89-.36,5.22,5.22,0,0,1-.8-.48,2,2,0,0,1-.26.24l-.32.22-.35.21-.36.21-.36.23-.34.26-.19.19-.19-.19-.34-.26-.36-.23-.36-.21-.35-.21-.32-.22a2.1,2.1,0,0,1-.26-.24,5.17,5.17,0,0,1-.8.48,7.35,7.35,0,0,1-.89.36c-.31.11-.63.2-1,.28l-1,.23-1,.22-1,.24c-.34.09-.68.19-1,.3a8.79,8.79,0,0,0-1,.39l2.16.79c.8.29,1.67.6,2.59.91s1.87.61,2.84.88c.56.16,1.13.3,1.69.43l0,.27.62-.13.62.13,0-.27c.57-.13,1.13-.27,1.7-.43,1-.27,1.92-.57,2.84-.88s1.79-.62,2.59-.91l2.16-.79A8.79,8.79,0,0,0,157.29,161Z"/><path class="cls-1" d="M116.56,133c-.37-3-4.87-7.62-6.85-2.09-1.61,4.5,3.41,8.61,2.15,13.08a8.23,8.23,0,0,0,2.29,2,10,10,0,0,0,1-3.83"/><polygon class="cls-2" points="144.47 585.89 136.22 585.89 127.97 585.89 119.72 585.89 111.47 585.89 107.97 551.68 107.58 483.69 107.58 436.69 111.47 354.89 119.72 354.89 127.97 354.89 136.22 354.89 144.47 354.89 155.85 354.06 144.65 457.89 144.4 560.69 144.47 585.89"/><path class="cls-8" d="M204.54,248.44c-8-11.61-23.51-24.16-24.4-38.67-6.44,4.23-15.28,6.69-24.15,6.84v-1.15a44.31,44.31,0,0,1-5.63.91,44.37,44.37,0,0,1-5.63-.91v1.15c-8.87-.14-17.7-2.61-24.15-6.83-.9,14.51-16.43,27.06-24.4,38.67-12.32,18-16,37.42-14.6,59.13,5.05-5.09,22.21-4.41,28.63-1.75-.53,10.53-2.35,22.13-2.88,32.44-.75,14.53.27,18.44,14.6,18.43,7.57,0,15.18.12,22.81.24v.16l5.63-.08,5.63.08v-.16c7.62-.12,15.24-.25,22.81-.24,14.32,0,15.35-3.9,14.6-18.43-.53-10.31-2.35-21.91-2.88-32.44,6.42-2.65,23.57-3.33,28.63,1.75C220.54,285.85,216.86,266.39,204.54,248.44Z"/><polygon class="cls-9" points="139.45 355.05 123.61 390.05 107.77 390.05 107.77 300.55 107.77 219.05 123.61 211.05 123.61 211.05 139.45 300.55 139.45 355.05"/><path class="cls-9" d="M107.77,219c33.67-2.65-2.22,77.52-3.27,100.65-1.2,26.37,8.85,78.69-30.4,66.52,1.12-54.11,4-109,20.4-160.72"/><polygon class="cls-9" points="160.97 355.05 176.81 390.05 192.65 390.05 192.65 300.55 192.65 219.05 176.81 211.05 176.81 211.05 160.97 300.55 160.97 355.05"/><path class="cls-9" d="M192.65,219c-33.67-2.65,2.22,77.52,3.27,100.65,1.2,26.37-8.85,78.69,30.4,66.52-1.12-54.11-4-109-20.4-160.72"/><path class="cls-10" d="M122.8,426.82c3.22,0,3.22-5,0-5s-3.22,5,0,5Z"/><path class="cls-10" d="M130.8,435.82c3.22,0,3.22-5,0-5s-3.22,5,0,5Z"/><path class="cls-10" d="M120.8,462.82c3.22,0,3.22-5,0-5s-3.22,5,0,5Z"/><path class="cls-10" d="M120.8,450.82c3.22,0,3.22-5,0-5s-3.22,5,0,5Z"/><path class="cls-10" d="M127.8,451.82c3.22,0,3.22-5,0-5s-3.22,5,0,5Z"/><path class="cls-10" d="M130.8,479.82c3.22,0,3.22-5,0-5s-3.22,5,0,5Z"/><path class="cls-10" d="M130.8,455.82c3.22,0,3.22-5,0-5s-3.22,5,0,5Z"/><path class="cls-10" d="M130.8,461.82c3.22,0,3.22-5,0-5s-3.22,5,0,5Z"/><path class="cls-10" d="M126.8,477.82c3.22,0,3.22-5,0-5s-3.22,5,0,5Z"/><path class="cls-10" d="M114.8,482.82c3.22,0,3.22-5,0-5s-3.22,5,0,5Z"/><path class="cls-10" d="M135.8,504.82c3.22,0,3.22-5,0-5s-3.22,5,0,5Z"/><path class="cls-10" d="M121.8,514.82c3.22,0,3.22-5,0-5s-3.22,5,0,5Z"/><path class="cls-10" d="M123.8,502.82c3.22,0,3.22-5,0-5s-3.22,5,0,5Z"/><path class="cls-10" d="M123.8,502.82c3.22,0,3.22-5,0-5s-3.22,5,0,5Z"/><path class="cls-10" d="M134.8,422.82c3.22,0,3.22-5,0-5s-3.22,5,0,5Z"/><path class="cls-10" d="M138.8,446.82c3.22,0,3.22-5,0-5s-3.22,5,0,5Z"/><path class="cls-10" d="M118.8,435.82c3.22,0,3.22-5,0-5s-3.22,5,0,5Z"/><path class="cls-10" d="M107.57,593.08a7.33,7.33,0,0,0,2.23-4.77c.1-1.82-1-3.51-2.23-4.77-2.22-2.35-5.75,1.19-3.54,3.54.93,1,.93,1.48,0,2.46-2.21,2.34,1.32,5.88,3.54,3.54Z"/><path class="cls-10" d="M180.64,269.58q-.13-.34,0,.07a5.5,5.5,0,0,1,.16.64c0,.13,0,.27.07.4-.16-1,.13,1,.07.54a3.27,3.27,0,0,0,1.47,2.43,3.2,3.2,0,0,0,2.83.17,3,3,0,0,0,1.84-1.53,16.48,16.48,0,0,0,.75-1.8c.43-1.24.61-3-.25-4.13a3.52,3.52,0,0,0-2.79-1.55,2.5,2.5,0,0,0,0,5c.32,0-.88-.17-.45,0s-.73-.37-.37-.14q-.62-.52-.37-.27c-.48-.46-.36-.52-.23-.27q-.27-.71-.16-.35t0-.35c0,.2-.09.79,0,0a5.54,5.54,0,0,1-.2.75,3.82,3.82,0,0,1-.38.88l.9-.9c.26-.09.27-.1,0,0a2.05,2.05,0,0,1,2.31,1.34,2.24,2.24,0,0,1-.06-.26c-.11-.55.08.62,0,0a10.13,10.13,0,0,0-.86-3.15,2.51,2.51,0,0,0-3.42-.9,2.55,2.55,0,0,0-.9,3.42Z"/><path class="cls-10" d="M171.54,272.48a6.24,6.24,0,0,1,.6.36c-.45-.31.17.21.25.29a10.78,10.78,0,0,0,.93,1,4.17,4.17,0,0,0,4.75.39,2.45,2.45,0,0,0,1.24-2.16c0-2.08-.6-4.22-2.78-5a5.69,5.69,0,0,0-1.79-.21c-.27,0-.53,0-.8,0,.77.06.3,0,.11,0s-.6-.25,0,0a2.55,2.55,0,0,0-3.42.9,2.51,2.51,0,0,0,.9,3.42,8.35,8.35,0,0,0,3.56.68c.64,0-.5-.11-.11,0q.36.1-.3-.15c.38.16-.48-.45-.17-.14q-.39-.55-.19-.21c-.33-.59-.11-.25-.06,0s0,.25,0-.06c0,.25,0,.51,0,.77l1.24-2.16c.25-.1.25-.1,0,0a1.43,1.43,0,0,1,1,.17c-.45-.2.43.4,0,0-.12-.11-.23-.23-.34-.35a8.46,8.46,0,0,0-2.22-1.84,2.5,2.5,0,0,0-2.52,4.32Z"/><path class="cls-10" d="M176.57,286.08q.32-.29-.07,0a2.32,2.32,0,0,1,.3-.18q-.52.2-.13.09c-.39,0-.44.06-.15,0-.65,0,.14.05.35.11s.31.11.13,0l.54.26a2.55,2.55,0,0,0,3.42-.9,2.51,2.51,0,0,0-.9-3.42,8.51,8.51,0,0,0-3.73-1.09,4.84,4.84,0,0,0-3.3,1.48,2.5,2.5,0,1,0,3.54,3.54Z"/><path class="cls-10" d="M185,279.55a7,7,0,0,0-1.27,1.51,4.58,4.58,0,0,0-.47,2.26,2.5,2.5,0,0,0,5,0c0-.15,0-.31,0-.46s0-.12-.06.41c0-.21.21-.51-.16.31.21-.46-.47.52-.05.06.17-.19.36-.37.54-.55a2.5,2.5,0,0,0-3.54-3.54Z"/><polygon class="cls-11" points="218.47 279.32 210.7 275.55 204.54 248.44 212.31 248.44 218.47 279.32"/><path class="cls-12" d="M142.54,341.47a3,3,0,0,1,1.76,2.84c.07,3.22,5.07,3.23,5,0a8.17,8.17,0,0,0-4.24-7.16,2.5,2.5,0,1,0-2.52,4.32Z"/><path class="cls-13" d="M178.39,106.36c-.76-2-1.52-4.06-2.11-6.21a35.32,35.32,0,0,1-.87-6.92,31.85,31.85,0,0,0-1-7.07,19.59,19.59,0,0,0-9.89-11.9,29.91,29.91,0,0,0-16.14-3,29.91,29.91,0,0,0-16.14,3,19.59,19.59,0,0,0-9.89,11.9,31.8,31.8,0,0,0-1,7.07,35.45,35.45,0,0,1-.87,6.92c-.58,2.14-1.35,4.18-2.11,6.21s-1.52,4-2.1,6.13a35,35,0,0,0-1.21,12.68c.37,4.13,2.55,6.8,2.55,4.89a71.89,71.89,0,0,1,.5-8.62,73.13,73.13,0,0,1,1.52-8.34c1.57-6.55,3.67-11.51,7.15-15.32s8.31-6.46,15.33-8.37a45.73,45.73,0,0,1,6.28-1.19,45.73,45.73,0,0,1,6.27,1.19c7,1.91,11.86,4.56,15.33,8.37s5.58,8.78,7.15,15.32a73.13,73.13,0,0,1,1.52,8.34,71.89,71.89,0,0,1,.5,8.62c0,1.91,2.18-.76,2.55-4.89a35,35,0,0,0-1.21-12.68C179.91,110.4,179.15,108.38,178.39,106.36Z"/><path class="cls-13" d="M113.86,131.79l-.3-.56C113.38,132,113.4,132.33,113.86,131.79Z"/><path class="cls-13" d="M183.19,131.23l-.3.56C183.35,132.33,183.37,132,183.19,131.23Z"/><path class="cls-14" d="M193.8,592.32c0-.44.2-3.82.78-4.92a16.69,16.69,0,0,0,3,8.84c.59-.65.06-1.94.37-2.75,1.64-.59,2.92-1,4-2.17-2.2-.85-7.61-3.92-6.15-2"/><path class="cls-15" d="M179.53,284.59c3.22,0,3.22-5,0-5s-3.22,5,0,5Z"/><path class="cls-15" d="M179.53,298.09c3.22,0,3.22-5,0-5s-3.22,5,0,5Z"/><path class="cls-15" d="M179.53,280.09c3.22,0,3.22-5,0-5s-3.22,5,0,5Z"/><path class="cls-16" d="M182.53,278.59c3.22,0,3.22-5,0-5s-3.22,5,0,5Z"/><path class="cls-16" d="M178,266.59c3.22,0,3.22-5,0-5s-3.22,5,0,5Z"/><path class="cls-17" d="M179.53,307.09c3.22,0,3.22-5,0-5s-3.22,5,0,5Z"/><path class="cls-17" d="M179.53,281.59c3.22,0,3.22-5,0-5s-3.22,5,0,5Z"/><path class="cls-17" d="M185.53,295.09c3.22,0,3.22-5,0-5s-3.22,5,0,5Z"/></svg>