<?xml version="1.0" encoding="utf-8"?>
<!-- Generator: Adobe Illustrator 22.0.0, SVG Export Plug-In . SVG Version: 6.00 Build 0)  -->
<svg version="1.1" id="Layer_1" xmlns="http://www.w3.org/2000/svg" xmlns:xlink="http://www.w3.org/1999/xlink" x="0px" y="0px"
	 viewBox="0 0 200 550" style="enable-background:new 0 0 200 550;" xml:space="preserve">
<style type="text/css">
	.st0{fill:#F9C2C4;stroke:#DEAAA7;stroke-miterlimit:10;}
	.st1{fill:#1A1A1A;}
	.st2{fill:#FFFFFF;}
	.st3{fill:#72A4A3;}
	.st4{fill:none;stroke:#DEAAA7;stroke-miterlimit:10;}
	.st5{fill:#AB7D4A;}
	.st6{fill:#FF4000;}
	.st7{fill:#97A7C4;}
	.st8{fill:#AE9E97;}
	.st9{fill:#F24AA2;}
	.st10{fill:#69000C;}
	.st11{fill:#E4F34F;}
	.st12{fill:#7C411E;}
	.st13{fill:none;stroke:#E4F34F;stroke-width:3;stroke-miterlimit:10;}
	.st14{fill:#40A629;}
	.st15{fill:#FF0000;}
	.st16{fill:#FFE610;}
</style>
<title>ghost</title>
<g>
	<path class="st0" d="M74,94.1c3.3,9.2,10.1,30.1,9.7,41.2c-1.4,5.4-10.4,11.3-16.4,21.8c-1.3,2.2-3.3,3.9-4.7,6.1
		c-5.1,6-12.4,10.8-16.6,17.4c-4.7,7.5-5.3,18-6.8,26.3c-7.1,39.6-10.8,79.8-11,120c0,11.6,1.1,39.7,16.3,40.8
		c11.5,0.8,5.3-6.4,2.7-11.8c-2.9-6.1-3.2-13.1-2.8-20.9c1.9-0.4,3.8-0.4,5.7,0c2,6.9,9,11.6,10.4,2c0.9-6.2-5-8.2-7.2-14.2
		c-2.5-6.6-2.3-16.2-4-24c-2-8.8,3.9-18,4-27.5c0.2-16.6-4-27.2-0.9-42.5c2-9.9,0.7-27.1,6.5-35.3v0.9c-4.2,16.1,0.2,42.3,0.2,58.2
		c0,15.6-0.6,31.4,0.2,46.9c1.8,0.1,3.6,0.3,5.3,0.6l3.1,208.1v2.4c-0.2,0.7-0.3,1.3-0.3,2c-0.4,7.1-4.4,8.8-9.7,12
		c-4.6,2.8-9.8,5.6-15.3,6.8c-4.6,1-12.7-0.3-13.8,5.3c-1.7,7.7,5.9,6.3,10.8,7.1c2.8,0.4,4.9,1.5,7.8,1.6c3.3,0.1,6.6-0.1,9.9-0.7
		c6.6-0.9,13.3-1,20.1-1.7c5.9-0.6,15.4,1.5,16.7-5.3c1.5-8-3.2-15.5-2.3-23l0.1-4.2l0,0v-1.9l0,0l-3.1-204.7c3,0.4,6.1,0.7,9.4,0.8
		v0.1h0.1c0.7,0,1.4,0,2.1,0s1.4,0,2.1,0h0.1v-0.1c3.3-0.1,6.4-0.4,9.4-0.8l-3.1,204.7l0,0v1.8l0,0l0.1,4.2c0.8,7.6-3.8,15-2.3,23
		c1.3,6.8,10.7,4.7,16.7,5.3c6.8,0.7,13.5,0.7,20.1,1.7c3.3,0.5,6.6,0.7,9.9,0.7c2.9-0.1,5-1.2,7.8-1.6c4.9-0.8,12.5,0.6,10.9-7.1
		c-1.2-5.5-9.2-4.3-13.8-5.3c-5.6-1.2-10.8-4-15.5-6.8c-5.2-3.2-9.3-4.8-9.7-12c-0.1-0.7-0.2-1.3-0.4-2v-2.4l3.1-208.1
		c1.7-0.2,3.5-0.4,5.3-0.6c0.8-15.5,0.1-31.3,0.1-46.9c0-15.9,4.4-42.1,0.2-58.2v-0.9c5.8,8.2,4.5,25.4,6.5,35.3
		c3.1,15.2-1.1,25.9-0.9,42.5c0.1,9.5,6,18.7,4,27.5c-1.7,7.8-1.5,17.3-4,24c-2.3,6-8.2,8-7.2,14.2c1.4,9.5,8.4,4.9,10.4-2
		c1.9-0.4,3.8-0.4,5.7,0c0.4,7.8,0.1,14.7-2.9,20.9c-2.6,5.4-8.8,12.6,2.7,11.8c15.2-1.1,16.3-29.2,16.3-40.8
		c-0.2-40.2-3.9-80.4-11-120c-1.5-8.4-2-18.8-6.8-26.3c-4.1-6.6-11.5-11.4-16.6-17.4c-1.4-2.2-5.4-3.9-6.7-6.1
		c-12-20.8-11.8-40.2-11.8-40.2c0.5-8.7,3.6-17.6,5.4-22.8"/>
	<polygon class="st1" points="106.8,517.3 115,517.3 123.3,517.3 131.5,517.3 139.8,517.3 143.3,483 143.6,415.1 143.6,368.1 
		139.8,286.3 131.5,286.3 123.3,286.3 115,286.3 106.8,286.3 95.4,285.4 106.6,389.3 106.8,492.1 	"/>
	<path class="st1" d="M94.5,525.8c-0.8-5.5-2.1-10.5-2.1-14.2c-5.8-0.3-17.2-3.3-22.4-1.1c-2.6,1.1-10.4,7.5-13.3,9.3
		c-3.1,2-5.3,4-8.9,5.2c-0.8,0.3-1.7,0.5-2.6,0.7H33c-7.3,0-13.2,8.4-13.2,18.7l0,0c-0.2,2.9,8,2.9,15.3,2.9h57.5l1.9-2.9h0.1v-18.7
		H94.5z"/>
	<path class="st1" d="M105.5,525.8c0.8-5.5,2.1-10.5,2.1-14.2c5.8-0.3,17.2-3.3,22.4-1.1c2.6,1.1,10.4,7.5,13.3,9.3
		c3.1,2,5.3,4,8.9,5.2c0.8,0.3,1.7,0.5,2.6,0.7H167c7.3,0,13.2,8.4,13.2,18.7l0,0c0.2,2.9-8,2.9-15.3,2.9h-57.5l-1.9-2.9h-0.1v-18.7
		H105.5z"/>
	<path class="st0" d="M132,64.7c-0.8-6-3.4-11.6-4.4-17.5s-0.4-12-2.8-17.5c-5-11.7-15.5-16-26.3-15.5c-10.8-0.5-21.2,3.8-26.3,15.5
		c-2.4,5.5-1.8,11.7-2.8,17.5S66,58.8,65.2,64.7c-1.4,10.2,5.7,26,11.2,34c5.2,7.6,11.5,16.8,20.8,16.9c0.4,0,0.9,0,1.4,0
		s0.9,0,1.3,0c9.3-0.1,15.6-9.3,20.8-16.9C126.3,90.8,133.4,75,132,64.7z"/>
	<path class="st0" d="M130.2,64.4c0.4-3,4.9-7.6,6.9-2.1c1.6,4.5-3.4,8.6-2.1,13.1c-0.6,0.8-1.4,1.5-2.3,2c-0.6-1.2-0.9-2.5-1-3.8"
		/>
	<path class="st2" d="M104.7,59.6c8.9-7.1,11.2-3.1,17.8,1.4C118,62.2,110.5,64.4,104.7,59.6"/>
	<path class="st3" d="M118,59.1c0-0.5-0.1-1-0.3-1.5c-2.3-1.6-4.4-2.4-7.3-1.4c-1.6,1.8-1.5,4.5,0.2,6.1c0,0,0,0,0,0
		c1.9,0.3,3.9,0.3,5.9,0C117.5,61.5,118,60.3,118,59.1z"/>
	<circle class="st1" cx="113.6" cy="59.3" r="1.5"/>
	<path class="st4" d="M105.8,63.2c2.9,2.1,6.2,2.6,9.5,3.4"/>
	<path class="st4" d="M100.9,51.8c3.2-0.5,6.6-3.2,9.7-3.3c4.1-0.1,6,2.3,9.7,3.3"/>
	<path class="st2" d="M90.5,59.8c-8.9-7.1-11.2-3.1-17.8,1.4C77.3,62.4,84.8,64.6,90.5,59.8"/>
	<path class="st3" d="M77.3,59.4c0-0.5,0.1-1,0.3-1.5c2.3-1.6,4.4-2.4,7.3-1.4c1.6,1.8,1.5,4.5-0.2,6.1c0,0,0,0,0,0
		c-1.9,0.3-3.9,0.3-5.9,0C77.8,61.8,77.3,60.6,77.3,59.4z"/>
	<circle class="st1" cx="81.6" cy="59.5" r="1.5"/>
	<path class="st4" d="M89.4,63.4c-2.9,2.1-6.2,2.6-9.5,3.4"/>
	<path class="st4" d="M94.4,52.1c-3.2-0.5-6.6-3.2-9.7-3.3c-4.1-0.1-6,2.3-9.7,3.3"/>
	<circle class="st5" cx="95.2" cy="78.8" r="1.5"/>
	<circle class="st5" cx="101.5" cy="78.8" r="1.5"/>
	<path class="st6" d="M107.3,92.4c-0.3-0.1-0.7-0.2-1-0.3l-1-0.2l-1-0.2l-1-0.2c-0.3-0.1-0.6-0.2-1-0.3c-0.3-0.1-0.6-0.2-0.9-0.4
		c-0.3-0.1-0.5-0.3-0.8-0.5c-0.1,0.1-0.2,0.2-0.3,0.2l-0.3,0.2l-0.4,0.2l-0.4,0.2l-0.4,0.2l-0.3,0.3l-0.2,0.2l-0.2-0.2l-0.3-0.3
		l-0.4-0.2l-0.4-0.2l-0.4-0.2l-0.3-0.2c-0.1-0.1-0.2-0.2-0.3-0.2c-0.3,0.2-0.5,0.3-0.8,0.5c-0.3,0.1-0.6,0.3-0.9,0.4
		c-0.3,0.1-0.6,0.2-1,0.3l-1,0.2l-1,0.2l-1,0.2c-0.3,0.1-0.7,0.2-1,0.3c-0.3,0.1-0.7,0.2-1,0.4l2.2,0.8c0.8,0.3,1.7,0.6,2.6,0.9
		s1.9,0.6,2.8,0.9c0.6,0.2,1.1,0.3,1.7,0.4V96l0.6-0.1l0.6,0.1v-0.3c0.6-0.1,1.1-0.3,1.7-0.4c1-0.3,1.9-0.6,2.8-0.9s1.8-0.6,2.6-0.9
		l2.2-0.8C108,92.6,107.7,92.5,107.3,92.4z"/>
	<path class="st0" d="M66.6,64.4c-0.4-3-4.9-7.6-6.8-2.1c-1.6,4.5,3.4,8.6,2.2,13.1c0.6,0.8,1.4,1.5,2.3,2c0.6-1.2,0.9-2.5,1-3.8"/>
	<polygon class="st1" points="94.5,517.3 86.2,517.3 78,517.3 69.7,517.3 61.5,517.3 58,483 57.6,415.1 57.6,368.1 61.5,286.3 
		69.7,286.3 78,286.3 86.2,286.3 94.5,286.3 105.9,285.4 94.6,389.3 94.4,492.1 	"/>
	<path class="st7" d="M154.5,179.8c-8-11.6-23.5-24.2-24.4-38.7c-6.4,4.2-15.3,6.7-24.1,6.8v-1.1c-1.9,0.4-3.7,0.7-5.6,0.9
		c-1.9-0.2-3.8-0.5-5.6-0.9v1.1c-8.9-0.1-17.7-2.6-24.2-6.8c-0.9,14.5-16.4,27.1-24.4,38.7c-12.3,18-16,37.4-14.6,59.1
		c5.1-5.1,22.2-4.4,28.6-1.8c-0.5,10.5-2.3,22.1-2.9,32.4c-0.8,14.5,0.3,18.4,14.6,18.4c7.6,0,15.2,0.1,22.8,0.2v0.2l5.6-0.1
		l5.6,0.1v-0.2c7.6-0.1,15.2-0.2,22.8-0.2c14.3,0,15.4-3.9,14.6-18.4c-0.5-10.3-2.4-21.9-2.9-32.4c6.4-2.6,23.6-3.3,28.6,1.8
		C170.5,217.2,166.9,197.8,154.5,179.8z"/>
	<polygon class="st8" points="89.4,286.4 73.6,321.4 57.8,321.4 57.8,231.9 57.8,150.4 73.6,142.4 73.6,142.4 89.4,231.9 	"/>
	<path class="st8" d="M57.8,150.4c33.7-2.6-2.2,77.5-3.3,100.6c-1.2,26.4,8.8,78.7-30.4,66.5c1.1-54.1,4-109,20.4-160.7"/>
	<polygon class="st8" points="111,286.4 126.8,321.4 142.6,321.4 142.6,231.9 142.6,150.4 126.8,142.4 126.8,142.4 111,231.9 	"/>
	<path class="st8" d="M142.6,150.4c-33.7-2.6,2.2,77.5,3.3,100.6c1.2,26.4-8.9,78.7,30.4,66.5c-1.1-54.1-4-109-20.4-160.7"/>
	<path class="st9" d="M72.8,358.2c3.2,0,3.2-5,0-5S69.6,358.2,72.8,358.2z"/>
	<path class="st9" d="M80.8,367.2c3.2,0,3.2-5,0-5S77.6,367.2,80.8,367.2z"/>
	<path class="st9" d="M70.8,394.2c3.2,0,3.2-5,0-5S67.6,394.2,70.8,394.2z"/>
	<path class="st9" d="M70.8,382.2c3.2,0,3.2-5,0-5S67.6,382.2,70.8,382.2z"/>
	<path class="st9" d="M77.8,383.2c3.2,0,3.2-5,0-5S74.6,383.2,77.8,383.2z"/>
	<path class="st9" d="M80.8,411.2c3.2,0,3.2-5,0-5S77.6,411.2,80.8,411.2z"/>
	<path class="st9" d="M80.8,387.2c3.2,0,3.2-5,0-5S77.6,387.2,80.8,387.2z"/>
	<path class="st9" d="M80.8,393.2c3.2,0,3.2-5,0-5S77.6,393.2,80.8,393.2z"/>
	<path class="st9" d="M76.8,409.2c3.2,0,3.2-5,0-5S73.6,409.2,76.8,409.2z"/>
	<path class="st9" d="M64.8,414.2c3.2,0,3.2-5,0-5S61.6,414.2,64.8,414.2z"/>
	<path class="st9" d="M85.8,436.2c3.2,0,3.2-5,0-5S82.6,436.2,85.8,436.2z"/>
	<path class="st9" d="M71.8,446.2c3.2,0,3.2-5,0-5S68.6,446.2,71.8,446.2z"/>
	<path class="st9" d="M73.8,434.2c3.2,0,3.2-5,0-5S70.6,434.2,73.8,434.2z"/>
	<path class="st9" d="M73.8,434.2c3.2,0,3.2-5,0-5S70.6,434.2,73.8,434.2z"/>
	<path class="st9" d="M84.8,354.2c3.2,0,3.2-5,0-5S81.6,354.2,84.8,354.2z"/>
	<path class="st9" d="M88.8,378.2c3.2,0,3.2-5,0-5S85.6,378.2,88.8,378.2z"/>
	<path class="st9" d="M68.8,367.2c3.2,0,3.2-5,0-5S65.6,367.2,68.8,367.2z"/>
	<path class="st9" d="M57.6,524.5c1.3-1.3,2.1-3,2.2-4.8c0.1-1.8-1-3.5-2.2-4.8c-2.2-2.3-5.8,1.2-3.5,3.5c0.9,1,0.9,1.5,0,2.5
		C51.8,523.2,55.3,526.8,57.6,524.5L57.6,524.5z"/>
	<path class="st9" d="M130.6,200.9C130.6,200.7,130.6,200.7,130.6,200.9c0.1,0.3,0.1,0.5,0.2,0.7c0,0.1,0,0.3,0.1,0.4
		c-0.2-1,0.1,1,0.1,0.5c0.1,1,0.6,1.9,1.5,2.4c0.9,0.5,1.9,0.6,2.8,0.2c0.8-0.2,1.5-0.8,1.8-1.5c0.3-0.6,0.5-1.2,0.8-1.8
		c0.4-1.2,0.6-3-0.2-4.1c-0.6-0.9-1.7-1.5-2.8-1.5c-1.4,0-2.5,1.1-2.5,2.5s1.1,2.5,2.5,2.5c0.3,0-0.9-0.2-0.4,0s-0.7-0.4-0.4-0.1
		c-0.4-0.3-0.5-0.4-0.4-0.3c-0.5-0.5-0.4-0.5-0.2-0.3c-0.2-0.5-0.2-0.6-0.2-0.4s0.1,0.1,0-0.4c0,0.2-0.1,0.8,0,0
		c0,0.3-0.1,0.5-0.2,0.8c-0.1,0.3-0.2,0.6-0.4,0.9l0.9-0.9c0.3-0.1,0.3-0.1,0,0c1-0.2,2,0.4,2.3,1.3c0-0.1,0-0.2-0.1-0.3
		c-0.1-0.5,0.1,0.6,0,0c-0.1-1.1-0.4-2.2-0.9-3.1c-0.7-1.2-2.2-1.6-3.4-0.9C130.3,198.3,129.9,199.8,130.6,200.9L130.6,200.9z"/>
	<path class="st9" d="M121.5,203.9c0.2,0.1,0.4,0.2,0.6,0.4c-0.4-0.3,0.2,0.2,0.2,0.3c0.3,0.4,0.6,0.7,0.9,1
		c1.3,1.1,3.2,1.3,4.8,0.4c0.8-0.4,1.3-1.3,1.2-2.2c0-2.1-0.6-4.2-2.8-5c-0.6-0.2-1.2-0.2-1.8-0.2c-0.3,0-0.5,0-0.8,0
		c0.8,0.1,0.3,0,0.1,0s-0.6-0.2,0,0c-1.2-0.7-2.7-0.3-3.4,0.9c-0.7,1.2-0.3,2.7,0.9,3.4c1.1,0.5,2.3,0.7,3.6,0.7
		c0.6,0-0.5-0.1-0.1,0c0.2,0.1,0.1,0-0.3-0.1c0.4,0.2-0.5-0.5-0.2-0.1c-0.3-0.4-0.3-0.4-0.2-0.2c-0.3-0.6-0.1-0.2-0.1,0s0,0.2,0-0.1
		c0,0.2,0,0.5,0,0.8l1.2-2.2c0.2-0.1,0.2-0.1,0,0c0.3-0.1,0.7,0,1,0.2c-0.4-0.2,0.4,0.4,0,0c-0.1-0.1-0.2-0.2-0.3-0.4
		c-0.6-0.7-1.4-1.4-2.2-1.8c-1.2-0.7-2.7-0.3-3.4,0.9c-0.7,1.2-0.3,2.7,0.9,3.4l0,0L121.5,203.9z"/>
	<path class="st9" d="M126.6,217.4C126.8,217.3,126.8,217.3,126.6,217.4c0-0.1,0.1-0.1,0.2-0.2C126.5,217.4,126.4,217.4,126.6,217.4
		C126.3,217.4,126.2,217.4,126.6,217.4c-0.7-0.1,0.1,0,0.3,0s0.3,0.1,0.1,0l0.5,0.3c1.2,0.7,2.7,0.3,3.4-0.9
		c0.7-1.2,0.3-2.7-0.9-3.4c-1.1-0.6-2.4-1-3.7-1.1c-1.2,0-2.4,0.6-3.3,1.5c-1,1-1,2.6,0,3.5c1,1,2.6,1,3.5,0V217.4z"/>
	<path class="st9" d="M135,210.9c-0.5,0.4-0.9,0.9-1.3,1.5c-0.3,0.7-0.5,1.5-0.5,2.3c0,1.4,1.1,2.5,2.5,2.5s2.5-1.1,2.5-2.5
		c0-0.1,0-0.3,0-0.5s0-0.1-0.1,0.4c0-0.2,0.2-0.5-0.2,0.3c0.2-0.5-0.5,0.5-0.1,0.1c0.2-0.2,0.4-0.4,0.5-0.5c1-1,1-2.6,0-3.5
		C137.6,209.9,136,209.9,135,210.9L135,210.9z"/>
	<polygon class="st10" points="168.5,210.7 160.7,206.9 154.5,179.8 162.3,179.8 	"/>
	<path class="st11" d="M92.5,272.8c1.1,0.5,1.8,1.6,1.8,2.8c0.1,3.2,5.1,3.2,5,0c0-3-1.6-5.7-4.2-7.2c-1.2-0.7-2.7-0.3-3.4,0.9
		C90.9,270.6,91.3,272.1,92.5,272.8L92.5,272.8z"/>
	<path class="st12" d="M128.4,37.7c-0.8-2-1.5-4.1-2.1-6.2c-0.5-2.3-0.8-4.6-0.9-6.9c-0.1-2.4-0.4-4.8-1-7.1
		c-1.5-5.2-5.1-9.5-9.9-11.9c-5-2.5-10.6-3.5-16.1-3c-5.6-0.5-11.1,0.5-16.1,3c-4.8,2.4-8.4,6.7-9.9,11.9c-0.6,2.3-0.9,4.7-1,7.1
		c-0.1,2.3-0.4,4.6-0.9,6.9c-0.6,2.1-1.3,4.2-2.1,6.2s-1.5,4-2.1,6.1c-1.2,4.1-1.6,8.4-1.2,12.7c0.4,4.1,2.6,6.8,2.6,4.9
		c0-2.9,0.2-5.8,0.5-8.6c0.3-2.8,0.9-5.6,1.5-8.3c1.6-6.6,3.7-11.5,7.2-15.3s8.3-6.5,15.3-8.4c2.1-0.5,4.2-0.9,6.3-1.2
		c2.1,0.3,4.2,0.6,6.3,1.2c7,1.9,11.9,4.6,15.3,8.4s5.6,8.8,7.1,15.3c0.7,2.7,1.2,5.5,1.5,8.3c0.3,2.9,0.5,5.7,0.5,8.6
		c0,1.9,2.2-0.8,2.6-4.9c0.4-4.3,0-8.6-1.2-12.7C129.9,41.8,129.1,39.7,128.4,37.7z"/>
	<path class="st12" d="M63.9,63.2l-0.3-0.6C63.4,63.4,63.4,63.7,63.9,63.2z"/>
	<path class="st12" d="M133.2,62.6l-0.3,0.6C133.4,63.7,133.4,63.4,133.2,62.6z"/>
	<path class="st13" d="M143.8,523.7c0-0.4,0.2-3.8,0.8-4.9c0.1,3.2,1.2,6.2,3,8.8c0.6-0.7,0.1-1.9,0.4-2.8c1.6-0.6,2.9-1,4-2.2
		c-2.2-0.8-7.6-3.9-6.1-2"/>
	<path class="st14" d="M129.5,216c3.2,0,3.2-5,0-5S126.3,216,129.5,216z"/>
	<path class="st14" d="M129.5,229.5c3.2,0,3.2-5,0-5S126.3,229.5,129.5,229.5z"/>
	<path class="st14" d="M129.5,211.5c3.2,0,3.2-5,0-5S126.3,211.5,129.5,211.5z"/>
	<path class="st15" d="M132.5,210c3.2,0,3.2-5,0-5S129.3,210,132.5,210z"/>
	<path class="st15" d="M128,198c3.2,0,3.2-5,0-5S124.8,198,128,198z"/>
	<path class="st16" d="M129.5,238.5c3.2,0,3.2-5,0-5S126.3,238.5,129.5,238.5z"/>
	<path class="st16" d="M129.5,213c3.2,0,3.2-5,0-5S126.3,213,129.5,213z"/>
	<path class="st16" d="M135.5,226.5c3.2,0,3.2-5,0-5S132.3,226.5,135.5,226.5z"/>
</g>
</svg>
