<?xml version="1.0" encoding="utf-8"?>
<!-- Generator: Adobe Illustrator 22.0.0, SVG Export Plug-In . SVG Version: 6.00 Build 0)  -->
<svg version="1.1" id="Layer_1" xmlns="http://www.w3.org/2000/svg" xmlns:xlink="http://www.w3.org/1999/xlink" x="0px" y="0px"
	 viewBox="0 0 200 550" style="enable-background:new 0 0 200 550;" xml:space="preserve">
<style type="text/css">
	.st0{fill:#F9C2C4;stroke:#DEAAA7;stroke-miterlimit:10;}
	.st1{fill:#1A1A1A;}
	.st2{fill:#FFFFFF;}
	.st3{fill:#72A4A3;}
	.st4{fill:none;stroke:#DEAAA7;stroke-miterlimit:10;}
	.st5{fill:#AB7D4A;}
	.st6{fill:#FF4000;}
	.st7{fill:#9C5406;}
	.st8{fill:#110B79;}
	.st9{fill:#2E58A6;}
	.st10{fill:none;stroke:#110B79;stroke-miterlimit:10;}
</style>
<g>
	<title>parachutes</title>
	<path class="st0" d="M73.7,93.8c3.3,9.2,10.1,30.1,9.7,41.2c-1.4,5.4-10.4,11.3-16.4,21.8c-1.3,2.2-3.3,3.9-4.7,6.1
		c-5.1,6-12.4,10.8-16.6,17.4c-4.7,7.5-5.3,18-6.8,26.3c-7.1,39.6-10.8,79.8-11,120c0,11.6,1.1,39.7,16.3,40.8
		c11.5,0.8,5.3-6.4,2.7-11.8c-2.9-6.1-3.2-13.1-2.8-20.9c1.9-0.4,3.8-0.4,5.7,0c2,6.9,9,11.6,10.4,2c0.9-6.2-5-8.2-7.2-14.2
		c-2.5-6.6-2.3-16.2-4-24c-2-8.8,3.9-18,4-27.5c0.2-16.6-4-27.2-0.9-42.5c2-9.9,0.7-27.1,6.5-35.3v0.9c-4.2,16.1,0.2,42.3,0.2,58.2
		c0,15.6-0.6,31.4,0.2,46.9c1.8,0.1,3.6,0.3,5.3,0.6l3.1,208.1v2.4c-0.2,0.7-0.3,1.3-0.3,2c-0.4,7.1-4.4,8.8-9.7,12
		c-4.6,2.8-9.9,5.6-15.5,6.8c-4.6,1-12.7-0.3-13.8,5.3c-1.7,7.7,5.9,6.3,10.8,7.1c2.8,0.4,4.9,1.5,7.8,1.6c3.3,0.1,6.6-0.1,9.9-0.7
		c6.6-0.9,13.3-1,20.1-1.7c5.9-0.6,15.4,1.5,16.7-5.3c1.5-8-3.2-15.5-2.3-23l0.1-4.2l0,0v-1.9l0,0L88,303.5c3,0.4,6.1,0.7,9.4,0.8
		v0.1h0.1c0.7,0,1.4,0,2.1,0s1.4,0,2.1,0h0.1v-0.1c3.3-0.1,6.4-0.4,9.4-0.8l-3.1,204.7l0,0v1.8l0,0l0.1,4.2c0.8,7.6-3.8,15-2.3,23
		c1.3,6.8,10.7,4.7,16.7,5.3c6.8,0.7,13.5,0.7,20.1,1.7c3.3,0.5,6.6,0.7,9.9,0.7c2.9-0.1,5-1.2,7.8-1.6c4.9-0.8,12.5,0.6,10.9-7.1
		c-1.2-5.5-9.2-4.3-13.8-5.3c-5.6-1.2-10.8-4-15.5-6.8c-5.2-3.2-9.3-4.8-9.7-12c-0.1-0.7-0.2-1.3-0.4-2v-2.4l3.1-208.1
		c1.7-0.2,3.5-0.4,5.3-0.6c0.8-15.5,0.1-31.3,0.1-46.9c0-15.9,4.4-42.2,0.2-58.2v-0.9c5.8,8.2,4.5,25.4,6.5,35.3
		c3.1,15.2-1.1,25.9-0.9,42.5c0.1,9.5,6,18.7,4,27.5c-1.7,7.8-1.5,17.3-4,24c-2.3,6-8.2,8-7.2,14.2c1.4,9.5,8.4,4.9,10.4-2
		c1.9-0.4,3.8-0.4,5.7,0c0.4,7.8,0.1,14.7-2.9,20.9c-2.6,5.4-8.8,12.6,2.7,11.8c15.2-1.1,16.3-29.2,16.3-40.8
		c-0.2-40.2-3.9-80.4-11-120c-1.5-8.4-2-18.8-6.8-26.3c-4.1-6.6-11.5-11.4-16.6-17.4c-1.4-2.2-5.4-3.9-6.7-6.1
		c-12-20.8-11.8-40.2-11.8-40.2c0.5-8.7,3.6-17.6,5.4-22.8"/>
	<path class="st1" d="M94.1,525.4c-0.8-5.5-2.1-10.5-2.1-14.2c-5.8-0.3-17.2-3.3-22.4-1.1c-2.6,1.1-10.4,7.5-13.3,9.3
		c-3.1,2-5.3,4-8.9,5.2c-0.8,0.3-1.7,0.5-2.6,0.7H32.7c-7.3,0-13.2,8.4-13.2,18.7l0,0c-0.2,2.9,8,2.9,15.3,2.9h57.5l1.9-2.9h0.1
		L94.1,525.4L94.1,525.4z"/>
	<path class="st1" d="M105.2,525.4c0.8-5.5,2.1-10.5,2.1-14.2c5.8-0.3,17.2-3.3,22.4-1.1c2.6,1.1,10.4,7.5,13.3,9.3
		c3.1,2,5.3,4,8.9,5.2c0.8,0.3,1.7,0.5,2.6,0.7h12.2c7.3,0,13.2,8.4,13.2,18.7l0,0c0.2,2.9-8,2.9-15.3,2.9h-57.5l-1.9-2.9h-0.1
		v-18.7H105.2z"/>
	<path class="st0" d="M131.7,64.4c-0.8-6-3.4-11.6-4.4-17.5s-0.4-12-2.8-17.5c-5-11.7-15.5-16-26.3-15.5
		C87.5,13.5,77.1,17.8,72,29.4c-2.4,5.5-1.8,11.7-2.8,17.5s-3.6,11.5-4.4,17.5c-1.4,10.2,5.7,26,11.2,34
		c5.2,7.6,11.5,16.8,20.8,16.9c0.4,0,0.9,0,1.4,0s0.9,0,1.3,0c9.3-0.1,15.6-9.3,20.8-16.9C126,90.4,133.1,74.6,131.7,64.4z"/>
	<path class="st0" d="M129.9,64c0.4-3,4.9-7.6,6.9-2.1c1.6,4.5-3.4,8.6-2.1,13.1c-0.6,0.8-1.4,1.5-2.3,2c-0.6-1.2-0.9-2.5-1-3.8"/>
	<path class="st2" d="M104.4,59.2c8.9-7.1,11.2-3.1,17.8,1.4C117.7,61.8,110.2,64,104.4,59.2"/>
	<path class="st3" d="M117.6,58.7c0-0.5-0.1-1-0.3-1.5c-2.3-1.6-4.4-2.4-7.3-1.4c-1.6,1.8-1.5,4.5,0.2,6.1c0,0,0,0,0,0
		c1.9,0.3,3.9,0.3,5.9,0C117.1,61.1,117.6,60,117.6,58.7z"/>
	<circle class="st1" cx="113.3" cy="58.9" r="1.5"/>
	<path class="st4" d="M105.5,62.8c2.9,2.1,6.2,2.6,9.5,3.4"/>
	<path class="st4" d="M100.5,51.5c3.2-0.5,6.6-3.2,9.7-3.3c4.1-0.1,6,2.3,9.7,3.3"/>
	<path class="st2" d="M90.2,59.5c-8.9-7.1-11.2-3.1-17.8,1.4C77,62.1,84.4,64.3,90.2,59.5"/>
	<path class="st3" d="M77,59c0-0.5,0.1-1,0.3-1.5c2.3-1.6,4.4-2.4,7.3-1.4c1.6,1.8,1.5,4.5-0.2,6.1c0,0,0,0,0,0
		c-1.9,0.3-3.9,0.3-5.9,0C77.5,61.4,77,60.2,77,59z"/>
	<circle class="st1" cx="81.3" cy="59.2" r="1.5"/>
	<path class="st4" d="M89.1,63c-2.9,2.1-6.2,2.6-9.5,3.4"/>
	<path class="st4" d="M94.1,51.7c-3.2-0.5-6.6-3.2-9.7-3.3c-4.1-0.1-6,2.3-9.7,3.3"/>
	<circle class="st5" cx="94.9" cy="78.4" r="1.5"/>
	<circle class="st5" cx="101.2" cy="78.4" r="1.5"/>
	<path class="st6" d="M107,92c-0.3-0.1-0.7-0.2-1-0.3l-1-0.2l-1-0.2l-1-0.2c-0.3-0.1-0.6-0.2-1-0.3c-0.3-0.1-0.6-0.2-0.9-0.4
		c-0.3-0.1-0.5-0.3-0.8-0.5c-0.1,0.1-0.2,0.2-0.3,0.2l-0.3,0.2l-0.4,0.2L99,90.8L98.7,91l-0.3,0.3l-0.2,0.2l-0.2-0.2L97.6,91
		l-0.4-0.2l-0.4-0.2l-0.4-0.2l-0.3-0.2c-0.1-0.1-0.2-0.2-0.3-0.2c-0.3,0.2-0.5,0.3-0.8,0.5c-0.3,0.1-0.6,0.3-0.9,0.4
		c-0.3,0.1-0.6,0.2-1,0.3l-1,0.2l-1,0.2l-1,0.2c-0.3,0.1-0.7,0.2-1,0.3c-0.3,0.1-0.7,0.2-1,0.4l2.2,0.8c0.8,0.3,1.7,0.6,2.6,0.9
		s1.9,0.6,2.8,0.9c0.6,0.2,1.1,0.3,1.7,0.4v0.3l0.6-0.1l0.6,0.1v-0.3c0.6-0.1,1.1-0.3,1.7-0.4c1-0.3,1.9-0.6,2.8-0.9
		s1.8-0.6,2.6-0.9l2.2-0.8C107.7,92.2,107.4,92.1,107,92z"/>
	<path class="st0" d="M66.2,64c-0.4-3-4.9-7.6-6.8-2.1c-1.6,4.5,3.4,8.6,2.2,13.1c0.6,0.8,1.4,1.5,2.3,2c0.6-1.2,0.9-2.5,1-3.8"/>
	<path class="st7" d="M89.5,25.2c0.4,1.1,1.3,2,2.4,2.3c1,0.1,2.1-0.1,3-0.5c1.1-0.4,2.2-0.8,3.4-1c1.2-0.2,2.4,0,3.4,0.7
		c0.4-0.3,0.8-0.7,1.2-0.9c0.4-0.2,0.9-0.5,1.3-0.7c0.4-0.2,0.9-0.4,1.3-0.7c0.4-0.3,0.8-0.6,1.1-1c0.8,0.3,1.6,0.5,2.4,0.7
		s1.6,0.4,2.4,0.5s1.6,0.2,2.5,0.3s1.7,0.1,2.6,0.2c1.5,2.8,2.7,5.6,3.8,8.5c1.1,2.9,2,5.7,3,8.6s1.8,5.8,2.9,8.7s3.2,5.8,4.6,8.7
		c0.2-6.2-0.8-12.4-1.5-18.2c-0.5-5.5-1.9-10.8-4.2-15.8c-2.2-4.6-5.7-8.4-10.1-10.9c-4.6-2.6-10.6-4-18.3-3.7
		c-2.9,0.1-5.9,0.4-8.7,1.1c-2.5,0.6-4.9,1.5-7.1,2.8c-2.1,1.2-4,2.8-5.7,4.6c-1.8,2-3.3,4.2-4.5,6.5c-0.7,1.3-1.4,2.6-2.2,4
		s-1.5,2.8-2.2,4.2s-0.4,2.9-1,4.4s-0.1,3-0.4,4.5c-0.3,1.8-0.3,3.6-0.2,5.4c0,1.4-0.5,10,0,11.7c0.5-1.1,2.6-5.1,3.5-8.4
		s0.4-6.2,1.4-10.1s1.8-7.8,2.3-10.7s2.9-4.8,2.8-4.9"/>
	<polygon class="st8" points="94.2,516.9 85.9,516.9 77.7,516.9 69.4,516.9 61.2,516.9 57.7,482.7 57.3,414.7 57.3,367.7 
		61.2,285.9 69.4,285.9 77.7,285.9 85.9,285.9 94.2,285.9 105.5,285.1 94.3,388.9 94.1,491.7 	"/>
	<polygon class="st8" points="106.4,516.9 114.7,516.9 122.9,516.9 131.2,516.9 139.4,516.9 142.9,482.7 143.3,414.7 143.3,367.7 
		139.4,285.9 131.2,285.9 122.9,285.9 114.7,285.9 106.4,285.9 95.1,285.1 106.3,388.9 106.5,491.7 	"/>
	<path class="st9" d="M180.2,266.8c-0.9-18.1-3.4-35.9-8.9-51c-2.3-6.3-4.4-13-7.2-19.5s-6.2-12.6-11-17.6
		c-2.6-2.8-27.3-32.8-25.8-34.1s1.1-2.5,2.8-3.5c0.3-4,0.3-8,0-12.1c-0.2-3.9-1.1-7.8-2.9-11.3l-12,1l-12,1
		c-1.5,2.7-2.7,5.7-3.3,8.8c-0.7-3.1-1.8-6-3.3-8.8l-12-1l-12-1c-1.7,3.5-2.7,7.4-2.8,11.3c-0.3,4-0.3,8,0,12.1
		c1.7,1.1,1.3,2.2,2.8,3.5S49.6,176,46.9,178.7c-4.8,5-8.2,11.1-11,17.6s-5,13.2-7.2,19.5c-5.5,15.2-8,33-8.9,51s-0.1,36.5,0.9,52.9
		c0.2,2.5,0.5,5,1.1,7.4c0.5,2.3,1.3,4.5,2.1,7.2c3.3-2.5,10.8-1.7,17.9-1.3s13.5,0.4,14.9-3.5c0.5-1.4-0.6-4.4-2-7.5
		s-2.8-6.4-3.1-8.2c-0.4-3.3-0.4-6.5-0.2-9.8c0.2-3.3,0.4-6.6,0.2-9.9c-0.6-12,3.5-20.6,3.4-32.6s-4.1-27.4-0.4-38.6
		c-0.5,4.1-0.3,8.3,0.6,12.3c0.8,4.1,1.8,8.1,2.4,11.9c0.7,4.8,1,9.6,1,14.5c0.1,5,0,10,0,14.9c0,7.9-0.7,17.9-0.6,27.8
		s0.9,19.6,3.8,27c6.5-0.3,12.4,1.1,18.3,2.5c5.9,1.4,11.8,2.7,18.4,2.4c0.5-0.4,1-0.9,1.5-1.3c0.5,0.5,1,0.9,1.5,1.3
		c6.6,0.3,12.5-1,18.4-2.4s11.8-2.8,18.3-2.5c2.9-7.4,3.7-17.1,3.8-27s-0.6-19.9-0.6-27.8c0-4.9-0.1-10,0-14.9c0-4.9,0.3-9.7,1-14.5
		c0.6-3.8,1.6-7.8,2.4-11.9c0.9-4,1.1-8.2,0.6-12.3c3.7,11.2-0.4,26.6-0.4,38.6s4.1,20.7,3.4,32.6c-0.2,3.2,0.1,6.5,0.2,9.9
		c0.2,3.3,0.2,6.6-0.2,9.8c-0.2,1.8-1.8,5-3.1,8.2s-2.4,6.2-2,7.5c1.4,3.9,7.9,3.8,14.9,3.5s14.5-1.1,17.9,1.3
		c0.9-2.7,1.6-4.9,2.1-7.2c0.6-2.4,0.9-4.9,1.1-7.4C180.4,303.3,181.1,284.9,180.2,266.8z"/>
	<line class="st10" x1="100.3" y1="147.3" x2="100.3" y2="317.1"/>
</g>
</svg>
