<svg id="Layer_1" data-name="Layer 1" xmlns="http://www.w3.org/2000/svg" viewBox="0 0 300 660"><defs><style>.cls-1{fill:#f9c2c4;}.cls-1,.cls-5{stroke:#deaaa7;}.cls-1,.cls-11,.cls-5{stroke-miterlimit:10;}.cls-2{fill:#1a1a1a;}.cls-3{fill:#fff;}.cls-4{fill:#72a4a3;}.cls-11,.cls-5{fill:none;}.cls-6{fill:#ab7d4a;}.cls-7{fill:#ff4000;}.cls-8{fill:#9c5406;}.cls-9{fill:#110b79;}.cls-10{fill:#2e58a6;}.cls-11{stroke:#110b79;}</style></defs><title>parachutes</title><path class="cls-1" d="M123.73,162.77C127,172,133.81,192.82,133.41,204c-1.43,5.41-10.36,11.33-16.37,21.81-1.28,2.22-3.29,3.94-4.7,6.12-5.07,6-12.45,10.79-16.6,17.36-4.71,7.47-5.27,18-6.75,26.31a706.9,706.9,0,0,0-11,120c0,11.59,1.08,39.7,16.27,40.78,11.54.82,5.28-6.43,2.73-11.78-2.92-6.11-3.25-13.09-2.85-20.85a12.62,12.62,0,0,1,5.67,0c2,6.92,9,11.56,10.39,2,.94-6.22-5-8.22-7.22-14.22-2.52-6.65-2.26-16.19-4-24-2-8.81,3.91-18,4-27.47.16-16.6-4-27.25-.95-42.49,2-9.94.71-27.12,6.5-35.33v.86c-4.17,16.06.21,42.31.21,58.22,0,15.56-.63,31.36.15,46.85,1.81.15,3.58.34,5.32.56l3.12,208.09,0,2.39a13.25,13.25,0,0,0-.35,2c-.4,7.12-4.45,8.79-9.7,12-4.64,2.81-9.87,5.62-15.46,6.78-4.64,1-12.65-.28-13.84,5.26-1.65,7.67,5.93,6.32,10.85,7.08,2.78.43,4.88,1.47,7.82,1.59a56.08,56.08,0,0,0,9.91-.66c6.58-.94,13.29-1,20.1-1.68,5.94-.6,15.38,1.53,16.66-5.3,1.5-8-3.17-15.46-2.33-23l.07-4.19h0V577.2h0l-3.07-204.72c3,.38,6.15.66,9.42.8v.1h.12c.71,0,1.4,0,2.09,0s1.38,0,2.09,0h.12v-.1c3.27-.14,6.4-.42,9.42-.8l-3.07,204.72h0V579h0l.07,4.19c.83,7.57-3.83,15-2.33,23,1.28,6.83,10.72,4.7,16.66,5.3,6.81.69,13.52.74,20.1,1.68a56.08,56.08,0,0,0,9.91.66c2.94-.12,5-1.17,7.82-1.59,4.93-.75,12.5.59,10.85-7.08-1.19-5.54-9.2-4.3-13.84-5.26-5.59-1.15-10.82-4-15.46-6.78-5.25-3.17-9.3-4.84-9.7-12a13.25,13.25,0,0,0-.35-2l0-2.39,3.12-208.09c1.74-.22,3.51-.41,5.32-.56.79-15.49.15-31.29.15-46.85,0-15.91,4.39-42.16.21-58.22v-.86c5.79,8.21,4.49,25.39,6.5,35.33,3.08,15.24-1.11,25.89-.95,42.49.09,9.52,6,18.67,4,27.47-1.74,7.79-1.49,17.32-4,24-2.27,6-8.16,8-7.22,14.22,1.44,9.52,8.36,4.87,10.39-2a12.62,12.62,0,0,1,5.67,0c.4,7.76.07,14.73-2.85,20.85-2.55,5.35-8.81,12.6,2.73,11.78,15.19-1.08,16.29-29.19,16.27-40.78a706.89,706.89,0,0,0-11-120c-1.47-8.35-2-18.84-6.75-26.31-4.15-6.57-11.52-11.36-16.6-17.36-1.41-2.18-5.43-3.89-6.7-6.12-12-20.84-11.82-40.19-11.82-40.19.5-8.74,3.56-17.61,5.4-22.81"/><path class="cls-2" d="M144.15,594.43c-.8-5.48-2.09-10.5-2.12-14.2-5.78-.27-17.16-3.31-22.42-1.06-2.57,1.1-10.44,7.47-13.28,9.32-3.08,2-5.29,4-8.88,5.22-.79.26-1.68.49-2.64.72H82.66c-7.3,0-13.22,8.36-13.22,18.69h0c-.2,2.88,8,2.89,15.28,2.89h57.51l1.95-2.89h.06V594.43Z"/><path class="cls-2" d="M155.23,594.43c.8-5.48,2.09-10.5,2.12-14.2,5.78-.27,17.16-3.31,22.42-1.06,2.57,1.1,10.44,7.47,13.28,9.32,3.08,2,5.29,4,8.88,5.22.79.26,1.68.49,2.64.72h12.16c7.3,0,13.22,8.36,13.22,18.69h0c.2,2.88-8,2.89-15.28,2.89H157.13l-1.95-2.89h-.06V594.43Z"/><path class="cls-1" d="M181.73,133.37c-.81-6-3.45-11.56-4.41-17.47s-.39-12-2.75-17.47c-5-11.67-15.47-16-26.26-15.46-10.79-.51-21.22,3.79-26.26,15.46-2.37,5.49-1.82,11.69-2.75,17.47s-3.6,11.5-4.41,17.47c-1.39,10.25,5.73,26,11.23,34,5.25,7.63,11.5,16.82,20.84,16.93.45,0,.9,0,1.35,0s.89,0,1.34,0c9.34-.1,15.6-9.29,20.84-16.93C176,159.4,183.11,143.62,181.73,133.37Z"/><path class="cls-1" d="M179.88,133c.37-3,4.87-7.62,6.85-2.09,1.61,4.5-3.41,8.61-2.15,13.08a8.19,8.19,0,0,1-2.29,2,10.06,10.06,0,0,1-1-3.83"/><path class="cls-3" d="M154.4,128.23c8.9-7.09,11.23-3.09,17.79,1.44-4.52,1.15-12,3.36-17.79-1.44"/><path class="cls-4" d="M167.65,127.74a4.36,4.36,0,0,0-.29-1.54c-2.32-1.56-4.39-2.37-7.27-1.41a4.34,4.34,0,0,0,.27,6.17,19.14,19.14,0,0,0,5.85,0A4.34,4.34,0,0,0,167.65,127.74Z"/><circle class="cls-2" cx="163.29" cy="127.92" r="1.5"/><path class="cls-5" d="M155.49,131.81c2.85,2.14,6.18,2.65,9.47,3.36"/><path class="cls-5" d="M150.54,120.46c3.16-.52,6.59-3.19,9.68-3.27,4.06-.1,6,2.3,9.68,3.27"/><path class="cls-3" d="M140.23,128.47c-8.9-7.09-11.23-3.09-17.79,1.44,4.52,1.15,12,3.36,17.79-1.44"/><path class="cls-4" d="M127,128a4.34,4.34,0,0,1,.28-1.54c2.32-1.56,4.39-2.37,7.27-1.41a4.34,4.34,0,0,1-.27,6.17,19.12,19.12,0,0,1-5.85,0A4.34,4.34,0,0,1,127,128Z"/><circle class="cls-2" cx="131.34" cy="128.16" r="1.5"/><path class="cls-5" d="M139.14,132c-2.85,2.14-6.18,2.64-9.48,3.36"/><path class="cls-5" d="M144.09,120.7c-3.16-.52-6.59-3.19-9.68-3.27-4.06-.1-6,2.3-9.68,3.27"/><circle class="cls-6" cx="144.91" cy="147.43" r="1.49"/><circle class="cls-6" cx="151.22" cy="147.43" r="1.49"/><path class="cls-7" d="M157,161c-.33-.11-.67-.21-1-.3l-1-.24-1-.22-1-.23c-.33-.08-.65-.17-1-.28a7.32,7.32,0,0,1-.89-.36,5.23,5.23,0,0,1-.8-.48,2,2,0,0,1-.26.24l-.32.22-.35.21-.36.21-.36.23-.34.26-.19.19-.19-.19-.34-.26-.36-.23-.36-.21-.35-.21-.32-.22a2.1,2.1,0,0,1-.26-.24,5.18,5.18,0,0,1-.8.48,7.38,7.38,0,0,1-.89.36c-.31.11-.63.2-1,.28l-1,.23-1,.22-1,.24c-.34.09-.68.19-1,.3a8.79,8.79,0,0,0-1,.39l2.16.79c.8.29,1.67.6,2.59.91s1.87.61,2.84.88c.56.16,1.13.3,1.69.43l0,.27.62-.13.62.13,0-.27c.57-.13,1.13-.27,1.7-.43,1-.27,1.92-.57,2.84-.88s1.79-.62,2.59-.91l2.16-.79A8.79,8.79,0,0,0,157,161Z"/><path class="cls-1" d="M116.25,133c-.37-3-4.87-7.62-6.85-2.09-1.61,4.5,3.41,8.61,2.15,13.08a8.21,8.21,0,0,0,2.29,2,10,10,0,0,0,1-3.83"/><path class="cls-8" d="M139.52,94.15a3.42,3.42,0,0,0,2.41,2.26,6.11,6.11,0,0,0,3-.5,18.75,18.75,0,0,1,3.35-1,4.53,4.53,0,0,1,3.43.74,6.16,6.16,0,0,1,1.2-.9c.42-.25.86-.46,1.3-.68a13,13,0,0,0,1.28-.7,5.31,5.31,0,0,0,1.14-1c.78.29,1.57.53,2.36.74s1.6.38,2.41.52,1.65.25,2.5.33,1.72.14,2.61.19a73.58,73.58,0,0,1,3.82,8.52c1.09,2.86,2,5.72,3,8.6s1.84,5.77,2.87,8.66,3.18,5.79,4.58,8.69c.21-6.18-.83-12.37-1.49-18.17a48.25,48.25,0,0,0-4.19-15.8A24.58,24.58,0,0,0,165,83.7c-4.61-2.58-10.57-4-18.27-3.7A42.42,42.42,0,0,0,138,81.11a26.9,26.9,0,0,0-7.1,2.79,23.65,23.65,0,0,0-5.7,4.59A30.77,30.77,0,0,0,120.71,95c-.67,1.28-1.4,2.61-2.15,4s-1.5,2.77-2.22,4.2-.39,2.89-1,4.37-.08,3-.43,4.48a27,27,0,0,0-.22,5.38c0,1.41-.46,10,0,11.71.46-1.1,2.64-5.06,3.52-8.44s.45-6.16,1.37-10.12,1.77-7.81,2.35-10.68,2.9-4.79,2.77-4.9"/><polygon class="cls-9" points="144.16 585.89 135.91 585.89 127.66 585.89 119.41 585.89 111.16 585.89 107.66 551.68 107.27 483.69 107.27 436.69 111.16 354.89 119.41 354.89 127.66 354.89 135.91 354.89 144.16 354.89 155.54 354.06 144.34 457.89 144.09 560.69 144.16 585.89"/><polygon class="cls-9" points="156.45 585.89 164.7 585.89 172.95 585.89 181.2 585.89 189.45 585.89 192.95 551.68 193.34 483.69 193.34 436.69 189.45 354.89 181.2 354.89 172.95 354.89 164.7 354.89 156.45 354.89 145.07 354.06 156.27 457.89 156.52 560.69 156.45 585.89"/><path class="cls-10" d="M230.24,335.79c-.89-18.08-3.43-35.86-8.93-51-2.27-6.28-4.45-13-7.25-19.46s-6.23-12.55-11-17.55c-2.65-2.77-27.26-32.85-25.76-34.14s1.15-2.46,2.84-3.53a93.6,93.6,0,0,0,0-12.06,28.85,28.85,0,0,0-2.85-11.3l-12,1-12,1a31.14,31.14,0,0,0-3.31,8.79,31.14,31.14,0,0,0-3.31-8.79l-12-1-12-1a28.85,28.85,0,0,0-2.85,11.3,93.42,93.42,0,0,0,0,12.06c1.69,1.07,1.35,2.24,2.84,3.53S99.59,245,96.94,247.73c-4.78,5-8.21,11.12-11,17.55s-5,13.19-7.25,19.46c-5.5,15.19-8,33-8.93,51s-.14,36.47.94,52.88a43.19,43.19,0,0,0,1.1,7.39c.54,2.29,1.26,4.54,2.12,7.21,3.35-2.45,10.85-1.71,17.86-1.32s13.53.41,14.93-3.46c.49-1.37-.64-4.39-2-7.53s-2.82-6.38-3.06-8.19a54,54,0,0,1-.18-9.81c.16-3.31.39-6.62.23-9.85-.61-12,3.46-20.62,3.45-32.63s-4.11-27.36-.45-38.59a36.43,36.43,0,0,0,.56,12.31c.76,4.1,1.82,8.13,2.39,11.91a108,108,0,0,1,1,14.5c.08,5,0,10,0,14.91,0,7.92-.67,17.92-.6,27.78s.88,19.59,3.77,27c6.51-.28,12.38,1.12,18.27,2.49s11.8,2.74,18.38,2.41a16.89,16.89,0,0,0,1.48-1.32,16.74,16.74,0,0,0,1.48,1.32c6.58.33,12.49-1,18.38-2.41s11.77-2.77,18.27-2.49c2.89-7.37,3.7-17.09,3.77-27s-.58-19.86-.6-27.78c0-4.92-.12-9.95,0-14.91a108.08,108.08,0,0,1,1-14.5c.57-3.77,1.64-7.8,2.39-11.9a36.43,36.43,0,0,0,.56-12.31c3.66,11.24-.43,26.58-.45,38.59s4.05,20.68,3.45,32.63c-.16,3.23.07,6.54.23,9.85a53.91,53.91,0,0,1-.18,9.81c-.24,1.8-1.75,5.05-3.06,8.19s-2.45,6.16-2,7.53c1.4,3.87,7.92,3.84,14.93,3.46s14.51-1.13,17.86,1.32c.86-2.67,1.58-4.93,2.12-7.21a43.14,43.14,0,0,0,1.1-7.39C230.39,372.26,231.14,353.87,230.24,335.79Z"/><line class="cls-11" x1="150.31" y1="216.33" x2="150.31" y2="386.06"/></svg>