<svg id="Layer_1" data-name="Layer 1" xmlns="http://www.w3.org/2000/svg" viewBox="0 0 300 660"><defs><style>.cls-1{fill:#f9c2c4;}.cls-1,.cls-5{stroke:#deaaa7;stroke-miterlimit:10;}.cls-2{fill:#1a1a1a;}.cls-3{fill:#fff;}.cls-4{fill:#72a4a3;}.cls-5{fill:none;}.cls-6{fill:#ab7d4a;}.cls-7{fill:#ff4000;}.cls-8{fill:#243776;}.cls-9{fill:#f24aa2;}.cls-10{fill:#7c411e;}.cls-11{fill:#310d0a;opacity:0.05;}</style></defs><title>viva</title><path class="cls-1" d="M124,176.24c3.28,9.24,10.07,30.05,9.68,41.19-1.43,5.41-10.36,11.33-16.37,21.81-1.28,2.22-3.29,3.94-4.7,6.12-5.07,6-12.45,10.79-16.6,17.36-4.71,7.47-5.27,18-6.75,26.31a706.88,706.88,0,0,0-11,120c0,11.59,1.08,39.7,16.27,40.78,11.54.82,5.28-6.43,2.73-11.78-2.92-6.11-3.25-13.09-2.85-20.85a12.62,12.62,0,0,1,5.67,0c2,6.92,9,11.56,10.39,2,.94-6.22-5-8.22-7.22-14.22-2.52-6.65-2.26-16.19-4-24-2-8.81,3.91-18,4-27.47.16-16.6-4-27.25-.95-42.49,2-9.94.71-27.12,6.5-35.33v.86c-4.17,16.06.21,42.31.21,58.22,0,15.56-.63,31.36.15,46.85,1.81.15,3.58.34,5.32.56l3.12,208.09,0,2.39a13.25,13.25,0,0,0-.35,2c-.4,7.12-4.45,8.79-9.7,12-4.64,2.81-9.87,5.62-15.46,6.78-4.64,1-12.65-.28-13.84,5.26-1.65,7.67,5.93,6.32,10.85,7.08,2.78.43,4.88,1.47,7.82,1.59a56.08,56.08,0,0,0,9.91-.66c6.58-.94,13.29-1,20.1-1.68,5.94-.6,15.38,1.53,16.66-5.3,1.5-8-3.17-15.46-2.33-23l.07-4.19h0v-1.84h0l-3.07-204.72c3,.38,6.15.66,9.42.8v.1h.12c.71,0,1.4,0,2.09,0s1.38,0,2.09,0h.12v-.1c3.27-.14,6.4-.42,9.42-.8l-3.07,204.72h0v1.84h0l.07,4.19c.83,7.57-3.83,15-2.33,23,1.28,6.83,10.72,4.7,16.66,5.3,6.81.69,13.52.74,20.1,1.68a56.08,56.08,0,0,0,9.91.66c2.94-.12,5-1.17,7.82-1.59,4.93-.75,12.5.59,10.85-7.08-1.19-5.54-9.2-4.3-13.84-5.26-5.59-1.15-10.82-4-15.46-6.78-5.25-3.17-9.3-4.84-9.7-12a13.25,13.25,0,0,0-.35-2l0-2.39,3.12-208.09c1.74-.22,3.51-.41,5.32-.56.79-15.49.15-31.29.15-46.85,0-15.91,4.39-42.15.21-58.22v-.86c5.79,8.21,4.49,25.39,6.5,35.33,3.08,15.24-1.11,25.89-.95,42.49.09,9.52,6,18.67,4,27.47-1.74,7.79-1.49,17.32-4,24-2.27,6-8.16,8-7.22,14.22,1.44,9.52,8.36,4.87,10.39-2a12.62,12.62,0,0,1,5.67,0c.4,7.76.07,14.73-2.85,20.85-2.55,5.35-8.81,12.6,2.73,11.78,15.19-1.08,16.29-29.19,16.27-40.78a706.87,706.87,0,0,0-11-120c-1.47-8.35-2-18.84-6.75-26.31-4.15-6.57-11.52-11.36-16.6-17.36-1.41-2.18-5.43-3.89-6.7-6.12-12-20.84-11.82-40.19-11.82-40.19.5-8.74,3.56-17.61,5.4-22.81"/><polygon class="cls-2" points="156.76 599.36 165.01 599.36 173.26 599.36 181.51 599.36 189.76 599.36 193.26 565.16 193.65 497.17 193.65 450.17 189.76 368.36 181.51 368.36 173.26 368.36 165.01 368.36 156.76 368.36 145.38 367.53 156.58 471.36 156.82 574.17 156.76 599.36"/><path class="cls-2" d="M144.46,607.9c-.8-5.48-2.09-10.5-2.12-14.2-5.78-.27-17.16-3.31-22.42-1.06-2.57,1.1-10.44,7.47-13.28,9.32-3.08,2-5.29,4-8.88,5.22-.79.26-1.68.49-2.64.72H83c-7.3,0-13.22,8.36-13.22,18.69h0c-.2,2.88,8,2.89,15.28,2.89h57.51l1.95-2.89h.06V607.9Z"/><path class="cls-2" d="M155.54,607.9c.8-5.48,2.09-10.5,2.12-14.2,5.78-.27,17.16-3.31,22.42-1.06,2.57,1.1,10.44,7.47,13.28,9.32,3.08,2,5.29,4,8.88,5.22.79.26,1.68.49,2.64.72H217c7.3,0,13.22,8.36,13.22,18.69h0c.2,2.88-8,2.89-15.28,2.89H157.44l-1.95-2.89h-.06V607.9Z"/><path class="cls-1" d="M182,146.85c-.81-6-3.45-11.56-4.41-17.47s-.39-12-2.75-17.47c-5-11.67-15.47-16-26.26-15.46-10.79-.51-21.22,3.79-26.26,15.46-2.37,5.49-1.82,11.69-2.75,17.47s-3.6,11.5-4.41,17.47c-1.39,10.25,5.73,26,11.22,34,5.25,7.63,11.5,16.82,20.84,16.93.45,0,.9,0,1.35,0s.89,0,1.34,0c9.34-.1,15.6-9.29,20.84-16.93C176.3,172.88,183.42,157.1,182,146.85Z"/><path class="cls-1" d="M180.19,146.44c.37-3,4.87-7.62,6.85-2.09,1.61,4.5-3.41,8.61-2.15,13.08a8.2,8.2,0,0,1-2.29,2,10.06,10.06,0,0,1-1-3.83"/><path class="cls-3" d="M154.71,141.71c8.9-7.09,11.23-3.09,17.79,1.44-4.52,1.15-12,3.36-17.79-1.44"/><path class="cls-4" d="M168,141.22a4.36,4.36,0,0,0-.29-1.54c-2.32-1.56-4.39-2.37-7.27-1.41a4.34,4.34,0,0,0,.27,6.17,19.14,19.14,0,0,0,5.85,0A4.34,4.34,0,0,0,168,141.22Z"/><circle class="cls-2" cx="163.6" cy="141.4" r="1.5"/><path class="cls-5" d="M155.8,145.28c2.85,2.14,6.18,2.65,9.47,3.36"/><path class="cls-5" d="M150.85,133.94c3.16-.52,6.59-3.19,9.68-3.27,4.06-.1,6,2.3,9.68,3.27"/><path class="cls-3" d="M140.54,141.95c-8.9-7.09-11.23-3.09-17.79,1.44,4.52,1.15,12,3.36,17.79-1.44"/><path class="cls-4" d="M127.29,141.46a4.33,4.33,0,0,1,.29-1.54c2.32-1.56,4.39-2.37,7.27-1.41a4.34,4.34,0,0,1-.27,6.17,19.12,19.12,0,0,1-5.85,0A4.34,4.34,0,0,1,127.29,141.46Z"/><circle class="cls-2" cx="131.65" cy="141.64" r="1.5"/><path class="cls-5" d="M139.45,145.52c-2.85,2.14-6.18,2.64-9.47,3.36"/><path class="cls-5" d="M144.4,134.18c-3.16-.52-6.59-3.19-9.68-3.27-4.06-.1-6,2.3-9.68,3.27"/><circle class="cls-6" cx="145.22" cy="160.91" r="1.49"/><circle class="cls-6" cx="151.53" cy="160.91" r="1.49"/><path class="cls-7" d="M157.29,174.51c-.33-.11-.67-.21-1-.3l-1-.24-1-.22-1-.23c-.33-.08-.65-.17-1-.28a7.3,7.3,0,0,1-.89-.36,5.22,5.22,0,0,1-.8-.48,2,2,0,0,1-.26.24l-.32.22-.35.21-.36.21-.36.23-.34.26-.19.19-.19-.19-.34-.26-.36-.23-.36-.21-.35-.21-.32-.22a2.1,2.1,0,0,1-.26-.24,5.17,5.17,0,0,1-.8.48,7.37,7.37,0,0,1-.89.36c-.31.11-.63.2-1,.28l-1,.23-1,.22-1,.24c-.34.09-.68.19-1,.3a8.81,8.81,0,0,0-1,.39l2.16.79c.8.29,1.67.6,2.59.91s1.87.61,2.84.88c.56.16,1.13.3,1.69.43l0,.27.62-.13.62.13,0-.27c.57-.13,1.13-.27,1.7-.43,1-.27,1.92-.57,2.84-.88s1.79-.62,2.59-.91l2.16-.79A8.81,8.81,0,0,0,157.29,174.51Z"/><path class="cls-1" d="M116.56,146.44c-.37-3-4.87-7.62-6.85-2.09-1.61,4.5,3.41,8.61,2.15,13.08a8.23,8.23,0,0,0,2.29,2,10,10,0,0,0,1-3.83"/><path class="cls-8" d="M120.58,223.24c33.67-2.65-15,86.8-16.08,109.93-1.2,26.37,8.85,78.69-30.4,66.52,1.12-54.11,9-109,25.4-160.72"/><path class="cls-8" d="M180.14,223.24c-33.67-2.65,14.73,86.8,15.78,109.93,1.2,26.37-8.85,78.69,30.4,66.52-1.12-54.11-9-109-25.4-160.72"/><path class="cls-9" d="M122.8,440.29c3.22,0,3.22-5,0-5s-3.22,5,0,5Z"/><path class="cls-9" d="M130.8,449.29c3.22,0,3.22-5,0-5s-3.22,5,0,5Z"/><path class="cls-9" d="M120.8,476.29c3.22,0,3.22-5,0-5s-3.22,5,0,5Z"/><path class="cls-9" d="M120.8,464.29c3.22,0,3.22-5,0-5s-3.22,5,0,5Z"/><path class="cls-9" d="M127.8,465.29c3.22,0,3.22-5,0-5s-3.22,5,0,5Z"/><path class="cls-9" d="M130.8,493.29c3.22,0,3.22-5,0-5s-3.22,5,0,5Z"/><path class="cls-9" d="M130.8,469.29c3.22,0,3.22-5,0-5s-3.22,5,0,5Z"/><path class="cls-9" d="M130.8,475.29c3.22,0,3.22-5,0-5s-3.22,5,0,5Z"/><path class="cls-9" d="M126.8,491.29c3.22,0,3.22-5,0-5s-3.22,5,0,5Z"/><path class="cls-9" d="M114.8,496.29c3.22,0,3.22-5,0-5s-3.22,5,0,5Z"/><path class="cls-9" d="M135.8,518.29c3.22,0,3.22-5,0-5s-3.22,5,0,5Z"/><path class="cls-9" d="M121.8,528.29c3.22,0,3.22-5,0-5s-3.22,5,0,5Z"/><path class="cls-9" d="M123.8,516.29c3.22,0,3.22-5,0-5s-3.22,5,0,5Z"/><path class="cls-9" d="M123.8,516.29c3.22,0,3.22-5,0-5s-3.22,5,0,5Z"/><path class="cls-9" d="M134.8,436.29c3.22,0,3.22-5,0-5s-3.22,5,0,5Z"/><path class="cls-9" d="M138.8,460.29c3.22,0,3.22-5,0-5s-3.22,5,0,5Z"/><path class="cls-9" d="M118.8,449.29c3.22,0,3.22-5,0-5s-3.22,5,0,5Z"/><path class="cls-10" d="M178.39,122a60.27,60.27,0,0,1-2.11-5.67,29.67,29.67,0,0,1-.87-6.32,26.79,26.79,0,0,0-1-6.46,18.41,18.41,0,0,0-9.89-10.88A32.35,32.35,0,0,0,148.37,90a32.35,32.35,0,0,0-16.14,2.7,18.41,18.41,0,0,0-9.89,10.88,26.75,26.75,0,0,0-1,6.46,29.78,29.78,0,0,1-.87,6.32,60.52,60.52,0,0,1-2.11,5.67c-.76,1.85-1.52,3.69-2.1,5.61a29.34,29.34,0,0,0-1.21,11.59c.37,3.77,2.55,6.22,2.55,4.47a60.16,60.16,0,0,1,.5-7.88,61.73,61.73,0,0,1,1.52-7.63c1.57-6,3.67-10.53,7.15-14s8.31-5.9,15.33-7.65a49.51,49.51,0,0,1,6.28-1.09,49.5,49.5,0,0,1,6.27,1.09c7,1.75,11.86,4.17,15.33,7.65s5.58,8,7.15,14a61.73,61.73,0,0,1,1.52,7.63,60.16,60.16,0,0,1,.5,7.88c0,1.75,2.18-.7,2.55-4.47a29.34,29.34,0,0,0-1.21-11.59C179.91,125.73,179.15,123.89,178.39,122Z"/><path class="cls-10" d="M113.86,145.28l-.3-.51C113.38,145.45,113.4,145.78,113.86,145.28Z"/><path class="cls-10" d="M183.19,144.78l-.3.51C183.35,145.78,183.37,145.45,183.19,144.78Z"/><path class="cls-11" d="M177.34,160.43c-7.08,6.07-9.08,7.86-11.23,11.2-1.92,3-6.25,9.72-9.29,11.88-2,1.43-6.41,3.73-8,5.51a5,5,0,0,0-.43.56,4.89,4.89,0,0,0-.43-.56c-1.61-1.79-6-4.08-8-5.51-3-2.15-7.37-8.9-9.29-11.88-2.15-3.33-4.15-5.13-11.23-11.2-3-2.59.83,9.67,2,11.92,1.74,3.3,4.49,9.24,7.15,11.93a99.81,99.81,0,0,0,7.81,7.36c2.75,2.28,10.27,5.85,12,4.23,1.72,1.62,9.25-1.95,12-4.23a99.84,99.84,0,0,0,7.81-7.36c2.66-2.68,5.41-8.63,7.15-11.93C176.52,170.1,180.37,157.85,177.34,160.43Z"/><path class="cls-11" d="M157.88,165.8c-3.28-.29-6.29.32-9.51.47-3.22-.15-6.23-.76-9.51-.47s-6.06,1.82-8.91,2.31l.27.33c.95,2.48,7.31.56,10,.33,1.93-.17,6.55.07,8.17-1,1.62,1.06,6.24.82,8.17,1,2.66.23,9,2.15,10-.33l.27-.33C163.94,167.62,161.09,166.09,157.88,165.8Z"/><polygon class="cls-2" points="144.47 599.36 136.22 599.36 127.97 599.36 119.72 599.36 111.47 599.36 107.97 565.16 107.58 497.17 107.58 450.17 111.47 368.36 119.72 368.36 127.97 368.36 136.22 368.36 144.47 368.36 155.85 367.53 144.65 471.36 144.4 574.17 144.47 599.36"/><path class="cls-8" d="M204.54,266.2c-8-12.9-7-30.2-24.4-43-18.76,3-41.51,0-59.56,0-23.33,10-16.43,30.06-24.4,43-12.32,19.94-16,41.56-14.6,65.69,5.05-5.65,22.21-4.9,28.63-1.95-.3,6.7-2.12,19.59-2.88,36-.75,16.14.27,20.49,14.6,20.47,7.57,0,15.18.13,22.81.26v.18l5.63-.09,5.63.09v-.18c7.62-.14,15.24-.27,22.81-.26,14.32,0,15.35-4.33,14.6-20.47-.53-11.45-2.35-29.34-2.88-41,6.42-2.95,23.57,1.3,28.63,6.95C220.54,307.77,216.86,286.14,204.54,266.2Z"/></svg>