<svg id="Layer_1" data-name="Layer 1" xmlns="http://www.w3.org/2000/svg" viewBox="0 0 300 660"><defs><style>.cls-1{fill:none;}.cls-1,.cls-2{stroke:#deaaa7;stroke-miterlimit:10;}.cls-2{fill:#f9c2c4;}.cls-3{fill:#1a1a1a;}.cls-4{fill:#fff;}.cls-5{fill:#72a4a3;}.cls-6{fill:#ab7d4a;}.cls-7{fill:#ff4000;}.cls-8{fill:#9c5406;}.cls-9{fill:#310d0a;opacity:0.05;}.cls-10{fill:#7c411e;}</style></defs><title>xandy</title><path class="cls-1" d="M150.85,616c3.16-.52,6.59-3.19,9.68-3.27,4.06-.1,6,2.3,9.68,3.27"/><path class="cls-1" d="M144.4,616c-3.16-.52-6.59-3.19-9.68-3.27-4.06-.1-6,2.3-9.68,3.27"/><path class="cls-2" d="M124,162.77c3.28,9.24,10.07,30.05,9.68,41.19-1.43,5.41-10.36,11.33-16.37,21.81-1.28,2.22-3.29,3.94-4.7,6.12-5.07,6-12.45,10.79-16.6,17.36-4.71,7.47-5.27,18-6.75,26.31a706.9,706.9,0,0,0-11,120c0,11.59,1.08,39.7,16.27,40.78,11.54.82,5.28-6.43,2.73-11.78-2.92-6.11-3.25-13.09-2.85-20.85a12.62,12.62,0,0,1,5.67,0c2,6.92,9,11.56,10.39,2,.94-6.22-7-8.22-9.22-14.22-2.52-6.65-.26-16.19-2-24-2-8.81,3.91-18,4-27.47.16-16.6-4-27.25-.95-42.49,2-9.94.71-27.12,6.5-35.33v.86c-4.17,16.06.21,42.31.21,58.22,0,15.56-.63,31.36.15,46.85,1.81.15,3.58.34,5.32.56l3.12,208.09,0,2.39a13.25,13.25,0,0,0-.35,2c-.4,7.12-4.45,8.79-9.7,12C103,596,97.8,598.82,92.21,600c-4.64,1-12.65-.28-13.84,5.26-1.65,7.67,5.93,6.32,10.85,7.08,2.78.43,4.88,1.47,7.82,1.59a56.08,56.08,0,0,0,9.91-.66c6.58-.94,13.29-1,20.1-1.68,5.94-.6,15.38,1.53,16.66-5.3,1.5-8-3.17-15.46-2.33-23l.07-4.19h0V577.2h0l-3.07-204.72c3,.38,6.15.66,9.42.8v.1h.12c.71,0,1.4,0,2.09,0s1.38,0,2.09,0h.12v-.1c3.27-.14,6.4-.42,9.42-.8l-3.07,204.72h0V579h0l.07,4.19c.83,7.57-3.83,15-2.33,23,1.28,6.83,10.72,4.7,16.66,5.3,6.81.69,13.52.74,20.1,1.68a56.08,56.08,0,0,0,9.91.66c2.94-.12,5-1.17,7.82-1.59,4.93-.75,12.5.59,10.85-7.08-1.19-5.54-9.2-4.3-13.84-5.26-5.59-1.15-10.82-4-15.46-6.78-5.25-3.17-9.3-4.84-9.7-12a13.25,13.25,0,0,0-.35-2l0-2.39,3.12-208.09c1.74-.22,3.51-.41,5.32-.56.79-15.49.15-31.29.15-46.85,0-15.91,4.39-42.15.21-58.22v-.86c5.79,8.21,4.49,25.39,6.5,35.33,3.08,15.24-1.11,25.89-.95,42.49.09,9.52,6,18.67,4,27.47-1.74,7.79.51,17.32-2,24-2.27,6-10.16,8-9.22,14.22,1.44,9.52,8.36,4.87,10.39-2a12.62,12.62,0,0,1,5.67,0c.4,7.76.07,14.73-2.85,20.85-2.55,5.35-8.81,12.6,2.73,11.78,15.19-1.08,16.29-29.19,16.27-40.78a706.89,706.89,0,0,0-11-120c-1.47-8.35-2-18.84-6.75-26.31-4.15-6.57-11.52-11.36-16.6-17.36-1.41-2.18-5.43-3.89-6.7-6.12-12-20.84-11.82-40.19-11.82-40.19.5-8.74,3.56-17.61,5.4-22.81"/><polygon class="cls-3" points="156.76 585.89 165.01 585.89 173.26 585.89 181.51 585.89 189.76 585.89 193.26 551.68 193.65 483.69 193.65 436.69 189.76 354.89 181.51 354.89 173.26 354.89 165.01 354.89 156.76 354.89 145.38 354.06 156.58 457.89 156.82 560.69 156.76 585.89"/><path class="cls-3" d="M144.46,594.43c-.8-5.48-2.09-10.5-2.12-14.2-5.78-.27-17.16-3.31-22.42-1.06-2.57,1.1-10.44,7.47-13.28,9.32-3.08,2-5.29,4-8.88,5.22-.79.26-1.68.49-2.64.72H83c-7.3,0-13.22,8.36-13.22,18.69h0c-.2,2.88,8,2.89,15.28,2.89h57.51l1.95-2.89h.06V594.43Z"/><path class="cls-3" d="M155.54,594.43c.8-5.48,2.09-10.5,2.12-14.2,5.78-.27,17.16-3.31,22.42-1.06,2.57,1.1,10.44,7.47,13.28,9.32,3.08,2,5.29,4,8.88,5.22.79.26,1.68.49,2.64.72H217c7.3,0,13.22,8.36,13.22,18.69h0c.2,2.88-8,2.89-15.28,2.89H157.44l-1.95-2.89h-.06V594.43Z"/><path class="cls-2" d="M182,133.37c-.81-6-3.45-11.56-4.41-17.47s-.39-12-2.75-17.47c-5-11.67-15.47-16-26.26-15.46-10.79-.51-21.22,3.79-26.26,15.46-2.37,5.49-1.82,11.69-2.75,17.47s-3.6,11.5-4.41,17.47c-1.39,10.25,5.73,26,11.22,34,5.25,7.63,11.5,16.82,20.84,16.93.45,0,.9,0,1.35,0s.89,0,1.34,0c9.34-.1,15.6-9.29,20.84-16.93C176.3,159.41,183.42,143.62,182,133.37Z"/><path class="cls-2" d="M180.19,133c.37-3,4.87-7.62,6.85-2.09,1.61,4.5-3.41,8.61-2.15,13.08a8.19,8.19,0,0,1-2.29,2,10.06,10.06,0,0,1-1-3.83"/><path class="cls-4" d="M154.71,128.23c8.9-7.09,11.23-3.09,17.79,1.44-4.52,1.15-12,3.36-17.79-1.44"/><path class="cls-5" d="M168,127.74a4.36,4.36,0,0,0-.29-1.54c-2.32-1.56-4.39-2.37-7.27-1.41a4.34,4.34,0,0,0,.27,6.17,19.14,19.14,0,0,0,5.85,0A4.34,4.34,0,0,0,168,127.74Z"/><circle class="cls-3" cx="163.6" cy="127.92" r="1.5"/><path class="cls-1" d="M155.8,131.81c2.85,2.14,6.18,2.65,9.47,3.36"/><path class="cls-4" d="M140.54,128.47c-8.9-7.09-11.23-3.09-17.79,1.44,4.52,1.15,12,3.36,17.79-1.44"/><path class="cls-5" d="M127.29,128a4.33,4.33,0,0,1,.29-1.54c2.32-1.56,4.39-2.37,7.27-1.41a4.34,4.34,0,0,1-.27,6.17,19.12,19.12,0,0,1-5.85,0A4.34,4.34,0,0,1,127.29,128Z"/><circle class="cls-3" cx="131.65" cy="128.16" r="1.5"/><path class="cls-1" d="M139.45,132c-2.85,2.14-6.18,2.64-9.47,3.36"/><circle class="cls-6" cx="145.22" cy="147.43" r="1.49"/><circle class="cls-6" cx="151.53" cy="147.43" r="1.49"/><path class="cls-7" d="M158.29,161c-.33-.11-.67-.21-1-.3l-1-.24-1-.22-1-.23c-.33-.08-.65-.17-1-.28a7.28,7.28,0,0,1-.89-.36,5.22,5.22,0,0,1-.8-.48,2,2,0,0,1-.26.24l-.32.22-.35.21-.36.21-.36.23-.34.26-.19.19-.19-.19-.34-.26-.36-.23-.36-.21-.35-.21-.32-.22a2.1,2.1,0,0,1-.26-.24,5.17,5.17,0,0,1-.8.48,7.35,7.35,0,0,1-.89.36c-.31.11-.63.2-1,.28l-1,.23-1,.22-1,.24c-.34.09-.68.19-1,.3a8.79,8.79,0,0,0-1,.39l2.16.79c.8.29,1.67.6,2.59.91s1.87.61,2.84.88c.56.16,1.13.3,1.69.43l0,.27.62-.13.62.13,0-.27c.57-.13,1.13-.27,1.7-.43,1-.27,1.92-.57,2.84-.88s1.79-.62,2.59-.91l2.16-.79A8.79,8.79,0,0,0,158.29,161Z"/><path class="cls-2" d="M116.56,133c-.37-3-4.87-7.62-6.85-2.09-1.61,4.5,3.41,8.61,2.15,13.08a8.23,8.23,0,0,0,2.29,2,10,10,0,0,0,1-3.83"/><path class="cls-8" d="M139.83,94.15a3.42,3.42,0,0,0,2.41,2.26,6.11,6.11,0,0,0,3-.5,18.75,18.75,0,0,1,3.35-1,4.53,4.53,0,0,1,3.43.74,6.16,6.16,0,0,1,1.2-.9c.42-.25.86-.46,1.3-.68a13,13,0,0,0,1.28-.7,5.31,5.31,0,0,0,1.14-1c.78.29,1.57.53,2.36.74s1.6.38,2.41.52,1.65.25,2.5.33,1.72.14,2.61.19a73.56,73.56,0,0,1,3.82,8.52c1.09,2.86,2,5.72,3,8.6s1.84,5.77,2.88,8.66,3.18,5.79,4.58,8.69c.21-6.18-.83-12.37-1.49-18.17a48.25,48.25,0,0,0-4.19-15.8,24.58,24.58,0,0,0-10.11-11c-4.61-2.58-10.57-4-18.27-3.7a42.42,42.42,0,0,0-8.69,1.11,26.91,26.91,0,0,0-7.1,2.79,23.65,23.65,0,0,0-5.7,4.59A30.78,30.78,0,0,0,121,95c-.67,1.28-1.41,2.61-2.15,4s-1.5,2.77-2.22,4.2-.39,2.89-1,4.37-.08,3-.43,4.48a27,27,0,0,0-.22,5.38c0,1.41-.46,10,0,11.71.46-1.1,2.64-5.06,3.52-8.44s.45-6.16,1.37-10.12,1.77-7.81,2.35-10.68,2.9-4.79,2.77-4.9"/><polygon class="cls-3" points="144.47 585.89 136.22 585.89 127.97 585.89 119.72 585.89 111.47 585.89 107.97 551.68 107.58 483.69 107.58 436.69 111.47 354.89 119.72 354.89 127.97 354.89 136.22 354.89 144.47 354.89 155.85 354.06 144.65 457.89 144.4 560.69 144.47 585.89"/><path class="cls-3" d="M204.54,248.44c-8-11.61-23.51-24.16-24.4-38.67-6.44,4.23-15.28,6.69-24.15,6.84v-1.15a44.31,44.31,0,0,1-5.63.91,44.37,44.37,0,0,1-5.63-.91v1.15c-8.87-.14-17.7-2.61-24.15-6.83-.9,14.51-16.43,27.06-24.4,38.67-12.32,18-16,37.42-14.6,59.13,5.05-5.09,22.21-4.41,28.63-1.75-.53,10.53-2.35,22.13-2.88,32.44-.75,14.53.27,18.44,14.6,18.43,7.57,0,15.18.12,22.81.24v.16l5.63-.08,5.63.08v-.16c7.62-.12,15.24-.25,22.81-.24,14.32,0,15.35-3.9,14.6-18.43-.53-10.31-2.35-21.91-2.88-32.44,6.42-2.65,23.57-3.33,28.63,1.75C220.54,285.85,216.86,266.39,204.54,248.44Z"/><polygon class="cls-3" points="139.45 355.05 123.61 390.05 107.77 390.05 107.77 300.55 107.77 219.05 123.61 211.05 123.61 211.05 139.45 300.55 139.45 355.05"/><path class="cls-3" d="M107.78,218.65C141.42,216.47,106,287.47,105,308c-1.07,23.41,9.25,69.91-30.05,58.91.84-48,3.39-96.8,19.58-142.6"/><polygon class="cls-3" points="160.97 355.05 176.81 390.05 192.65 390.05 192.65 300.55 192.65 219.05 176.81 211.05 176.81 211.05 160.97 300.55 160.97 355.05"/><path class="cls-9" d="M178.41,148c-7.08,6.07-9.08,7.86-11.23,11.2-1.92,3-6.25,9.72-9.29,11.88-2,1.43-6.41,3.73-8,5.52a4.86,4.86,0,0,0-.43.56,4.75,4.75,0,0,0-.43-.56c-1.61-1.79-6-4.08-8-5.52-3-2.15-7.37-8.9-9.29-11.88-2.15-3.33-4.15-5.13-11.23-11.2-3-2.59.83,9.67,2,11.92,1.74,3.3,4.49,9.24,7.15,11.93a99.81,99.81,0,0,0,7.81,7.36c2.75,2.28,10.27,5.85,12,4.23,1.72,1.62,9.25-1.95,12-4.23a99.84,99.84,0,0,0,7.81-7.36c2.66-2.68,5.41-8.63,7.15-11.93C177.58,157.63,181.43,145.37,178.41,148Z"/><path class="cls-9" d="M158.94,153.33c-3.28-.29-6.29.32-9.51.47-3.22-.15-6.23-.76-9.51-.47s-6.06,1.82-8.91,2.31l.27.34c.95,2.48,7.31.56,10,.33,1.93-.17,6.55.07,8.17-1,1.62,1.06,6.24.83,8.17,1,2.66.23,9,2.15,10-.33l.27-.34C165,155.15,162.15,153.62,158.94,153.33Z"/><path class="cls-10" d="M115,126.48c-3.11-8.38-5.4-35,6.85-36.17,1.55-21.52,39.62-15,51-8.68,6,9.48,11.09,32,9,44.69-.47.74-1.21,1.87-1.83,2.88-1.29-7-4.23-14.67-9.83-18.88-2.05-18.66-34.59-12.23-49-8.68,2.13,5.42-2.24,15.5-3.33,21.68-2.73,1.58-3.23,3.39-4.83,6.17"/><path class="cls-10" d="M115,118.48c.15-5.08-.6-11.33,0-16.78.85-7.78.68-6.29,5.78-11.42C126.86,84.17,134,78.94,143,78.48s22,.59,28.78,6c6,4.75,4.32,5.23,5.22,13,.62,5.36,0,9.83,5.83,12.17.83,5.09.8,10.29-3.82,13.42-2.34-5.15-6.59-12.64-6.18-18.43-2.31-2-4.42-6.83-7.56-8.44-5.16-2.66-10.69,1.66-16.08,1.27-5.93-.43-8.84-4.26-14.92-4s-7.66,5-14.1,4.2c-3.32,6.68-2,14.43-5.17,20.83"/><path class="cls-3" d="M193,218.65c-33.65-2.18,1.82,68.82,2.76,89.35,1.07,23.41-9.25,69.91,30.05,58.91-.84-48-3.39-96.8-19.58-142.6"/></svg>