<?xml version="1.0" encoding="utf-8"?>
<!-- Generator: Adobe Illustrator 22.0.0, SVG Export Plug-In . SVG Version: 6.00 Build 0)  -->
<svg version="1.1" id="Layer_1" xmlns="http://www.w3.org/2000/svg" xmlns:xlink="http://www.w3.org/1999/xlink" x="0px" y="0px"
	 viewBox="0 0 200 550" style="enable-background:new 0 0 200 550;" xml:space="preserve">
<style type="text/css">
	.st0{fill:none;stroke:#DEAAA7;stroke-miterlimit:10;}
	.st1{fill:#F9C2C4;stroke:#DEAAA7;stroke-miterlimit:10;}
	.st2{fill:#1A1A1A;}
	.st3{fill:#FFFFFF;}
	.st4{fill:#72A4A3;}
	.st5{fill:#AB7D4A;}
	.st6{fill:#FF4000;}
	.st7{fill:#9C5406;}
	.st8{opacity:5.000000e-02;fill:#310D0A;enable-background:new    ;}
	.st9{fill:#7C411E;}
</style>
<title>xandy</title>
<path class="st0" d="M100.9,547c3.2-0.5,6.6-3.2,9.7-3.3c4.1-0.1,6,2.3,9.7,3.3"/>
<path class="st0" d="M94.4,547c-3.2-0.5-6.6-3.2-9.7-3.3c-4.1-0.1-6,2.3-9.7,3.3"/>
<path class="st1" d="M74,93.8c3.3,9.2,10.1,30.1,9.7,41.2c-1.4,5.4-10.4,11.3-16.4,21.8c-1.3,2.2-3.3,3.9-4.7,6.1
	c-5.1,6-12.4,10.8-16.6,17.4c-4.7,7.5-5.3,18-6.8,26.3c-7.1,39.6-10.8,79.8-11,120c0,11.6,1.1,39.7,16.3,40.8
	c11.5,0.8,5.3-6.4,2.7-11.8c-2.9-6.1-3.2-13.1-2.8-20.9c1.9-0.4,3.8-0.4,5.7,0c2,6.9,9,11.6,10.4,2c0.9-6.2-7-8.2-9.2-14.2
	c-2.5-6.6-0.3-16.2-2-24c-2-8.8,3.9-18,4-27.5c0.2-16.6-4-27.2-0.9-42.5c2-9.9,0.7-27.1,6.5-35.3v0.9c-4.2,16.1,0.2,42.3,0.2,58.2
	c0,15.6-0.6,31.4,0.2,46.9c1.8,0.1,3.6,0.3,5.3,0.6l3.1,208.1v2.4c-0.2,0.7-0.3,1.3-0.3,2c-0.4,7.1-4.4,8.8-9.7,12
	c-4.6,2.8-9.8,5.6-15.3,6.8c-4.6,1-12.7-0.3-13.8,5.3c-1.7,7.7,5.9,6.3,10.8,7.1c2.8,0.4,4.9,1.5,7.8,1.6c3.3,0.1,6.6-0.1,9.9-0.7
	c6.6-0.9,13.3-1,20.1-1.7c5.9-0.6,15.4,1.5,16.7-5.3c1.5-8-3.2-15.5-2.3-23l0.1-4.2l0,0v-1.9l0,0l-3.1-204.7c3,0.4,6.1,0.7,9.4,0.8
	v0.1h0.1c0.7,0,1.4,0,2.1,0s1.4,0,2.1,0h0.1v-0.1c3.3-0.1,6.4-0.4,9.4-0.8l-3.1,204.7l0,0v1.8l0,0l0.1,4.2c0.8,7.6-3.8,15-2.3,23
	c1.3,6.8,10.7,4.7,16.7,5.3c6.8,0.7,13.5,0.7,20.1,1.7c3.3,0.5,6.6,0.7,9.9,0.7c2.9-0.1,5-1.2,7.8-1.6c4.9-0.8,12.5,0.6,10.9-7.1
	c-1.2-5.5-9.2-4.3-13.8-5.3c-5.6-1.2-10.8-4-15.5-6.8c-5.2-3.2-9.3-4.8-9.7-12c-0.1-0.7-0.2-1.3-0.4-2v-2.4l3.1-208.1
	c1.7-0.2,3.5-0.4,5.3-0.6c0.8-15.5,0.1-31.3,0.1-46.9c0-15.9,4.4-42.1,0.2-58.2v-0.9c5.8,8.2,4.5,25.4,6.5,35.3
	c3.1,15.2-1.1,25.9-0.9,42.5c0.1,9.5,6,18.7,4,27.5c-1.7,7.8,0.5,17.3-2,24c-2.3,6-10.2,8-9.2,14.2c1.4,9.5,8.4,4.9,10.4-2
	c1.9-0.4,3.8-0.4,5.7,0c0.4,7.8,0.1,14.7-2.9,20.9c-2.6,5.4-8.8,12.6,2.7,11.8c15.2-1.1,16.3-29.2,16.3-40.8
	c-0.2-40.2-3.9-80.4-11-120c-1.5-8.4-2-18.8-6.8-26.3c-4.1-6.6-11.5-11.4-16.6-17.4c-1.4-2.2-5.4-3.9-6.7-6.1
	c-12-20.8-11.8-40.2-11.8-40.2c0.5-8.7,3.6-17.6,5.4-22.8"/>
<polygon class="st2" points="106.8,516.9 115,516.9 123.3,516.9 131.5,516.9 139.8,516.9 143.3,482.7 143.6,414.7 143.6,367.7 
	139.8,285.9 131.5,285.9 123.3,285.9 115,285.9 106.8,285.9 95.4,285.1 106.6,388.9 106.8,491.7 "/>
<path class="st2" d="M94.5,525.4c-0.8-5.5-2.1-10.5-2.1-14.2c-5.8-0.3-17.2-3.3-22.4-1.1c-2.6,1.1-10.4,7.5-13.3,9.3
	c-3.1,2-5.3,4-8.9,5.2c-0.8,0.3-1.7,0.5-2.6,0.7H33c-7.3,0-13.2,8.4-13.2,18.7l0,0c-0.2,2.9,8,2.9,15.3,2.9h57.5l1.9-2.9h0.1v-18.7
	H94.5z"/>
<path class="st2" d="M105.5,525.4c0.8-5.5,2.1-10.5,2.1-14.2c5.8-0.3,17.2-3.3,22.4-1.1c2.6,1.1,10.4,7.5,13.3,9.3
	c3.1,2,5.3,4,8.9,5.2c0.8,0.3,1.7,0.5,2.6,0.7H167c7.3,0,13.2,8.4,13.2,18.7l0,0c0.2,2.9-8,2.9-15.3,2.9h-57.5l-1.9-2.9h-0.1v-18.7
	H105.5z"/>
<path class="st1" d="M132,64.4c-0.8-6-3.4-11.6-4.4-17.5s-0.4-12-2.8-17.5c-5-11.7-15.5-16-26.3-15.5c-10.8-0.5-21.2,3.8-26.3,15.5
	c-2.4,5.5-1.8,11.7-2.8,17.5S66,58.4,65.2,64.4c-1.4,10.2,5.7,26,11.2,34c5.2,7.6,11.5,16.8,20.8,16.9c0.4,0,0.9,0,1.4,0
	s0.9,0,1.3,0c9.3-0.1,15.6-9.3,20.8-16.9C126.3,90.4,133.4,74.6,132,64.4z"/>
<path class="st1" d="M130.2,64c0.4-3,4.9-7.6,6.9-2.1c1.6,4.5-3.4,8.6-2.1,13.1c-0.6,0.8-1.4,1.5-2.3,2c-0.6-1.2-0.9-2.5-1-3.8"/>
<path class="st3" d="M104.7,59.2c8.9-7.1,11.2-3.1,17.8,1.4C118,61.8,110.5,64,104.7,59.2"/>
<path class="st4" d="M118,58.7c0-0.5-0.1-1-0.3-1.5c-2.3-1.6-4.4-2.4-7.3-1.4c-1.6,1.8-1.5,4.5,0.2,6.1c0,0,0,0,0,0
	c1.9,0.3,3.9,0.3,5.9,0C117.5,61.1,118,60,118,58.7z"/>
<circle class="st2" cx="113.6" cy="58.9" r="1.5"/>
<path class="st0" d="M105.8,62.8c2.9,2.1,6.2,2.6,9.5,3.4"/>
<path class="st3" d="M90.5,59.5c-8.9-7.1-11.2-3.1-17.8,1.4C77.3,62.1,84.8,64.3,90.5,59.5"/>
<path class="st4" d="M77.3,59c0-0.5,0.1-1,0.3-1.5c2.3-1.6,4.4-2.4,7.3-1.4c1.6,1.8,1.5,4.5-0.2,6.1c0,0,0,0,0,0
	c-1.9,0.3-3.9,0.3-5.9,0C77.8,61.4,77.3,60.2,77.3,59z"/>
<circle class="st2" cx="81.6" cy="59.2" r="1.5"/>
<path class="st0" d="M89.4,63c-2.9,2.1-6.2,2.6-9.5,3.4"/>
<circle class="st5" cx="95.2" cy="78.4" r="1.5"/>
<circle class="st5" cx="101.5" cy="78.4" r="1.5"/>
<path class="st6" d="M108.3,92c-0.3-0.1-0.7-0.2-1-0.3l-1-0.2l-1-0.2l-1-0.2c-0.3-0.1-0.6-0.2-1-0.3c-0.3-0.1-0.6-0.2-0.9-0.4
	c-0.3-0.1-0.5-0.3-0.8-0.5c-0.1,0.1-0.2,0.2-0.3,0.2l-0.3,0.2l-0.4,0.2l-0.4,0.2L99.9,91l-0.3,0.3l-0.2,0.2l-0.2-0.2L98.9,91
	l-0.4-0.2l-0.4-0.2l-0.4-0.2l-0.3-0.2c-0.1-0.1-0.2-0.2-0.3-0.2c-0.3,0.2-0.5,0.3-0.8,0.5c-0.3,0.1-0.6,0.3-0.9,0.4
	c-0.3,0.1-0.6,0.2-1,0.3l-1,0.2l-1,0.2l-1,0.2c-0.3,0.1-0.7,0.2-1,0.3c-0.3,0.1-0.7,0.2-1,0.4l2.2,0.8c0.8,0.3,1.7,0.6,2.6,0.9
	s1.9,0.6,2.8,0.9c0.6,0.2,1.1,0.3,1.7,0.4v0.3l0.6-0.1l0.6,0.1v-0.3c0.6-0.1,1.1-0.3,1.7-0.4c1-0.3,1.9-0.6,2.8-0.9s1.8-0.6,2.6-0.9
	l2.2-0.8C109,92.2,108.7,92.1,108.3,92z"/>
<path class="st1" d="M66.6,64c-0.4-3-4.9-7.6-6.8-2.1c-1.6,4.5,3.4,8.6,2.2,13.1c0.6,0.8,1.4,1.5,2.3,2c0.6-1.2,0.9-2.5,1-3.8"/>
<path class="st7" d="M89.8,25.2c0.4,1.1,1.3,2,2.4,2.3c1,0.1,2.1-0.1,3-0.5c1.1-0.4,2.2-0.8,3.4-1c1.2-0.2,2.4,0,3.4,0.7
	c0.4-0.3,0.8-0.7,1.2-0.9c0.4-0.2,0.9-0.5,1.3-0.7c0.4-0.2,0.9-0.4,1.3-0.7c0.4-0.3,0.8-0.6,1.1-1c0.8,0.3,1.6,0.5,2.4,0.7
	s1.6,0.4,2.4,0.5s1.6,0.2,2.5,0.3s1.7,0.1,2.6,0.2c1.5,2.8,2.7,5.6,3.8,8.5c1.1,2.9,2,5.7,3,8.6s1.8,5.8,2.9,8.7s3.2,5.8,4.6,8.7
	c0.2-6.2-0.8-12.4-1.5-18.2c-0.5-5.5-1.9-10.8-4.2-15.8c-2.1-4.6-5.7-8.5-10.1-11c-4.6-2.6-10.6-4-18.3-3.7
	c-2.9,0.1-5.8,0.4-8.7,1.1c-2.5,0.6-4.9,1.5-7.1,2.8c-2.1,1.2-4,2.8-5.7,4.6c-1.8,2-3.3,4.2-4.6,6.6c-0.7,1.3-1.4,2.6-2.2,4
	s-1.5,2.8-2.2,4.2s-0.4,2.9-1,4.4s-0.1,3-0.4,4.5c-0.3,1.8-0.3,3.6-0.2,5.4c0,1.4-0.5,10,0,11.7c0.5-1.1,2.6-5.1,3.5-8.4
	s0.4-6.2,1.4-10.1s1.8-7.8,2.3-10.7s2.9-4.8,2.8-4.9"/>
<polygon class="st2" points="94.5,516.9 86.2,516.9 78,516.9 69.7,516.9 61.5,516.9 58,482.7 57.6,414.7 57.6,367.7 61.5,285.9 
	69.7,285.9 78,285.9 86.2,285.9 94.5,285.9 105.9,285.1 94.6,388.9 94.4,491.7 "/>
<path class="st2" d="M154.5,179.4c-8-11.6-23.5-24.2-24.4-38.7c-6.4,4.2-15.3,6.7-24.1,6.8v-1.1c-1.9,0.4-3.7,0.7-5.6,0.9
	c-1.9-0.2-3.8-0.5-5.6-0.9v1.1c-8.9-0.1-17.7-2.6-24.2-6.8c-0.9,14.5-16.4,27.1-24.4,38.7c-12.3,18-16,37.4-14.6,59.1
	c5.1-5.1,22.2-4.4,28.6-1.8c-0.5,10.5-2.3,22.1-2.9,32.4c-0.8,14.5,0.3,18.4,14.6,18.4c7.6,0,15.2,0.1,22.8,0.2v0.2l5.6-0.1l5.6,0.1
	v-0.2c7.6-0.1,15.2-0.2,22.8-0.2c14.3,0,15.4-3.9,14.6-18.4c-0.5-10.3-2.4-21.9-2.9-32.4c6.4-2.6,23.6-3.3,28.6,1.8
	C170.5,216.9,166.9,197.4,154.5,179.4z"/>
<polygon class="st2" points="89.4,286 73.6,321 57.8,321 57.8,231.5 57.8,150.1 73.6,142.1 73.6,142.1 89.4,231.5 "/>
<path class="st2" d="M57.8,149.6c33.6-2.2-1.8,68.8-2.8,89.4c-1.1,23.4,9.2,69.9-30.1,58.9c0.8-48,3.4-96.8,19.6-142.6"/>
<polygon class="st2" points="111,286 126.8,321 142.6,321 142.6,231.5 142.6,150.1 126.8,142.1 126.8,142.1 111,231.5 "/>
<path class="st8" d="M128.4,79c-7.1,6.1-9.1,7.9-11.2,11.2c-1.9,3-6.2,9.7-9.3,11.9c-2,1.4-6.4,3.7-8,5.5c-0.2,0.2-0.3,0.4-0.4,0.6
	c-0.1-0.2-0.3-0.4-0.4-0.6c-1.6-1.8-6-4.1-8-5.5c-3-2.1-7.4-8.9-9.3-11.9c-2.1-3.3-4.2-5.1-11.2-11.2c-3-2.6,0.8,9.7,2,11.9
	c1.7,3.3,4.5,9.2,7.1,11.9c2.5,2.6,5.1,5,7.8,7.4c2.8,2.3,10.3,5.9,12,4.2c1.7,1.6,9.2-1.9,12-4.2c2.7-2.3,5.3-4.8,7.8-7.4
	c2.7-2.7,5.4-8.6,7.1-11.9C127.6,88.6,131.4,76.4,128.4,79z"/>
<path class="st8" d="M108.9,84.3c-3.3-0.3-6.3,0.3-9.5,0.5c-3.2-0.1-6.2-0.8-9.5-0.5s-6.1,1.8-8.9,2.3l0.3,0.3
	c0.9,2.5,7.3,0.6,10,0.3c1.9-0.2,6.6,0.1,8.2-1c1.6,1.1,6.2,0.8,8.2,1c2.7,0.2,9,2.1,10-0.3l0.3-0.3C115,86.1,112.1,84.6,108.9,84.3
	z"/>
<path class="st9" d="M65,57.5c-3.1-8.4-5.4-35,6.8-36.2c1.6-21.5,39.6-15,51-8.7c6,9.5,11.1,32,9,44.7c-0.5,0.7-1.2,1.9-1.8,2.9
	c-1.3-7-4.2-14.7-9.8-18.9c-2.1-18.7-34.6-12.2-49-8.7c2.1,5.4-2.2,15.5-3.3,21.7c-2.7,1.6-3.2,3.4-4.8,6.2"/>
<path class="st9" d="M65,49.5c0.2-5.1-0.6-11.3,0-16.8c0.8-7.8,0.7-6.3,5.8-11.4C76.9,15.2,84,9.9,93,9.5s22,0.6,28.8,6
	c6,4.8,4.3,5.2,5.2,13c0.6,5.4,0,9.8,5.8,12.2c0.8,5.1,0.8,10.3-3.8,13.4c-2.3-5.2-6.6-12.6-6.2-18.4c-2.3-2-4.4-6.8-7.6-8.4
	c-5.2-2.7-10.7,1.7-16.1,1.3c-5.9-0.4-8.8-4.3-14.9-4s-7.7,5-14.1,4.2C66.9,35.3,68.2,43.1,65,49.5"/>
<path class="st2" d="M143,149.6c-33.6-2.2,1.8,68.8,2.8,89.4c1.1,23.4-9.2,69.9,30.1,58.9c-0.8-48-3.4-96.8-19.6-142.6"/>
</svg>
