<svg xmlns="http://www.w3.org/2000/svg" viewBox="0 0 800 600"><defs><style>.cls-1{fill:#74acb8;}.cls-2{fill:#fddec3;}.cls-3{fill:#fdd9b6;}.cls-4{fill:#de887b;}.cls-5{fill:#b18e6a;}.cls-6{fill:none;stroke:#a56f29;stroke-width:0.25px;}.cls-6,.cls-8,.cls-9{stroke-miterlimit:10;}.cls-7{fill:#404041;}.cls-8{fill:#be1e2d;stroke:#fff;}.cls-9{fill:#fff;stroke:#dddddc;}.cls-10{fill:#6d74b6;}.cls-11{fill:#481c11;opacity:0.05;}.cls-12{fill:#8a5d3b;}</style></defs><g id="Layer_3" data-name="Layer 3"><circle class="cls-1" cx="400" cy="111.09" r="2.45"/><path class="cls-2" d="M402.52,159.35c6.85-1.83,7.85-2.15,12-7.92,3-4.29,6.48-10.89,7.35-16.08,2.41-14.33,5.69-30.63.81-44.32-2.83-7.94-12.34-10.07-20.72-9.14h-3.84c-8.38-.93-17.89,1.2-20.72,9.14-4.88,13.69-1.6,30,.81,44.32.87,5.19,4.3,11.79,7.35,16.08,4.11,5.77,5.11,6.09,12,7.92Z"/><path class="cls-3" d="M425.31,107.26c2.36.21,3.92,4.21,3.48,8.92s-2.69,8.35-5,8.13"/><path class="cls-3" d="M376.91,125.32c-2.33.37-4.83-3.11-5.57-7.78s.55-8.76,2.89-9.13"/><path class="cls-4" d="M408.83,139.17c-.33-.1-.66-.18-1-.25s-.68-.14-1-.21l-1-.18-1-.2-1-.23a7.59,7.59,0,0,1-.88-.31,5.48,5.48,0,0,1-.8-.41,2,2,0,0,1-.26.21l-.31.18-.34.18-.36.18-.36.19-.34.22-.19.16-.19-.16-.34-.22-.36-.19-.36-.18-.34-.18-.31-.18-.27-.21a4.91,4.91,0,0,1-.79.41,7.59,7.59,0,0,1-.88.31l-1,.23-1,.2-1,.18c-.34.07-.69.13-1,.21s-.68.15-1,.25a7.09,7.09,0,0,0-.95.33l2.13.67c.79.24,1.66.51,2.56.77s1.86.51,2.82.74c.55.14,1.11.26,1.67.37v.22l.61-.11.61.11,0-.22c.57-.11,1.13-.23,1.68-.37,1-.23,1.91-.48,2.82-.74s1.76-.53,2.56-.77l2.13-.67A7.09,7.09,0,0,0,408.83,139.17Z"/><path class="cls-5" d="M398.11,123.93a1.23,1.23,0,1,1-1.22-1.23A1.22,1.22,0,0,1,398.11,123.93Z"/><path class="cls-5" d="M404.34,123.93a1.23,1.23,0,1,1-1.23-1.23A1.23,1.23,0,0,1,404.34,123.93Z"/><circle class="cls-1" cx="413.15" cy="110.17" r="1.83"/><circle class="cls-1" cx="386.85" cy="110.17" r="1.83"/><path class="cls-6" d="M394.22,104.33c-3.65-2.06-8.19-1-12.22.21"/><path class="cls-6" d="M405.78,104.33c3.65-2.06,8.19-1,12.22.21"/><polygon class="cls-2" points="418.33 167.31 399.32 192.97 381.67 167.31 389.82 167.31 389.82 156.09 400 156.09 410.18 156.09 410.18 167.31 418.33 167.31"/><polygon class="cls-7" points="431.48 311.6 369.76 311.6 368.52 286.92 430.24 286.92 431.48 311.6"/><polygon class="cls-7" points="433.98 517.03 405.69 517.03 405.69 287.29 430.28 287.29 433.98 517.03"/><polygon class="cls-7" points="394.16 517.03 365.87 517.03 368.34 287.29 392.93 287.29 394.16 517.03"/><path class="cls-8" d="M400.47,530.29a20.39,20.39,0,0,1,40.77,0"/><path class="cls-8" d="M399.33,530.29a20.39,20.39,0,0,0-40.77,0"/><rect class="cls-2" x="340.74" y="319.35" width="16.71" height="27.71" rx="4"/><path class="cls-9" d="M358.06,186a8.53,8.53,0,0,0-.56-2.43,8.21,8.21,0,0,0-1.62-2.55,7.55,7.55,0,0,0-2.39-1.73,7,7,0,0,0-2.92-.64h-3a7,7,0,0,0-2.92.64A7.55,7.55,0,0,0,342.3,181a8.21,8.21,0,0,0-1.62,2.55,8.53,8.53,0,0,0-.56,2.43h0V322.67h18V186Z"/><rect class="cls-2" x="442.56" y="319.35" width="16.71" height="27.71" rx="4"/><path class="cls-9" d="M459.88,186a8.53,8.53,0,0,0-.56-2.43A8.21,8.21,0,0,0,457.7,181a7.55,7.55,0,0,0-2.39-1.73,7,7,0,0,0-2.92-.64h-3a7,7,0,0,0-2.92.64,7.55,7.55,0,0,0-2.39,1.73,8.21,8.21,0,0,0-1.62,2.55,8.53,8.53,0,0,0-.56,2.43h0V322.67h18V186Z"/><path class="cls-10" d="M435.22,172.45l-15.42-6h-1.71a88.26,88.26,0,0,1-37.18,0H379.8l-15.42,6-2.88,2v141h77v-141Z"/><path class="cls-11" d="M408.08,131.28c-2.78-.25-5.34.27-8.08.4-2.74-.13-5.3-.65-8.08-.4s-5.15,1.55-7.57,2l.23.28c.8,2.11,6.21.48,8.47.28,1.65-.14,5.57.06,6.95-.84,1.38.9,5.3.7,6.95.84,2.26.2,7.67,1.83,8.47-.28l.23-.28C413.23,132.83,410.81,131.52,408.08,131.28Z"/><path class="cls-11" d="M422.62,129.92c-5.54,4.73-7.09,6.14-8.77,8.74-1.5,2.32-4.89,7.59-7.25,9.27-1.58,1.12-5,2.91-6.26,4.31a2.56,2.56,0,0,0-.34.43,3.19,3.19,0,0,0-.34-.43c-1.25-1.4-4.68-3.19-6.26-4.31-2.37-1.68-5.75-7-7.25-9.27-1.68-2.6-3.24-4-8.77-8.74-2.36-2,.65,7.55,1.58,9.3,1.35,2.58,3.5,7.22,5.58,9.31a77,77,0,0,0,6.09,5.75c2.15,1.78,8,4.56,9.37,3.3,1.35,1.26,7.22-1.52,9.37-3.3a77,77,0,0,0,6.09-5.75c2.08-2.09,4.23-6.73,5.58-9.31C422,137.47,425,127.9,422.62,129.92Z"/><path class="cls-12" d="M423.79,96.9c-.61-1.57-1.22-3.14-1.69-4.8a26,26,0,0,1-.7-5.35,24.08,24.08,0,0,0-.81-5.47,15.35,15.35,0,0,0-7.95-9.21,24.91,24.91,0,0,0-13-2.28,24.93,24.93,0,0,0-13,2.28,15.3,15.3,0,0,0-7.94,9.21,23,23,0,0,0-.81,5.47,26.69,26.69,0,0,1-.7,5.35c-.47,1.66-1.09,3.23-1.7,4.8s-1.22,3.12-1.69,4.74a26.14,26.14,0,0,0-1,9.81c.3,3.19,2.05,5.26,2.05,3.78a52.67,52.67,0,0,1,.4-6.67,54.91,54.91,0,0,1,1.23-6.45c1.26-5.06,2.95-8.91,5.74-11.85s6.68-5,12.33-6.47a36.44,36.44,0,0,1,5-.92,36.87,36.87,0,0,1,5,.92c5.64,1.47,9.53,3.52,12.32,6.47s4.49,6.79,5.75,11.85a54.84,54.84,0,0,1,1.22,6.45,52.67,52.67,0,0,1,.4,6.67c0,1.48,1.76-.59,2.05-3.78a25.94,25.94,0,0,0-1-9.81A49.44,49.44,0,0,0,423.79,96.9Z"/><path class="cls-12" d="M371.91,116.57l-.24-.43C371.52,116.71,371.54,117,371.91,116.57Z"/><path class="cls-12" d="M427.65,116.14l-.24.43C427.78,117,427.8,116.71,427.65,116.14Z"/><path class="cls-10" d="M358,254.54V186.22h0a8.36,8.36,0,0,0-.2-1.25,7.68,7.68,0,0,0-.36-1.18,8.41,8.41,0,0,0-.7-1.37,7.7,7.7,0,0,0-.92-1.19,8,8,0,0,0-1.11-1,7.8,7.8,0,0,0-1.28-.75,7,7,0,0,0-2.92-.63h-3a7,7,0,0,0-2.92.63,7.8,7.8,0,0,0-1.28.75,8,8,0,0,0-1.11,1,7.7,7.7,0,0,0-.92,1.19,8.41,8.41,0,0,0-.7,1.37,7.68,7.68,0,0,0-.36,1.18,8.36,8.36,0,0,0-.2,1.25h0v68.32"/><path class="cls-10" d="M460,254.71V186.38h0a8.57,8.57,0,0,0-.2-1.25,7.68,7.68,0,0,0-.36-1.18,8.41,8.41,0,0,0-.7-1.37,8.79,8.79,0,0,0-.92-1.19,8,8,0,0,0-1.11-1,7.1,7.1,0,0,0-1.28-.74,6.32,6.32,0,0,0-1.41-.47,6.85,6.85,0,0,0-1.51-.17h-3a6.85,6.85,0,0,0-1.51.17,6.32,6.32,0,0,0-1.41.47,7.1,7.1,0,0,0-1.28.74,8,8,0,0,0-1.11,1,8.79,8.79,0,0,0-.92,1.19,8.41,8.41,0,0,0-.7,1.37,7.68,7.68,0,0,0-.36,1.18,8.57,8.57,0,0,0-.2,1.25h0v68.33"/></g></svg>