<svg xmlns="http://www.w3.org/2000/svg" viewBox="0 0 800 600"><defs><style>.cls-1{fill:#fddec3;}.cls-2{fill:#404041;}.cls-3{fill:#be1e2d;stroke:#fff;}.cls-3,.cls-4,.cls-9{stroke-miterlimit:10;}.cls-4{fill:#fff;stroke:#dddddc;}.cls-5{fill:#6d74b6;}.cls-6{fill:#74acb8;}.cls-7{fill:#b18e6a;}.cls-8{fill:#de887b;}.cls-9{fill:none;stroke:#a56f29;}.cls-10{fill:#8a5d3b;}.cls-11{fill:#481c11;opacity:0.05;}</style></defs><g id="Layer_3" data-name="Layer 3"><polygon class="cls-1" points="418.33 170.04 399.32 195.69 381.67 170.04 389.82 170.04 389.82 158.81 400 158.81 410.18 158.81 410.18 170.04 418.33 170.04"/><polygon class="cls-2" points="431.48 314.33 369.76 314.33 368.52 289.64 430.24 289.64 431.48 314.33"/><polygon class="cls-2" points="433.98 519.75 405.69 519.75 405.69 290.01 430.28 290.01 433.98 519.75"/><polygon class="cls-2" points="394.16 519.75 365.87 519.75 368.34 290.01 392.93 290.01 394.16 519.75"/><path class="cls-3" d="M400.47,533a20.39,20.39,0,0,1,40.77,0"/><path class="cls-3" d="M399.33,533a20.39,20.39,0,0,0-40.77,0"/><rect class="cls-1" x="340.74" y="322.07" width="16.71" height="27.71" rx="4"/><path class="cls-4" d="M358.06,188.75a8.37,8.37,0,0,0-.56-2.43,8.26,8.26,0,0,0-1.62-2.56,7.55,7.55,0,0,0-2.39-1.73,7,7,0,0,0-2.92-.63h-3a7,7,0,0,0-2.92.63,7.55,7.55,0,0,0-2.39,1.73,8.26,8.26,0,0,0-1.62,2.56,8.37,8.37,0,0,0-.56,2.43h0V325.4h18V188.75Z"/><rect class="cls-1" x="442.56" y="322.07" width="16.71" height="27.71" rx="4"/><path class="cls-4" d="M459.88,188.75a8.37,8.37,0,0,0-.56-2.43,8.26,8.26,0,0,0-1.62-2.56,7.55,7.55,0,0,0-2.39-1.73,7,7,0,0,0-2.92-.63h-3a7,7,0,0,0-2.92.63,7.55,7.55,0,0,0-2.39,1.73,8.26,8.26,0,0,0-1.62,2.56,8.37,8.37,0,0,0-.56,2.43h0V325.4h18V188.75Z"/><path class="cls-5" d="M435.22,175.17l-15.42-6h-1.71a88.26,88.26,0,0,1-37.18,0H379.8l-15.42,6-2.88,2v141h77v-141Z"/><path class="cls-1" d="M398,163h4.14l.42-.14c1.16-.22,2.35-.19,3.5-.46,3.37-.8,5.57-4,7.35-6.93,3.48-5.81,8.61-12.19,9.4-18.92l2.14-18.15a15.59,15.59,0,0,0,.08-4.77c-.38-2-1.48-3.72-2.05-5.65-1.16-3.94,0-8.19-.44-12.28a15.14,15.14,0,0,0-5.65-10c-3.64-2.85-9.27-4.47-13.89-4.62l-5.86,0c-4.63.15-10.25,1.78-13.89,4.62a15.17,15.17,0,0,0-5.65,10.06c-.48,4.08.72,8.33-.44,12.28-.57,1.92-1.68,3.67-2.05,5.64a15.91,15.91,0,0,0,.07,4.77l2.14,18.16c.8,6.72,5.92,13.1,9.4,18.91,1.78,3,4,6.13,7.36,6.93,1.14.27,2.34.25,3.5.47Z"/><circle class="cls-6" cx="412.77" cy="117" r="1.78"/><circle class="cls-6" cx="387.27" cy="117" r="1.78"/><path class="cls-7" d="M398.07,132.89a1.26,1.26,0,1,1-1.26-1.26A1.26,1.26,0,0,1,398.07,132.89Z"/><path class="cls-7" d="M404.49,132.89a1.26,1.26,0,1,1-1.26-1.26A1.25,1.25,0,0,1,404.49,132.89Z"/><path class="cls-8" d="M407.44,144.88a7.58,7.58,0,0,0-.84-.36c-.28-.11-.57-.2-.86-.29l-.86-.26-.84-.28a8,8,0,0,1-.8-.34,6.26,6.26,0,0,1-.74-.44,3.57,3.57,0,0,1-.66-.58,2.32,2.32,0,0,1-.22.3,2.23,2.23,0,0,1-.27.26l-.28.26-.31.25-.3.28a2.68,2.68,0,0,0-.28.3.17.17,0,1,1-.32,0,2.76,2.76,0,0,0-.29-.3,2.68,2.68,0,0,0-.3-.28l-.3-.25-.29-.26a3.19,3.19,0,0,1-.26-.26,1.66,1.66,0,0,1-.22-.3,3.62,3.62,0,0,1-.67.58,5,5,0,0,1-.74.44,7.11,7.11,0,0,1-.8.34l-.84.28-.85.26c-.29.09-.58.18-.86.29a6.24,6.24,0,0,0-.84.36,5.33,5.33,0,0,0-.8.46l1.79.95c.67.36,1.61,1.27,2.37,1.64s1.34.91,2.15,1.24c.47.19.94-.36,1.41-.2l0,.32c.17,0,.35-.11.52-.16s.34.12.51.16V149c.47-.16.94.39,1.41.2.8-.33,1.6-.87,2.36-1.24s1.49-1.28,2.15-1.64l1.8-.95A5.88,5.88,0,0,0,407.44,144.88Z"/><path class="cls-1" d="M425.07,117.44c1.64-.31,3.2,1.12,3.64,2.73a10.15,10.15,0,0,1-.33,4.94l-1.48,6.25a11.92,11.92,0,0,1-1.51,4,3.93,3.93,0,0,1-3.69,1.82"/><path class="cls-1" d="M375,117.44c-1.64-.31-3.2,1.12-3.64,2.73a10,10,0,0,0,.33,4.94l1.48,6.25a11.52,11.52,0,0,0,1.51,4,3.93,3.93,0,0,0,3.69,1.82"/><path class="cls-9" d="M406.43,111.36q5.38-.52,10.79-.67a1.57,1.57,0,0,1,.78.12,1.49,1.49,0,0,1,.41.38,12.11,12.11,0,0,1,1.14,1.71"/><path class="cls-9" d="M393.61,111.36q-5.39-.52-10.8-.67a1.12,1.12,0,0,0-1.18.5,12.11,12.11,0,0,0-1.14,1.71"/><path class="cls-10" d="M423.63,101c-.61-1.73-1.22-3.48-1.69-5.32a31.78,31.78,0,0,1-.7-5.93,29.4,29.4,0,0,0-.8-6.06,16.63,16.63,0,0,0-7.93-10.21A22.67,22.67,0,0,0,399.57,71a22.65,22.65,0,0,0-12.94,2.53,16.59,16.59,0,0,0-7.93,10.21,28.73,28.73,0,0,0-.8,6.06,33.56,33.56,0,0,1-.7,5.93c-.47,1.84-1.09,3.59-1.7,5.32s-1.22,3.47-1.68,5.26a32,32,0,0,0-1,10.87c.3,3.54,2,5.84,2,4.2a64.63,64.63,0,0,1,.4-7.39,67,67,0,0,1,1.22-7.16c1.25-5.61,2.94-9.87,5.73-13.14s6.66-5.53,12.29-7.17a34,34,0,0,1,5-1,34.58,34.58,0,0,1,5,1c5.63,1.64,9.5,3.91,12.29,7.17s4.47,7.53,5.73,13.14a67,67,0,0,1,1.22,7.16,64.63,64.63,0,0,1,.4,7.39c0,1.64,1.75-.66,2.05-4.2a32,32,0,0,0-1-10.87C424.85,104.47,424.24,102.74,423.63,101Z"/><path class="cls-10" d="M371.9,122.81l-.25-.48C371.51,123,371.52,123.27,371.9,122.81Z"/><path class="cls-10" d="M427.48,122.33l-.24.48C427.61,123.27,427.63,123,427.48,122.33Z"/><path class="cls-11" d="M408.1,136.71c-2.78-.24-5.35.28-8.08.4-2.74-.12-5.3-.64-8.08-.4s-5.15,1.55-7.58,2l.23.29c.81,2.1,6.22.47,8.48.27,1.65-.14,5.57.06,6.95-.84,1.37.9,5.3.7,7,.84,2.26.2,7.67,1.83,8.47-.27l.23-.29C413.25,138.26,410.83,137,408.1,136.71Z"/><path class="cls-11" d="M422.63,135.35c-5.53,4.74-7.09,6.14-8.76,8.74-1.5,2.32-4.89,7.59-7.26,9.27-1.57,1.12-5,2.91-6.26,4.31a3.82,3.82,0,0,0-.33.43c-.1-.14-.21-.28-.34-.43-1.26-1.4-4.68-3.19-6.26-4.31-2.37-1.68-5.75-7-7.25-9.27-1.68-2.6-3.24-4-8.77-8.74-2.36-2,.65,7.55,1.58,9.31,1.35,2.57,3.5,7.21,5.58,9.31a78.81,78.81,0,0,0,6.09,5.74c2.15,1.78,8,4.56,9.37,3.3,1.34,1.26,7.22-1.52,9.36-3.3a79,79,0,0,0,6.1-5.74c2.07-2.1,4.22-6.74,5.58-9.31C422,142.9,425,133.33,422.63,135.35Z"/><path class="cls-5" d="M358,257.27V188.94h0a8.79,8.79,0,0,0-.2-1.25,7.68,7.68,0,0,0-.36-1.18,8.41,8.41,0,0,0-.7-1.37,8.79,8.79,0,0,0-.92-1.19,8,8,0,0,0-1.11-1,7.1,7.1,0,0,0-1.28-.74,6.32,6.32,0,0,0-1.41-.47,6.85,6.85,0,0,0-1.51-.17h-3a6.85,6.85,0,0,0-1.51.17,6.32,6.32,0,0,0-1.41.47,7.1,7.1,0,0,0-1.28.74,8,8,0,0,0-1.11,1,8.79,8.79,0,0,0-.92,1.19,8.41,8.41,0,0,0-.7,1.37,7.68,7.68,0,0,0-.36,1.18,8.79,8.79,0,0,0-.2,1.25h0v68.33"/><path class="cls-5" d="M460,257.43V189.11h0a8.71,8.71,0,0,0-.2-1.26,8,8,0,0,0-.36-1.18,8.31,8.31,0,0,0-.7-1.36,7.7,7.7,0,0,0-.92-1.19,7.42,7.42,0,0,0-1.11-1,7.1,7.1,0,0,0-1.28-.74,7.53,7.53,0,0,0-1.41-.47,6.85,6.85,0,0,0-1.51-.16h-3a6.85,6.85,0,0,0-1.51.16,7.53,7.53,0,0,0-1.41.47,7.1,7.1,0,0,0-1.28.74,7.42,7.42,0,0,0-1.11,1,7.7,7.7,0,0,0-.92,1.19,8.31,8.31,0,0,0-.7,1.36,8,8,0,0,0-.36,1.18,8.71,8.71,0,0,0-.2,1.26h0v68.32"/></g></svg>