<svg id="Layer_2" data-name="Layer 2" xmlns="http://www.w3.org/2000/svg" viewBox="0 0 800 600"><defs><style>.cls-1{fill:#f6cac9;}.cls-1,.cls-6{stroke:#dcb5b3;}.cls-1,.cls-12,.cls-6{stroke-miterlimit:10;}.cls-2{fill:#be1e2d;}.cls-12,.cls-3{fill:#fff;}.cls-4{fill:#74acb8;}.cls-5{fill:#404041;}.cls-6{fill:none;}.cls-7{fill:#b18e6a;}.cls-8{fill:#f16522;}.cls-9{fill:#ed6da8;}.cls-10{fill:#8a5d3b;}.cls-11{fill:#481c11;opacity:0.05;}.cls-12{stroke:#dddddc;}.cls-13{fill:#6d74b6;}</style></defs><path class="cls-1" d="M377.93,144.07c2.79,7.86,8.57,25.55,8.23,35-1.21,4.59-8.8,9.62-13.91,18.53-1.09,1.89-2.8,3.35-4,5.2-4.31,5.1-10.58,9.17-14.11,14.76-4,6.35-4.48,15.26-5.73,22.36a599.55,599.55,0,0,0-9.33,102c0,9.85.92,33.74,13.83,34.66,9.81.7,4.49-5.46,2.32-10-2.48-5.2-2.76-11.13-2.42-17.72a10.75,10.75,0,0,1,4.82,0c1.72,5.88,7.61,9.83,8.83,1.74.8-5.29-4.21-7-6.13-12.09-2.14-5.65-1.93-13.76-3.41-20.37-1.67-7.49,3.33-15.27,3.41-23.36.13-14.11-3.42-23.16-.81-36.12,1.71-8.45.61-23,5.53-30v.74c-3.55,13.65,6.13,36,6.13,49.48,0,13.23-6.49,26.65-5.82,39.82,1.54.13,3,.29,4.52.48l2.65,176.88,0,2a11.3,11.3,0,0,0-.3,1.67c-.33,6.05-3.78,7.47-8.24,10.17-3.95,2.39-8.39,4.78-13.14,5.76-3.95.81-10.75-.24-11.77,4.47-1.4,6.52,5,5.37,9.23,6,2.36.36,4.14,1.26,6.64,1.36a49,49,0,0,0,8.42-.56c5.59-.81,11.3-.85,17.09-1.44,5-.5,13.07,1.31,14.16-4.5,1.27-6.81-2.69-13.14-2-19.57l.06-3.57h0v-1.56h0l-2.61-174c2.57.32,5.23.56,8,.68v.09h.1c.61,0,1.19,0,1.78,0s1.17,0,1.78,0h.1V323c2.78-.12,5.44-.36,8-.68l-2.61,174h0v1.56h0l.06,3.57c.7,6.43-3.26,12.76-2,19.57,1.09,5.81,9.12,4,14.16,4.5,5.79.59,11.5.63,17.09,1.44a49,49,0,0,0,8.42.56c2.5-.1,4.28-1,6.64-1.36,4.19-.64,10.63.51,9.23-6-1-4.71-7.82-3.66-11.77-4.47-4.75-1-9.19-3.37-13.14-5.76-4.46-2.7-7.91-4.12-8.24-10.17a11.3,11.3,0,0,0-.3-1.67l0-2,2.65-176.88c1.48-.19,3-.35,4.52-.48.67-13.17-5.82-26.59-5.82-39.82,0-13.52,9.68-35.83,6.13-49.48v-.74c4.92,7,3.82,21.58,5.53,30,2.61,13-.94,22-.81,36.12.08,8.09,5.08,15.87,3.41,23.36-1.48,6.61-1.27,14.72-3.41,20.37-1.92,5.1-6.93,6.8-6.13,12.09,1.22,8.09,7.11,4.14,8.83-1.74a10.75,10.75,0,0,1,4.82,0c.34,6.59.06,12.52-2.42,17.72-2.17,4.55-7.49,10.71,2.32,10,12.91-.92,13.84-24.81,13.83-34.66a599.55,599.55,0,0,0-9.33-102c-1.25-7.1-1.73-16-5.73-22.36-3.53-5.59-9.8-9.66-14.11-14.76-1.2-1.85-4.61-3.31-5.7-5.2a74.6,74.6,0,0,1-10-34.16c.43-7.43,3-15,4.59-19.39"/><path class="cls-2" d="M395.29,511c-.68-4.65-1.77-8.92-1.8-12.07-4.92-.22-14.59-2.81-19.06-.9-2.18.93-8.87,6.35-11.29,7.92-2.62,1.72-4.5,3.44-7.55,4.44-.67.22-1.42.42-2.24.61H343c-6.21,0-11.24,7.11-11.24,15.88h0c-.17,2.46,6.8,2.46,13,2.46h48.88l1.65-2.46h.06V511Z"/><path class="cls-2" d="M404.71,511c.68-4.65,1.77-8.92,1.8-12.07,4.92-.22,14.59-2.81,19.06-.9,2.18.93,8.87,6.35,11.29,7.92,2.62,1.72,4.5,3.44,7.55,4.44.67.22,1.42.42,2.24.61H457c6.21,0,11.24,7.11,11.24,15.88h0c.17,2.46-6.8,2.46-13,2.46H406.32l-1.65-2.46h-.06V511Z"/><path class="cls-1" d="M427.23,119.09c-.69-5.08-2.93-9.83-3.74-14.85s-.33-10.19-2.34-14.85c-4.28-9.92-13.16-13.57-22.32-13.14-9.17-.43-18,3.22-22.32,13.14-2,4.66-1.55,9.94-2.34,14.85s-3.06,9.77-3.74,14.85c-1.18,8.71,4.87,22.12,9.54,28.93,4.46,6.49,9.77,14.3,17.71,14.38.39,0,.77,0,1.15,0s.76,0,1.14,0c7.94-.08,13.26-7.89,17.72-14.38C422.36,141.21,428.41,127.8,427.23,119.09Z"/><path class="cls-1" d="M425.66,118.74c.32-2.54,4.14-6.48,5.82-1.78,1.37,3.83-2.9,7.32-1.83,11.12a6.83,6.83,0,0,1-1.94,1.68,8.66,8.66,0,0,1-.88-3.25"/><path class="cls-3" d="M404,114.72c7.56-6,9.55-2.63,15.12,1.22-3.84,1-10.23,2.86-15.12-1.22"/><path class="cls-4" d="M415.26,114.3A3.81,3.81,0,0,0,415,113c-2-1.33-3.73-2-6.18-1.2a3.71,3.71,0,0,0,.23,5.25,16.62,16.62,0,0,0,5,0A3.71,3.71,0,0,0,415.26,114.3Z"/><path class="cls-5" d="M412.84,114.45a1.28,1.28,0,1,1-1.28-1.27A1.28,1.28,0,0,1,412.84,114.45Z"/><path class="cls-6" d="M404.93,117.76c2.42,1.82,5.25,2.24,8.05,2.85"/><path class="cls-6" d="M400.72,108.12c2.69-.45,5.6-2.72,8.23-2.78,3.46-.09,5.14,2,8.23,2.78"/><path class="cls-3" d="M392,114.92c-7.56-6-9.55-2.62-15.12,1.23,3.84,1,10.23,2.85,15.12-1.23"/><path class="cls-4" d="M380.7,114.5a3.71,3.71,0,0,1,.24-1.3c2-1.33,3.74-2,6.18-1.2a3.69,3.69,0,0,1-.23,5.24,16,16,0,0,1-5,0A3.69,3.69,0,0,1,380.7,114.5Z"/><path class="cls-5" d="M383.12,114.66a1.28,1.28,0,1,0,1.28-1.28A1.28,1.28,0,0,0,383.12,114.66Z"/><path class="cls-6" d="M391,118c-2.42,1.82-5.25,2.25-8,2.86"/><path class="cls-6" d="M395.24,108.32c-2.69-.45-5.6-2.71-8.23-2.78-3.46-.09-5.14,2-8.23,2.78"/><path class="cls-7" d="M397.2,131a1.27,1.27,0,1,1-1.26-1.27A1.26,1.26,0,0,1,397.2,131Z"/><path class="cls-7" d="M402.56,131a1.27,1.27,0,1,1-1.26-1.27A1.26,1.26,0,0,1,402.56,131Z"/><path class="cls-8" d="M406.2,142.6c-.28-.09-.57-.18-.86-.25s-.58-.14-.88-.2l-.87-.19-.86-.2c-.28-.07-.55-.15-.82-.24a5.58,5.58,0,0,1-.75-.3,5.23,5.23,0,0,1-.69-.41,1.42,1.42,0,0,1-.22.2,1.85,1.85,0,0,1-.27.19l-.29.18-.31.18-.31.19a3.15,3.15,0,0,0-.29.22l-.16.16-.17-.16a2.21,2.21,0,0,0-.29-.22l-.3-.19-.31-.18-.3-.18L397,141a2.09,2.09,0,0,1-.22-.2,5.11,5.11,0,0,1-.68.41,5.72,5.72,0,0,1-.76.3q-.39.14-.81.24l-.86.2-.88.19c-.29.06-.58.12-.87.2s-.58.16-.86.25a7.38,7.38,0,0,0-.82.33l1.83.67,2.2.77c.78.27,1.59.52,2.42.75.47.14,1,.26,1.44.37l0,.23.53-.12.52.12v-.23c.48-.11,1-.23,1.44-.37.82-.23,1.63-.48,2.41-.75s1.52-.52,2.2-.77l1.83-.67A7.22,7.22,0,0,0,406.2,142.6Z"/><path class="cls-1" d="M371.57,118.74c-.31-2.54-4.14-6.48-5.82-1.78-1.36,3.83,2.9,7.32,1.83,11.12a7.12,7.12,0,0,0,1.94,1.68,8.31,8.31,0,0,0,.88-3.25"/><path class="cls-9" d="M376.88,368.89c3.22,0,3.22-5,0-5s-3.22,5,0,5Z"/><path class="cls-9" d="M383.68,376.54c3.22,0,3.22-5,0-5s-3.22,5,0,5Z"/><path class="cls-9" d="M375.18,399.49c3.22,0,3.22-5,0-5s-3.22,5,0,5Z"/><path class="cls-9" d="M375.18,389.29c3.22,0,3.22-5,0-5s-3.22,5,0,5Z"/><path class="cls-9" d="M381.13,390.14c3.22,0,3.22-5,0-5s-3.22,5,0,5Z"/><path class="cls-9" d="M383.68,413.94c3.22,0,3.22-5,0-5s-3.22,5,0,5Z"/><path class="cls-9" d="M383.68,393.54c3.22,0,3.22-5,0-5s-3.22,5,0,5Z"/><path class="cls-9" d="M383.68,398.64c3.22,0,3.22-5,0-5s-3.22,5,0,5Z"/><path class="cls-9" d="M380.28,412.24c3.22,0,3.22-5,0-5s-3.22,5,0,5Z"/><path class="cls-9" d="M370.08,416.49c3.22,0,3.22-5,0-5s-3.22,5,0,5Z"/><path class="cls-9" d="M387.93,435.19c3.22,0,3.22-5,0-5s-3.22,5,0,5Z"/><path class="cls-9" d="M376,443.69c3.22,0,3.22-5,0-5s-3.22,5,0,5Z"/><path class="cls-9" d="M377.73,433.49c3.22,0,3.22-5,0-5s-3.22,5,0,5Z"/><path class="cls-9" d="M377.73,433.49c3.22,0,3.22-5,0-5s-3.22,5,0,5Z"/><path class="cls-9" d="M387.08,365.49c3.22,0,3.22-5,0-5s-3.22,5,0,5Z"/><path class="cls-9" d="M390.48,385.89c3.22,0,3.22-5,0-5s-3.22,5,0,5Z"/><path class="cls-9" d="M373.48,376.54c3.22,0,3.22-5,0-5s-3.22,5,0,5Z"/><path class="cls-10" d="M424.13,98a48.81,48.81,0,0,1-1.79-4.83,25.48,25.48,0,0,1-.75-5.37,22.63,22.63,0,0,0-.85-5.49,15.66,15.66,0,0,0-8.4-9.26,27.56,27.56,0,0,0-13.72-2.29,27.52,27.52,0,0,0-13.72,2.29,15.63,15.63,0,0,0-8.4,9.26,22.64,22.64,0,0,0-.86,5.49,24.85,24.85,0,0,1-.74,5.37c-.5,1.67-1.15,3.25-1.79,4.83a50.48,50.48,0,0,0-1.79,4.76,25.08,25.08,0,0,0-1,9.85c.32,3.21,2.17,5.29,2.17,3.8a51.18,51.18,0,0,1,.43-6.69,52.05,52.05,0,0,1,1.29-6.49c1.33-5.08,3.12-8.94,6.08-11.9s7.06-5,13-6.51a42.44,42.44,0,0,1,5.34-.92,42.59,42.59,0,0,1,5.33.92c6,1.49,10.08,3.55,13,6.51s4.74,6.82,6.07,11.9a52.12,52.12,0,0,1,1.3,6.49,51.22,51.22,0,0,1,.42,6.69c0,1.49,1.86-.59,2.17-3.8a24.71,24.71,0,0,0-1-9.85A50.41,50.41,0,0,0,424.13,98Z"/><path class="cls-10" d="M369.28,117.76l-.25-.43C368.87,117.9,368.89,118.18,369.28,117.76Z"/><path class="cls-10" d="M428.21,117.33l-.26.43C428.35,118.18,428.37,117.9,428.21,117.33Z"/><path class="cls-11" d="M423.24,130.64c-6,5.15-7.72,6.68-9.54,9.51-1.64,2.53-5.32,8.27-7.9,10.1-1.71,1.21-5.44,3.17-6.82,4.68a4.61,4.61,0,0,0-.36.48,4.78,4.78,0,0,0-.37-.48c-1.37-1.51-5.1-3.47-6.81-4.68-2.58-1.83-6.27-7.57-7.9-10.1-1.83-2.83-3.52-4.36-9.55-9.51-2.57-2.2.71,8.21,1.72,10.13,1.47,2.8,3.82,7.85,6.08,10.13a83.64,83.64,0,0,0,6.63,6.26c2.34,1.94,8.73,5,10.2,3.59,1.46,1.38,7.86-1.65,10.2-3.59a85.41,85.41,0,0,0,6.63-6.26c2.26-2.28,4.6-7.33,6.08-10.13C422.54,138.85,425.81,128.44,423.24,130.64Z"/><path class="cls-11" d="M406.7,135.2c-2.78-.25-5.35.27-8.08.4-2.74-.13-5.3-.65-8.08-.4s-5.15,1.55-7.57,2l.22.28c.81,2.11,6.22.48,8.48.28,1.65-.14,5.57.06,6.95-.84,1.37.9,5.3.7,6.95.84,2.26.2,7.67,1.83,8.47-.28l.23-.28C411.85,136.75,409.43,135.44,406.7,135.2Z"/><polygon class="cls-5" points="395.3 503.72 388.28 503.72 381.27 503.72 374.26 503.72 367.25 503.72 364.27 474.65 363.94 416.86 363.94 376.91 367.25 307.37 374.26 307.37 381.27 307.37 388.28 307.37 395.3 307.37 404.97 306.67 395.45 394.92 395.24 482.31 395.3 503.72"/><path class="cls-12" d="M364.22,287.92c0-2.14,0-4.17.09-6,.89-19.66,42.28-95.69,13.66-93.44l-22.16,13.37c-8.88,27.88-13.09,56.88-15.22,86.11Z"/><path class="cls-12" d="M436.67,287.92c0-2.14,0-4.17-.08-6-.9-19.66-42.29-95.69-13.67-93.44l22.17,13.37c8.87,27.88,13.08,56.88,15.22,86.11Z"/><polygon class="cls-5" points="405.74 503.72 412.76 503.72 419.77 503.72 426.78 503.72 433.79 503.72 436.77 474.65 437.1 416.86 437.1 376.91 433.79 307.37 426.78 307.37 419.77 307.37 412.76 307.37 405.74 307.37 396.07 306.67 405.59 394.92 405.8 482.31 405.74 503.72"/><path class="cls-13" d="M452.5,221.74c-7-11.3-6.05-28.87-26.49-37.64-7.58,0-11,.6-19.65.94H393.64c-8.64-.34-12.07-.94-19.65-.94-20.44,8.77-19.5,26.34-26.48,37.64-10.8,17.47,8.85,23.5,14.47,26.08-.46,10.25,0,51.3-.46,61.34-.65,14.14-4,17.94,8.54,17.93,6.64,0,13.31.12,20,.24v.15l3.59-.05v.05H410v-.15c6.68-.12,13.35-.24,20-.24,12.55,0,9.19-3.79,8.54-17.93-.47-10,0-50.24-.46-60.49C443.64,246.09,463.29,239.21,452.5,221.74Z"/></svg>