<svg xmlns="http://www.w3.org/2000/svg" viewBox="0 0 800 600"><defs><style>.cls-1{fill:#fddec3;}.cls-2,.cls-4{fill:#404041;}.cls-3{fill:#fff;}.cls-4{stroke:#fff;}.cls-4,.cls-8{stroke-miterlimit:10;}.cls-5{fill:#74acb8;}.cls-6{fill:#b18e6a;}.cls-7{fill:#de887b;}.cls-8{fill:none;stroke:#a56f29;}.cls-9{fill:#8a5d3b;}.cls-10{fill:#481c11;opacity:0.05;}.cls-11{fill:#b2a9a9;}.cls-12{fill:#be1e2d;}</style></defs><g id="Layer_3" data-name="Layer 3"><polygon class="cls-1" points="429.15 168.72 410.14 194.38 392.49 168.72 400.63 168.72 400.63 157.5 410.82 157.5 421 157.5 421 168.72 429.15 168.72"/><polygon class="cls-2" points="442.29 313.01 380.57 313.01 379.34 288.33 441.06 288.33 442.29 313.01"/><path class="cls-3" d="M431.36,170v-2.73c-1.86.52-3.81,1.17-5.8,1.81l-1,.13-.09.21c-.87.28-1.74.54-2.62.79-3.32.95-6.77,21.68-10.33,21.68s-7-20.73-10.33-21.68-6.5-2.1-9.5-2.94v2.23l-17.92,6.27v14l4,46.47v57.53l32.87.34H411l32.87-.34V236.25l4-46.47v-14Z"/><polygon class="cls-2" points="444.8 519.75 416.51 519.75 416.51 290.01 441.1 290.01 444.8 519.75"/><polygon class="cls-2" points="404.98 519.75 376.68 519.75 379.15 290.01 403.74 290.01 404.98 519.75"/><path class="cls-4" d="M411.29,533a20.39,20.39,0,0,1,40.77,0"/><path class="cls-4" d="M410.15,533a20.39,20.39,0,0,0-40.77,0"/><rect class="cls-1" x="351.55" y="322.07" width="16.71" height="27.71" rx="4"/><path class="cls-2" d="M368.87,188.75a8.28,8.28,0,0,0-2.17-5,7.55,7.55,0,0,0-2.39-1.73,7,7,0,0,0-2.92-.63h-3a7,7,0,0,0-2.92.63,7.55,7.55,0,0,0-2.39,1.73,7.91,7.91,0,0,0-1.62,2.56,8.37,8.37,0,0,0-.56,2.43h0V325.4h18V188.75Z"/><rect class="cls-1" x="453.37" y="322.07" width="16.71" height="27.71" rx="4"/><path class="cls-2" d="M470.69,188.75a8.37,8.37,0,0,0-.56-2.43,8.06,8.06,0,0,0-1.61-2.56,7.55,7.55,0,0,0-2.39-1.73,7,7,0,0,0-2.92-.63h-3a7,7,0,0,0-2.92.63,7.55,7.55,0,0,0-2.39,1.73,7.91,7.91,0,0,0-1.62,2.56,8.37,8.37,0,0,0-.56,2.43h0V325.4h18V188.75Z"/><path class="cls-1" d="M408.74,162.5h4.15l.42-.14c1.16-.22,2.35-.19,3.5-.46,3.37-.81,5.57-4,7.35-6.94,3.48-5.8,8.61-12.19,9.4-18.91l2.14-18.16a15.84,15.84,0,0,0,.08-4.76c-.38-2-1.49-3.73-2-5.65-1.17-3.94,0-8.2-.44-12.28a15.14,15.14,0,0,0-5.65-10c-3.65-2.85-9.27-4.47-13.89-4.62l-5.87,0c-4.62.15-10.24,1.77-13.88,4.62a15.14,15.14,0,0,0-5.65,10c-.48,4.09.72,8.34-.44,12.28-.57,1.93-1.68,3.68-2.05,5.65a15.84,15.84,0,0,0,.07,4.76L388.07,136c.79,6.73,5.92,13.11,9.4,18.92,1.78,3,4,6.13,7.36,6.93,1.14.27,2.34.24,3.49.46Z"/><circle class="cls-5" cx="423.56" cy="116.47" r="1.78"/><circle class="cls-5" cx="398.07" cy="116.47" r="1.78"/><path class="cls-6" d="M408.87,132.36a1.27,1.27,0,1,1-1.26-1.27A1.27,1.27,0,0,1,408.87,132.36Z"/><path class="cls-6" d="M415.29,132.36a1.26,1.26,0,1,1-1.26-1.27A1.26,1.26,0,0,1,415.29,132.36Z"/><path class="cls-7" d="M418.24,144.34l-.84-.36-.86-.28-.86-.27-.84-.28c-.27-.1-.54-.21-.8-.33a5,5,0,0,1-.74-.44,4.57,4.57,0,0,1-.67-.58,1.48,1.48,0,0,1-.22.29,2.2,2.2,0,0,1-.26.27l-.29.25-.3.26-.3.27a4.12,4.12,0,0,0-.28.31,1.88,1.88,0,0,0-.16.23l-.16-.23c-.09-.11-.19-.21-.29-.31l-.3-.27-.3-.26-.29-.25a3.31,3.31,0,0,1-.26-.27,2,2,0,0,1-.22-.29,4.57,4.57,0,0,1-.67.58,5,5,0,0,1-.74.44c-.26.12-.53.23-.8.33l-.84.28-.86.27-.85.28q-.44.17-.84.36a5.78,5.78,0,0,0-.8.47l1.79.95c.67.35,1.6,1.26,2.36,1.63s1.35.92,2.16,1.24c.46.19.94-.35,1.41-.19l0,.32.52-.16.51.16v-.32c.47-.16.94.38,1.41.19.8-.32,1.6-.87,2.36-1.24s1.48-1.28,2.15-1.63l1.8-.95A7.26,7.26,0,0,0,418.24,144.34Z"/><path class="cls-1" d="M435.87,116.91c1.63-.32,3.2,1.12,3.64,2.73a10.15,10.15,0,0,1-.33,4.94l-1.48,6.25a11.61,11.61,0,0,1-1.52,4,3.94,3.94,0,0,1-3.68,1.83"/><path class="cls-1" d="M385.77,116.91c-1.64-.32-3.2,1.12-3.64,2.73a10,10,0,0,0,.33,4.94l1.48,6.25a11.4,11.4,0,0,0,1.51,4,3.94,3.94,0,0,0,3.69,1.83"/><path class="cls-8" d="M417.23,110.82q5.38-.51,10.79-.66a1.46,1.46,0,0,1,.78.12,1.35,1.35,0,0,1,.41.38,11.56,11.56,0,0,1,1.14,1.71"/><path class="cls-8" d="M404.41,110.82q-5.39-.51-10.8-.66a1.46,1.46,0,0,0-.78.12,1.32,1.32,0,0,0-.4.38,11.62,11.62,0,0,0-1.15,1.71"/><path class="cls-9" d="M390,88.43A47.31,47.31,0,0,1,397.34,82a24.82,24.82,0,0,1,8.12-3.28,31,31,0,0,1,12.25.06,16.3,16.3,0,0,1,4.05,1.58c8.48,4.5,14.74,14.24,14.23,23.83-.19,3.75-1.22,7.49-.68,11.21-2.36-3.87-3.14-8.76-3.36-13.28s-.91-9.45-4.19-12.59a14.65,14.65,0,0,0-6-3.21c-5.81-1.72-12-1.52-18.05-.81-4.13.49-8.53,1.37-11.38,4.39s-2.73,8.28-3.13,12.38c-.45,4.64-1.23,8.5-1.85,13.11C384.06,106.24,384,95.72,390,88.43Z"/><path class="cls-10" d="M396.42,152.92c1.26,2.16,2.61,4.41,4.76,5.68s5.11,1.36,7.78,1.32c4.15,0,8.48-.13,12.2-2,4.74-2.36,4.52-4.48,6.51-9.39,1.09-2.67,5.17-8.25,5-11.14-1-.6-2.23.32-3,1.2-3.74,4.33-6.49,9.77-11.44,12.63-3.08,1.78-2.68,2.36-6.21,2.71-2.71.27-6.72.34-8.84-1.36-1.28-1-5.05-2.53-5.86-4a35.32,35.32,0,0,0-7.68-9.47C390.22,143.73,394.06,148.88,396.42,152.92Z"/><path class="cls-10" d="M418.79,137.75c-2.79-.25-5.35.27-8.09.4-2.73-.13-5.29-.65-8.08-.4s-5.15,1.54-7.57,2l.23.29c.8,2.1,6.21.47,8.48.28,1.64-.15,5.57.06,6.94-.85,1.38.91,5.31.7,6.95.85,2.26.19,7.67,1.82,8.48-.28l.23-.29C423.93,139.29,421.51,138,418.79,137.75Z"/><polyline class="cls-2" points="391.59 311.61 371.9 312.54 371.9 278.56 371.9 244.57 371.9 210.58 371.9 176.59 395.81 170.07 409.87 240.84 409.87 284.61"/><polyline class="cls-2" points="430.05 311.69 449.73 312.62 449.73 278.63 449.73 244.64 449.73 210.66 449.73 176.67 425.83 170.15 411.77 240.92 411.77 284.69"/><polygon class="cls-11" points="439.87 177.41 411.87 240.41 425.87 170.41 430.87 179.41 439.87 177.41"/><polygon class="cls-11" points="381.89 177.41 409.89 240.41 395.89 170.41 390.89 179.41 381.89 177.41"/><circle class="cls-12" cx="429.82" cy="185.98" r="4.5"/><circle class="cls-9" cx="410.82" cy="254.23" r="4"/></g></svg>