<svg xmlns="http://www.w3.org/2000/svg" viewBox="0 0 800 600"><defs><style>.cls-1{fill:#74acb8;}.cls-2{fill:#fddec3;}.cls-3{fill:#fdd9b6;}.cls-4{fill:#de887b;}.cls-5{fill:#b18e6a;}.cls-6{fill:none;stroke:#a56f29;stroke-width:0.25px;}.cls-6,.cls-8{stroke-miterlimit:10;}.cls-7,.cls-8{fill:#404041;}.cls-8{stroke:#fff;}.cls-9{fill:#2e5d8e;}.cls-10{fill:#481c11;opacity:0.05;}.cls-11{fill:#8a5d3b;}</style></defs><g id="Layer_3" data-name="Layer 3"><circle class="cls-1" cx="400" cy="113.81" r="2.45"/><path class="cls-2" d="M402.52,162.08c6.85-1.84,7.85-2.15,12-7.93,3-4.28,6.48-10.88,7.35-16.07,2.41-14.33,5.69-30.64.81-44.32-2.83-7.94-12.34-10.08-20.72-9.15h-3.84c-8.38-.93-17.89,1.21-20.72,9.15-4.88,13.68-1.6,30,.81,44.32.87,5.19,4.3,11.79,7.35,16.07,4.11,5.78,5.11,6.09,12,7.93Z"/><path class="cls-3" d="M425.31,110c2.36.22,3.92,4.21,3.48,8.92s-2.69,8.35-5,8.13"/><path class="cls-3" d="M376.91,128.05c-2.33.37-4.83-3.12-5.57-7.79s.55-8.75,2.89-9.12"/><path class="cls-4" d="M408.83,141.89l-1-.25-1-.2-1-.19-1-.19c-.33-.07-.64-.15-1-.24a7.59,7.59,0,0,1-.88-.31,6.63,6.63,0,0,1-.8-.4,1.37,1.37,0,0,1-.26.2,2.32,2.32,0,0,1-.31.19l-.34.18a18.42,18.42,0,0,0-.72.37l-.34.21-.19.16-.19-.16-.34-.21-.36-.19a3,3,0,0,0-.36-.18l-.34-.18a2.32,2.32,0,0,1-.31-.19,1.89,1.89,0,0,1-.27-.2,5.84,5.84,0,0,1-.79.4,7.59,7.59,0,0,1-.88.31c-.31.09-.63.17-1,.24l-1,.19-1,.19-1,.2-1,.25a8.83,8.83,0,0,0-.95.33l2.13.67c.79.25,1.66.51,2.56.77s1.86.52,2.82.75c.55.13,1.11.25,1.67.36V145l.61-.12.61.12,0-.23q.86-.17,1.68-.36c1-.23,1.91-.49,2.82-.75s1.76-.52,2.56-.77l2.13-.67A8.83,8.83,0,0,0,408.83,141.89Z"/><path class="cls-5" d="M398.11,126.65a1.23,1.23,0,1,1-1.22-1.22A1.22,1.22,0,0,1,398.11,126.65Z"/><path class="cls-5" d="M404.34,126.65a1.23,1.23,0,1,1-1.23-1.22A1.22,1.22,0,0,1,404.34,126.65Z"/><circle class="cls-1" cx="413.15" cy="112.89" r="1.83"/><circle class="cls-1" cx="386.85" cy="112.89" r="1.83"/><path class="cls-6" d="M394.22,107.05c-3.65-2-8.19-.94-12.22.21"/><path class="cls-6" d="M405.78,107.05c3.65-2,8.19-.94,12.22.21"/><polygon class="cls-2" points="418.33 170.04 399.32 195.69 381.67 170.04 389.82 170.04 389.82 158.81 400 158.81 410.18 158.81 410.18 170.04 418.33 170.04"/><polygon class="cls-7" points="431.48 314.33 369.76 314.33 368.52 289.64 430.24 289.64 431.48 314.33"/><polygon class="cls-7" points="433.98 519.75 405.69 519.75 405.69 290.01 430.28 290.01 433.98 519.75"/><polygon class="cls-7" points="394.16 519.75 365.87 519.75 368.34 290.01 392.93 290.01 394.16 519.75"/><path class="cls-8" d="M400.47,533a20.39,20.39,0,0,1,40.77,0"/><path class="cls-8" d="M399.33,533a20.39,20.39,0,0,0-40.77,0"/><rect class="cls-2" x="340.74" y="322.07" width="16.71" height="27.71" rx="4"/><path class="cls-9" d="M358.06,188.75a8.37,8.37,0,0,0-.56-2.43,8.26,8.26,0,0,0-1.62-2.56,7.55,7.55,0,0,0-2.39-1.73,7,7,0,0,0-2.92-.63h-3a7,7,0,0,0-2.92.63,7.55,7.55,0,0,0-2.39,1.73,8.26,8.26,0,0,0-1.62,2.56,8.37,8.37,0,0,0-.56,2.43h0V325.4h18V188.75Z"/><rect class="cls-2" x="442.56" y="322.07" width="16.71" height="27.71" rx="4"/><path class="cls-9" d="M459.88,188.75a8.37,8.37,0,0,0-.56-2.43,8.26,8.26,0,0,0-1.62-2.56,7.55,7.55,0,0,0-2.39-1.73,7,7,0,0,0-2.92-.63h-3a7,7,0,0,0-2.92.63,7.55,7.55,0,0,0-2.39,1.73,8.26,8.26,0,0,0-1.62,2.56,8.37,8.37,0,0,0-.56,2.43h0V325.4h18V188.75Z"/><path class="cls-9" d="M435.22,175.17l-15.42-6h-1.71a88.26,88.26,0,0,1-37.18,0H379.8l-15.42,6-2.88,2v141h77v-141Z"/><path class="cls-10" d="M408.08,134c-2.78-.24-5.34.28-8.08.4-2.74-.12-5.3-.64-8.08-.4s-5.15,1.55-7.57,2l.23.29c.8,2.1,6.21.47,8.47.27,1.65-.14,5.57.06,6.95-.84,1.38.9,5.3.7,6.95.84,2.26.2,7.67,1.83,8.47-.27l.23-.29C413.23,135.55,410.81,134.25,408.08,134Z"/><path class="cls-10" d="M422.62,132.64c-5.54,4.74-7.09,6.14-8.77,8.74-1.5,2.32-4.89,7.59-7.25,9.27-1.58,1.12-5,2.91-6.26,4.31a3,3,0,0,0-.34.43,4,4,0,0,0-.34-.43c-1.25-1.4-4.68-3.19-6.26-4.31-2.37-1.68-5.75-7-7.25-9.27-1.68-2.6-3.24-4-8.77-8.74-2.36-2,.65,7.55,1.58,9.31,1.35,2.57,3.5,7.21,5.58,9.31a78.81,78.81,0,0,0,6.09,5.74c2.15,1.78,8,4.57,9.37,3.3,1.35,1.27,7.22-1.52,9.37-3.3a78.81,78.81,0,0,0,6.09-5.74c2.08-2.1,4.23-6.74,5.58-9.31C422,140.19,425,130.62,422.62,132.64Z"/><path class="cls-11" d="M423.79,99.62c-.61-1.56-1.22-3.14-1.69-4.8a26,26,0,0,1-.7-5.35,24.08,24.08,0,0,0-.81-5.47,15.31,15.31,0,0,0-7.95-9.2,24.81,24.81,0,0,0-13-2.29,24.83,24.83,0,0,0-13,2.29,15.26,15.26,0,0,0-7.94,9.2,23,23,0,0,0-.81,5.47,26.69,26.69,0,0,1-.7,5.35c-.47,1.66-1.09,3.24-1.7,4.8s-1.22,3.12-1.69,4.74a26.16,26.16,0,0,0-1,9.81c.3,3.19,2.05,5.26,2.05,3.78a52.51,52.51,0,0,1,.4-6.66,55.06,55.06,0,0,1,1.23-6.46c1.26-5.06,2.95-8.9,5.74-11.85s6.68-5,12.33-6.47a38,38,0,0,1,5-.92,38.46,38.46,0,0,1,5,.92C410.35,88,414.24,90,417,93s4.49,6.79,5.75,11.85a55,55,0,0,1,1.22,6.46,52.51,52.51,0,0,1,.4,6.66c0,1.48,1.76-.59,2.05-3.78a26,26,0,0,0-1-9.81C425,102.74,424.41,101.19,423.79,99.62Z"/><path class="cls-11" d="M371.91,119.29l-.24-.43C371.52,119.43,371.54,119.71,371.91,119.29Z"/><path class="cls-11" d="M427.65,118.86l-.24.43C427.78,119.71,427.8,119.43,427.65,118.86Z"/></g></svg>