<?xml version="1.0" encoding="utf-8"?>
<!-- Generator: Adobe Illustrator 22.0.0, SVG Export Plug-In . SVG Version: 6.00 Build 0)  -->
<svg version="1.1" id="Layer_1" xmlns="http://www.w3.org/2000/svg" xmlns:xlink="http://www.w3.org/1999/xlink" x="0px" y="0px"
	 viewBox="0 0 200 550" style="enable-background:new 0 0 200 550;" xml:space="preserve">
<style type="text/css">
	.st0{fill:#F9C2C4;stroke:#DEAAA7;stroke-miterlimit:10;}
	.st1{fill:#1A1A1A;}
	.st2{fill:#FFFFFF;}
	.st3{fill:#72A4A3;}
	.st4{fill:none;stroke:#DEAAA7;stroke-miterlimit:10;}
	.st5{fill:#AB7D4A;}
	.st6{fill:#FF4000;}
	.st7{fill:#243776;}
	.st8{fill:#F24AA2;}
	.st9{fill:#7C411E;}
	.st10{opacity:5.000000e-02;fill:#310D0A;enable-background:new    ;}
</style>
<title>viva</title>
<path class="st0" d="M74,94.2c3.3,9.2,10.1,30.1,9.7,41.2c-1.4,5.4-10.4,11.3-16.4,21.8c-1.3,2.2-3.3,3.9-4.7,6.1
	c-5.1,6-12.4,10.8-16.6,17.4c-4.7,7.5-5.3,18-6.8,26.3c-7.1,39.6-10.8,79.8-11,120c0,11.6,1.1,39.7,16.3,40.8
	c11.5,0.8,5.3-6.4,2.7-11.8c-2.9-6.1-3.2-13.1-2.8-20.9c1.9-0.4,3.8-0.4,5.7,0c2,6.9,9,11.6,10.4,2c0.9-6.2-5-8.2-7.2-14.2
	c-2.5-6.6-2.3-16.2-4-24c-2-8.8,3.9-18,4-27.5c0.2-16.6-4-27.2-0.9-42.5c2-9.9,0.7-27.1,6.5-35.3v0.9c-4.2,16.1,0.2,42.3,0.2,58.2
	c0,15.6-0.6,31.4,0.2,46.9c1.8,0.1,3.6,0.3,5.3,0.6l3.1,208.1v2.4c-0.2,0.7-0.3,1.3-0.3,2c-0.4,7.1-4.4,8.8-9.7,12
	c-4.6,2.8-9.9,5.6-15.5,6.8c-4.6,1-12.7-0.3-13.8,5.3c-1.7,7.7,5.9,6.3,10.8,7.1c2.8,0.4,4.9,1.5,7.8,1.6c3.3,0.1,6.6-0.1,9.9-0.7
	c6.6-0.9,13.3-1,20.1-1.7c5.9-0.6,15.4,1.5,16.7-5.3c1.5-8-3.2-15.5-2.3-23l0.1-4.2l0,0v-1.8l0,0L88.3,304c3,0.4,6.1,0.7,9.4,0.8
	v0.1h0.1c0.7,0,1.4,0,2.1,0s1.4,0,2.1,0h0.1v-0.1c3.3-0.1,6.4-0.4,9.4-0.8l-3.1,204.7l0,0v1.8l0,0l0.1,4.2c0.8,7.6-3.8,15-2.3,23
	c1.3,6.8,10.7,4.7,16.7,5.3c6.8,0.7,13.5,0.7,20.1,1.7c3.3,0.5,6.6,0.7,9.9,0.7c2.9-0.1,5-1.2,7.8-1.6c4.9-0.8,12.5,0.6,10.9-7.1
	c-1.2-5.5-9.2-4.3-13.8-5.3c-5.6-1.2-10.8-4-15.5-6.8c-5.2-3.2-9.3-4.8-9.7-12c-0.1-0.7-0.2-1.3-0.4-2v-2.4l3.1-208.1
	c1.7-0.2,3.5-0.4,5.3-0.6c0.8-15.5,0.1-31.3,0.1-46.9c0-15.9,4.4-42.1,0.2-58.2v-0.9c5.8,8.2,4.5,25.4,6.5,35.3
	c3.1,15.2-1.1,25.9-0.9,42.5c0.1,9.5,6,18.7,4,27.5c-1.7,7.8-1.5,17.3-4,24c-2.3,6-8.2,8-7.2,14.2c1.4,9.5,8.4,4.9,10.4-2
	c1.9-0.4,3.8-0.4,5.7,0c0.4,7.8,0.1,14.7-2.9,20.9c-2.6,5.4-8.8,12.6,2.7,11.8c15.2-1.1,16.3-29.2,16.3-40.8
	c-0.2-40.2-3.9-80.4-11-120c-1.5-8.4-2-18.8-6.8-26.3c-4.1-6.6-11.5-11.4-16.6-17.4c-1.4-2.2-5.4-3.9-6.7-6.1
	c-12-20.8-11.8-40.2-11.8-40.2c0.5-8.7,3.6-17.6,5.4-22.8"/>
<polygon class="st1" points="106.8,517.4 115,517.4 123.3,517.4 131.5,517.4 139.8,517.4 143.3,483.2 143.6,415.2 143.6,368.2 
	139.8,286.4 131.5,286.4 123.3,286.4 115,286.4 106.8,286.4 95.4,285.5 106.6,389.4 106.8,492.2 "/>
<path class="st1" d="M94.5,525.9c-0.8-5.5-2.1-10.5-2.1-14.2c-5.8-0.3-17.2-3.3-22.4-1.1c-2.6,1.1-10.4,7.5-13.3,9.3
	c-3.1,2-5.3,4-8.9,5.2c-0.8,0.3-1.7,0.5-2.6,0.7H33c-7.3,0-13.2,8.4-13.2,18.7l0,0c-0.2,2.9,8,2.9,15.3,2.9h57.5l1.9-2.9h0.1v-18.7
	H94.5z"/>
<path class="st1" d="M105.5,525.9c0.8-5.5,2.1-10.5,2.1-14.2c5.8-0.3,17.2-3.3,22.4-1.1c2.6,1.1,10.4,7.5,13.3,9.3
	c3.1,2,5.3,4,8.9,5.2c0.8,0.3,1.7,0.5,2.6,0.7H167c7.3,0,13.2,8.4,13.2,18.7l0,0c0.2,2.9-8,2.9-15.3,2.9h-57.5l-1.9-2.9h-0.1v-18.7
	H105.5z"/>
<path class="st0" d="M132,64.9c-0.8-6-3.4-11.6-4.4-17.5s-0.4-12-2.8-17.5c-5-11.7-15.5-16-26.3-15.5c-10.8-0.5-21.2,3.8-26.3,15.5
	c-2.4,5.5-1.8,11.7-2.8,17.5S66,58.9,65.2,64.9c-1.4,10.2,5.7,26,11.2,34c5.2,7.6,11.5,16.8,20.8,16.9c0.4,0,0.9,0,1.4,0
	s0.9,0,1.3,0c9.3-0.1,15.6-9.3,20.8-16.9C126.3,90.9,133.4,75.1,132,64.9z"/>
<path class="st0" d="M130.2,64.4c0.4-3,4.9-7.6,6.9-2.1c1.6,4.5-3.4,8.6-2.1,13.1c-0.6,0.8-1.4,1.5-2.3,2c-0.6-1.2-0.9-2.5-1-3.8"/>
<path class="st2" d="M104.7,59.7c8.9-7.1,11.2-3.1,17.8,1.4C118,62.3,110.5,64.5,104.7,59.7"/>
<path class="st3" d="M118,59.2c0-0.5-0.1-1-0.3-1.5c-2.3-1.6-4.4-2.4-7.3-1.4c-1.6,1.8-1.5,4.5,0.2,6.1c0,0,0,0,0,0
	c1.9,0.3,3.9,0.3,5.9,0C117.5,61.6,118,60.4,118,59.2z"/>
<circle class="st1" cx="113.6" cy="59.4" r="1.5"/>
<path class="st4" d="M105.8,63.3c2.9,2.1,6.2,2.6,9.5,3.4"/>
<path class="st4" d="M100.9,51.9c3.2-0.5,6.6-3.2,9.7-3.3c4.1-0.1,6,2.3,9.7,3.3"/>
<path class="st2" d="M90.5,59.9c-8.9-7.1-11.2-3.1-17.8,1.4C77.3,62.5,84.8,64.8,90.5,59.9"/>
<path class="st3" d="M77.3,59.5c0-0.5,0.1-1,0.3-1.5c2.3-1.6,4.4-2.4,7.3-1.4c1.6,1.8,1.5,4.5-0.2,6.1c0,0,0,0,0,0
	c-1.9,0.3-3.9,0.3-5.9,0C77.8,61.9,77.3,60.7,77.3,59.5z"/>
<circle class="st1" cx="81.6" cy="59.6" r="1.5"/>
<path class="st4" d="M89.4,63.5c-2.9,2.1-6.2,2.6-9.5,3.4"/>
<path class="st4" d="M94.4,52.2c-3.2-0.5-6.6-3.2-9.7-3.3c-4.1-0.1-6,2.3-9.7,3.3"/>
<circle class="st5" cx="95.2" cy="78.9" r="1.5"/>
<circle class="st5" cx="101.5" cy="78.9" r="1.5"/>
<path class="st6" d="M107.3,92.5c-0.3-0.1-0.7-0.2-1-0.3l-1-0.2l-1-0.2l-1-0.2c-0.3-0.1-0.6-0.2-1-0.3c-0.3-0.1-0.6-0.2-0.9-0.4
	c-0.3-0.1-0.5-0.3-0.8-0.5c-0.1,0.1-0.2,0.2-0.3,0.2l-0.3,0.2l-0.4,0.2l-0.4,0.2l-0.4,0.2l-0.3,0.3L98.4,92l-0.2-0.2l-0.3-0.3
	l-0.4-0.2l-0.4-0.2l-0.4-0.2l-0.3-0.2c-0.1-0.1-0.2-0.2-0.3-0.2c-0.3,0.2-0.5,0.3-0.8,0.5c-0.3,0.1-0.6,0.3-0.9,0.4
	c-0.3,0.1-0.6,0.2-1,0.3l-1,0.2l-1,0.2l-1,0.2c-0.3,0.1-0.7,0.2-1,0.3c-0.3,0.1-0.7,0.2-1,0.4l2.2,0.8c0.8,0.3,1.7,0.6,2.6,0.9
	s1.9,0.6,2.8,0.9c0.6,0.2,1.1,0.3,1.7,0.4v0.3l0.6-0.1l0.6,0.1v-0.3c0.6-0.1,1.1-0.3,1.7-0.4c1-0.3,1.9-0.6,2.8-0.9s1.8-0.6,2.6-0.9
	l2.2-0.8C108,92.7,107.7,92.6,107.3,92.5z"/>
<path class="st0" d="M66.6,64.4c-0.4-3-4.9-7.6-6.8-2.1c-1.6,4.5,3.4,8.6,2.2,13.1c0.6,0.8,1.4,1.5,2.3,2c0.6-1.2,0.9-2.5,1-3.8"/>
<path class="st7" d="M70.6,141.2c33.7-2.6-15,86.8-16.1,109.9c-1.2,26.4,8.8,78.7-30.4,66.5c1.1-54.1,9-109,25.4-160.7"/>
<path class="st7" d="M130.1,141.2c-33.7-2.6,14.7,86.8,15.8,109.9c1.2,26.4-8.9,78.7,30.4,66.5c-1.1-54.1-9-109-25.4-160.7"/>
<path class="st8" d="M72.8,358.3c3.2,0,3.2-5,0-5S69.6,358.3,72.8,358.3z"/>
<path class="st8" d="M80.8,367.3c3.2,0,3.2-5,0-5S77.6,367.3,80.8,367.3z"/>
<path class="st8" d="M70.8,394.3c3.2,0,3.2-5,0-5S67.6,394.3,70.8,394.3z"/>
<path class="st8" d="M70.8,382.3c3.2,0,3.2-5,0-5S67.6,382.3,70.8,382.3z"/>
<path class="st8" d="M77.8,383.3c3.2,0,3.2-5,0-5S74.6,383.3,77.8,383.3z"/>
<path class="st8" d="M80.8,411.3c3.2,0,3.2-5,0-5S77.6,411.3,80.8,411.3z"/>
<path class="st8" d="M80.8,387.3c3.2,0,3.2-5,0-5S77.6,387.3,80.8,387.3z"/>
<path class="st8" d="M80.8,393.3c3.2,0,3.2-5,0-5S77.6,393.3,80.8,393.3z"/>
<path class="st8" d="M76.8,409.3c3.2,0,3.2-5,0-5S73.6,409.3,76.8,409.3z"/>
<path class="st8" d="M64.8,414.3c3.2,0,3.2-5,0-5S61.6,414.3,64.8,414.3z"/>
<path class="st8" d="M85.8,436.3c3.2,0,3.2-5,0-5S82.6,436.3,85.8,436.3z"/>
<path class="st8" d="M71.8,446.3c3.2,0,3.2-5,0-5S68.6,446.3,71.8,446.3z"/>
<path class="st8" d="M73.8,434.3c3.2,0,3.2-5,0-5S70.6,434.3,73.8,434.3z"/>
<path class="st8" d="M73.8,434.3c3.2,0,3.2-5,0-5S70.6,434.3,73.8,434.3z"/>
<path class="st8" d="M84.8,354.3c3.2,0,3.2-5,0-5S81.6,354.3,84.8,354.3z"/>
<path class="st8" d="M88.8,378.3c3.2,0,3.2-5,0-5S85.6,378.3,88.8,378.3z"/>
<path class="st8" d="M68.8,367.3c3.2,0,3.2-5,0-5S65.6,367.3,68.8,367.3z"/>
<path class="st9" d="M128.4,40c-0.8-1.9-1.5-3.7-2.1-5.7c-0.5-2.1-0.8-4.2-0.9-6.3c-0.1-2.2-0.4-4.4-1-6.5
	c-1.6-4.8-5.2-8.8-9.9-10.9c-5.1-2.3-10.6-3.2-16.2-2.7c-5.5-0.5-11.1,0.4-16.1,2.7c-4.7,2.1-8.2,6-9.9,10.9c-0.6,2.1-0.9,4.3-1,6.5
	c-0.1,2.1-0.4,4.3-0.9,6.3c-0.6,1.9-1.3,3.8-2.1,5.7c-0.8,1.8-1.5,3.7-2.1,5.6c-1.2,3.7-1.6,7.7-1.2,11.6c0.4,3.8,2.6,6.2,2.6,4.5
	c0-2.6,0.2-5.3,0.5-7.9c0.3-2.6,0.9-5.1,1.5-7.6c1.6-6,3.7-10.5,7.2-14s8.3-5.9,15.3-7.7c2.1-0.5,4.2-0.9,6.3-1.1
	c2.1,0.2,4.2,0.6,6.3,1.1c7,1.8,11.9,4.2,15.3,7.7s5.6,8,7.1,14c0.7,2.5,1.2,5.1,1.5,7.6c0.3,2.6,0.5,5.2,0.5,7.9
	c0,1.8,2.2-0.7,2.6-4.5c0.4-3.9,0-7.8-1.2-11.6C129.9,43.7,129.1,41.9,128.4,40z"/>
<path class="st9" d="M63.9,63.3l-0.3-0.5C63.4,63.4,63.4,63.8,63.9,63.3z"/>
<path class="st9" d="M133.2,62.8l-0.3,0.5C133.4,63.8,133.4,63.4,133.2,62.8z"/>
<path class="st10" d="M127.3,78.4c-7.1,6.1-9.1,7.9-11.2,11.2c-1.9,3-6.2,9.7-9.3,11.9c-2,1.4-6.4,3.7-8,5.5
	c-0.2,0.2-0.3,0.4-0.4,0.6c-0.1-0.2-0.3-0.4-0.4-0.6c-1.6-1.8-6-4.1-8-5.5c-3-2.1-7.4-8.9-9.3-11.9c-2.1-3.3-4.2-5.1-11.2-11.2
	c-3-2.6,0.8,9.7,2,11.9c1.7,3.3,4.5,9.2,7.1,11.9c2.5,2.6,5.1,5,7.8,7.4c2.8,2.3,10.3,5.9,12,4.2c1.7,1.6,9.2-1.9,12-4.2
	c2.7-2.3,5.3-4.8,7.8-7.4c2.7-2.7,5.4-8.6,7.1-11.9C126.5,88.1,130.4,75.9,127.3,78.4z"/>
<path class="st10" d="M107.9,83.8c-3.3-0.3-6.3,0.3-9.5,0.5c-3.2-0.1-6.2-0.8-9.5-0.5s-6.1,1.8-8.9,2.3l0.3,0.3
	c0.9,2.5,7.3,0.6,10,0.3c1.9-0.2,6.6,0.1,8.2-1c1.6,1.1,6.2,0.8,8.2,1c2.7,0.2,9,2.1,10-0.3l0.3-0.3
	C113.9,85.6,111.1,84.1,107.9,83.8z"/>
<polygon class="st1" points="94.5,517.4 86.2,517.4 78,517.4 69.7,517.4 61.5,517.4 58,483.2 57.6,415.2 57.6,368.2 61.5,286.4 
	69.7,286.4 78,286.4 86.2,286.4 94.5,286.4 105.9,285.5 94.6,389.4 94.4,492.2 "/>
<path class="st7" d="M154.5,184.2c-8-12.9-7-30.2-24.4-43c-18.8,3-41.5,0-59.6,0c-23.3,10-16.4,30.1-24.4,43
	c-12.3,19.9-16,41.6-14.6,65.7c5.1-5.6,22.2-4.9,28.6-2c-0.3,6.7-2.1,19.6-2.9,36c-0.8,16.1,0.3,20.5,14.6,20.5
	c7.6,0,15.2,0.1,22.8,0.3v0.2l5.6-0.1l5.6,0.1v-0.2c7.6-0.1,15.2-0.3,22.8-0.3c14.3,0,15.4-4.3,14.6-20.5c-0.5-11.5-2.4-29.3-2.9-41
	c6.4-3,23.6,1.3,28.6,7C170.5,225.8,166.9,204.1,154.5,184.2z"/>
</svg>
