<svg xmlns="http://www.w3.org/2000/svg" viewBox="0 0 800 600"><defs><style>.cls-1{fill:#fddec3;}.cls-2,.cls-3{fill:#404041;}.cls-3{stroke:#fff;}.cls-3,.cls-8{stroke-miterlimit:10;}.cls-4{fill:#2e5d8e;}.cls-5{fill:#74acb8;}.cls-6{fill:#b18e6a;}.cls-7{fill:#de887b;}.cls-8{fill:none;stroke:#a56f29;}.cls-9{fill:#8a5d3b;}.cls-10{fill:#481c11;opacity:0.05;}</style></defs><g id="Layer_3" data-name="Layer 3"><polygon class="cls-1" points="418.33 170.04 399.32 195.69 381.67 170.04 389.82 170.04 389.82 158.81 400 158.81 410.18 158.81 410.18 170.04 418.33 170.04"/><polygon class="cls-2" points="431.48 314.33 369.76 314.33 368.52 289.64 430.24 289.64 431.48 314.33"/><polygon class="cls-2" points="433.98 519.75 405.69 519.75 405.69 290.01 430.28 290.01 433.98 519.75"/><polygon class="cls-2" points="394.16 519.75 365.87 519.75 368.34 290.01 392.93 290.01 394.16 519.75"/><path class="cls-3" d="M400.47,533a20.39,20.39,0,0,1,40.77,0"/><path class="cls-3" d="M399.33,533a20.39,20.39,0,0,0-40.77,0"/><rect class="cls-1" x="340.74" y="322.07" width="16.71" height="27.71" rx="4"/><path class="cls-4" d="M358.06,188.75a8.37,8.37,0,0,0-.56-2.43,8.26,8.26,0,0,0-1.62-2.56,7.55,7.55,0,0,0-2.39-1.73,7,7,0,0,0-2.92-.63h-3a7,7,0,0,0-2.92.63,7.55,7.55,0,0,0-2.39,1.73,8.26,8.26,0,0,0-1.62,2.56,8.37,8.37,0,0,0-.56,2.43h0V325.4h18V188.75Z"/><rect class="cls-1" x="442.56" y="322.07" width="16.71" height="27.71" rx="4"/><path class="cls-4" d="M459.88,188.75a8.37,8.37,0,0,0-.56-2.43,8.26,8.26,0,0,0-1.62-2.56,7.55,7.55,0,0,0-2.39-1.73,7,7,0,0,0-2.92-.63h-3a7,7,0,0,0-2.92.63,7.55,7.55,0,0,0-2.39,1.73,8.26,8.26,0,0,0-1.62,2.56,8.37,8.37,0,0,0-.56,2.43h0V325.4h18V188.75Z"/><path class="cls-4" d="M435.22,175.17l-15.42-6h-1.71a88.26,88.26,0,0,1-37.18,0H379.8l-15.42,6-2.88,2v141h77v-141Z"/><path class="cls-1" d="M398.49,162.61h4.15l.41-.14c1.16-.22,2.36-.19,3.5-.46,3.37-.81,5.58-4,7.36-6.94,3.48-5.8,8.61-12.19,9.4-18.91L425.45,118a15.9,15.9,0,0,0,.07-4.77c-.37-2-1.48-3.72-2-5.64-1.16-3.94,0-8.2-.44-12.28a15.14,15.14,0,0,0-5.65-10c-3.64-2.85-9.26-4.47-13.89-4.62l-5.86,0c-4.62.15-10.24,1.77-13.89,4.62a15.14,15.14,0,0,0-5.65,10c-.48,4.09.73,8.34-.44,12.28-.57,1.93-1.67,3.68-2,5.65a15.52,15.52,0,0,0,.08,4.76l2.14,18.16c.79,6.73,5.92,13.11,9.4,18.92,1.78,3,4,6.13,7.35,6.93,1.15.27,2.34.24,3.5.46Z"/><circle class="cls-5" cx="413.31" cy="116.58" r="1.78"/><circle class="cls-5" cx="387.81" cy="116.58" r="1.78"/><path class="cls-6" d="M398.61,132.47a1.26,1.26,0,1,1-1.26-1.27A1.26,1.26,0,0,1,398.61,132.47Z"/><path class="cls-6" d="M405,132.47a1.26,1.26,0,1,1-1.26-1.27A1.26,1.26,0,0,1,405,132.47Z"/><path class="cls-7" d="M408,144.45q-.41-.19-.84-.36l-.86-.28-.85-.27c-.29-.09-.57-.18-.84-.28a8.34,8.34,0,0,1-.8-.33,5,5,0,0,1-.74-.44,4.57,4.57,0,0,1-.67-.58,2,2,0,0,1-.22.29,3.31,3.31,0,0,1-.26.27l-.29.25-.3.26-.3.27c-.1.1-.2.2-.29.31a.17.17,0,1,1-.32,0,4.12,4.12,0,0,0-.28-.31l-.3-.27-.31-.26-.28-.25a2.29,2.29,0,0,1-.27-.27,3.15,3.15,0,0,1-.22-.29,4.5,4.5,0,0,1-.66.58,6.26,6.26,0,0,1-.74.44c-.26.12-.53.23-.8.33l-.84.28-.86.27-.86.28q-.42.16-.84.36a7.26,7.26,0,0,0-.8.47l1.8,1c.66.35,1.6,1.26,2.36,1.63s1.35.92,2.15,1.24c.47.19.94-.35,1.41-.19v.32l.51-.16.52.16,0-.32c.47-.16.94.38,1.41.19.81-.32,1.6-.87,2.36-1.24s1.49-1.28,2.16-1.63l1.79-1A6.44,6.44,0,0,0,408,144.45Z"/><path class="cls-1" d="M425.61,117c1.64-.32,3.2,1.12,3.64,2.73a10,10,0,0,1-.33,4.94l-1.48,6.25a11.4,11.4,0,0,1-1.51,4,3.94,3.94,0,0,1-3.69,1.83"/><path class="cls-1" d="M375.51,117c-1.64-.32-3.2,1.12-3.64,2.73a10.15,10.15,0,0,0,.33,4.94l1.48,6.25a11.61,11.61,0,0,0,1.52,4,3.92,3.92,0,0,0,3.68,1.83"/><path class="cls-8" d="M407,110.93c3.59-.34,7.19-.57,10.8-.66a1.49,1.49,0,0,1,.78.12,1.32,1.32,0,0,1,.4.38,11.62,11.62,0,0,1,1.15,1.71"/><path class="cls-8" d="M394.15,110.93c-3.59-.34-7.19-.57-10.79-.66a1.46,1.46,0,0,0-.78.12,1.35,1.35,0,0,0-.41.38,11.56,11.56,0,0,0-1.14,1.71"/><path class="cls-9" d="M424.17,100.58c-.61-1.74-1.22-3.48-1.69-5.32a33.56,33.56,0,0,1-.7-5.93,28.64,28.64,0,0,0-.8-6.06,16.54,16.54,0,0,0-7.93-10.21,22.57,22.57,0,0,0-12.94-2.53,22.57,22.57,0,0,0-12.94,2.53,16.57,16.57,0,0,0-7.93,10.21,28.64,28.64,0,0,0-.8,6.06,32.65,32.65,0,0,1-.7,5.93c-.47,1.84-1.08,3.58-1.69,5.32s-1.22,3.46-1.69,5.26a32.22,32.22,0,0,0-1,10.87c.3,3.54,2.05,5.83,2.05,4.19a64.63,64.63,0,0,1,.4-7.39,66.83,66.83,0,0,1,1.22-7.15c1.26-5.61,2.95-9.87,5.73-13.14s6.66-5.54,12.29-7.18a34.58,34.58,0,0,1,5-1,34.58,34.58,0,0,1,5,1c5.63,1.64,9.51,3.91,12.29,7.18s4.48,7.53,5.73,13.14a66.83,66.83,0,0,1,1.22,7.15,64.63,64.63,0,0,1,.4,7.39c0,1.64,1.75-.65,2.05-4.19a32,32,0,0,0-1-10.87C425.39,104,424.79,102.32,424.17,100.58Z"/><path class="cls-9" d="M372.44,122.39l-.24-.48C372.05,122.54,372.07,122.85,372.44,122.39Z"/><path class="cls-9" d="M428,121.91l-.24.48C428.15,122.85,428.17,122.54,428,121.91Z"/><path class="cls-10" d="M408.64,136.29c-2.78-.25-5.34.27-8.08.4-2.73-.13-5.3-.65-8.08-.4s-5.15,1.54-7.57,2l.23.28c.8,2.11,6.21.47,8.47.28,1.65-.14,5.58.06,6.95-.84,1.38.9,5.3.7,6.95.84,2.26.19,7.67,1.83,8.48-.28l.23-.28C413.79,137.83,411.37,136.53,408.64,136.29Z"/><path class="cls-10" d="M423.18,134.93c-5.53,4.73-7.09,6.14-8.77,8.74-1.5,2.32-4.88,7.59-7.25,9.27-1.58,1.12-5,2.91-6.26,4.3-.13.15-.24.3-.34.44a3.08,3.08,0,0,0-.34-.44c-1.25-1.39-4.68-3.18-6.25-4.3-2.37-1.68-5.76-6.95-7.26-9.27-1.67-2.6-3.23-4-8.76-8.74-2.36-2,.64,7.55,1.57,9.3,1.36,2.57,3.51,7.22,5.58,9.31a77.18,77.18,0,0,0,6.1,5.75c2.14,1.78,8,4.56,9.36,3.3,1.35,1.26,7.22-1.52,9.37-3.3a77,77,0,0,0,6.09-5.75c2.08-2.09,4.23-6.74,5.59-9.31C422.53,142.48,425.54,132.91,423.18,134.93Z"/></g></svg>