<svg version="1.1" id="Layer_1" xmlns="http://www.w3.org/2000/svg" x="0" y="0" viewBox="0 0 126.6 17.3" xml:space="preserve"><style>.st0{enable-background:new}.st1{fill:#ff83ef}</style><g class="st0"><path class="st1" d="M3.1 2.1C5 .7 7.3 0 9.9 0c1.4 0 3.2.3 4.4.6.3.1.5.1.7.1 0 .6.1 2.1.4 3.7-.1.2-.5.2-.7 0C14.3 2.7 13.2.8 9.6.8 5.8.8 2.5 3.2 2.5 8.4c0 5.2 3.3 8.1 7.4 8.1 3.2 0 4.6-2.1 5.2-3.6.2-.1.5-.1.6.1-.2 1.3-.8 2.9-1.2 3.4-.3 0-.6.1-.9.2-.5.2-2.3.6-3.9.6-2.2 0-4.4-.5-6.2-1.7C1.5 14.2 0 12 0 8.7 0 6 1.2 3.6 3.1 2.1zM17.5 8.8c0-5 3.7-8.8 8.9-8.8C32.1 0 35 4.2 35 8.6c0 5-3.8 8.7-8.7 8.7-5.5 0-8.8-4-8.8-8.5zm15 .5c0-4.1-1.8-8.6-6.6-8.6-2.6 0-6 1.8-6 7.2 0 3.7 1.8 8.5 6.7 8.5 3.1.1 5.9-2.1 5.9-7.1zM39.4 4.1c0-2.6 0-3-1.6-3.1h-.6c-.1-.1-.1-.5 0-.6 1.4.1 2.2.1 3.2.1s1.8 0 3.1-.1c.1.1.2.5 0 .6h-.6c-1.5.1-1.5.5-1.5 3.1v8.7c0 1.6.1 2.2.5 2.7.3.3.8.6 2.7.6 2.1 0 2.6-.1 3-.3.5-.3 1.1-1.2 1.6-2.5.1-.1.6 0 .6.2 0 .3-.7 2.8-1 3.5-1.3 0-3.6-.1-6.2-.1h-2.3c-1 0-1.8 0-3.2.1-.1-.1-.2-.5 0-.6l.8-.1c1.4-.1 1.5-.5 1.5-3.1V4.1zM53.2 3.6c0-1.7-.1-2.3-1.2-2.4l-.5-.1c-.2-.1-.2-.5 0-.6 2.1-.1 4.1-.2 6.3-.2 2.1 0 3.9.2 5.5.8 3.4 1.2 5.1 4.1 5.1 7.4 0 3.2-1.5 5.9-4.4 7.4-1.6.9-3.7 1.2-5.6 1.2-1.6 0-3.2-.2-4.1-.2-1 0-1.9 0-3.1.1-.1-.1-.2-.5-.1-.6l.6-.1c1.4-.2 1.5-.5 1.5-3.1V3.6zm2 9c0 1.3.1 2.1.5 2.7.5.8 1.5 1 3.1 1 4.8 0 7-3.2 7-7.8 0-2.7-1.3-7.4-7.9-7.4-1.5 0-2.3.2-2.5.3-.2.2-.2.8-.2 1.9v9.3zM74.7 13.1c0 2.6.1 2.9 1.6 3.1l.7.1c.1.1.1.5-.1.6-1.4 0-2.2-.1-3.2-.1s-1.9 0-3 .1c-.1-.1-.2-.5 0-.6l.5-.1c1.4-.2 1.5-.5 1.5-3.1V3.9c0-2.1 0-2.5-1.2-2.7l-.9-.1c-.2-.2-.1-.5.1-.6C72 .3 73.6.3 75.6.3s3.6.3 4.8 1c1.1.7 2 2 2 3.7 0 2.3-1.4 3.4-2.5 4-1.1.5-2.4.7-3.4.7-.2-.1-.2-.4 0-.5 2.7-.5 3.7-2 3.7-4.2 0-2.4-1.4-4-4-4-1.3 0-1.4.1-1.4.9v11.2zM86.4 4.1c0-2.6 0-3-1.6-3.1h-.6c-.1-.1-.1-.5 0-.6 1.4.1 2.2.1 3.2.1s1.8 0 3.1-.1c.1.1.2.5 0 .6H90c-1.5.1-1.5.5-1.5 3.1v8.7c0 1.6.1 2.2.5 2.7.3.3.8.6 2.7.6 2.1 0 2.7-.1 3-.3.5-.3 1.1-1.2 1.6-2.5.2-.1.6 0 .6.2 0 .3-.7 2.8-1 3.5-1.3 0-3.6-.1-6.2-.1h-2.3c-1.1 0-1.8 0-3.2.1-.2-.1-.2-.5 0-.6l.8-.1c1.5-.1 1.5-.5 1.5-3.1V4.1zM107.5 11.1c-.2-.5-.3-.6-1-.6h-3.8c-.6 0-.8.1-1 .6l-.9 2.6c-.4 1.1-.5 1.8-.5 2.1 0 .3.1.5.7.5l.8.1c.2.1.2.5 0 .6-.7 0-1.4 0-2.6-.1-.8 0-1.7 0-2.4.1-.2-.1-.2-.5 0-.6l.8-.1c.6 0 1.1-.3 1.5-1.2.5-1.1 1.1-2.8 2.2-5.6l2.5-6.7c.3-.9.5-1.4.4-1.8.6-.2 1-.6 1.3-.9.2 0 .3 0 .4.2.3 1.1.7 2.2 1.1 3.3l3.4 10c.7 2.1 1 2.5 2.1 2.6l.7.1c.2.1.1.5 0 .6-1 0-1.9-.1-3-.1-1.2 0-2.1 0-2.9.1-.2-.1-.2-.5 0-.6l.7-.1c.5 0 .9-.2.9-.5s-.1-.7-.3-1.3l-1.1-3.3zm-4.9-2.2c-.2.6-.2.6.5.6h3.1c.7 0 .8-.1.5-.8l-1.3-4.1c-.2-.6-.4-1.3-.6-1.6-.1.1-.3.7-.6 1.5l-1.6 4.4zM119.8 13.1c0 2.7.2 3.1 1.5 3.2l1 .1c.1.1.1.5 0 .6-1.5 0-2.4-.1-3.4-.1s-2 0-3.3.1c-.2-.1-.2-.5 0-.6l.8-.1c1.5-.1 1.5-.5 1.5-3.2v-1.3c0-1.4-.1-1.7-.8-3.1L114 3c-.8-1.6-1.2-1.8-2-1.9l-.7-.1c-.1-.2-.1-.5 0-.6.8.1 1.7.1 2.9.1s2 0 2.7-.1c.2.1.2.5.1.6h-.3c-.9.1-1 .2-1 .5 0 .2.6 1.7.8 1.9.9 1.8 1.8 3.8 2.8 5.5.8-1.3 1.6-2.8 2.3-4.2.7-1.3 1.6-3 1.6-3.3 0-.2-.5-.3-1-.4h-.5c-.2-.2-.1-.5 0-.6.9.1 1.6.1 2.4.1.8 0 1.5 0 2.3-.1.2.1.2.5 0 .6l-.7.1c-1.3.2-2 1.8-3.3 3.9l-1.6 2.7c-1.1 1.9-1.2 2.1-1.2 4v1.4z"/></g></svg>