<svg id="Layer_2" data-name="Layer 2" xmlns="http://www.w3.org/2000/svg" viewBox="0 0 800 600"><defs><style>.cls-1{fill:#f6cac9;}.cls-1,.cls-5{stroke:#dcb5b3;}.cls-1,.cls-14,.cls-5{stroke-miterlimit:10;}.cls-2{fill:#404041;}.cls-3{fill:#fff;}.cls-4{fill:#74acb8;}.cls-14,.cls-5{fill:none;}.cls-6{fill:#b18e6a;}.cls-7{fill:#f16522;}.cls-8{fill:#95afd0;}.cls-9{fill:#b2a9a9;}.cls-10{fill:#ed6da8;}.cls-11{fill:#791221;}.cls-12{fill:#e9e971;}.cls-13{fill:#8a5d3b;}.cls-14{stroke:#e9e971;stroke-width:3px;}.cls-15{fill:#37b34a;}.cls-16{fill:#ec1c24;}.cls-17{fill:#ffdd15;}</style></defs><path class="cls-1" d="M377.93,146.29c2.79,7.86,8.57,25.55,8.23,35-1.21,4.6-8.8,9.63-13.91,18.54-1.09,1.89-2.8,3.35-4,5.2-4.31,5.1-10.58,9.17-14.11,14.75-4,6.35-4.48,15.27-5.73,22.36a599.74,599.74,0,0,0-9.33,102c0,9.86.92,33.75,13.83,34.66,9.81.7,4.49-5.46,2.32-10-2.48-5.19-2.76-11.12-2.42-17.72a10.89,10.89,0,0,1,4.82,0c1.72,5.88,7.61,9.83,8.83,1.74.8-5.29-4.21-7-6.13-12.09-2.14-5.65-1.93-13.76-3.41-20.38-1.67-7.48,3.33-15.26,3.41-23.35.13-14.11-3.42-23.16-.81-36.12,1.71-8.45.61-23.05,5.53-30v.73c-3.55,13.65.18,36,.18,49.49,0,13.22-.54,26.65.13,39.82,1.54.13,3,.29,4.52.48l2.65,176.87,0,2a11.42,11.42,0,0,0-.3,1.68c-.33,6.05-3.78,7.47-8.24,10.17-3.95,2.38-8.39,4.77-13.14,5.75-3.95.82-10.75-.24-11.77,4.48-1.4,6.51,5,5.37,9.23,6,2.36.36,4.14,1.25,6.64,1.35a47.11,47.11,0,0,0,8.42-.56c5.59-.8,11.3-.84,17.09-1.43,5-.51,13.07,1.31,14.16-4.5,1.27-6.81-2.69-13.14-2-19.57l.06-3.57h0v-1.57h0l-2.61-174c2.57.32,5.23.56,8,.68v.09h.1c.61,0,1.19,0,1.78,0s1.17,0,1.78,0h.1v-.09c2.78-.12,5.44-.36,8-.68l-2.61,174h0v1.57h0l.06,3.57c.7,6.43-3.26,12.76-2,19.57,1.09,5.81,9.12,4,14.16,4.5,5.79.59,11.5.63,17.09,1.43a47.11,47.11,0,0,0,8.42.56c2.5-.1,4.28-1,6.64-1.35,4.19-.64,10.63.5,9.23-6-1-4.72-7.82-3.66-11.77-4.48-4.75-1-9.19-3.37-13.14-5.75-4.46-2.7-7.91-4.12-8.24-10.17a11.42,11.42,0,0,0-.3-1.68l0-2,2.65-176.87c1.48-.19,3-.35,4.52-.48.67-13.17.13-26.6.13-39.82,0-13.53,3.73-35.84.18-49.49v-.73c4.92,7,3.82,21.58,5.53,30,2.61,13-.94,22-.81,36.12.08,8.09,5.08,15.87,3.41,23.35-1.48,6.62-1.27,14.73-3.41,20.38-1.92,5.1-6.93,6.8-6.13,12.09,1.22,8.09,7.11,4.14,8.83-1.74a10.89,10.89,0,0,1,4.82,0c.34,6.6.06,12.53-2.42,17.72-2.17,4.55-7.49,10.71,2.32,10,12.91-.91,13.84-24.8,13.83-34.66a599.74,599.74,0,0,0-9.33-102c-1.25-7.09-1.73-16-5.73-22.36-3.53-5.58-9.8-9.65-14.11-14.75-1.2-1.85-4.61-3.31-5.7-5.2a74.6,74.6,0,0,1-10-34.16c.43-7.43,3-15,4.59-19.39"/><polygon class="cls-2" points="405.74 505.94 412.76 505.94 419.77 505.94 426.78 505.94 433.79 505.94 436.77 476.87 437.1 419.07 437.1 379.13 433.79 309.59 426.78 309.59 419.77 309.59 412.76 309.59 405.74 309.59 396.07 308.89 405.59 397.14 405.8 484.52 405.74 505.94"/><path class="cls-2" d="M395.29,513.2c-.68-4.66-1.77-8.92-1.8-12.07-4.92-.22-14.59-2.81-19.06-.9-2.18.93-8.87,6.35-11.29,7.92-2.62,1.71-4.5,3.44-7.55,4.44-.67.22-1.42.42-2.24.61H343c-6.21,0-11.24,7.11-11.24,15.88h0c-.17,2.45,6.8,2.46,13,2.46h48.88l1.65-2.46h.06V513.2Z"/><path class="cls-2" d="M404.71,513.2c.68-4.66,1.77-8.92,1.8-12.07,4.92-.22,14.59-2.81,19.06-.9,2.18.93,8.87,6.35,11.29,7.92,2.62,1.71,4.5,3.44,7.55,4.44.67.22,1.42.42,2.24.61H457c6.21,0,11.24,7.11,11.24,15.88h0c.17,2.45-6.8,2.46-13,2.46H406.32l-1.65-2.46h-.06V513.2Z"/><path class="cls-1" d="M427.23,121.31c-.69-5.08-2.93-9.83-3.74-14.86s-.33-10.18-2.34-14.84C416.87,81.69,408,78,398.83,78.47c-9.17-.43-18,3.22-22.32,13.14-2,4.66-1.55,9.94-2.34,14.84s-3.06,9.78-3.74,14.86c-1.18,8.71,4.87,22.12,9.54,28.93,4.46,6.48,9.77,14.3,17.71,14.38.39,0,.77,0,1.15,0s.76,0,1.14,0c7.94-.08,13.26-7.9,17.72-14.38C422.36,143.43,428.41,130,427.23,121.31Z"/><path class="cls-1" d="M425.66,121c.32-2.53,4.14-6.47,5.82-1.77,1.37,3.82-2.9,7.31-1.83,11.12a6.83,6.83,0,0,1-1.94,1.68,8.66,8.66,0,0,1-.88-3.26"/><path class="cls-3" d="M404,116.94c7.56-6,9.55-2.63,15.12,1.22-3.84,1-10.23,2.85-15.12-1.22"/><path class="cls-4" d="M415.26,116.52a3.81,3.81,0,0,0-.24-1.31c-2-1.33-3.73-2-6.18-1.2a3.69,3.69,0,0,0,.23,5.24,16.31,16.31,0,0,0,5,0A3.72,3.72,0,0,0,415.26,116.52Z"/><path class="cls-2" d="M412.84,116.67a1.28,1.28,0,1,1-1.28-1.27A1.28,1.28,0,0,1,412.84,116.67Z"/><path class="cls-5" d="M404.93,120c2.42,1.82,5.25,2.25,8.05,2.86"/><path class="cls-5" d="M400.72,110.33c2.69-.44,5.6-2.71,8.23-2.78,3.46-.08,5.14,2,8.23,2.78"/><path class="cls-3" d="M392,117.14c-7.56-6-9.55-2.63-15.12,1.22,3.84,1,10.23,2.86,15.12-1.22"/><path class="cls-4" d="M380.7,116.72a3.81,3.81,0,0,1,.24-1.31c2-1.33,3.74-2,6.18-1.19a3.66,3.66,0,0,1,1,2.5,3.71,3.71,0,0,1-1.21,2.74,16.3,16.3,0,0,1-5,0A3.71,3.71,0,0,1,380.7,116.72Z"/><path class="cls-2" d="M383.12,116.88a1.28,1.28,0,1,0,1.28-1.28A1.28,1.28,0,0,0,383.12,116.88Z"/><path class="cls-5" d="M391,120.18c-2.42,1.82-5.25,2.25-8,2.85"/><path class="cls-5" d="M395.24,110.54c-2.69-.45-5.6-2.72-8.23-2.78-3.46-.09-5.14,1.95-8.23,2.78"/><path class="cls-6" d="M397.2,133.26a1.27,1.27,0,0,1-2.53,0,1.27,1.27,0,1,1,2.53,0Z"/><path class="cls-6" d="M402.56,133.26a1.27,1.27,0,0,1-2.53,0,1.27,1.27,0,1,1,2.53,0Z"/><path class="cls-7" d="M406.2,144.82a8.47,8.47,0,0,0-.86-.25c-.29-.08-.58-.14-.88-.21l-.87-.18-.86-.2c-.28-.07-.55-.15-.82-.24a5.61,5.61,0,0,1-.75-.31,4.28,4.28,0,0,1-.69-.4,1.42,1.42,0,0,1-.22.2,1.85,1.85,0,0,1-.27.19l-.29.18-.31.18-.31.19a3.15,3.15,0,0,0-.29.22l-.16.16-.17-.16a2.21,2.21,0,0,0-.29-.22l-.3-.19-.31-.18-.3-.18-.27-.19a2.09,2.09,0,0,1-.22-.2,4.18,4.18,0,0,1-.68.4,5.75,5.75,0,0,1-.76.31q-.39.13-.81.24l-.86.2-.88.18-.87.21a8.47,8.47,0,0,0-.86.25,5.85,5.85,0,0,0-.82.33l1.83.67,2.2.77c.78.26,1.59.52,2.42.75.47.13,1,.26,1.44.37l0,.22.53-.11.52.11v-.22c.48-.11,1-.24,1.44-.37.82-.23,1.63-.49,2.41-.75s1.52-.52,2.2-.77l1.83-.67A5.73,5.73,0,0,0,406.2,144.82Z"/><path class="cls-1" d="M371.57,121c-.31-2.53-4.14-6.47-5.82-1.77-1.36,3.82,2.9,7.31,1.83,11.12a7.12,7.12,0,0,0,1.94,1.68,8.31,8.31,0,0,0,.88-3.26"/><polygon class="cls-2" points="395.3 505.94 388.28 505.94 381.27 505.94 374.26 505.94 367.25 505.94 364.27 476.87 363.94 419.07 363.94 379.13 367.25 309.59 374.26 309.59 381.27 309.59 388.28 309.59 395.3 309.59 404.97 308.89 395.45 397.14 395.24 484.52 395.3 505.94"/><path class="cls-8" d="M446.36,219.11c-6.77-9.87-20-20.54-20.74-32.87-5.48,3.59-13,5.69-20.53,5.81v-1a37.94,37.94,0,0,1-4.79.77,37.79,37.79,0,0,1-4.78-.77v1c-7.54-.12-15-2.22-20.53-5.81-.76,12.33-14,23-20.74,32.87-10.47,15.26-13.6,31.8-12.41,50.26,4.29-4.33,18.88-3.75,24.33-1.49-.45,8.94-2,18.81-2.45,27.57-.63,12.35.23,15.67,12.41,15.66,6.44,0,12.91.1,19.39.2v.14l4.78-.06,4.79.06v-.14c6.48-.1,13-.2,19.39-.2,12.17,0,13-3.31,12.41-15.66-.46-8.76-2-18.63-2.45-27.57,5.45-2.26,20-2.84,24.33,1.49C460,250.91,456.83,234.37,446.36,219.11Z"/><polygon class="cls-9" points="391.03 309.73 377.57 339.48 364.11 339.48 364.11 263.4 364.11 194.13 377.57 187.33 377.57 187.33 391.03 263.4 391.03 309.73"/><path class="cls-9" d="M364.11,194.13c28.62-2.26-1.89,65.89-2.78,85.55-1,22.42,7.52,66.88-25.85,56.54,1-46,3.36-92.69,17.35-136.61"/><polygon class="cls-9" points="409.32 309.73 422.79 339.48 436.25 339.48 436.25 263.4 436.25 194.13 422.79 187.33 422.79 187.33 409.32 263.4 409.32 309.73"/><path class="cls-9" d="M436.25,194.13c-28.62-2.26,1.89,65.89,2.78,85.55,1,22.42-7.52,66.88,25.84,56.54-.95-46-3.35-92.69-17.34-136.61"/><path class="cls-10" d="M376.88,371.11c3.22,0,3.22-5,0-5s-3.22,5,0,5Z"/><path class="cls-10" d="M383.68,378.76c3.22,0,3.22-5,0-5s-3.22,5,0,5Z"/><path class="cls-10" d="M375.18,401.71c3.22,0,3.22-5,0-5s-3.22,5,0,5Z"/><path class="cls-10" d="M375.18,391.51c3.22,0,3.22-5,0-5s-3.22,5,0,5Z"/><path class="cls-10" d="M381.13,392.36c3.22,0,3.22-5,0-5s-3.22,5,0,5Z"/><path class="cls-10" d="M383.68,416.16c3.22,0,3.22-5,0-5s-3.22,5,0,5Z"/><path class="cls-10" d="M383.68,395.76c3.22,0,3.22-5,0-5s-3.22,5,0,5Z"/><path class="cls-10" d="M383.68,400.86c3.22,0,3.22-5,0-5s-3.22,5,0,5Z"/><path class="cls-10" d="M380.28,414.46c3.22,0,3.22-5,0-5s-3.22,5,0,5Z"/><path class="cls-10" d="M370.08,418.71c3.22,0,3.22-5,0-5s-3.22,5,0,5Z"/><path class="cls-10" d="M387.93,437.41c3.22,0,3.22-5,0-5s-3.22,5,0,5Z"/><path class="cls-10" d="M376,445.91c3.22,0,3.22-5,0-5s-3.22,5,0,5Z"/><path class="cls-10" d="M377.73,435.71c3.22,0,3.22-5,0-5s-3.22,5,0,5Z"/><path class="cls-10" d="M377.73,435.71c3.22,0,3.22-5,0-5s-3.22,5,0,5Z"/><path class="cls-10" d="M387.08,367.71c3.22,0,3.22-5,0-5s-3.22,5,0,5Z"/><path class="cls-10" d="M390.48,388.11c3.22,0,3.22-5,0-5s-3.22,5,0,5Z"/><path class="cls-10" d="M373.48,378.76c3.22,0,3.22-5,0-5s-3.22,5,0,5Z"/><path class="cls-10" d="M364.2,512.32a5.64,5.64,0,0,0,0-8.63,2.5,2.5,0,0,0-4.27,1.77,2.63,2.63,0,0,0,.73,1.76,6.83,6.83,0,0,1,.51.58l-.39-.51a4.67,4.67,0,0,1,.56.94l-.26-.6a3,3,0,0,1,.2.72l-.09-.67a3.53,3.53,0,0,1,0,.65l.09-.66a3,3,0,0,1-.2.71l.26-.59a4.89,4.89,0,0,1-.56.93l.39-.51a4.7,4.7,0,0,1-.51.58,2.59,2.59,0,0,0-.73,1.77,2.51,2.51,0,0,0,2.5,2.5,2.56,2.56,0,0,0,1.77-.74Z"/><path class="cls-10" d="M425.72,237.27l.09.19-.25-.6a5.56,5.56,0,0,1,.35,1.39l-.09-.66a9.32,9.32,0,0,0,.22,1.47,4.81,4.81,0,0,0,.29.71l.08.13a3,3,0,0,0,1,1l.05,0h0c.07,0,.54.24.62.26l.06,0a5.74,5.74,0,0,0,.71.09,4.37,4.37,0,0,0,.81-.09,5,5,0,0,0,1-.38,2.59,2.59,0,0,0,1.27-1.34q.27-.6.51-1.2a4.8,4.8,0,0,0,.29-1,7.25,7.25,0,0,0,.13-1,6.13,6.13,0,0,0-.11-1,1.05,1.05,0,0,0-.06-.24,3.54,3.54,0,0,0-.34-.77,3.47,3.47,0,0,0-.44-.57l-.06-.07-.06,0a4,4,0,0,0-.56-.43,3.37,3.37,0,0,0-.73-.32l-.12,0a3.76,3.76,0,0,0-.74-.1h0a2.57,2.57,0,0,0-1.77.73,2.83,2.83,0,0,0-.73,1.77,2.52,2.52,0,0,0,.73,1.76,2.65,2.65,0,0,0,1.77.74h.06l-.66-.09.19.05-.6-.25a1,1,0,0,1,.17.1l-.51-.39a.62.62,0,0,1,.14.14l-.39-.51a1.62,1.62,0,0,1,.1.18l-.25-.6a1.18,1.18,0,0,1,.08.31l-.09-.66a1.69,1.69,0,0,1,0,.55l.09-.66a5.49,5.49,0,0,1-.41,1.38l.25-.59c-.1.23-.21.45-.32.67l.9-.89-.22.1.6-.25a1.74,1.74,0,0,1-.39.11l.67-.08h-.16l.66.09a.38.38,0,0,1-.1,0l.6.26-.09-.06.51.4-.06-.06.39.5a.57.57,0,0,1-.08-.13l.25.6a3,3,0,0,1-.13-.59l.09.67c-.07-.52-.11-1.05-.22-1.56a7.25,7.25,0,0,0-.6-1.63,2,2,0,0,0-.64-.7,1.83,1.83,0,0,0-.85-.44,1.9,1.9,0,0,0-1,0,2,2,0,0,0-.93.3,2.53,2.53,0,0,0-1.15,1.49l-.09.67a2.53,2.53,0,0,0,.34,1.26Z"/><path class="cls-10" d="M418.12,239.87a3.06,3.06,0,0,1,.59.37l-.51-.4c.5.39.85.93,1.34,1.33a3.86,3.86,0,0,0,.79.55,3.49,3.49,0,0,0,1.56.42,4.48,4.48,0,0,0,2.15-.57,2.59,2.59,0,0,0,.9-.9,2.43,2.43,0,0,0,.34-1.26,7.61,7.61,0,0,0-.22-2,4.28,4.28,0,0,0-.4-1,.86.86,0,0,0-.1-.16,3.28,3.28,0,0,0-1.09-1.09l-.14-.09a7.76,7.76,0,0,0-.72-.3l-.16,0a6,6,0,0,0-1.34-.14,7.16,7.16,0,0,1-.92,0l.67.09a2.91,2.91,0,0,1-.66-.17l.6.25-.16-.07a1.9,1.9,0,0,0-.93-.3,1.86,1.86,0,0,0-1,0,1.78,1.78,0,0,0-.85.44,2,2,0,0,0-.65.7,2.56,2.56,0,0,0-.25,1.93,2.48,2.48,0,0,0,1.15,1.5,5.62,5.62,0,0,0,1.2.46,8.74,8.74,0,0,0,1.24.15c.36,0,.73,0,1.09,0l-.66-.09a1.25,1.25,0,0,1,.37.09l-.6-.25.21.12-.51-.39a1.21,1.21,0,0,1,.16.16l-.39-.5a1.49,1.49,0,0,1,.18.3l-.26-.6a2.71,2.71,0,0,1,.17.68l-.09-.67a6.64,6.64,0,0,1,0,.89l1.24-2.16-.18.08.59-.25a2.54,2.54,0,0,1-.47.14l.66-.09h-.29l.66.09-.23-.07.6.26a1.38,1.38,0,0,1-.29-.17l.51.39a6.9,6.9,0,0,1-.8-.82,6.09,6.09,0,0,0-1.64-1.26,1.9,1.9,0,0,0-.93-.3,1.86,1.86,0,0,0-1,.05,1.78,1.78,0,0,0-.85.44,2,2,0,0,0-.65.7,2.51,2.51,0,0,0,.9,3.43Z"/><path class="cls-10" d="M422.85,251.37l.27-.24-.5.39a2.43,2.43,0,0,1,.44-.26l-.6.25a1.91,1.91,0,0,1,.41-.11l-.66.09a2.18,2.18,0,0,1,.57,0l-.67-.09a4.5,4.5,0,0,1,1.08.33l-.6-.25c.22.09.42.18.63.29a1.85,1.85,0,0,0,.93.29,1.89,1.89,0,0,0,1,0,2.8,2.8,0,0,0,1.49-1.15,2.5,2.5,0,0,0-.9-3.42,11.84,11.84,0,0,0-1.72-.73,4.43,4.43,0,0,0-.49-.13,6.49,6.49,0,0,0-1.09-.12,4.49,4.49,0,0,0-3.13,1.37,2.59,2.59,0,0,0-.73,1.77,1.88,1.88,0,0,0,.22,1,1.83,1.83,0,0,0,.51.8,2.53,2.53,0,0,0,1.77.74,2.6,2.6,0,0,0,1.77-.74Z"/><path class="cls-10" d="M429.51,245.29c-.17.17-.34.34-.5.52s-.36.44-.53.67a1,1,0,0,0-.1.17,4.09,4.09,0,0,0-.31.75,4.75,4.75,0,0,0-.12.83,4.7,4.7,0,0,0,0,.53,1.88,1.88,0,0,0,.22,1,1.83,1.83,0,0,0,.51.8,1.85,1.85,0,0,0,.81.52,1.88,1.88,0,0,0,1,.22l.67-.09a2.52,2.52,0,0,0,1.1-.65l.39-.5a2.43,2.43,0,0,0,.34-1.26,5.24,5.24,0,0,1,0-.56l-.09.67a.94.94,0,0,1,.06-.24l-.25.59a1,1,0,0,1,.15-.24l-.39.5c.18-.23.41-.44.62-.66a1.85,1.85,0,0,0,.52-.8,2.32,2.32,0,0,0,0-1.93,1.92,1.92,0,0,0-.52-.8l-.51-.39a2.43,2.43,0,0,0-1.26-.34l-.66.09a2.44,2.44,0,0,0-1.11.64Z"/><polygon class="cls-11" points="458.2 245.36 451.59 242.16 446.36 219.11 452.96 219.11 458.2 245.36"/><path class="cls-12" d="M393.47,298.52a4.12,4.12,0,0,1,.77.48l-.5-.39a4.86,4.86,0,0,1,.78.79l-.39-.51a5,5,0,0,1,.61,1.05l-.25-.6a5.19,5.19,0,0,1,.34,1.27l-.09-.66a4.87,4.87,0,0,1,0,.66,2.62,2.62,0,0,0,.73,1.76,2.58,2.58,0,0,0,1.77.74,2.5,2.5,0,0,0,1.77-.74,2.52,2.52,0,0,0,.73-1.76A7.21,7.21,0,0,0,396,294.2a2.5,2.5,0,0,0-2.52,4.32Z"/><path class="cls-13" d="M424.13,98.34c-.65-1.72-1.3-3.45-1.79-5.27a30.48,30.48,0,0,1-.75-5.88,27,27,0,0,0-.85-6,16.68,16.68,0,0,0-8.4-10.12,25.46,25.46,0,0,0-13.72-2.51,25.42,25.42,0,0,0-13.72,2.51,16.64,16.64,0,0,0-8.4,10.12,27,27,0,0,0-.86,6,29.73,29.73,0,0,1-.74,5.88c-.5,1.82-1.15,3.55-1.79,5.27s-1.3,3.43-1.79,5.21a29.9,29.9,0,0,0-1,10.78c.32,3.51,2.17,5.78,2.17,4.16a60,60,0,0,1,1.72-14.42c1.33-5.57,3.12-9.79,6.08-13s7.06-5.48,13-7.11a38.51,38.51,0,0,1,5.34-1,38.64,38.64,0,0,1,5.33,1c6,1.63,10.08,3.88,13,7.11s4.74,7.46,6.07,13a58.66,58.66,0,0,1,1.72,14.42c0,1.62,1.86-.65,2.17-4.16a29.46,29.46,0,0,0-1-10.78C425.42,101.77,424.78,100.06,424.13,98.34Z"/><path class="cls-13" d="M369.28,120l-.25-.48C368.87,120.11,368.89,120.41,369.28,120Z"/><path class="cls-13" d="M428.21,119.48,428,120C428.35,120.41,428.37,120.11,428.21,119.48Z"/><path class="cls-14" d="M437.23,511.41a15,15,0,0,1,.66-4.19,14.15,14.15,0,0,0,2.58,7.52c.49-.55,0-1.65.31-2.34a7.45,7.45,0,0,0,3.38-1.84c-1.87-.73-6.47-3.33-5.23-1.7"/><path class="cls-15" d="M425.1,250.22c3.22,0,3.23-5,0-5s-3.22,5,0,5Z"/><path class="cls-15" d="M425.1,261.69c3.22,0,3.23-5,0-5s-3.22,5,0,5Z"/><path class="cls-15" d="M425.1,246.39c3.22,0,3.23-5,0-5s-3.22,5,0,5Z"/><path class="cls-16" d="M427.65,245.12c3.22,0,3.23-5,0-5s-3.22,5,0,5Z"/><path class="cls-16" d="M423.83,234.92c3.22,0,3.22-5,0-5s-3.22,5,0,5Z"/><path class="cls-17" d="M425.1,269.34c3.22,0,3.23-5,0-5s-3.22,5,0,5Z"/><path class="cls-17" d="M425.1,247.67c3.22,0,3.23-5,0-5s-3.22,5,0,5Z"/><path class="cls-17" d="M430.2,259.14c3.22,0,3.23-5,0-5s-3.22,5,0,5Z"/></svg>