<svg xmlns="http://www.w3.org/2000/svg" viewBox="0 0 800 600"><defs><style>.cls-1{fill:#fddec3;}.cls-2,.cls-8{fill:#404041;}.cls-3{fill:#74acb8;}.cls-4{fill:#fdd9b6;}.cls-5{fill:#de887b;}.cls-6{fill:#b18e6a;}.cls-13,.cls-7{fill:none;}.cls-7{stroke:#a56f29;stroke-width:0.25px;}.cls-13,.cls-7,.cls-8{stroke-miterlimit:10;}.cls-8{stroke:#fff;}.cls-9{fill:#b2a9a9;}.cls-10{fill:#95afd0;}.cls-11{fill:#8a5d3b;}.cls-12{fill:#ed6da8;}.cls-13{stroke:#e9e971;stroke-width:3px;}.cls-14{fill:#e9e971;}.cls-15{fill:#37b34a;}.cls-16{fill:#ec1c24;}.cls-17{fill:#ffdd15;}.cls-18{fill:#791221;}</style></defs><g id="Layer_3" data-name="Layer 3"><polygon class="cls-1" points="417.75 170.04 398.74 195.69 381.09 170.04 389.24 170.04 389.24 158.81 399.42 158.81 409.61 158.81 409.61 170.04 417.75 170.04"/><polygon class="cls-2" points="430.9 314.33 369.18 314.33 367.94 289.64 429.66 289.64 430.9 314.33"/><circle class="cls-3" cx="399.42" cy="113.81" r="2.45"/><path class="cls-1" d="M401.94,162.08c6.85-1.84,7.85-2.15,12-7.93,3.05-4.28,6.49-10.88,7.36-16.07,2.4-14.33,5.68-30.64.8-44.32-2.83-7.94-12.34-10.08-20.71-9.15H397.5c-8.38-.93-17.89,1.21-20.72,9.15-4.88,13.68-1.59,30,.81,44.32.87,5.19,4.3,11.79,7.35,16.07,4.11,5.78,5.11,6.09,12,7.93Z"/><path class="cls-4" d="M424.73,110c2.36.22,3.92,4.21,3.49,8.92s-2.69,8.35-5.05,8.13"/><path class="cls-4" d="M376.34,128.05c-2.34.37-4.83-3.12-5.58-7.79s.56-8.75,2.89-9.12"/><path class="cls-5" d="M408.25,141.89l-1-.25-1-.2-1-.19-1-.19c-.32-.07-.64-.15-.95-.24a7.59,7.59,0,0,1-.88-.31,6.63,6.63,0,0,1-.8-.4,1.37,1.37,0,0,1-.26.2,2.32,2.32,0,0,1-.31.19l-.34.18a3,3,0,0,0-.36.18l-.36.19-.34.21-.19.16-.19-.16-.34-.21a18.42,18.42,0,0,0-.72-.37l-.34-.18a2.32,2.32,0,0,1-.31-.19,1.37,1.37,0,0,1-.26-.2,6.63,6.63,0,0,1-.8.4,7.59,7.59,0,0,1-.88.31c-.31.09-.63.17-.95.24l-1,.19-1,.19-1,.2-1,.25a8.83,8.83,0,0,0-.95.33l2.13.67c.8.25,1.66.51,2.57.77s1.85.52,2.81.75c.55.13,1.11.25,1.67.36V145l.61-.12.61.12v-.23c.56-.11,1.12-.23,1.67-.36,1-.23,1.91-.49,2.82-.75s1.77-.52,2.56-.77l2.14-.67A9.86,9.86,0,0,0,408.25,141.89Z"/><path class="cls-6" d="M397.53,126.65a1.22,1.22,0,1,1-1.22-1.22A1.22,1.22,0,0,1,397.53,126.65Z"/><path class="cls-6" d="M403.76,126.65a1.23,1.23,0,1,1-1.23-1.22A1.22,1.22,0,0,1,403.76,126.65Z"/><circle class="cls-3" cx="412.57" cy="112.89" r="1.83"/><circle class="cls-3" cx="386.27" cy="112.89" r="1.83"/><path class="cls-7" d="M393.65,107.05c-3.66-2-8.2-.94-12.23.21"/><path class="cls-7" d="M405.2,107.05c3.65-2,8.19-.94,12.22.21"/><polygon class="cls-2" points="433.4 519.75 405.11 519.75 405.11 290.01 429.7 290.01 433.4 519.75"/><polygon class="cls-2" points="393.58 519.75 365.29 519.75 367.76 290.01 392.35 290.01 393.58 519.75"/><path class="cls-8" d="M399.9,533a20.38,20.38,0,0,1,40.76,0"/><path class="cls-8" d="M398.75,533A20.39,20.39,0,0,0,358,533"/><rect class="cls-1" x="340.16" y="322.07" width="16.71" height="27.71" rx="4"/><path class="cls-9" d="M357.48,188.75a8.37,8.37,0,0,0-.56-2.43,8.08,8.08,0,0,0-1.62-2.56,7.55,7.55,0,0,0-2.39-1.73,7,7,0,0,0-2.92-.63h-3a7,7,0,0,0-2.92.63,7.55,7.55,0,0,0-2.39,1.73,8.26,8.26,0,0,0-1.62,2.56,8.37,8.37,0,0,0-.56,2.43h0V325.4h18V188.75Z"/><rect class="cls-1" x="441.98" y="322.07" width="16.71" height="27.71" rx="4"/><path class="cls-9" d="M459.3,188.75a8.37,8.37,0,0,0-.56-2.43,8.08,8.08,0,0,0-1.62-2.56,7.55,7.55,0,0,0-2.39-1.73,7,7,0,0,0-2.92-.63h-3a7,7,0,0,0-2.92.63,7.55,7.55,0,0,0-2.39,1.73,8.26,8.26,0,0,0-1.62,2.56,8.37,8.37,0,0,0-.56,2.43h0V325.4h18V188.75Z"/><path class="cls-10" d="M418.74,171.18v-2.73c-1.87.52-3.81,1.17-5.81,1.81l-1,.13-.1.21c-.86.27-1.73.54-2.61.79a32.6,32.6,0,0,1-20.66,0c-3.32-.94-6.5-2.1-9.5-2.94v2.23L361.15,177v14l4,46.47V295l32.87.34h.34l32.87-.34V237.42l4-46.47V177Z"/><polyline class="cls-9" points="422.91 322.07 437.52 323.07 437.52 286.57 437.52 250.07 437.52 213.57 437.52 177.07 419.78 170.07 409.34 246.07 409.34 293.07"/><polyline class="cls-9" points="374.9 322.07 360.29 323.07 360.29 286.57 360.29 250.07 360.29 213.57 360.29 177.07 378.03 170.07 388.47 246.07 388.47 293.07"/><path class="cls-11" d="M423.21,99.91c-.61-1.74-1.22-3.49-1.69-5.32a33.78,33.78,0,0,1-.7-5.94,28.73,28.73,0,0,0-.8-6.06,16.54,16.54,0,0,0-7.93-10.2,22.65,22.65,0,0,0-12.94-2.54,22.65,22.65,0,0,0-12.94,2.54,16.58,16.58,0,0,0-7.93,10.2,28.73,28.73,0,0,0-.8,6.06,32.86,32.86,0,0,1-.7,5.94c-.47,1.83-1.08,3.58-1.69,5.32s-1.22,3.46-1.69,5.26a32.22,32.22,0,0,0-1,10.87c.3,3.53,2.05,5.83,2.05,4.19a64.63,64.63,0,0,1,.4-7.39,66.83,66.83,0,0,1,1.22-7.15c1.26-5.62,2.95-9.88,5.73-13.14s6.66-5.54,12.29-7.18a34.58,34.58,0,0,1,5-1,34.58,34.58,0,0,1,5,1c5.63,1.64,9.51,3.91,12.29,7.18s4.48,7.52,5.73,13.14a66.83,66.83,0,0,1,1.22,7.15,64.63,64.63,0,0,1,.4,7.39c0,1.64,1.75-.66,2.05-4.19a32,32,0,0,0-1-10.87C424.43,103.37,423.83,101.64,423.21,99.91Z"/><path class="cls-11" d="M371.48,121.71l-.24-.47C371.09,121.87,371.11,122.18,371.48,121.71Z"/><path class="cls-11" d="M427.06,121.24l-.24.47C427.19,122.18,427.21,121.87,427.06,121.24Z"/><path class="cls-12" d="M376.76,359.44c3.21,0,3.22-5,0-5s-3.23,5,0,5Z"/><path class="cls-12" d="M383,366.41c3.22,0,3.23-5,0-5s-3.22,5,0,5Z"/><path class="cls-12" d="M375.21,387.33c3.22,0,3.22-5,0-5s-3.22,5,0,5Z"/><path class="cls-12" d="M375.21,378c3.22,0,3.22-5,0-5s-3.22,5,0,5Z"/><path class="cls-12" d="M380.63,378.8c3.22,0,3.22-5,0-5s-3.22,5,0,5Z"/><path class="cls-12" d="M383,400.49c3.22,0,3.23-5,0-5s-3.22,5,0,5Z"/><path class="cls-12" d="M383,381.9c3.22,0,3.23-5,0-5s-3.22,5,0,5Z"/><path class="cls-12" d="M383,386.55c3.22,0,3.23-5,0-5s-3.22,5,0,5Z"/><path class="cls-12" d="M379.86,398.94c3.21,0,3.22-5,0-5s-3.23,5,0,5Z"/><path class="cls-12" d="M370.56,402.82c3.22,0,3.22-5,0-5s-3.22,5,0,5Z"/><path class="cls-12" d="M386.83,419.86c3.21,0,3.22-5,0-5s-3.23,5,0,5Z"/><path class="cls-12" d="M376,427.6c3.22,0,3.23-5,0-5s-3.22,5,0,5Z"/><path class="cls-12" d="M377.53,418.31c3.22,0,3.22-5,0-5s-3.22,5,0,5Z"/><path class="cls-12" d="M386.05,356.34c3.22,0,3.23-5,0-5s-3.22,5,0,5Z"/><path class="cls-12" d="M389.15,374.93c3.22,0,3.22-5,0-5s-3.22,5,0,5Z"/><path class="cls-12" d="M373.66,366.41c3.22,0,3.22-5,0-5s-3.22,5,0,5Z"/><path class="cls-12" d="M374.4,511.45a5.65,5.65,0,0,0,8.63,0,2.49,2.49,0,0,0,0-3.54,2.48,2.48,0,0,0-1.76-.73,2.64,2.64,0,0,0-1.77.73,5.71,5.71,0,0,1-.58.51l.51-.39a4.38,4.38,0,0,1-.93.55l.59-.25a2.94,2.94,0,0,1-.72.19l.67-.09a2.36,2.36,0,0,1-.65,0l.67.09a2.94,2.94,0,0,1-.72-.19l.6.25A4.21,4.21,0,0,1,378,508l.51.39c-.2-.16-.39-.33-.58-.51a2.59,2.59,0,0,0-1.76-.73,2.49,2.49,0,0,0-2.5,2.5,2.61,2.61,0,0,0,.73,1.77Z"/><path class="cls-13" d="M422.6,511.42a15,15,0,0,1-4.18-.66,14.18,14.18,0,0,0,7.52-2.58c-.55-.5-1.65-.05-2.34-.31a7.54,7.54,0,0,0-1.84-3.38c-.73,1.87-3.33,6.47-1.71,5.23"/><path class="cls-14" d="M394.19,280a4.77,4.77,0,0,1,.77.49l-.51-.39a4.22,4.22,0,0,1,.79.79l-.39-.51a4.73,4.73,0,0,1,.61,1l-.25-.59a5.07,5.07,0,0,1,.34,1.27l-.09-.67a4.87,4.87,0,0,1,0,.66,2.64,2.64,0,0,0,.73,1.77,2.57,2.57,0,0,0,1.77.73,2.49,2.49,0,0,0,2.5-2.5,7.24,7.24,0,0,0-3.79-6.41,2.67,2.67,0,0,0-1.92-.25,2.58,2.58,0,0,0-1.5,1.15,2.55,2.55,0,0,0-.25,1.93,2.5,2.5,0,0,0,1.15,1.49Z"/><path class="cls-12" d="M426.12,218.17l.09.19-.25-.6a5.56,5.56,0,0,1,.35,1.39l-.09-.67a9.27,9.27,0,0,0,.22,1.48,4.81,4.81,0,0,0,.29.71c0,.05,0,.09.07.13a3.25,3.25,0,0,0,1,1l.05,0,0,0c.07,0,.54.24.62.26h.06a3.06,3.06,0,0,0,1.52,0,5,5,0,0,0,1-.38,2.63,2.63,0,0,0,1.27-1.34c.18-.4.35-.8.51-1.21a4.56,4.56,0,0,0,.29-1,7.21,7.21,0,0,0,.13-1,6.15,6.15,0,0,0-.11-.95,1.05,1.05,0,0,0-.06-.24,3.84,3.84,0,0,0-.34-.78,4.71,4.71,0,0,0-.44-.56l-.06-.07-.06-.05a4,4,0,0,0-.56-.43,3.37,3.37,0,0,0-.73-.32l-.12,0a3.76,3.76,0,0,0-.74-.1h0a2.55,2.55,0,0,0-1.77.73,1.83,1.83,0,0,0-.51.8,1.9,1.9,0,0,0-.22,1,2.52,2.52,0,0,0,.73,1.76,2.65,2.65,0,0,0,1.77.74H430l-.67-.09.2.05-.6-.25a1,1,0,0,1,.17.1l-.51-.39a.86.86,0,0,1,.14.13l-.39-.5a1,1,0,0,1,.1.18l-.25-.6a1.18,1.18,0,0,1,.08.31l-.09-.66a1.69,1.69,0,0,1,0,.55l.09-.66a5.12,5.12,0,0,1-.42,1.38l.26-.59c-.1.23-.21.45-.32.67l.9-.89-.22.1.59-.25a1.66,1.66,0,0,1-.38.11l.67-.09h-.16l.66.09a.38.38,0,0,1-.1,0l.59.25-.08-.05.5.39a.12.12,0,0,1-.05-.05l.39.5a.57.57,0,0,1-.08-.13l.25.6a3,3,0,0,1-.13-.59l.09.67c-.07-.52-.12-1.05-.22-1.56a7.25,7.25,0,0,0-.6-1.63,2,2,0,0,0-.64-.7,1.88,1.88,0,0,0-.85-.44,1.9,1.9,0,0,0-1-.05,1.86,1.86,0,0,0-.93.3,2.53,2.53,0,0,0-1.15,1.49l-.09.67a2.53,2.53,0,0,0,.34,1.26Z"/><path class="cls-12" d="M418.52,220.76a4.49,4.49,0,0,1,.59.37l-.51-.39c.5.39.85.93,1.34,1.33a3.86,3.86,0,0,0,.79.55,3.48,3.48,0,0,0,1.56.41,4.27,4.27,0,0,0,2.15-.57,2.48,2.48,0,0,0,.9-.89,2.43,2.43,0,0,0,.34-1.26,7.56,7.56,0,0,0-.22-2,4.54,4.54,0,0,0-.4-1,1.3,1.3,0,0,0-.1-.15,4.78,4.78,0,0,0-.48-.61,4,4,0,0,0-.61-.48l-.14-.09a6.44,6.44,0,0,0-.72-.3l-.16,0a6,6,0,0,0-1.34-.14,7.16,7.16,0,0,1-.92,0l.67.09a2.48,2.48,0,0,1-.66-.18l.59.26-.15-.07a1.8,1.8,0,0,0-.93-.3,1.86,1.86,0,0,0-1,0,1.78,1.78,0,0,0-.85.44,1.9,1.9,0,0,0-.65.7,2.55,2.55,0,0,0-.25,1.93,2.46,2.46,0,0,0,1.15,1.49,4.73,4.73,0,0,0,1.2.46,7.38,7.38,0,0,0,1.24.16c.36,0,.73,0,1.09,0l-.67-.08a1.12,1.12,0,0,1,.37.09l-.59-.25a.82.82,0,0,1,.2.12l-.5-.39a1.21,1.21,0,0,1,.16.16l-.39-.51a1.92,1.92,0,0,1,.18.31l-.26-.6a2.71,2.71,0,0,1,.17.68l-.09-.67a6.64,6.64,0,0,1,.05.89l1.24-2.16-.18.08.59-.25a2.54,2.54,0,0,1-.47.14l.66-.09h-.3l.67.09-.23-.07.6.26a1.38,1.38,0,0,1-.29-.17l.51.39a8.83,8.83,0,0,1-.8-.82,6.09,6.09,0,0,0-1.64-1.26,1.8,1.8,0,0,0-.93-.3,1.86,1.86,0,0,0-1,0,1.78,1.78,0,0,0-.85.44,1.9,1.9,0,0,0-.65.7,2.55,2.55,0,0,0-.25,1.93,2.46,2.46,0,0,0,1.15,1.49Z"/><path class="cls-12" d="M423.25,232.27l.27-.24-.5.39a2.13,2.13,0,0,1,.44-.26l-.6.25a1.91,1.91,0,0,1,.41-.11l-.66.09a2.18,2.18,0,0,1,.57,0l-.67-.09a4.5,4.5,0,0,1,1.08.33l-.6-.26c.22.09.42.19.63.29a1.77,1.77,0,0,0,.93.3,1.89,1.89,0,0,0,1,0,2,2,0,0,0,.85-.45,2,2,0,0,0,.64-.7,2.5,2.5,0,0,0-.9-3.42,11.84,11.84,0,0,0-1.72-.73,4.43,4.43,0,0,0-.49-.13,5.68,5.68,0,0,0-1.09-.12,4.49,4.49,0,0,0-3.13,1.37,2.59,2.59,0,0,0-.73,1.77,1.88,1.88,0,0,0,.22,1,1.83,1.83,0,0,0,.51.8,2.53,2.53,0,0,0,1.77.74,2.6,2.6,0,0,0,1.77-.74Z"/><path class="cls-15" d="M425.5,231.12c3.22,0,3.23-5,0-5s-3.22,5,0,5Z"/><path class="cls-15" d="M425.5,242.59c3.22,0,3.23-5,0-5s-3.22,5,0,5Z"/><path class="cls-16" d="M428.05,226c3.22,0,3.22-5,0-5s-3.22,5,0,5Z"/><path class="cls-16" d="M424.23,215.82c3.22,0,3.22-5,0-5s-3.22,5,0,5Z"/><path class="cls-17" d="M425.5,250.24c3.22,0,3.23-5,0-5s-3.22,5,0,5Z"/><path class="cls-17" d="M430.6,240c3.22,0,3.22-5,0-5s-3.22,5,0,5Z"/><path class="cls-17" d="M425.26,228c3.21,0,3.22-5,0-5s-3.23,5,0,5Z"/><polygon class="cls-18" points="460.49 231.93 454.58 227.57 453.66 203.96 460.15 205.16 460.49 231.93"/></g></svg>