<svg xmlns="http://www.w3.org/2000/svg" viewBox="0 0 800 600"><defs><style>.cls-1{fill:#fddec3;}.cls-2,.cls-3{fill:#404041;}.cls-3{stroke:#fff;}.cls-16,.cls-3,.cls-7{stroke-miterlimit:10;}.cls-4{fill:#b2a9a9;}.cls-5{fill:#95afd0;}.cls-6{fill:#ed6da8;}.cls-16,.cls-7{fill:none;}.cls-7{stroke:#e9e971;stroke-width:3px;}.cls-8{fill:#e9e971;}.cls-9{fill:#37b34a;}.cls-10{fill:#ec1c24;}.cls-11{fill:#ffdd15;}.cls-12{fill:#791221;}.cls-13{fill:#74acb8;}.cls-14{fill:#b18e6a;}.cls-15{fill:#de887b;}.cls-16{stroke:#a56f29;}.cls-17{fill:#8a5d3b;}</style></defs><g id="Layer_3" data-name="Layer 3"><polygon class="cls-1" points="417.75 170.04 398.74 195.69 381.09 170.04 389.24 170.04 389.24 158.81 399.42 158.81 409.61 158.81 409.61 170.04 417.75 170.04"/><polygon class="cls-2" points="430.9 314.33 369.18 314.33 367.94 289.64 429.66 289.64 430.9 314.33"/><polygon class="cls-2" points="433.4 519.75 405.11 519.75 405.11 290.01 429.7 290.01 433.4 519.75"/><polygon class="cls-2" points="393.58 519.75 365.29 519.75 367.76 290.01 392.35 290.01 393.58 519.75"/><path class="cls-3" d="M399.9,533a20.38,20.38,0,0,1,40.76,0"/><path class="cls-3" d="M398.75,533A20.39,20.39,0,0,0,358,533"/><rect class="cls-1" x="340.16" y="322.07" width="16.71" height="27.71" rx="4"/><path class="cls-4" d="M357.48,188.75a8.37,8.37,0,0,0-.56-2.43,8.08,8.08,0,0,0-1.62-2.56,7.55,7.55,0,0,0-2.39-1.73,7,7,0,0,0-2.92-.63h-3a7,7,0,0,0-2.92.63,7.55,7.55,0,0,0-2.39,1.73,8.26,8.26,0,0,0-1.62,2.56,8.37,8.37,0,0,0-.56,2.43h0V325.4h18V188.75Z"/><rect class="cls-1" x="441.98" y="322.07" width="16.71" height="27.71" rx="4"/><path class="cls-4" d="M459.3,188.75a8.37,8.37,0,0,0-.56-2.43,8.08,8.08,0,0,0-1.62-2.56,7.55,7.55,0,0,0-2.39-1.73,7,7,0,0,0-2.92-.63h-3a7,7,0,0,0-2.92.63,7.55,7.55,0,0,0-2.39,1.73,8.26,8.26,0,0,0-1.62,2.56,8.37,8.37,0,0,0-.56,2.43h0V325.4h18V188.75Z"/><path class="cls-5" d="M418.74,171.18v-2.73c-1.87.52-3.81,1.17-5.81,1.81l-1,.13-.1.21c-.86.27-1.73.54-2.61.79a32.6,32.6,0,0,1-20.66,0c-3.32-.94-6.5-2.1-9.5-2.94v2.23L361.15,177v14l4,46.47V295l32.87.34h.34l32.87-.34V237.42l4-46.47V177Z"/><polyline class="cls-4" points="422.91 322.07 437.52 323.07 437.52 286.57 437.52 250.07 437.52 213.57 437.52 177.07 419.78 170.07 409.34 246.07 409.34 293.07"/><polyline class="cls-4" points="374.9 322.07 360.29 323.07 360.29 286.57 360.29 250.07 360.29 213.57 360.29 177.07 378.03 170.07 388.47 246.07 388.47 293.07"/><path class="cls-6" d="M376.76,359.44c3.21,0,3.22-5,0-5s-3.23,5,0,5Z"/><path class="cls-6" d="M383,366.41c3.22,0,3.23-5,0-5s-3.22,5,0,5Z"/><path class="cls-6" d="M375.21,387.33c3.22,0,3.22-5,0-5s-3.22,5,0,5Z"/><path class="cls-6" d="M375.21,378c3.22,0,3.22-5,0-5s-3.22,5,0,5Z"/><path class="cls-6" d="M380.63,378.8c3.22,0,3.22-5,0-5s-3.22,5,0,5Z"/><path class="cls-6" d="M383,400.49c3.22,0,3.23-5,0-5s-3.22,5,0,5Z"/><path class="cls-6" d="M383,381.9c3.22,0,3.23-5,0-5s-3.22,5,0,5Z"/><path class="cls-6" d="M383,386.55c3.22,0,3.23-5,0-5s-3.22,5,0,5Z"/><path class="cls-6" d="M379.86,398.94c3.21,0,3.22-5,0-5s-3.23,5,0,5Z"/><path class="cls-6" d="M370.56,402.82c3.22,0,3.22-5,0-5s-3.22,5,0,5Z"/><path class="cls-6" d="M386.83,419.86c3.21,0,3.22-5,0-5s-3.23,5,0,5Z"/><path class="cls-6" d="M376,427.6c3.22,0,3.23-5,0-5s-3.22,5,0,5Z"/><path class="cls-6" d="M377.53,418.31c3.22,0,3.22-5,0-5s-3.22,5,0,5Z"/><path class="cls-6" d="M386.05,356.34c3.22,0,3.23-5,0-5s-3.22,5,0,5Z"/><path class="cls-6" d="M389.15,374.93c3.22,0,3.22-5,0-5s-3.22,5,0,5Z"/><path class="cls-6" d="M373.66,366.41c3.22,0,3.22-5,0-5s-3.22,5,0,5Z"/><path class="cls-6" d="M374.4,511.45a5.65,5.65,0,0,0,8.63,0,2.49,2.49,0,0,0,0-3.54,2.48,2.48,0,0,0-1.76-.73,2.64,2.64,0,0,0-1.77.73,5.71,5.71,0,0,1-.58.51l.51-.39a4.38,4.38,0,0,1-.93.55l.59-.25a2.94,2.94,0,0,1-.72.19l.67-.09a2.36,2.36,0,0,1-.65,0l.67.09a2.94,2.94,0,0,1-.72-.19l.6.25A4.21,4.21,0,0,1,378,508l.51.39c-.2-.16-.39-.33-.58-.51a2.59,2.59,0,0,0-1.76-.73,2.49,2.49,0,0,0-2.5,2.5,2.61,2.61,0,0,0,.73,1.77Z"/><path class="cls-7" d="M422.6,511.42a15,15,0,0,1-4.18-.66,14.18,14.18,0,0,0,7.52-2.58c-.55-.5-1.65-.05-2.34-.31a7.54,7.54,0,0,0-1.84-3.38c-.73,1.87-3.33,6.47-1.71,5.23"/><path class="cls-8" d="M394.19,280a4.77,4.77,0,0,1,.77.49l-.51-.39a4.22,4.22,0,0,1,.79.79l-.39-.51a4.73,4.73,0,0,1,.61,1l-.25-.59a5.07,5.07,0,0,1,.34,1.27l-.09-.67a4.87,4.87,0,0,1,0,.66,2.64,2.64,0,0,0,.73,1.77,2.57,2.57,0,0,0,1.77.73,2.49,2.49,0,0,0,2.5-2.5,7.24,7.24,0,0,0-3.79-6.41,2.67,2.67,0,0,0-1.92-.25,2.58,2.58,0,0,0-1.5,1.15,2.55,2.55,0,0,0-.25,1.93,2.5,2.5,0,0,0,1.15,1.49Z"/><path class="cls-6" d="M426.12,218.17l.09.19-.25-.6a5.56,5.56,0,0,1,.35,1.39l-.09-.67a9.27,9.27,0,0,0,.22,1.48,4.81,4.81,0,0,0,.29.71c0,.05,0,.09.07.13a3.25,3.25,0,0,0,1,1l.05,0,0,0c.07,0,.54.24.62.26h.06a3.06,3.06,0,0,0,1.52,0,5,5,0,0,0,1-.38,2.63,2.63,0,0,0,1.27-1.34c.18-.4.35-.8.51-1.21a4.56,4.56,0,0,0,.29-1,7.21,7.21,0,0,0,.13-1,6.15,6.15,0,0,0-.11-.95,1.05,1.05,0,0,0-.06-.24,3.84,3.84,0,0,0-.34-.78,4.71,4.71,0,0,0-.44-.56l-.06-.07-.06-.05a4,4,0,0,0-.56-.43,3.37,3.37,0,0,0-.73-.32l-.12,0a3.76,3.76,0,0,0-.74-.1h0a2.55,2.55,0,0,0-1.77.73,1.83,1.83,0,0,0-.51.8,1.9,1.9,0,0,0-.22,1,2.52,2.52,0,0,0,.73,1.76,2.65,2.65,0,0,0,1.77.74H430l-.67-.09.2.05-.6-.25a1,1,0,0,1,.17.1l-.51-.39a.86.86,0,0,1,.14.13l-.39-.5a1,1,0,0,1,.1.18l-.25-.6a1.18,1.18,0,0,1,.08.31l-.09-.66a1.69,1.69,0,0,1,0,.55l.09-.66a5.12,5.12,0,0,1-.42,1.38l.26-.59c-.1.23-.21.45-.32.67l.9-.89-.22.1.59-.25a1.66,1.66,0,0,1-.38.11l.67-.09h-.16l.66.09a.38.38,0,0,1-.1,0l.59.25-.08-.05.5.39a.12.12,0,0,1-.05-.05l.39.5a.57.57,0,0,1-.08-.13l.25.6a3,3,0,0,1-.13-.59l.09.67c-.07-.52-.12-1.05-.22-1.56a7.25,7.25,0,0,0-.6-1.63,2,2,0,0,0-.64-.7,1.88,1.88,0,0,0-.85-.44,1.9,1.9,0,0,0-1-.05,1.86,1.86,0,0,0-.93.3,2.53,2.53,0,0,0-1.15,1.49l-.09.67a2.53,2.53,0,0,0,.34,1.26Z"/><path class="cls-6" d="M418.52,220.76a4.49,4.49,0,0,1,.59.37l-.51-.39c.5.39.85.93,1.34,1.33a3.86,3.86,0,0,0,.79.55,3.48,3.48,0,0,0,1.56.41,4.27,4.27,0,0,0,2.15-.57,2.48,2.48,0,0,0,.9-.89,2.43,2.43,0,0,0,.34-1.26,7.56,7.56,0,0,0-.22-2,4.54,4.54,0,0,0-.4-1,1.3,1.3,0,0,0-.1-.15,4.78,4.78,0,0,0-.48-.61,4,4,0,0,0-.61-.48l-.14-.09a6.44,6.44,0,0,0-.72-.3l-.16,0a6,6,0,0,0-1.34-.14,7.16,7.16,0,0,1-.92,0l.67.09a2.48,2.48,0,0,1-.66-.18l.59.26-.15-.07a1.8,1.8,0,0,0-.93-.3,1.86,1.86,0,0,0-1,0,1.78,1.78,0,0,0-.85.44,1.9,1.9,0,0,0-.65.7,2.55,2.55,0,0,0-.25,1.93,2.46,2.46,0,0,0,1.15,1.49,4.73,4.73,0,0,0,1.2.46,7.38,7.38,0,0,0,1.24.16c.36,0,.73,0,1.09,0l-.67-.08a1.12,1.12,0,0,1,.37.09l-.59-.25a.82.82,0,0,1,.2.12l-.5-.39a1.21,1.21,0,0,1,.16.16l-.39-.51a1.92,1.92,0,0,1,.18.31l-.26-.6a2.71,2.71,0,0,1,.17.68l-.09-.67a6.64,6.64,0,0,1,.05.89l1.24-2.16-.18.08.59-.25a2.54,2.54,0,0,1-.47.14l.66-.09h-.3l.67.09-.23-.07.6.26a1.38,1.38,0,0,1-.29-.17l.51.39a8.83,8.83,0,0,1-.8-.82,6.09,6.09,0,0,0-1.64-1.26,1.8,1.8,0,0,0-.93-.3,1.86,1.86,0,0,0-1,0,1.78,1.78,0,0,0-.85.44,1.9,1.9,0,0,0-.65.7,2.55,2.55,0,0,0-.25,1.93,2.46,2.46,0,0,0,1.15,1.49Z"/><path class="cls-6" d="M423.25,232.27l.27-.24-.5.39a2.13,2.13,0,0,1,.44-.26l-.6.25a1.91,1.91,0,0,1,.41-.11l-.66.09a2.18,2.18,0,0,1,.57,0l-.67-.09a4.5,4.5,0,0,1,1.08.33l-.6-.26c.22.09.42.19.63.29a1.77,1.77,0,0,0,.93.3,1.89,1.89,0,0,0,1,0,2,2,0,0,0,.85-.45,2,2,0,0,0,.64-.7,2.5,2.5,0,0,0-.9-3.42,11.84,11.84,0,0,0-1.72-.73,4.43,4.43,0,0,0-.49-.13,5.68,5.68,0,0,0-1.09-.12,4.49,4.49,0,0,0-3.13,1.37,2.59,2.59,0,0,0-.73,1.77,1.88,1.88,0,0,0,.22,1,1.83,1.83,0,0,0,.51.8,2.53,2.53,0,0,0,1.77.74,2.6,2.6,0,0,0,1.77-.74Z"/><path class="cls-9" d="M425.5,231.12c3.22,0,3.23-5,0-5s-3.22,5,0,5Z"/><path class="cls-9" d="M425.5,242.59c3.22,0,3.23-5,0-5s-3.22,5,0,5Z"/><path class="cls-10" d="M428.05,226c3.22,0,3.22-5,0-5s-3.22,5,0,5Z"/><path class="cls-10" d="M424.23,215.82c3.22,0,3.22-5,0-5s-3.22,5,0,5Z"/><path class="cls-11" d="M425.5,250.24c3.22,0,3.23-5,0-5s-3.22,5,0,5Z"/><path class="cls-11" d="M430.6,240c3.22,0,3.22-5,0-5s-3.22,5,0,5Z"/><path class="cls-11" d="M425.26,228c3.21,0,3.22-5,0-5s-3.23,5,0,5Z"/><polygon class="cls-12" points="460.49 231.93 454.58 227.57 453.66 203.96 460.15 205.16 460.49 231.93"/><path class="cls-1" d="M397.33,162.5h4.14l.42-.14c1.16-.22,2.36-.19,3.5-.46,3.37-.81,5.57-4,7.36-6.94,3.48-5.8,8.6-12.19,9.4-18.91l2.13-18.16a15.52,15.52,0,0,0,.08-4.76c-.37-2-1.48-3.73-2.05-5.65-1.16-3.94,0-8.2-.44-12.28a15.14,15.14,0,0,0-5.65-10c-3.64-2.85-9.27-4.47-13.89-4.62l-5.86,0c-4.63.15-10.25,1.77-13.89,4.62a15.14,15.14,0,0,0-5.65,10c-.48,4.09.72,8.34-.44,12.28-.57,1.93-1.68,3.68-2.05,5.65a15.84,15.84,0,0,0,.07,4.76L376.65,136c.8,6.73,5.92,13.11,9.4,18.92,1.78,3,4,6.13,7.36,6.93,1.14.27,2.34.24,3.5.46Z"/><circle class="cls-13" cx="412.15" cy="116.47" r="1.78"/><circle class="cls-13" cx="386.65" cy="116.47" r="1.78"/><path class="cls-14" d="M397.45,132.36a1.26,1.26,0,1,1-1.26-1.27A1.26,1.26,0,0,1,397.45,132.36Z"/><path class="cls-14" d="M403.87,132.36a1.26,1.26,0,1,1-1.26-1.27A1.26,1.26,0,0,1,403.87,132.36Z"/><path class="cls-15" d="M406.82,144.34,406,144l-.86-.28-.86-.27-.84-.28c-.27-.1-.54-.21-.8-.33a6.26,6.26,0,0,1-.74-.44,4.5,4.5,0,0,1-.66-.58,3.15,3.15,0,0,1-.22.29,3.31,3.31,0,0,1-.26.27l-.29.25-.31.26-.3.27a4.12,4.12,0,0,0-.28.31.17.17,0,1,1-.32,0c-.09-.11-.19-.21-.29-.31l-.3-.27-.3-.26-.29-.25a3.31,3.31,0,0,1-.26-.27,2,2,0,0,1-.22-.29,4.57,4.57,0,0,1-.67.58,5,5,0,0,1-.74.44,8.34,8.34,0,0,1-.8.33l-.83.28-.86.27-.86.28q-.44.17-.84.36a6.44,6.44,0,0,0-.8.47l1.79.95c.67.35,1.61,1.26,2.37,1.63s1.34.92,2.15,1.24c.47.19.94-.35,1.41-.19l0,.32.52-.16.51.16v-.32c.47-.16.94.38,1.41.19.8-.32,1.6-.87,2.36-1.24s1.49-1.28,2.15-1.63l1.8-.95A7.26,7.26,0,0,0,406.82,144.34Z"/><path class="cls-1" d="M424.45,116.91c1.64-.32,3.2,1.12,3.64,2.73a10.15,10.15,0,0,1-.33,4.94l-1.48,6.25a11.79,11.79,0,0,1-1.51,4,3.94,3.94,0,0,1-3.69,1.83"/><path class="cls-1" d="M374.35,116.91c-1.64-.32-3.2,1.12-3.64,2.73a10,10,0,0,0,.33,4.94l1.48,6.25a11.4,11.4,0,0,0,1.51,4,3.94,3.94,0,0,0,3.69,1.83"/><path class="cls-16" d="M405.81,110.82q5.38-.51,10.8-.66a1.49,1.49,0,0,1,.78.12,1.44,1.44,0,0,1,.4.38,11.56,11.56,0,0,1,1.14,1.71"/><path class="cls-16" d="M393,110.82q-5.39-.51-10.8-.66a1.49,1.49,0,0,0-.78.12,1.44,1.44,0,0,0-.4.38,11.56,11.56,0,0,0-1.14,1.71"/><path class="cls-17" d="M423,100.47c-.61-1.74-1.22-3.48-1.69-5.32a32.65,32.65,0,0,1-.7-5.93,29.3,29.3,0,0,0-.8-6.06A16.57,16.57,0,0,0,411.89,73,22.57,22.57,0,0,0,399,70.42,22.57,22.57,0,0,0,386,73a16.54,16.54,0,0,0-7.93,10.21,28.64,28.64,0,0,0-.8,6.06,33.56,33.56,0,0,1-.7,5.93c-.47,1.84-1.09,3.58-1.7,5.32s-1.22,3.46-1.68,5.26a32,32,0,0,0-1,10.87c.3,3.54,2,5.83,2,4.19a64.63,64.63,0,0,1,.4-7.39,66.83,66.83,0,0,1,1.22-7.15c1.25-5.61,2.94-9.87,5.73-13.14s6.66-5.54,12.29-7.18a35.67,35.67,0,0,1,5-1,36,36,0,0,1,5,1c5.63,1.64,9.5,3.91,12.29,7.18s4.47,7.53,5.73,13.14a66.83,66.83,0,0,1,1.22,7.15,64.63,64.63,0,0,1,.4,7.39c0,1.64,1.75-.65,2.05-4.19a32.22,32.22,0,0,0-1-10.87C424.23,103.93,423.62,102.21,423,100.47Z"/><path class="cls-17" d="M371.28,122.28l-.25-.48C370.89,122.43,370.9,122.74,371.28,122.28Z"/><path class="cls-17" d="M426.86,121.8l-.24.48C427,122.74,427,122.43,426.86,121.8Z"/></g></svg>