<svg xmlns="http://www.w3.org/2000/svg" viewBox="0 0 800 600"><defs><style>.cls-1{fill:#fddec3;}.cls-2{fill:#1b75bb;}.cls-3{fill:#2b388f;}.cls-4{fill:#404041;stroke:#fff;}.cls-4,.cls-5,.cls-9{stroke-miterlimit:10;}.cls-5,.cls-9{fill:none;}.cls-5{stroke:#2b388f;}.cls-6{fill:#74acb8;}.cls-7{fill:#b18e6a;}.cls-8{fill:#de887b;}.cls-9{stroke:#a56f29;}.cls-10{fill:#a56f29;}</style></defs><g id="Layer_3" data-name="Layer 3"><polygon class="cls-1" points="417.93 170.04 398.92 195.69 381.27 170.04 389.42 170.04 389.42 158.81 399.6 158.81 409.79 158.81 409.79 170.04 417.93 170.04"/><polygon class="cls-2" points="399.03 312.51 416.71 335.99 429.89 302.64 438.38 255 438.38 180.18 416.71 174.01 416.71 174.01 399.03 194.02 399.03 312.51"/><polygon class="cls-2" points="399.03 312.51 383.38 335.99 368.17 302.64 361.72 255 361.72 180.18 383.38 174.01 383.38 174.01 399.03 194.02 399.03 312.51"/><polygon class="cls-3" points="433.88 519.75 405.59 519.75 405.59 290.01 430.18 290.01 433.88 519.75"/><polygon class="cls-3" points="394.06 519.75 365.76 519.75 368.23 290.01 392.82 290.01 394.06 519.75"/><polygon class="cls-3" points="430.29 314.33 368.57 314.33 367.34 289.64 429.06 289.64 430.29 314.33"/><path class="cls-4" d="M400.37,533a20.39,20.39,0,0,1,40.77,0"/><path class="cls-4" d="M399.23,533a20.39,20.39,0,0,0-40.77,0"/><path class="cls-2" d="M425.64,239.7c-2.24-2.36-4.32-47.37-3.05-48.47s1-2.09,2.41-3A77.74,77.74,0,0,0,425,178a24.4,24.4,0,0,0-2.42-9.61l-10.2.84-10.2.83a26.48,26.48,0,0,0-2.81,7.47,26.48,26.48,0,0,0-2.81-7.47l-10.2-.83-10.2-.84a24.58,24.58,0,0,0-2.43,9.61,81.34,81.34,0,0,0,0,10.25c1.44.91,1.15,1.9,2.42,3s21.7,50.11,19.45,52.47"/><path class="cls-2" d="M361.92,235.09a43.05,43.05,0,0,0,.47,12.34c.64,4.11,1.53,8.16,2,11.94a129.06,129.06,0,0,1,.88,14.54c.06,5,0,10,0,14.94,0,7.95-.57,18-.5,27.86s-4.26,19.63-1.82,27c5.5-.28,15.46,4.12,20.44,5.5s10-.25,15.53-.59a16,16,0,0,0,1.25-1.31,14.44,14.44,0,0,0,1.25,1.31c5.56.34,10.55,2,15.53.59s14.94-5.78,20.43-5.5c2.45-7.39-1.87-17.14-1.81-27s-.49-19.91-.5-27.86c0-4.93-.1-10,0-14.94a129.06,129.06,0,0,1,.88-14.54c.49-3.78,1.38-7.83,2-11.94a43.05,43.05,0,0,0,.47-12.34"/><rect class="cls-2" x="361.26" y="241.23" width="77" height="114"/><line class="cls-5" x1="398.97" y1="179.88" x2="398.97" y2="324.15"/><rect class="cls-1" x="340.63" y="322.07" width="16.71" height="27.71" rx="4"/><path class="cls-2" d="M358,188.75a8.37,8.37,0,0,0-.56-2.43,8.06,8.06,0,0,0-1.61-2.56,7.55,7.55,0,0,0-2.39-1.73,7,7,0,0,0-2.92-.63h-3a7,7,0,0,0-2.91.63,7.7,7.7,0,0,0-2.4,1.73,8.06,8.06,0,0,0-1.61,2.56,8.37,8.37,0,0,0-.56,2.43h0V325.4h18V188.75Z"/><rect class="cls-1" x="442.45" y="322.07" width="16.71" height="27.71" rx="4"/><path class="cls-2" d="M459.77,188.75a8.37,8.37,0,0,0-.56-2.43,8.06,8.06,0,0,0-1.61-2.56,7.55,7.55,0,0,0-2.39-1.73,7,7,0,0,0-2.92-.63h-3a7,7,0,0,0-2.91.63,7.7,7.7,0,0,0-2.4,1.73,8.06,8.06,0,0,0-1.61,2.56,8.37,8.37,0,0,0-.56,2.43h0V325.4h18V188.75Z"/><path class="cls-1" d="M397.82,162.5H402l.42-.14c1.16-.22,2.35-.19,3.5-.46,3.37-.81,5.57-4,7.35-6.94,3.48-5.8,8.61-12.19,9.4-18.91l2.14-18.16a15.84,15.84,0,0,0,.08-4.76c-.38-2-1.49-3.73-2.05-5.65-1.17-3.94,0-8.2-.44-12.28a15.14,15.14,0,0,0-5.65-10c-3.65-2.85-9.27-4.47-13.89-4.62l-5.87,0c-4.62.15-10.24,1.77-13.88,4.62a15.14,15.14,0,0,0-5.65,10c-.48,4.09.72,8.34-.44,12.28-.57,1.93-1.68,3.68-2.05,5.65a15.52,15.52,0,0,0,.07,4.76L377.15,136c.79,6.73,5.92,13.11,9.4,18.92,1.78,3,4,6.13,7.36,6.93,1.14.27,2.34.24,3.49.46Z"/><circle class="cls-6" cx="412.64" cy="116.47" r="1.78"/><circle class="cls-6" cx="387.15" cy="116.47" r="1.78"/><path class="cls-7" d="M398,132.36a1.27,1.27,0,1,1-1.26-1.27A1.27,1.27,0,0,1,398,132.36Z"/><path class="cls-7" d="M404.37,132.36a1.26,1.26,0,1,1-1.26-1.27A1.26,1.26,0,0,1,404.37,132.36Z"/><path class="cls-8" d="M407.32,144.34l-.84-.36-.86-.28-.86-.27-.84-.28c-.27-.1-.54-.21-.8-.33a5,5,0,0,1-.74-.44,4.57,4.57,0,0,1-.67-.58,1.48,1.48,0,0,1-.22.29,2.2,2.2,0,0,1-.26.27l-.29.25-.3.26-.3.27a4.12,4.12,0,0,0-.28.31,1.88,1.88,0,0,0-.16.23l-.16-.23-.29-.31-.3-.27-.3-.26-.29-.25a3.31,3.31,0,0,1-.26-.27,2,2,0,0,1-.22-.29,4.57,4.57,0,0,1-.67.58,5,5,0,0,1-.74.44c-.26.12-.53.23-.8.33l-.84.28-.86.27-.85.28q-.44.17-.84.36a5.78,5.78,0,0,0-.8.47l1.79.95c.67.35,1.6,1.26,2.36,1.63s1.35.92,2.16,1.24c.46.19.93-.35,1.41-.19l0,.32.52-.16.51.16v-.32c.47-.16.94.38,1.41.19.8-.32,1.6-.87,2.36-1.24s1.48-1.28,2.15-1.63l1.8-.95A7.26,7.26,0,0,0,407.32,144.34Z"/><path class="cls-1" d="M425,116.91c1.63-.32,3.2,1.12,3.64,2.73a10.15,10.15,0,0,1-.33,4.94l-1.48,6.25a11.61,11.61,0,0,1-1.52,4,3.94,3.94,0,0,1-3.68,1.83"/><path class="cls-1" d="M374.85,116.91c-1.64-.32-3.21,1.12-3.64,2.73a10,10,0,0,0,.33,4.94l1.48,6.25a11.4,11.4,0,0,0,1.51,4,3.94,3.94,0,0,0,3.69,1.83"/><path class="cls-9" d="M406.31,110.82q5.38-.51,10.79-.66a1.46,1.46,0,0,1,.78.12,1.35,1.35,0,0,1,.41.38,11.56,11.56,0,0,1,1.14,1.71"/><path class="cls-9" d="M393.49,110.82q-5.39-.51-10.8-.66a1.46,1.46,0,0,0-.78.12,1.32,1.32,0,0,0-.4.38,11.62,11.62,0,0,0-1.15,1.71"/><path class="cls-10" d="M393.35,89c.52,1.2,1.15,1.71,1.86,1.84a4.48,4.48,0,0,0,2.33-.41,14.6,14.6,0,0,1,2.58-.82,3.39,3.39,0,0,1,2.66.6,4.47,4.47,0,0,1,.92-.73,11.05,11.05,0,0,1,1-.55c.34-.18.67-.36,1-.57a4.93,4.93,0,0,0,.88-.78c.6.23,1.21.43,1.82.6s1.23.31,1.86.42,1.28.2,1.93.27,1.33.12,2,.15a62,62,0,0,1,3,6.94c.84,2.32,1.56,4.65,2.28,7s1.42,4.7,2.22,7,2.46,4.71,3.54,7.07c.16-5-.64-10.07-1.15-14.79a40.61,40.61,0,0,0-3.23-12.85A19.67,19.67,0,0,0,413,80.53c-3.56-2.1-8.17-3.21-14.12-3a31.09,31.09,0,0,0-6.72.91,20.32,20.32,0,0,0-5.48,2.26,18.6,18.6,0,0,0-4.4,3.74,25,25,0,0,0-3.48,5.31c-.51,1.05-1.08,2.13-1.66,3.24s-1.16,2.26-1.71,3.42-.3,2.35-.75,3.56-.06,2.41-.34,3.64a23.79,23.79,0,0,0-.17,4.37c0,1.15-.35,8.16,0,9.53a46.77,46.77,0,0,0,2.72-6.86c.68-2.75.34-5,1.05-8.24s1.37-6.35,1.82-8.69a10.14,10.14,0,0,1,2.14-4"/></g></svg>