<svg xmlns="http://www.w3.org/2000/svg" viewBox="0 0 800 600"><defs><style>.cls-1{fill:#fddec3;}.cls-2{fill:#1b75bb;}.cls-3{fill:#2b388f;}.cls-4{fill:#404041;stroke:#fff;}.cls-11,.cls-4,.cls-5{stroke-miterlimit:10;}.cls-11,.cls-5{fill:none;}.cls-5{stroke:#2b388f;}.cls-6{fill:#74acb8;}.cls-7{fill:#fdd9b6;}.cls-8{fill:#a56f29;}.cls-9{fill:#de887b;}.cls-10{fill:#b18e6a;}.cls-11{stroke:#a56f29;stroke-width:0.25px;}</style></defs><g id="Layer_1" data-name="Layer 1"><polygon class="cls-1" points="418.04 170.04 399.03 195.69 381.38 170.04 389.52 170.04 389.52 158.81 399.71 158.81 409.89 158.81 409.89 170.04 418.04 170.04"/><polygon class="cls-2" points="399.14 312.51 416.82 335.99 430 302.64 438.48 255 438.48 180.18 416.82 174.01 416.82 174.01 399.14 194.02 399.14 312.51"/><polygon class="cls-2" points="399.14 312.51 383.49 335.99 368.28 302.64 361.82 255 361.82 180.18 383.49 174.01 383.49 174.01 399.14 194.02 399.14 312.51"/><polygon class="cls-3" points="433.98 519.75 405.69 519.75 405.69 290.01 430.28 290.01 433.98 519.75"/><polygon class="cls-3" points="394.16 519.75 365.87 519.75 368.34 290.01 392.93 290.01 394.16 519.75"/><polygon class="cls-3" points="430.39 314.33 368.68 314.33 367.44 289.64 429.16 289.64 430.39 314.33"/><path class="cls-4" d="M400.47,533a20.39,20.39,0,0,1,40.77,0"/><path class="cls-4" d="M399.33,533a20.39,20.39,0,0,0-40.77,0"/><path class="cls-2" d="M425.75,239.7c-2.25-2.36-4.33-47.37-3.06-48.47s1-2.09,2.42-3a81.34,81.34,0,0,0,0-10.25,24.58,24.58,0,0,0-2.43-9.61l-10.2.84-10.2.83a26.48,26.48,0,0,0-2.81,7.47,26.48,26.48,0,0,0-2.81-7.47l-10.2-.83-10.2-.84a24.4,24.4,0,0,0-2.42,9.61,77.74,77.74,0,0,0,0,10.25c1.43.91,1.14,1.9,2.41,3S398,241.34,395.75,243.7"/><path class="cls-2" d="M362,235.09a43.05,43.05,0,0,0,.47,12.34c.64,4.11,1.54,8.16,2,11.94a126.75,126.75,0,0,1,.88,14.54c.07,5,0,10,0,14.94,0,7.95-.57,18-.51,27.86s-4.25,19.63-1.81,27c5.49-.28,15.46,4.12,20.43,5.5s10-.25,15.53-.59a14.44,14.44,0,0,0,1.25-1.31,18,18,0,0,0,1.25,1.31c5.56.34,10.55,2,15.53.59s14.94-5.78,20.44-5.5c2.44-7.39-1.88-17.14-1.82-27s-.48-19.91-.5-27.86c0-4.93-.1-10,0-14.94a131.44,131.44,0,0,1,.88-14.54c.49-3.78,1.39-7.83,2-11.94a43.05,43.05,0,0,0,.47-12.34"/><line class="cls-5" x1="399.07" y1="179.88" x2="399.07" y2="324.15"/><circle class="cls-6" cx="399.21" cy="113.81" r="2.45"/><path class="cls-1" d="M401.73,162.08c6.85-1.84,7.85-2.15,12-7.93,3.05-4.28,6.48-10.88,7.35-16.07,2.41-14.33,5.69-30.64.81-44.32-2.83-7.94-12.34-10.08-20.72-9.15h-3.84c-8.38-.93-17.89,1.21-20.72,9.15-4.88,13.68-1.59,30,.81,44.32.87,5.19,4.3,11.79,7.35,16.07,4.11,5.78,5.11,6.09,12,7.93Z"/><path class="cls-7" d="M424.52,110c2.36.22,3.92,4.21,3.48,8.92s-2.68,8.35-5,8.13"/><path class="cls-7" d="M376.12,128.05c-2.33.37-4.82-3.12-5.57-7.79s.55-8.75,2.89-9.12"/><path class="cls-8" d="M392.77,88.79a2.7,2.7,0,0,0,1.92,1.8,4.86,4.86,0,0,0,2.38-.4,14.55,14.55,0,0,1,2.66-.8,3.59,3.59,0,0,1,2.72.58,5,5,0,0,1,1-.71c.33-.2.68-.37,1-.54a9.87,9.87,0,0,0,1-.55,4.38,4.38,0,0,0,.91-.77,18.38,18.38,0,0,0,1.87.59c.63.17,1.27.3,1.91.41s1.31.2,2,.27,1.37.11,2.08.15a58.33,58.33,0,0,1,3,6.76c.87,2.26,1.61,4.54,2.35,6.83s1.46,4.57,2.28,6.87,2.53,4.59,3.64,6.89c.16-4.9-.66-9.82-1.18-14.42A38.12,38.12,0,0,0,421,89.21a19.52,19.52,0,0,0-8-8.71c-3.66-2-8.39-3.13-14.5-2.93a33.39,33.39,0,0,0-6.9.88,21.46,21.46,0,0,0-5.63,2.21,19,19,0,0,0-4.52,3.64,24.21,24.21,0,0,0-3.56,5.19c-.54,1-1.12,2.07-1.71,3.16S375,94.85,374.38,96s-.31,2.3-.77,3.47-.07,2.36-.35,3.55a21.92,21.92,0,0,0-.17,4.27c0,1.13-.36,8,0,9.3a44.92,44.92,0,0,0,2.79-6.7c.69-2.68.35-4.89,1.08-8s1.4-6.2,1.87-8.48,2.3-3.8,2.19-3.89"/><path class="cls-9" d="M408,141.89l-1-.25-1-.2-1-.19-1-.19c-.32-.07-.64-.15-.95-.24a7.59,7.59,0,0,1-.88-.31,6.63,6.63,0,0,1-.8-.4,1.37,1.37,0,0,1-.26.2,2.32,2.32,0,0,1-.31.19l-.34.18a3,3,0,0,0-.36.18l-.36.19-.34.21-.19.16-.19-.16-.34-.21a18.42,18.42,0,0,0-.72-.37l-.34-.18a2.32,2.32,0,0,1-.31-.19,1.37,1.37,0,0,1-.26-.2,6.63,6.63,0,0,1-.8.4,7.59,7.59,0,0,1-.88.31c-.31.09-.63.17-.95.24l-1,.19-1,.19-1,.2-1,.25a8.83,8.83,0,0,0-.95.33l2.13.67c.79.25,1.66.51,2.56.77s1.86.52,2.82.75c.55.13,1.11.25,1.67.36V145l.61-.12.61.12v-.23c.56-.11,1.12-.23,1.67-.36,1-.23,1.91-.49,2.82-.75s1.76-.52,2.56-.77l2.14-.67A9.86,9.86,0,0,0,408,141.89Z"/><path class="cls-10" d="M397.32,126.65a1.23,1.23,0,1,1-1.22-1.22A1.22,1.22,0,0,1,397.32,126.65Z"/><path class="cls-10" d="M403.55,126.65a1.23,1.23,0,1,1-1.23-1.22A1.22,1.22,0,0,1,403.55,126.65Z"/><circle class="cls-6" cx="412.36" cy="112.89" r="1.83"/><circle class="cls-6" cx="386.06" cy="112.89" r="1.83"/><path class="cls-11" d="M393.44,107.05c-3.66-2-8.2-.94-12.23.21"/><path class="cls-11" d="M405,107.05c3.65-2,8.19-.94,12.22.21"/><rect class="cls-1" x="340.74" y="322.07" width="16.71" height="27.71" rx="4"/><path class="cls-2" d="M358.06,188.75a8.37,8.37,0,0,0-.56-2.43,8.26,8.26,0,0,0-1.62-2.56,7.55,7.55,0,0,0-2.39-1.73,7,7,0,0,0-2.92-.63h-3a7,7,0,0,0-2.92.63,7.55,7.55,0,0,0-2.39,1.73,8.26,8.26,0,0,0-1.62,2.56,8.37,8.37,0,0,0-.56,2.43h0V325.4h18V188.75Z"/><rect class="cls-1" x="442.56" y="322.07" width="16.71" height="27.71" rx="4"/><path class="cls-2" d="M459.88,188.75a8.37,8.37,0,0,0-.56-2.43,8.26,8.26,0,0,0-1.62-2.56,7.55,7.55,0,0,0-2.39-1.73,7,7,0,0,0-2.92-.63h-3a7,7,0,0,0-2.92.63,7.55,7.55,0,0,0-2.39,1.73,8.26,8.26,0,0,0-1.62,2.56,8.37,8.37,0,0,0-.56,2.43h0V325.4h18V188.75Z"/></g></svg>