<svg xmlns="http://www.w3.org/2000/svg" viewBox="0 0 800 600"><defs><style>.cls-1{fill:#f6cac9;}.cls-1,.cls-5{stroke:#dcb5b3;}.cls-1,.cls-11,.cls-5{stroke-miterlimit:10;}.cls-2{fill:#404041;}.cls-3{fill:#fff;}.cls-4{fill:#74acb8;}.cls-11,.cls-5{fill:none;}.cls-6{fill:#b18e6a;}.cls-7{fill:#f16522;}.cls-8{fill:#a56f29;}.cls-9{fill:#2b388f;}.cls-10{fill:#1b75bb;}.cls-11{stroke:#2b388f;}</style></defs><g id="Layer_1" data-name="Layer 1"><path class="cls-1" d="M377.67,142.57c2.79,7.85,8.57,25.54,8.23,35-1.21,4.6-8.8,9.63-13.92,18.54-1.08,1.89-2.79,3.34-4,5.19-4.31,5.1-10.58,9.17-14.11,14.76-4,6.35-4.48,15.26-5.74,22.36a601.6,601.6,0,0,0-9.33,102c0,9.85.92,33.74,13.84,34.66,9.8.7,4.49-5.46,2.31-10-2.48-5.2-2.75-11.13-2.42-17.72a10.65,10.65,0,0,1,4.83,0c1.72,5.88,7.61,9.82,8.83,1.74.8-5.29-4.21-7-6.14-12.09-2.14-5.66-1.92-13.76-3.4-20.38-1.68-7.49,3.33-15.26,3.4-23.35.14-14.12-3.42-23.17-.8-36.12,1.71-8.46.61-23.06,5.52-30v.74c-3.54,13.65.19,36,.19,49.48,0,13.23-.54,26.66.13,39.82,1.53.13,3,.29,4.52.48l2.65,176.88,0,2a11.53,11.53,0,0,0-.3,1.67c-.34,6.06-3.79,7.47-8.24,10.17-3.95,2.39-8.39,4.78-13.14,5.76-3.95.81-10.75-.24-11.77,4.47-1.4,6.52,5,5.37,9.23,6,2.36.36,4.14,1.25,6.64,1.35a48.05,48.05,0,0,0,8.42-.56c5.59-.8,11.3-.85,17.09-1.43,5-.51,13.07,1.3,14.16-4.51,1.27-6.81-2.7-13.14-2-19.57l.06-3.56h0v-1.57h0l-2.61-174c2.57.32,5.23.56,8,.68v.08h.1c.6,0,1.19,0,1.78,0s1.17,0,1.78,0h.1v-.08c2.78-.12,5.43-.36,8-.68l-2.6,174h0l0,.77,0,.8h0l.05,3.56c.71,6.43-3.25,12.76-2,19.57,1.09,5.81,9.11,4,14.16,4.51,5.79.58,11.49.63,17.08,1.43a48.23,48.23,0,0,0,8.43.56c2.49-.1,4.27-1,6.64-1.35,4.19-.65,10.63.5,9.22-6-1-4.71-7.81-3.66-11.76-4.47-4.75-1-9.2-3.37-13.14-5.76-4.46-2.7-7.91-4.11-8.25-10.17a11.47,11.47,0,0,0-.29-1.67l0-2,2.65-176.88c1.49-.19,3-.35,4.53-.48.67-13.16.13-26.59.13-39.82,0-13.52,3.73-35.83.18-49.48v-.74c4.92,7,3.82,21.58,5.52,30,2.62,12.95-.94,22-.8,36.12.08,8.09,5.08,15.86,3.41,23.35-1.49,6.62-1.27,14.72-3.41,20.38-1.93,5.09-6.93,6.8-6.14,12.09,1.22,8.08,7.11,4.14,8.84-1.74a10.6,10.6,0,0,1,4.82,0c.34,6.59.06,12.52-2.42,17.72-2.17,4.55-7.49,10.71,2.32,10,12.91-.92,13.84-24.81,13.83-34.66a600.57,600.57,0,0,0-9.33-102c-1.25-7.1-1.73-16-5.74-22.36-3.52-5.59-9.79-9.66-14.1-14.76-1.2-1.85-4.62-3.3-5.7-5.19a74.63,74.63,0,0,1-10-34.17c.42-7.43,3-15,4.59-19.38"/><path class="cls-2" d="M395,509.47c-.69-4.65-1.78-8.92-1.81-12.06-4.91-.23-14.58-2.82-19.05-.91-2.18.94-8.87,6.35-11.29,7.93-2.62,1.71-4.5,3.44-7.55,4.43-.67.22-1.43.42-2.24.61H342.76c-6.21,0-11.24,7.11-11.24,15.89h0c-.16,2.45,6.81,2.45,13,2.45h48.89l1.65-2.45h.06V509.47Z"/><path class="cls-2" d="M404.45,509.47c.68-4.65,1.77-8.92,1.8-12.06,4.91-.23,14.59-2.82,19.06-.91,2.18.94,8.87,6.35,11.29,7.93,2.62,1.71,4.49,3.44,7.54,4.43.68.22,1.43.42,2.24.61h10.34c6.21,0,11.24,7.11,11.24,15.89h0c.17,2.45-6.8,2.45-13,2.45H406.06l-1.66-2.45h0V509.47Z"/><path class="cls-1" d="M427,117.58c-.69-5.08-2.93-9.83-3.75-14.85s-.33-10.18-2.34-14.85c-4.27-9.92-13.15-13.57-22.31-13.14-9.17-.43-18,3.22-22.32,13.14-2,4.67-1.55,9.94-2.34,14.85s-3.06,9.77-3.75,14.85c-1.18,8.71,4.87,22.13,9.54,28.93,4.46,6.49,9.78,14.3,17.72,14.39.39,0,.76,0,1.15,0s.75,0,1.14,0c7.94-.09,13.26-7.9,17.72-14.39C422.1,139.71,428.15,126.29,427,117.58Z"/><path class="cls-1" d="M425.4,117.23c.31-2.54,4.14-6.48,5.82-1.78,1.37,3.83-2.9,7.32-1.83,11.12a7,7,0,0,1-1.94,1.68,8.48,8.48,0,0,1-.88-3.25"/><path class="cls-3" d="M403.74,113.21c7.56-6,9.55-2.63,15.12,1.22-3.85,1-10.23,2.86-15.12-1.22"/><path class="cls-4" d="M415,112.79a3.81,3.81,0,0,0-.24-1.31c-2-1.33-3.74-2-6.18-1.19a3.67,3.67,0,0,0,.23,5.24,16.24,16.24,0,0,0,5,0A3.68,3.68,0,0,0,415,112.79Z"/><path class="cls-2" d="M412.57,113a1.28,1.28,0,1,1-1.27-1.28A1.27,1.27,0,0,1,412.57,113Z"/><path class="cls-5" d="M404.67,116.25c2.42,1.82,5.24,2.25,8.05,2.86"/><path class="cls-5" d="M400.46,106.61c2.69-.45,5.6-2.72,8.23-2.78,3.46-.09,5.14,2,8.23,2.78"/><path class="cls-3" d="M391.7,113.41c-7.56-6-9.55-2.62-15.12,1.23,3.84,1,10.22,2.85,15.12-1.23"/><path class="cls-4" d="M380.44,113a3.58,3.58,0,0,1,.24-1.31c2-1.33,3.73-2,6.18-1.2a3.69,3.69,0,0,1-.23,5.24,16.31,16.31,0,0,1-5,0A3.72,3.72,0,0,1,380.44,113Z"/><path class="cls-2" d="M382.86,113.15a1.28,1.28,0,1,0,1.28-1.28A1.27,1.27,0,0,0,382.86,113.15Z"/><path class="cls-5" d="M390.77,116.45c-2.42,1.82-5.25,2.25-8,2.86"/><path class="cls-5" d="M395,106.81c-2.68-.44-5.6-2.71-8.23-2.78-3.45-.08-5.13,2-8.23,2.78"/><path class="cls-6" d="M396.94,129.53a1.27,1.27,0,1,1-1.26-1.27A1.26,1.26,0,0,1,396.94,129.53Z"/><path class="cls-6" d="M402.3,129.53a1.27,1.27,0,1,1-1.27-1.27A1.27,1.27,0,0,1,402.3,129.53Z"/><path class="cls-7" d="M405.94,141.09l-.86-.25-.88-.2-.88-.19c-.29-.06-.57-.12-.85-.2s-.56-.14-.82-.23a6.36,6.36,0,0,1-.76-.31,4.23,4.23,0,0,1-.68-.41,2.23,2.23,0,0,1-.22.21l-.27.18-.3.18-.3.18a3.28,3.28,0,0,0-.31.2,3.06,3.06,0,0,0-.29.21c-.06,0-.11.11-.16.16l-.17-.16a3.06,3.06,0,0,0-.29-.21l-.3-.2-.31-.18-.3-.18-.27-.18a2.23,2.23,0,0,1-.22-.21,4.23,4.23,0,0,1-.68.41,6.36,6.36,0,0,1-.76.31c-.26.09-.54.16-.82.23s-.56.14-.85.2l-.88.19-.88.2-.85.25c-.28.1-.56.21-.82.33l1.83.67c.68.25,1.42.52,2.2.78s1.59.51,2.41.75l1.44.36v.23l.53-.12.52.12V144q.72-.16,1.44-.36c.82-.24,1.63-.49,2.41-.75s1.52-.53,2.2-.78l1.83-.67Q406.36,141.24,405.94,141.09Z"/><path class="cls-1" d="M371.31,117.23c-.31-2.54-4.14-6.48-5.82-1.78-1.37,3.83,2.9,7.32,1.83,11.12a7,7,0,0,0,1.94,1.68,8.48,8.48,0,0,0,.88-3.25"/><path class="cls-8" d="M391.09,84.24a2.88,2.88,0,0,0,2.06,1.92,5,5,0,0,0,2.55-.43,16.18,16.18,0,0,1,2.85-.86,3.87,3.87,0,0,1,2.91.63,5.69,5.69,0,0,1,1-.77c.36-.21.74-.39,1.11-.57a10.21,10.21,0,0,0,1.08-.59,4.69,4.69,0,0,0,1-.82q1,.36,2,.63c.67.17,1.36.32,2.05.44s1.4.21,2.12.28,1.46.13,2.22.16a62.33,62.33,0,0,1,3.24,7.24c.93,2.43,1.72,4.87,2.51,7.32s1.57,4.9,2.45,7.36,2.7,4.92,3.89,7.38c.18-5.25-.71-10.52-1.26-15.45a41.15,41.15,0,0,0-3.56-13.43,20.9,20.9,0,0,0-8.6-9.33c-3.91-2.19-9-3.35-15.52-3.14a36.52,36.52,0,0,0-7.39.94,22.91,22.91,0,0,0-6,2.37,19.94,19.94,0,0,0-4.84,3.91A25.87,25.87,0,0,0,375.11,85c-.57,1.09-1.2,2.22-1.83,3.38s-1.27,2.36-1.88,3.58-.33,2.46-.83,3.71-.07,2.53-.37,3.81A22.75,22.75,0,0,0,370,104c0,1.2-.38,8.53,0,10a48,48,0,0,0,3-7.17c.74-2.87.38-5.23,1.16-8.6s1.5-6.64,2-9.08,2.46-4.08,2.35-4.17"/><polygon class="cls-9" points="395.03 502.22 388.02 502.22 381.01 502.22 374 502.22 366.99 502.22 364.01 473.15 363.68 415.35 363.68 375.4 366.99 305.87 374 305.87 381.01 305.87 388.02 305.87 395.03 305.87 404.71 305.16 395.19 393.42 394.98 480.8 395.03 502.22"/><polygon class="cls-9" points="405.48 502.22 412.49 502.22 419.51 502.22 426.52 502.22 433.53 502.22 436.51 473.15 436.84 415.35 436.84 375.4 433.53 305.87 426.52 305.87 419.51 305.87 412.49 305.87 405.48 305.87 395.81 305.16 405.33 393.42 405.54 480.8 405.48 502.22"/><path class="cls-10" d="M468.21,289.63c-.76-15.37-2.92-30.48-7.59-43.38-1.94-5.34-3.78-11.08-6.17-16.55a50.28,50.28,0,0,0-9.35-14.92c-2.25-2.35-23.17-27.92-21.9-29s1-2.09,2.41-3a79.6,79.6,0,0,0,0-10.26,24.48,24.48,0,0,0-2.43-9.6l-10.2.83-10.2.83a26.54,26.54,0,0,0-2.81,7.48,26.54,26.54,0,0,0-2.81-7.48l-10.2-.83-10.2-.83a24.48,24.48,0,0,0-2.43,9.6,79.6,79.6,0,0,0,0,10.26c1.43.9,1.14,1.9,2.41,3s-19.65,26.67-21.9,29a50.51,50.51,0,0,0-9.36,14.92c-2.38,5.47-4.22,11.21-6.16,16.55-4.67,12.9-6.83,28-7.59,43.38a395.25,395.25,0,0,0,.8,44.95,36.34,36.34,0,0,0,.93,6.28c.47,1.95,1.07,3.86,1.81,6.13,2.85-2.08,9.22-1.45,15.18-1.12s11.5.35,12.69-2.94c.42-1.16-.54-3.73-1.66-6.4s-2.39-5.42-2.6-6.95a45.43,45.43,0,0,1-.15-8.34c.14-2.81.33-5.63.19-8.37-.51-10.16,2.94-17.53,2.93-27.74s-3.49-23.25-.38-32.8a30.78,30.78,0,0,0,.48,10.46c.64,3.49,1.54,6.92,2,10.12a91.39,91.39,0,0,1,.88,12.33c.07,4.21,0,8.49,0,12.67,0,6.73-.57,15.23-.51,23.61s.75,16.65,3.21,22.91c5.53-.23,10.52.95,15.53,2.12s10,2.33,15.62,2.05a15.22,15.22,0,0,0,1.26-1.12,15.22,15.22,0,0,0,1.26,1.12c5.59.28,10.61-.88,15.62-2.05s10-2.35,15.53-2.12c2.46-6.26,3.15-14.53,3.21-22.91s-.49-16.88-.51-23.61c0-4.18-.1-8.46,0-12.67a91.39,91.39,0,0,1,.88-12.33c.49-3.2,1.39-6.63,2-10.12a30.78,30.78,0,0,0,.48-10.46c3.11,9.55-.37,22.59-.38,32.8s3.44,17.58,2.93,27.74c-.14,2.74.05,5.56.19,8.37a45.43,45.43,0,0,1-.15,8.34c-.21,1.53-1.48,4.29-2.6,6.95s-2.08,5.24-1.66,6.4c1.19,3.29,6.73,3.27,12.69,2.94s12.33-1,15.18,1.12c.74-2.27,1.34-4.18,1.81-6.13a36.34,36.34,0,0,0,.93-6.28A395.25,395.25,0,0,0,468.21,289.63Z"/><line class="cls-11" x1="400.27" y1="188.1" x2="400.27" y2="332.36"/></g></svg>