<svg xmlns="http://www.w3.org/2000/svg" viewBox="0 0 800 600"><defs><style>.cls-1{fill:#fddec3;}.cls-2,.cls-9{fill:#404041;}.cls-3{fill:#74acb8;}.cls-4{fill:#fdd9b6;}.cls-5{fill:#8a5d3b;}.cls-6{fill:#de887b;}.cls-7{fill:#b18e6a;}.cls-11,.cls-8{fill:none;}.cls-8{stroke:#a56f29;stroke-width:0.25px;}.cls-11,.cls-8,.cls-9{stroke-miterlimit:10;}.cls-9{stroke:#fff;}.cls-10{fill:#fff;}.cls-11{stroke:#ee4036;}</style></defs><g id="Layer_1" data-name="Layer 1"><polygon class="cls-1" points="418.33 170.04 399.32 195.69 381.67 170.04 389.82 170.04 389.82 158.81 400 158.81 410.18 158.81 410.18 170.04 418.33 170.04"/><polygon class="cls-2" points="431.48 314.33 369.76 314.33 368.52 289.64 430.24 289.64 431.48 314.33"/><circle class="cls-3" cx="400" cy="113.81" r="2.45"/><path class="cls-1" d="M402.52,162.08c6.85-1.84,7.85-2.15,12-7.93,3-4.28,6.48-10.88,7.35-16.07,2.41-14.33,5.69-30.64.81-44.32-2.83-7.94-12.34-10.08-20.72-9.15h-3.84c-8.38-.93-17.89,1.21-20.72,9.15-4.88,13.68-1.6,30,.81,44.32.87,5.19,4.3,11.79,7.35,16.07,4.11,5.78,5.11,6.09,12,7.93Z"/><path class="cls-4" d="M425.31,110c2.36.22,3.92,4.21,3.48,8.92s-2.69,8.35-5,8.13"/><path class="cls-4" d="M376.91,128.05c-2.33.37-4.83-3.12-5.57-7.79s.55-8.75,2.89-9.12"/><path class="cls-5" d="M393.56,88.79a2.7,2.7,0,0,0,1.92,1.8,4.86,4.86,0,0,0,2.38-.4,14.55,14.55,0,0,1,2.66-.8,3.59,3.59,0,0,1,2.72.58,5,5,0,0,1,1-.71c.33-.2.68-.37,1-.54a9.87,9.87,0,0,0,1-.55,4.38,4.38,0,0,0,.91-.77A18.38,18.38,0,0,0,409,88c.63.17,1.27.3,1.91.41s1.31.2,2,.27,1.37.11,2.08.15a58.33,58.33,0,0,1,3,6.76c.86,2.26,1.61,4.54,2.35,6.83s1.46,4.57,2.28,6.87,2.53,4.59,3.64,6.89c.16-4.9-.67-9.82-1.19-14.42a38.12,38.12,0,0,0-3.32-12.54,19.52,19.52,0,0,0-8-8.71c-3.66-2-8.39-3.13-14.5-2.93a33.39,33.39,0,0,0-6.9.88,21.32,21.32,0,0,0-5.63,2.21,19,19,0,0,0-4.52,3.64,24.21,24.21,0,0,0-3.56,5.19c-.54,1-1.12,2.07-1.71,3.16s-1.19,2.2-1.76,3.33-.31,2.3-.77,3.47-.07,2.36-.35,3.55a21.92,21.92,0,0,0-.17,4.27c0,1.13-.36,8,0,9.3a44.92,44.92,0,0,0,2.79-6.7c.69-2.68.35-4.89,1.08-8s1.4-6.2,1.86-8.48,2.31-3.8,2.2-3.89"/><path class="cls-6" d="M408.83,141.89l-1-.25-1-.2-1-.19-1-.19c-.33-.07-.64-.15-1-.24a7.59,7.59,0,0,1-.88-.31,6.63,6.63,0,0,1-.8-.4,1.37,1.37,0,0,1-.26.2,2.32,2.32,0,0,1-.31.19l-.34.18a18.42,18.42,0,0,0-.72.37l-.34.21-.19.16-.19-.16-.34-.21-.36-.19a3,3,0,0,0-.36-.18l-.34-.18a2.32,2.32,0,0,1-.31-.19,1.89,1.89,0,0,1-.27-.2,5.84,5.84,0,0,1-.79.4,7.59,7.59,0,0,1-.88.31c-.31.09-.63.17-1,.24l-1,.19-1,.19-1,.2-1,.25a8.83,8.83,0,0,0-.95.33l2.13.67c.79.25,1.66.51,2.56.77s1.86.52,2.82.75c.55.13,1.11.25,1.67.36V145l.61-.12.61.12,0-.23q.86-.17,1.68-.36c1-.23,1.91-.49,2.82-.75s1.76-.52,2.56-.77l2.13-.67A8.83,8.83,0,0,0,408.83,141.89Z"/><path class="cls-7" d="M398.11,126.65a1.23,1.23,0,1,1-1.22-1.22A1.22,1.22,0,0,1,398.11,126.65Z"/><path class="cls-7" d="M404.34,126.65a1.23,1.23,0,1,1-1.23-1.22A1.22,1.22,0,0,1,404.34,126.65Z"/><circle class="cls-3" cx="413.15" cy="112.89" r="1.83"/><circle class="cls-3" cx="386.85" cy="112.89" r="1.83"/><path class="cls-8" d="M394.22,107.05c-3.65-2-8.19-.94-12.22.21"/><path class="cls-8" d="M405.78,107.05c3.65-2,8.19-.94,12.22.21"/><polygon class="cls-2" points="433.98 519.75 405.69 519.75 405.69 290.01 430.28 290.01 433.98 519.75"/><polygon class="cls-2" points="394.16 519.75 365.87 519.75 368.34 290.01 392.93 290.01 394.16 519.75"/><path class="cls-9" d="M400.47,533a20.39,20.39,0,0,1,40.77,0"/><path class="cls-9" d="M399.33,533a20.39,20.39,0,0,0-40.77,0"/><rect class="cls-1" x="340.74" y="322.07" width="16.71" height="27.71" rx="4"/><path class="cls-2" d="M358.06,188.75a8.37,8.37,0,0,0-.56-2.43,8.26,8.26,0,0,0-1.62-2.56,7.55,7.55,0,0,0-2.39-1.73,7,7,0,0,0-2.92-.63h-3a7,7,0,0,0-2.92.63,7.55,7.55,0,0,0-2.39,1.73,8.26,8.26,0,0,0-1.62,2.56,8.37,8.37,0,0,0-.56,2.43h0V325.4h18V188.75Z"/><rect class="cls-1" x="442.56" y="322.07" width="16.71" height="27.71" rx="4"/><path class="cls-2" d="M459.88,188.75a8.37,8.37,0,0,0-.56-2.43,8.26,8.26,0,0,0-1.62-2.56,7.55,7.55,0,0,0-2.39-1.73,7,7,0,0,0-2.92-.63h-3a7,7,0,0,0-2.92.63,7.55,7.55,0,0,0-2.39,1.73,8.26,8.26,0,0,0-1.62,2.56,8.37,8.37,0,0,0-.56,2.43h0V325.4h18V188.75Z"/><polyline class="cls-10" points="440 251.96 440 214.19 440 176.43 428.7 173.32 417.39 170.2 417.39 170.2 417.39 170.2 408.17 180.3 398.94 190.4 398.94 250.21"/><polyline class="cls-10" points="360 251.19 360 213.78 360 176.37 371.3 173.29 382.61 170.2 382.61 170.2 382.61 170.2 390.77 180.21 398.94 190.21 398.94 249.46"/><line class="cls-11" x1="373.57" y1="204.85" x2="422.5" y2="204.85"/><line class="cls-11" x1="373.57" y1="214.12" x2="422.5" y2="214.12"/><line class="cls-11" x1="373.57" y1="209.49" x2="422.5" y2="209.49"/><line class="cls-11" x1="373.57" y1="218.76" x2="422.5" y2="218.76"/><line class="cls-11" x1="373.57" y1="228.03" x2="422.5" y2="228.03"/><line class="cls-11" x1="373.57" y1="223.4" x2="422.5" y2="223.4"/><line class="cls-11" x1="373.57" y1="232.67" x2="422.5" y2="232.67"/><line class="cls-11" x1="373.57" y1="241.94" x2="422.5" y2="241.94"/><line class="cls-11" x1="373.57" y1="237.31" x2="422.5" y2="237.31"/><line class="cls-11" x1="373.57" y1="246.58" x2="422.5" y2="246.58"/><line class="cls-11" x1="373.57" y1="255.85" x2="422.5" y2="255.85"/><line class="cls-11" x1="373.57" y1="251.21" x2="422.5" y2="251.21"/><path class="cls-10" d="M399.48,173.07a37.64,37.64,0,0,1-10.33-1.68c-3.31-.94-6.5-2.1-9.49-2.94v20.62l19.82,9,19.83-9V168.45c-3,.84-6.18,2-9.49,2.94A37.65,37.65,0,0,1,399.48,173.07Z"/><polyline class="cls-2" points="375.48 322.07 360.87 323.07 360.87 286.57 360.87 250.07 360.87 213.57 360.87 177.07 378.61 170.07 389.05 246.07 389.05 293.07"/><polyline class="cls-2" points="423.49 322.07 438.1 323.07 438.1 286.57 438.1 250.07 438.1 213.57 438.1 177.07 420.36 170.07 409.92 246.07 409.92 293.07"/></g></svg>