<svg id="Layer_2" data-name="Layer 2" xmlns="http://www.w3.org/2000/svg" viewBox="0 0 800 600"><defs><style>.cls-1{fill:#f6cac9;}.cls-1,.cls-5{stroke:#dcb5b3;}.cls-1,.cls-5,.cls-9{stroke-miterlimit:10;}.cls-2{fill:#404041;}.cls-3{fill:#fff;}.cls-4{fill:#74acb8;}.cls-5,.cls-9{fill:none;}.cls-6{fill:#b18e6a;}.cls-7{fill:#f16522;}.cls-8{fill:#8a5d3b;}.cls-9{stroke:#ee4036;}</style></defs><path class="cls-1" d="M377.93,142.57c2.79,7.85,8.57,25.54,8.23,35-1.21,4.6-8.8,9.63-13.91,18.54-1.09,1.89-2.8,3.34-4,5.19-4.31,5.1-10.58,9.17-14.11,14.76-4,6.35-4.48,15.26-5.73,22.36a599.55,599.55,0,0,0-9.33,102c0,9.85.92,33.74,13.83,34.66,9.81.7,4.49-5.46,2.32-10-2.48-5.2-2.76-11.13-2.42-17.72a10.6,10.6,0,0,1,4.82,0c1.72,5.88,7.61,9.82,8.83,1.74.8-5.29-4.21-7-6.13-12.09-2.14-5.66-1.93-13.76-3.41-20.38-1.67-7.49,3.33-15.26,3.41-23.35.13-14.12-3.42-23.17-.81-36.12,1.71-8.46.61-23.06,5.53-30v.74c-3.55,13.65.18,36,.18,49.48,0,13.23-.54,26.66.13,39.82,1.54.13,3,.29,4.52.48l2.65,176.88,0,2a11.53,11.53,0,0,0-.3,1.67c-.33,6.06-3.78,7.47-8.24,10.17-3.95,2.39-8.39,4.78-13.14,5.76-3.95.81-10.75-.24-11.77,4.47-1.4,6.52,5,5.37,9.23,6,2.36.36,4.14,1.25,6.64,1.35a48.05,48.05,0,0,0,8.42-.56c5.59-.8,11.3-.85,17.09-1.43,5-.51,13.07,1.3,14.16-4.51,1.27-6.81-2.69-13.14-2-19.57l.06-3.56h0v-1.57h0l-2.61-174c2.57.32,5.23.56,8,.68v.08h.1c.61,0,1.19,0,1.78,0s1.17,0,1.78,0h.1v-.08c2.78-.12,5.44-.36,8-.68l-2.61,174h0v1.57h0l.06,3.56c.7,6.43-3.26,12.76-2,19.57,1.09,5.81,9.12,4,14.16,4.51,5.79.58,11.5.63,17.09,1.43A48.05,48.05,0,0,0,445,526c2.5-.1,4.28-1,6.64-1.35,4.19-.65,10.63.5,9.23-6-1-4.71-7.82-3.66-11.77-4.47-4.75-1-9.19-3.37-13.14-5.76-4.46-2.7-7.91-4.11-8.24-10.17a11.53,11.53,0,0,0-.3-1.67l0-2,2.65-176.88c1.48-.19,3-.35,4.52-.48.67-13.16.13-26.59.13-39.82,0-13.52,3.73-35.83.18-49.48v-.74c4.92,7,3.82,21.58,5.53,30,2.61,12.95-.94,22-.81,36.12.08,8.09,5.08,15.86,3.41,23.35-1.48,6.62-1.27,14.72-3.41,20.38-1.92,5.09-6.93,6.8-6.13,12.09,1.22,8.08,7.11,4.14,8.83-1.74a10.6,10.6,0,0,1,4.82,0c.34,6.59.06,12.52-2.42,17.72-2.17,4.55-7.49,10.71,2.32,10,12.91-.92,13.84-24.81,13.83-34.66a599.55,599.55,0,0,0-9.33-102c-1.25-7.1-1.73-16-5.73-22.36-3.53-5.59-9.8-9.66-14.11-14.76-1.2-1.85-4.61-3.3-5.7-5.19A74.63,74.63,0,0,1,416,162c.43-7.43,3-15,4.59-19.38"/><polygon class="cls-2" points="405.74 502.22 412.76 502.22 419.77 502.22 426.78 502.22 433.79 502.22 436.77 473.15 437.1 415.35 437.1 375.4 433.79 305.87 426.78 305.87 419.77 305.87 412.76 305.87 405.74 305.87 396.07 305.16 405.59 393.42 405.8 480.8 405.74 502.22"/><path class="cls-2" d="M395.29,509.47c-.68-4.65-1.77-8.92-1.8-12.06-4.92-.23-14.59-2.82-19.06-.91-2.18.94-8.87,6.35-11.29,7.93-2.62,1.71-4.5,3.44-7.55,4.43-.67.22-1.42.42-2.24.61H343c-6.21,0-11.24,7.11-11.24,15.89h0c-.17,2.45,6.8,2.45,13,2.45h48.88l1.65-2.45h.06V509.47Z"/><path class="cls-2" d="M404.71,509.47c.68-4.65,1.77-8.92,1.8-12.06,4.92-.23,14.59-2.82,19.06-.91,2.18.94,8.87,6.35,11.29,7.93,2.62,1.71,4.5,3.44,7.55,4.43.67.22,1.42.42,2.24.61H457c6.21,0,11.24,7.11,11.24,15.89h0c.17,2.45-6.8,2.45-13,2.45H406.32l-1.65-2.45h-.06V509.47Z"/><path class="cls-1" d="M427.23,117.58c-.69-5.08-2.93-9.83-3.74-14.85s-.33-10.18-2.34-14.85C416.87,78,408,74.31,398.83,74.74c-9.17-.43-18,3.22-22.32,13.14-2,4.67-1.55,9.94-2.34,14.85s-3.06,9.77-3.74,14.85c-1.18,8.71,4.87,22.13,9.54,28.93,4.46,6.49,9.77,14.3,17.71,14.39.39,0,.77,0,1.15,0l1.14,0c7.94-.09,13.26-7.9,17.72-14.39C422.36,139.71,428.41,126.29,427.23,117.58Z"/><path class="cls-1" d="M425.66,117.23c.32-2.54,4.14-6.48,5.82-1.78,1.37,3.83-2.9,7.32-1.83,11.12a6.68,6.68,0,0,1-1.94,1.68,8.66,8.66,0,0,1-.88-3.25"/><path class="cls-3" d="M404,113.21c7.56-6,9.55-2.63,15.12,1.22-3.84,1-10.23,2.86-15.12-1.22"/><path class="cls-4" d="M415.26,112.79a3.81,3.81,0,0,0-.24-1.31c-2-1.33-3.73-2-6.18-1.19a3.66,3.66,0,0,0-1,2.5,3.71,3.71,0,0,0,1.21,2.74,16.3,16.3,0,0,0,5,0A3.71,3.71,0,0,0,415.26,112.79Z"/><path class="cls-2" d="M412.84,113a1.28,1.28,0,1,1-1.28-1.28A1.28,1.28,0,0,1,412.84,113Z"/><path class="cls-5" d="M404.93,116.25c2.42,1.82,5.25,2.25,8.05,2.86"/><path class="cls-5" d="M400.72,106.61c2.69-.45,5.6-2.72,8.23-2.78,3.46-.09,5.14,2,8.23,2.78"/><path class="cls-3" d="M392,113.41c-7.56-6-9.55-2.62-15.12,1.23,3.84,1,10.23,2.85,15.12-1.23"/><path class="cls-4" d="M380.7,113a3.81,3.81,0,0,1,.24-1.31c2-1.33,3.74-2,6.18-1.2a3.69,3.69,0,0,1-.23,5.24,16.31,16.31,0,0,1-5,0A3.72,3.72,0,0,1,380.7,113Z"/><path class="cls-2" d="M383.12,113.15a1.28,1.28,0,1,0,1.28-1.28A1.28,1.28,0,0,0,383.12,113.15Z"/><path class="cls-5" d="M391,116.45c-2.42,1.82-5.25,2.25-8,2.86"/><path class="cls-5" d="M395.24,106.81c-2.69-.44-5.6-2.71-8.23-2.78-3.46-.08-5.14,2-8.23,2.78"/><path class="cls-6" d="M397.2,129.53a1.27,1.27,0,1,1-1.26-1.27A1.26,1.26,0,0,1,397.2,129.53Z"/><path class="cls-6" d="M402.56,129.53a1.27,1.27,0,1,1-1.26-1.27A1.26,1.26,0,0,1,402.56,129.53Z"/><path class="cls-7" d="M406.2,141.09l-.86-.25-.88-.2-.87-.19c-.29-.06-.58-.12-.86-.2s-.55-.14-.82-.23a5.61,5.61,0,0,1-.75-.31,4.33,4.33,0,0,1-.69-.41,2.23,2.23,0,0,1-.22.21l-.27.18-.29.18-.31.18a3.28,3.28,0,0,0-.31.2,3.06,3.06,0,0,0-.29.21l-.16.16-.17-.16a2.16,2.16,0,0,0-.29-.21l-.3-.2-.31-.18-.3-.18-.27-.18-.22-.21a4.23,4.23,0,0,1-.68.41,5.75,5.75,0,0,1-.76.31c-.26.09-.53.16-.81.23s-.57.14-.86.2l-.88.19-.87.2-.86.25c-.28.1-.56.21-.82.33l1.83.67c.69.25,1.43.52,2.2.78s1.59.51,2.42.75c.47.13,1,.25,1.44.36l0,.23c.18,0,.35-.08.53-.12l.52.12V144q.72-.16,1.44-.36c.82-.24,1.63-.49,2.41-.75s1.52-.53,2.2-.78l1.83-.67Q406.62,141.24,406.2,141.09Z"/><path class="cls-1" d="M371.57,117.23c-.31-2.54-4.14-6.48-5.82-1.78-1.36,3.83,2.9,7.32,1.83,11.12a7,7,0,0,0,1.94,1.68,8.31,8.31,0,0,0,.88-3.25"/><path class="cls-8" d="M391.35,84.24a2.9,2.9,0,0,0,2.06,1.92,5,5,0,0,0,2.55-.43,16.7,16.7,0,0,1,2.85-.86,3.87,3.87,0,0,1,2.91.63,5.76,5.76,0,0,1,1-.77c.36-.21.73-.39,1.1-.57a11.46,11.46,0,0,0,1.09-.59,5,5,0,0,0,1-.82c.66.24,1.33.45,2,.63s1.36.32,2,.44,1.4.21,2.12.28,1.46.13,2.22.16a64.16,64.16,0,0,1,3.25,7.24c.92,2.43,1.72,4.87,2.5,7.32s1.57,4.9,2.45,7.36,2.7,4.92,3.89,7.38c.18-5.25-.7-10.52-1.26-15.45a41.15,41.15,0,0,0-3.56-13.43A20.94,20.94,0,0,0,413,75.35c-3.92-2.19-9-3.35-15.53-3.14a36.52,36.52,0,0,0-7.39.94,22.91,22.91,0,0,0-6,2.37,20.13,20.13,0,0,0-4.84,3.91A25.87,25.87,0,0,0,375.37,85c-.57,1.09-1.19,2.22-1.83,3.38s-1.27,2.36-1.88,3.58-.33,2.46-.83,3.71-.07,2.53-.37,3.81a23.45,23.45,0,0,0-.18,4.57c0,1.2-.39,8.53,0,10a46.94,46.94,0,0,0,3-7.17c.75-2.87.38-5.23,1.16-8.6s1.5-6.64,2-9.08,2.46-4.08,2.35-4.17"/><polygon class="cls-2" points="395.3 502.22 388.28 502.22 381.27 502.22 374.26 502.22 367.25 502.22 364.27 473.15 363.94 415.35 363.94 375.4 367.25 305.87 374.26 305.87 381.27 305.87 388.28 305.87 395.3 305.87 404.97 305.16 395.45 393.42 395.24 480.8 395.3 502.22"/><path class="cls-3" d="M446.36,215.38c-6.77-9.87-20-20.53-20.74-32.87-5.48,3.6-13,5.69-20.53,5.81v-1a37.94,37.94,0,0,1-4.79.77,37.79,37.79,0,0,1-4.78-.77v1c-7.54-.12-15-2.21-20.53-5.81-.76,12.34-14,23-20.74,32.87-10.47,15.26-13.6,31.81-12.41,50.26,4.29-4.32,18.88-3.74,24.33-1.49-.45,9-2,18.81-2.45,27.57-.63,12.35.23,15.68,12.41,15.67,6.44,0,12.91.1,19.39.2v.14l4.78-.07,4.79.07v-.14c6.48-.1,13-.21,19.39-.2,12.17,0,13-3.32,12.41-15.67-.46-8.76-2-18.62-2.45-27.57,5.45-2.25,20-2.83,24.33,1.49C460,247.19,456.83,230.64,446.36,215.38Z"/><line class="cls-9" x1="376.86" y1="214.16" x2="423.75" y2="214.16"/><line class="cls-9" x1="376.86" y1="223.44" x2="423.75" y2="223.44"/><line class="cls-9" x1="376.86" y1="218.8" x2="423.75" y2="218.8"/><line class="cls-9" x1="376.86" y1="228.07" x2="423.75" y2="228.07"/><line class="cls-9" x1="376.86" y1="237.34" x2="423.75" y2="237.34"/><line class="cls-9" x1="376.86" y1="232.71" x2="423.75" y2="232.71"/><line class="cls-9" x1="376.86" y1="241.98" x2="423.75" y2="241.98"/><line class="cls-9" x1="376.86" y1="251.25" x2="423.75" y2="251.25"/><line class="cls-9" x1="376.86" y1="246.62" x2="423.75" y2="246.62"/><line class="cls-9" x1="376.86" y1="255.89" x2="423.75" y2="255.89"/><line class="cls-9" x1="376.86" y1="265.16" x2="423.75" y2="265.16"/><line class="cls-9" x1="376.86" y1="260.53" x2="423.75" y2="260.53"/><polygon class="cls-2" points="391.03 306 377.57 335.75 364.11 335.75 364.11 259.68 364.11 190.4 377.57 183.6 377.57 183.6 391.03 259.68 391.03 306"/><path class="cls-2" d="M364.11,190.4c28.62-2.25-1.89,65.9-2.78,85.56-1,22.41,7.52,66.88-25.85,56.54,1-46,3.36-92.69,17.35-136.61"/><polygon class="cls-2" points="409.32 306 422.79 335.75 436.25 335.75 436.25 259.68 436.25 190.4 422.79 183.6 422.79 183.6 409.32 259.68 409.32 306"/><path class="cls-2" d="M436.25,190.4c-28.62-2.25,1.89,65.9,2.78,85.56,1,22.41-7.52,66.88,25.84,56.54-.95-46-3.35-92.69-17.34-136.61"/></svg>