<svg xmlns="http://www.w3.org/2000/svg" viewBox="0 0 800 600"><defs><style>.cls-1{fill:#fddec3;}.cls-2,.cls-3{fill:#404041;}.cls-3{stroke:#fff;}.cls-3,.cls-5,.cls-9{stroke-miterlimit:10;}.cls-4{fill:#fff;}.cls-5,.cls-9{fill:none;}.cls-5{stroke:#ee4036;}.cls-6{fill:#74acb8;}.cls-7{fill:#b18e6a;}.cls-8{fill:#de887b;}.cls-9{stroke:#a56f29;}.cls-10{fill:#8a5d3b;}</style></defs><g id="Layer_3" data-name="Layer 3"><polygon class="cls-1" points="418.33 170.04 399.32 195.69 381.67 170.04 389.82 170.04 389.82 158.81 400 158.81 410.18 158.81 410.18 170.04 418.33 170.04"/><polygon class="cls-2" points="431.48 314.33 369.76 314.33 368.52 289.64 430.24 289.64 431.48 314.33"/><polygon class="cls-2" points="433.98 519.75 405.69 519.75 405.69 290.01 430.28 290.01 433.98 519.75"/><polygon class="cls-2" points="394.16 519.75 365.87 519.75 368.34 290.01 392.93 290.01 394.16 519.75"/><path class="cls-3" d="M400.47,533a20.39,20.39,0,0,1,40.77,0"/><path class="cls-3" d="M399.33,533a20.39,20.39,0,0,0-40.77,0"/><rect class="cls-1" x="340.74" y="322.07" width="16.71" height="27.71" rx="4"/><path class="cls-2" d="M358.06,188.75a8.37,8.37,0,0,0-.56-2.43,8.26,8.26,0,0,0-1.62-2.56,7.55,7.55,0,0,0-2.39-1.73,7,7,0,0,0-2.92-.63h-3a7,7,0,0,0-2.92.63,7.55,7.55,0,0,0-2.39,1.73,8.26,8.26,0,0,0-1.62,2.56,8.37,8.37,0,0,0-.56,2.43h0V325.4h18V188.75Z"/><rect class="cls-1" x="442.56" y="322.07" width="16.71" height="27.71" rx="4"/><path class="cls-2" d="M459.88,188.75a8.37,8.37,0,0,0-.56-2.43,8.26,8.26,0,0,0-1.62-2.56,7.55,7.55,0,0,0-2.39-1.73,7,7,0,0,0-2.92-.63h-3a7,7,0,0,0-2.92.63,7.55,7.55,0,0,0-2.39,1.73,8.26,8.26,0,0,0-1.62,2.56,8.37,8.37,0,0,0-.56,2.43h0V325.4h18V188.75Z"/><polyline class="cls-4" points="440 251.96 440 214.19 440 176.43 428.7 173.32 417.39 170.2 417.39 170.2 417.39 170.2 408.17 180.3 398.94 190.4 398.94 250.21"/><polyline class="cls-4" points="360 251.19 360 213.78 360 176.37 371.3 173.29 382.61 170.2 382.61 170.2 382.61 170.2 390.77 180.21 398.94 190.21 398.94 249.46"/><line class="cls-5" x1="373.57" y1="204.85" x2="422.5" y2="204.85"/><line class="cls-5" x1="373.57" y1="214.12" x2="422.5" y2="214.12"/><line class="cls-5" x1="373.57" y1="209.49" x2="422.5" y2="209.49"/><line class="cls-5" x1="373.57" y1="218.76" x2="422.5" y2="218.76"/><line class="cls-5" x1="373.57" y1="228.03" x2="422.5" y2="228.03"/><line class="cls-5" x1="373.57" y1="223.4" x2="422.5" y2="223.4"/><line class="cls-5" x1="373.57" y1="232.67" x2="422.5" y2="232.67"/><line class="cls-5" x1="373.57" y1="241.94" x2="422.5" y2="241.94"/><line class="cls-5" x1="373.57" y1="237.31" x2="422.5" y2="237.31"/><line class="cls-5" x1="373.57" y1="246.58" x2="422.5" y2="246.58"/><line class="cls-5" x1="373.57" y1="255.85" x2="422.5" y2="255.85"/><line class="cls-5" x1="373.57" y1="251.21" x2="422.5" y2="251.21"/><path class="cls-4" d="M399.48,173.07a37.64,37.64,0,0,1-10.33-1.68c-3.31-.94-6.5-2.1-9.49-2.94v20.62l19.82,9,19.83-9V168.45c-3,.84-6.18,2-9.49,2.94A37.65,37.65,0,0,1,399.48,173.07Z"/><polyline class="cls-2" points="375.48 322.07 360.87 323.07 360.87 286.57 360.87 250.07 360.87 213.57 360.87 177.07 378.61 170.07 389.05 246.07 389.05 293.07"/><polyline class="cls-2" points="423.49 322.07 438.1 323.07 438.1 286.57 438.1 250.07 438.1 213.57 438.1 177.07 420.36 170.07 409.92 246.07 409.92 293.07"/><path class="cls-1" d="M397.67,162.5h4.15l.42-.14c1.15-.22,2.35-.19,3.49-.46,3.38-.81,5.58-4,7.36-6.94,3.48-5.8,8.61-12.19,9.4-18.91l2.14-18.16a15.84,15.84,0,0,0,.07-4.76c-.37-2-1.48-3.73-2.05-5.65-1.16-3.94,0-8.2-.44-12.28a15.14,15.14,0,0,0-5.65-10c-3.64-2.85-9.26-4.47-13.88-4.62l-5.87,0c-4.62.15-10.24,1.77-13.89,4.62a15.14,15.14,0,0,0-5.65,10c-.47,4.09.73,8.34-.44,12.28-.56,1.93-1.67,3.68-2.05,5.65a15.84,15.84,0,0,0,.08,4.76L377,136c.79,6.73,5.92,13.11,9.4,18.92,1.78,3,4,6.13,7.35,6.93,1.15.27,2.34.24,3.5.46Z"/><circle class="cls-6" cx="412.49" cy="116.47" r="1.78"/><circle class="cls-6" cx="387" cy="116.47" r="1.78"/><path class="cls-7" d="M397.79,132.36a1.26,1.26,0,1,1-1.26-1.27A1.26,1.26,0,0,1,397.79,132.36Z"/><path class="cls-7" d="M404.22,132.36a1.27,1.27,0,1,1-1.27-1.27A1.27,1.27,0,0,1,404.22,132.36Z"/><path class="cls-8" d="M407.16,144.34q-.41-.19-.84-.36l-.86-.28-.85-.27-.84-.28c-.28-.1-.54-.21-.8-.33a5,5,0,0,1-.74-.44,4.57,4.57,0,0,1-.67-.58,2,2,0,0,1-.22.29,3.31,3.31,0,0,1-.26.27l-.29.25-.3.26-.3.27c-.1.1-.2.2-.29.31l-.16.23a1.88,1.88,0,0,0-.16-.23,4.12,4.12,0,0,0-.28-.31l-.3-.27-.3-.26-.29-.25a2.29,2.29,0,0,1-.27-.27,3.15,3.15,0,0,1-.22-.29,4.5,4.5,0,0,1-.66.58,5.55,5.55,0,0,1-.74.44c-.26.12-.53.23-.8.33l-.84.28-.86.27-.86.28-.84.36a7.26,7.26,0,0,0-.8.47l1.8.95c.66.35,1.6,1.26,2.36,1.63s1.35.92,2.15,1.24c.47.19.94-.35,1.41-.19v.32l.51-.16.52.16,0-.32c.47-.16.94.38,1.41.19.81-.32,1.6-.87,2.37-1.24s1.48-1.28,2.15-1.63l1.79-.95A5.78,5.78,0,0,0,407.16,144.34Z"/><path class="cls-1" d="M424.79,116.91c1.64-.32,3.2,1.12,3.64,2.73a10,10,0,0,1-.33,4.94l-1.48,6.25a11.4,11.4,0,0,1-1.51,4,3.94,3.94,0,0,1-3.69,1.83"/><path class="cls-1" d="M374.69,116.91c-1.63-.32-3.2,1.12-3.64,2.73a10.15,10.15,0,0,0,.33,4.94l1.48,6.25a11.61,11.61,0,0,0,1.52,4,3.94,3.94,0,0,0,3.68,1.83"/><path class="cls-9" d="M406.15,110.82q5.39-.51,10.8-.66a1.46,1.46,0,0,1,.78.12,1.32,1.32,0,0,1,.4.38,11.62,11.62,0,0,1,1.15,1.71"/><path class="cls-9" d="M393.33,110.82q-5.38-.51-10.79-.66a1.46,1.46,0,0,0-.78.12,1.35,1.35,0,0,0-.41.38,11.56,11.56,0,0,0-1.14,1.71"/><path class="cls-10" d="M393.19,89c.53,1.2,1.16,1.71,1.87,1.84a4.48,4.48,0,0,0,2.33-.41,14.6,14.6,0,0,1,2.58-.82,3.35,3.35,0,0,1,2.65.6,4.53,4.53,0,0,1,.93-.73,11.05,11.05,0,0,1,1-.55c.33-.18.67-.36,1-.57a4.32,4.32,0,0,0,.88-.78c.61.23,1.21.43,1.83.6s1.23.31,1.86.42,1.27.2,1.93.27,1.33.12,2,.15A62,62,0,0,1,417,96c.83,2.32,1.56,4.65,2.28,7s1.42,4.7,2.22,7,2.46,4.71,3.54,7.07c.16-5-.64-10.07-1.15-14.79a41.16,41.16,0,0,0-3.23-12.85,19.69,19.69,0,0,0-7.82-8.93c-3.56-2.1-8.17-3.21-14.11-3a30.92,30.92,0,0,0-6.72.91,20.25,20.25,0,0,0-5.49,2.26,19,19,0,0,0-4.4,3.74,25.38,25.38,0,0,0-3.47,5.31c-.52,1.05-1.08,2.13-1.66,3.24s-1.16,2.26-1.71,3.42-.3,2.35-.76,3.56-.06,2.41-.33,3.64A23.79,23.79,0,0,0,374,108c0,1.15-.35,8.16,0,9.53a45.88,45.88,0,0,0,2.71-6.86c.68-2.75.35-5,1.06-8.24s1.37-6.35,1.82-8.69a10.34,10.34,0,0,1,2.13-4"/></g></svg>