<svg xmlns="http://www.w3.org/2000/svg" viewBox="0 0 800 600"><defs><style>.cls-1{fill:#fddec3;}.cls-2{fill:#162738;}.cls-3{fill:#065e72;}.cls-4{fill:#0abee8;}.cls-5{fill:#ed6da8;}.cls-6{fill:#74acb8;}.cls-7{fill:#b18e6a;}.cls-8{fill:#de887b;}.cls-9{fill:none;stroke:#a56f29;stroke-miterlimit:10;}.cls-10{fill:#8a5d3b;}.cls-11{fill:#1c7e70;}</style></defs><g id="Layer_3" data-name="Layer 3"><polygon class="cls-1" points="418.41 170.04 399.4 195.69 381.75 170.04 389.9 170.04 389.9 158.81 400.08 158.81 410.26 158.81 410.26 170.04 418.41 170.04"/><polygon class="cls-2" points="431.56 314.33 369.84 314.33 368.6 289.64 430.32 289.64 431.56 314.33"/><polygon class="cls-2" points="434.06 519.75 405.77 519.75 405.77 290.01 430.36 290.01 434.06 519.75"/><polygon class="cls-2" points="394.24 519.75 365.95 519.75 368.42 290.01 393 290.01 394.24 519.75"/><path class="cls-3" d="M400.55,533a20.39,20.39,0,0,1,40.77,0"/><path class="cls-3" d="M399.41,533a20.39,20.39,0,0,0-40.77,0"/><rect class="cls-1" x="340.82" y="322.07" width="16.71" height="27.71" rx="4"/><path class="cls-2" d="M358.14,188.75a8.37,8.37,0,0,0-.56-2.43,8.26,8.26,0,0,0-1.62-2.56,7.55,7.55,0,0,0-2.39-1.73,7,7,0,0,0-2.92-.63h-3a7,7,0,0,0-2.92.63,7.55,7.55,0,0,0-2.39,1.73,8.08,8.08,0,0,0-1.62,2.56,8.37,8.37,0,0,0-.56,2.43h0V325.4h18V188.75Z"/><rect class="cls-1" x="442.64" y="322.07" width="16.71" height="27.71" rx="4"/><path class="cls-2" d="M460,188.75a8.37,8.37,0,0,0-.56-2.43,8.26,8.26,0,0,0-1.62-2.56,7.55,7.55,0,0,0-2.39-1.73,7,7,0,0,0-2.92-.63h-3a7,7,0,0,0-2.92.63,7.55,7.55,0,0,0-2.39,1.73,8.08,8.08,0,0,0-1.62,2.56,8.37,8.37,0,0,0-.56,2.43h0V325.4h18V188.75Z"/><path class="cls-4" d="M419.39,171.18v-2.73c-1.86.52-3.8,1.17-5.8,1.81l-1,.13-.09.21c-.86.27-1.73.54-2.61.79a32.63,32.63,0,0,1-20.67,0c-3.32-.94-6.5-2.1-9.49-2.94v2.23L361.81,177v14l4,46.47V295l32.87.34H399l32.87-.34V237.42l4-46.47V177Z"/><polyline class="cls-2" points="423.57 322.07 438.18 323.07 438.18 286.57 438.18 250.07 438.18 213.57 438.18 177.07 420.44 170.07 410 246.07 410 293.07"/><polyline class="cls-2" points="375.56 322.07 360.95 323.07 360.95 286.57 360.95 250.07 360.95 213.57 360.95 177.07 378.69 170.07 389.13 246.07 389.13 293.07"/><path class="cls-5" d="M375.06,511.45a5.65,5.65,0,0,0,8.63,0,2.51,2.51,0,0,0,0-3.54,2.49,2.49,0,0,0-1.77-.73,2.63,2.63,0,0,0-1.76.73c-.19.18-.38.35-.58.51l.51-.39a4.21,4.21,0,0,1-.94.55l.6-.25a2.94,2.94,0,0,1-.72.19l.67-.09a2.36,2.36,0,0,1-.65,0l.67.09a2.94,2.94,0,0,1-.72-.19l.59.25a4.38,4.38,0,0,1-.93-.55l.51.39c-.2-.16-.39-.33-.58-.51a2.59,2.59,0,0,0-1.77-.73,2.51,2.51,0,0,0-2.5,2.5,2.62,2.62,0,0,0,.74,1.77Z"/><path class="cls-5" d="M416.53,511.7a5.65,5.65,0,0,0,8.64,0,2.59,2.59,0,0,0,.73-1.77,2.51,2.51,0,0,0-2.5-2.5,2.64,2.64,0,0,0-1.77.74,6.91,6.91,0,0,1-.57.51l.5-.39a4.14,4.14,0,0,1-.93.55l.6-.25a3.64,3.64,0,0,1-.72.19l.66-.09a3.42,3.42,0,0,1-.64,0l.66.09a3.64,3.64,0,0,1-.72-.19l.6.25a4.14,4.14,0,0,1-.93-.55l.5.39a6.91,6.91,0,0,1-.57-.51,2.49,2.49,0,0,0-3.54,0,2.52,2.52,0,0,0-.73,1.76,2.59,2.59,0,0,0,.73,1.77Z"/><path class="cls-5" d="M340,203.47c1.66,0,3,3.58,3,8s-1.34,8-3,8"/><path class="cls-1" d="M398,162.5h4.15l.42-.14c1.16-.22,2.35-.19,3.5-.46,3.37-.81,5.57-4,7.35-6.94,3.48-5.8,8.61-12.19,9.4-18.91l2.14-18.16a15.52,15.52,0,0,0,.08-4.76c-.38-2-1.49-3.73-2-5.65-1.17-3.94,0-8.2-.44-12.28a15.14,15.14,0,0,0-5.65-10c-3.65-2.85-9.27-4.47-13.89-4.62l-5.87,0c-4.62.15-10.24,1.77-13.88,4.62a15.14,15.14,0,0,0-5.65,10c-.48,4.09.72,8.34-.44,12.28-.57,1.93-1.68,3.68-2,5.65a15.84,15.84,0,0,0,.07,4.76L377.31,136c.79,6.73,5.92,13.11,9.4,18.92,1.78,3,4,6.13,7.36,6.93,1.14.27,2.34.24,3.5.46Z"/><circle class="cls-6" cx="412.81" cy="116.47" r="1.78"/><circle class="cls-6" cx="387.31" cy="116.47" r="1.78"/><path class="cls-7" d="M398.11,132.36a1.26,1.26,0,1,1-1.26-1.27A1.27,1.27,0,0,1,398.11,132.36Z"/><path class="cls-7" d="M404.53,132.36a1.26,1.26,0,1,1-1.26-1.27A1.26,1.26,0,0,1,404.53,132.36Z"/><path class="cls-8" d="M407.48,144.34l-.84-.36-.86-.28-.86-.27-.84-.28c-.27-.1-.54-.21-.8-.33a5.55,5.55,0,0,1-.74-.44,4.5,4.5,0,0,1-.66-.58,3.15,3.15,0,0,1-.22.29,2.29,2.29,0,0,1-.27.27l-.29.25-.3.26-.3.27a4.12,4.12,0,0,0-.28.31,1.88,1.88,0,0,0-.16.23l-.16-.23c-.09-.11-.19-.21-.29-.31l-.3-.27-.3-.26-.29-.25a3.31,3.31,0,0,1-.26-.27,2,2,0,0,1-.22-.29,4.57,4.57,0,0,1-.67.58,5,5,0,0,1-.74.44c-.26.12-.52.23-.8.33l-.84.28-.85.27-.86.28q-.44.17-.84.36a6.44,6.44,0,0,0-.8.47l1.79.95c.67.35,1.61,1.26,2.37,1.63s1.34.92,2.15,1.24c.47.19.94-.35,1.41-.19l0,.32.52-.16.51.16v-.32c.47-.16.94.38,1.41.19.8-.32,1.6-.87,2.36-1.24s1.49-1.28,2.15-1.63l1.8-.95A7.26,7.26,0,0,0,407.48,144.34Z"/><path class="cls-1" d="M425.11,116.91c1.64-.32,3.2,1.12,3.64,2.73a10.15,10.15,0,0,1-.33,4.94l-1.48,6.25a11.61,11.61,0,0,1-1.52,4,3.92,3.92,0,0,1-3.68,1.83"/><path class="cls-1" d="M375,116.91c-1.64-.32-3.2,1.12-3.64,2.73a10,10,0,0,0,.33,4.94l1.48,6.25a11.4,11.4,0,0,0,1.51,4,3.94,3.94,0,0,0,3.69,1.83"/><path class="cls-9" d="M406.47,110.82q5.38-.51,10.79-.66a1.46,1.46,0,0,1,.78.12,1.35,1.35,0,0,1,.41.38,11.56,11.56,0,0,1,1.14,1.71"/><path class="cls-9" d="M393.65,110.82q-5.38-.51-10.8-.66a1.49,1.49,0,0,0-.78.12,1.32,1.32,0,0,0-.4.38,11.62,11.62,0,0,0-1.15,1.71"/><path class="cls-10" d="M373.14,101.09c.85-3.84,3.77-6.87,5.26-10.51,1-2.38,1.32-5,2.28-7.38S383.44,78.49,386,78a23.05,23.05,0,0,1,4.39.08,25.81,25.81,0,0,0,5.06-.83c4.58-.94,9.31-.81,14-.67,1.94.05,4,.16,5.53,1.4a8.72,8.72,0,0,1,1.72,2.18l4.08,6.46A11.46,11.46,0,0,1,422,89.17a11.51,11.51,0,0,1,.36,3.37c.13,8.61,1,12.47,2.6,20.93-5-5.37-4.13-8.88-5.21-16.11a12.28,12.28,0,0,0-1.3-4.33,11.48,11.48,0,0,0-3.85-3.74,27.85,27.85,0,0,0-32.54,2.13,13.74,13.74,0,0,0-3,3.42c-3.24,5.58,1,13.31-2,18.4C373.22,119.69,372.49,104,373.14,101.09Z"/><rect class="cls-5" x="340" y="310.47" width="18" height="12"/><rect class="cls-5" x="442" y="310.47" width="18" height="12"/><circle class="cls-11" cx="425" cy="219.47" r="5"/></g></svg>