<svg id="Layer_2" data-name="Layer 2" xmlns="http://www.w3.org/2000/svg" viewBox="0 0 800 600"><defs><style>.cls-1{fill:#8a5d3b;}.cls-2{fill:#f6cac9;}.cls-2,.cls-6{stroke:#dcb5b3;stroke-miterlimit:10;}.cls-3{fill:#404041;}.cls-4{fill:#fff;}.cls-5{fill:#74acb8;}.cls-6{fill:none;}.cls-7{fill:#b18e6a;}.cls-8{fill:#f16522;}.cls-9{fill:#a56f29;}.cls-10{fill:#4962a2;}.cls-11{fill:#481c11;opacity:0.05;}.cls-12{fill:#6b6265;}.cls-13{fill:#756856;}.cls-14{fill:#af3a60;}.cls-15{fill:#48497f;}.cls-16{fill:#b64d52;}.cls-17{fill:#e5d9b9;}.cls-18{fill:#5877b0;}.cls-19{fill:#c82127;}.cls-20{fill:#5083a2;}.cls-21{fill:#774c43;}.cls-22{fill:#84959b;}.cls-23{fill:#2e5d8e;}.cls-24{fill:#f1f9fd;}</style></defs><path class="cls-1" d="M425.83,139.85c.64.16,1.29.31,1.93.44.4,1.44-.25,3,.38,4.39,1.71-.05,3.69.35,5.41.36.32,4.92-3.07,8.09-7.76,9.69-1.47.76-1.89,2.8-5.92.72-.57.65-1.32,2.23-2,2.44-1-13.41,5.51-12.12,7.87-23.42,0,3,1.6,4.11,2.24,6.81"/><path class="cls-1" d="M372.63,139.85c-.64.16-1.29.31-1.94.44-.39,1.44.26,3-.37,4.39-1.72-.05-3.69.35-5.41.36-.33,4.92,3.06,8.09,7.75,9.69,1.48.76,1.89,2.8,5.93.72.57.65,1.31,2.23,2,2.44,1-13.41-5.51-12.12-7.87-23.42-.05,3-1.6,4.11-2.25,6.81"/><path class="cls-2" d="M377.93,146.9c2.79,7.85,8.57,25.54,8.23,35-1.21,4.6-8.8,9.63-13.91,18.54-1.09,1.89-2.8,3.34-4,5.2-4.31,5.09-10.58,9.17-14.11,14.75-4,6.35-4.48,15.26-5.73,22.36a599.65,599.65,0,0,0-9.33,102c0,9.85.92,33.74,13.83,34.66,9.81.7,4.49-5.46,2.32-10-2.48-5.19-2.76-11.12-2.42-17.72a10.75,10.75,0,0,1,4.82,0c1.72,5.88,7.61,9.83,8.83,1.74.8-5.29-5.91-7-7.83-12.09-2.14-5.66-.23-13.76-1.71-20.38-1.67-7.48,3.33-15.26,3.41-23.35.13-14.12-3.42-23.16-.81-36.12,1.71-8.45.61-23,5.53-30v.73c-3.55,13.65.18,36,.18,49.48,0,13.23-.54,26.66.13,39.83,1.54.12,3,.29,4.52.47l2.65,176.88,0,2a11.53,11.53,0,0,0-.3,1.67c-.33,6.06-3.78,7.47-8.24,10.17-3.95,2.39-8.39,4.78-13.14,5.76-3.95.82-10.75-.24-11.77,4.47-1.4,6.52,5,5.38,9.23,6,2.36.36,4.14,1.25,6.64,1.35a47.11,47.11,0,0,0,8.42-.56c5.59-.8,11.3-.85,17.09-1.43,5-.51,13.07,1.3,14.16-4.51,1.27-6.81-2.69-13.14-2-19.57l.06-3.56h0v-1.57h0l-2.61-174c2.57.32,5.23.56,8,.68v.09h.1c.61,0,1.19,0,1.78,0s1.17,0,1.78,0h.1v-.09c2.78-.12,5.44-.36,8-.68l-2.61,174h0v1.57h0l.06,3.56c.7,6.43-3.26,12.76-2,19.57,1.09,5.81,9.12,4,14.16,4.51,5.79.58,11.5.63,17.09,1.43a47.11,47.11,0,0,0,8.42.56c2.5-.1,4.28-1,6.64-1.35,4.19-.64,10.63.5,9.23-6-1-4.71-7.82-3.65-11.77-4.47-4.75-1-9.19-3.37-13.14-5.76-4.46-2.7-7.91-4.11-8.24-10.17a11.53,11.53,0,0,0-.3-1.67l0-2L430.12,322c1.48-.18,3-.35,4.52-.47.67-13.17.13-26.6.13-39.83,0-13.52,3.73-35.83.18-49.48v-.73c4.92,7,3.82,21.58,5.53,30,2.61,13-.94,22-.81,36.12.08,8.09,5.08,15.87,3.41,23.35-1.48,6.62.43,14.72-1.71,20.38-1.92,5.1-8.63,6.8-7.83,12.09,1.22,8.09,7.11,4.14,8.83-1.74a10.75,10.75,0,0,1,4.82,0c.34,6.6.06,12.53-2.42,17.72-2.17,4.55-7.49,10.71,2.32,10,12.91-.92,13.84-24.81,13.83-34.66a599.65,599.65,0,0,0-9.33-102c-1.25-7.1-1.73-16-5.73-22.36-3.53-5.58-9.8-9.66-14.11-14.75-1.2-1.86-4.61-3.31-5.7-5.2a74.6,74.6,0,0,1-10-34.16c.43-7.44,3-15,4.59-19.39"/><path class="cls-3" d="M395.29,513.81c-.68-4.66-1.77-8.93-1.8-12.07-4.92-.23-14.59-2.81-19.06-.91-2.18.94-8.87,6.35-11.29,7.93-2.62,1.71-4.5,3.44-7.55,4.43-.67.23-1.42.42-2.24.62H343c-6.21,0-11.24,7.11-11.24,15.88h0c-.17,2.45,6.8,2.45,13,2.45h48.88l1.65-2.45h.06V513.81Z"/><path class="cls-3" d="M404.71,513.81c.68-4.66,1.77-8.93,1.8-12.07,4.92-.23,14.59-2.81,19.06-.91,2.18.94,8.87,6.35,11.29,7.93,2.62,1.71,4.5,3.44,7.55,4.43.67.23,1.42.42,2.24.62H457c6.21,0,11.24,7.11,11.24,15.88h0c.17,2.45-6.8,2.45-13,2.45H406.32l-1.65-2.45h-.06V513.81Z"/><path class="cls-2" d="M427.23,121.91c-.69-5.07-2.93-9.82-3.74-14.85s-.33-10.18-2.34-14.85C416.87,82.3,408,78.65,398.83,79.08c-9.17-.43-18,3.22-22.32,13.13-2,4.67-1.55,9.94-2.34,14.85s-3.06,9.78-3.74,14.85c-1.18,8.71,4.87,22.13,9.54,28.93,4.46,6.49,9.77,14.3,17.71,14.39l1.15,0,1.14,0c7.94-.09,13.26-7.9,17.72-14.39C422.36,144,428.41,130.62,427.23,121.91Z"/><path class="cls-2" d="M425.66,121.56c.32-2.54,4.14-6.48,5.82-1.78,1.37,3.83-2.9,7.32-1.83,11.12a6.87,6.87,0,0,1-1.94,1.69,8.66,8.66,0,0,1-.88-3.26"/><path class="cls-4" d="M404,117.54c7.56-6,9.55-2.62,15.12,1.23-3.84,1-10.23,2.85-15.12-1.23"/><path class="cls-5" d="M415.26,117.13a3.72,3.72,0,0,0-.24-1.31c-2-1.33-3.73-2-6.18-1.2a3.69,3.69,0,0,0,.23,5.24,16,16,0,0,0,5,0A3.68,3.68,0,0,0,415.26,117.13Z"/><path class="cls-3" d="M412.84,117.28a1.28,1.28,0,1,1-1.28-1.28A1.28,1.28,0,0,1,412.84,117.28Z"/><path class="cls-6" d="M404.93,120.58c2.42,1.82,5.25,2.25,8.05,2.86"/><path class="cls-4" d="M392,117.75c-7.56-6-9.55-2.63-15.12,1.22,3.84,1,10.23,2.85,15.12-1.22"/><path class="cls-5" d="M380.7,117.33a3.81,3.81,0,0,1,.24-1.31c2-1.33,3.74-2,6.18-1.2a3.68,3.68,0,0,1,1,2.51,3.72,3.72,0,0,1-1.21,2.74,16.62,16.62,0,0,1-5,0A3.71,3.71,0,0,1,380.7,117.33Z"/><path class="cls-3" d="M383.12,117.48a1.28,1.28,0,1,0,1.28-1.27A1.28,1.28,0,0,0,383.12,117.48Z"/><path class="cls-6" d="M391,120.78c-2.42,1.83-5.25,2.25-8,2.86"/><path class="cls-7" d="M397.2,133.86a1.27,1.27,0,1,1-1.26-1.26A1.26,1.26,0,0,1,397.2,133.86Z"/><path class="cls-7" d="M402.56,133.86a1.27,1.27,0,1,1-1.26-1.26A1.26,1.26,0,0,1,402.56,133.86Z"/><path class="cls-8" d="M407.05,145.43c-.28-.1-.57-.18-.86-.26l-.88-.2-.87-.19-.86-.19c-.28-.07-.55-.15-.82-.24A5.61,5.61,0,0,1,402,144a4.33,4.33,0,0,1-.69-.41,1.47,1.47,0,0,1-.22.21,3.15,3.15,0,0,1-.27.19l-.29.18a1.92,1.92,0,0,0-.31.18l-.31.19a3.15,3.15,0,0,0-.29.22,1.21,1.21,0,0,0-.16.16l-.17-.16a2.21,2.21,0,0,0-.29-.22l-.3-.19-.31-.18-.3-.18-.27-.19a2.18,2.18,0,0,1-.22-.21,4.23,4.23,0,0,1-.68.41,5.75,5.75,0,0,1-.76.31q-.39.14-.81.24l-.86.19-.88.19-.87.2c-.29.08-.58.16-.86.26a7.34,7.34,0,0,0-.82.32l1.83.68,2.2.77c.78.26,1.59.52,2.42.75l1.44.37,0,.22.53-.11.52.11v-.22l1.44-.37c.82-.23,1.63-.49,2.41-.75s1.52-.53,2.2-.77l1.83-.68A7.18,7.18,0,0,0,407.05,145.43Z"/><path class="cls-2" d="M371.57,121.56c-.31-2.54-4.14-6.48-5.82-1.78-1.36,3.83,2.9,7.32,1.83,11.12a7.16,7.16,0,0,0,1.94,1.69,8.31,8.31,0,0,0,.88-3.26"/><path class="cls-9" d="M391.35,88.57a2.9,2.9,0,0,0,2.06,1.92,5.1,5.1,0,0,0,2.55-.42,15.88,15.88,0,0,1,2.85-.87,3.87,3.87,0,0,1,2.91.63,5.26,5.26,0,0,1,1-.76c.36-.22.73-.4,1.1-.58a11.46,11.46,0,0,0,1.09-.59,5,5,0,0,0,1-.82c.66.24,1.33.45,2,.63s1.36.32,2,.44,1.4.21,2.12.29,1.46.12,2.22.15a63.5,63.5,0,0,1,3.25,7.25c.92,2.42,1.72,4.86,2.5,7.31s1.57,4.9,2.45,7.36,2.7,4.92,3.89,7.38c.18-5.25-.7-10.51-1.26-15.44A41.08,41.08,0,0,0,421.57,89,20.89,20.89,0,0,0,413,79.69c-3.92-2.2-9-3.36-15.53-3.15a35.8,35.8,0,0,0-7.39.95,22.9,22.9,0,0,0-6,2.36,20.13,20.13,0,0,0-4.84,3.91,25.87,25.87,0,0,0-3.82,5.55c-.57,1.09-1.19,2.22-1.83,3.39s-1.27,2.35-1.88,3.57-.33,2.46-.83,3.71-.07,2.53-.37,3.81a23.45,23.45,0,0,0-.18,4.57c0,1.2-.39,8.53,0,10a47.62,47.62,0,0,0,3-7.18c.75-2.86.38-5.23,1.16-8.6s1.5-6.64,2-9.08,2.46-4.07,2.35-4.17"/><polygon class="cls-10" points="395.3 506.55 388.28 506.55 381.27 506.55 374.26 506.55 367.25 506.55 364.27 477.48 363.94 419.68 363.94 379.73 367.25 310.2 374.26 310.2 381.27 310.2 388.28 310.2 395.3 310.2 404.97 309.5 395.45 397.75 395.24 485.13 395.3 506.55"/><polygon class="cls-3" points="391.03 310.33 377.57 340.08 364.11 340.08 364.11 264.01 364.11 194.73 377.57 187.93 377.57 187.93 391.03 264.01 391.03 310.33"/><path class="cls-11" d="M424.14,134.31c-6,5.16-7.71,6.69-9.54,9.52-1.64,2.52-5.32,8.26-7.9,10.09-1.71,1.22-5.44,3.17-6.81,4.69a3.6,3.6,0,0,0-.37.47,3.6,3.6,0,0,0-.37-.47c-1.37-1.52-5.1-3.47-6.81-4.69-2.58-1.83-6.26-7.57-7.9-10.09-1.83-2.83-3.52-4.36-9.54-9.52-2.57-2.2.7,8.22,1.71,10.13,1.48,2.8,3.82,7.86,6.08,10.14a83.42,83.42,0,0,0,6.63,6.25c2.34,1.94,8.73,5,10.2,3.6,1.47,1.37,7.86-1.66,10.2-3.6a83.42,83.42,0,0,0,6.63-6.25c2.26-2.28,4.61-7.34,6.08-10.14C423.44,142.53,426.72,132.11,424.14,134.31Z"/><path class="cls-11" d="M407.6,138.88c-2.78-.25-5.34.27-8.08.39-2.74-.12-5.3-.64-8.08-.39s-5.15,1.54-7.57,2l.23.29c.8,2.1,6.21.47,8.47.28,1.65-.15,5.57.06,6.95-.85,1.38.91,5.3.7,7,.85,2.26.19,7.67,1.82,8.47-.28l.23-.29C412.75,140.42,410.33,139.12,407.6,138.88Z"/><path class="cls-1" d="M370.25,116.05c-2.65-7.12-4.59-29.75,5.82-30.74,1.32-18.29,33.68-12.78,43.36-7.38,5.13,8.06,9.43,27.22,7.62,38-.39.63-1,1.59-1.55,2.44-1.09-5.93-3.59-12.47-8.35-16-1.75-15.86-29.4-10.4-41.67-7.38,1.81,4.6-1.9,13.17-2.83,18.43-2.32,1.34-2.74,2.88-4.1,5.24"/><path class="cls-1" d="M370.25,109.25c.13-4.32-.51-9.63,0-14.26.72-6.61.58-5.35,4.91-9.7,5.17-5.2,11.2-9.65,18.89-10s18.72.5,24.46,5.08c5.06,4,3.67,4.45,4.44,11.07.53,4.56,0,8.36,4.95,10.35.71,4.33.68,8.75-3.25,11.41-2-4.37-5.6-10.74-5.25-15.66-2-1.7-3.75-5.81-6.42-7.18-4.39-2.25-9.09,1.41-13.66,1.08-5-.36-7.52-3.62-12.69-3.42s-6.51,4.24-12,3.57c-2.82,5.68-1.74,12.27-4.4,17.7"/><path class="cls-1" d="M368.55,102.89c-4.92-.22-2.61-3.19-3.4-6.8-.13-.6-.91-9-1.08-8.45,1.54-4.74,2-1.42,6.18-4.91,3.36-2.8,3.4-3.81,6-7,5.39-6.61,3.61-4.82,12.89-4.49,5.81.21,19.17-8.33,18.64.92,3.26.19,6.68.06,9.94.25,0,1,.26,2.15.26,3.15,2.45-.09,4.09,1.19,6.54,1.1.08,3.84.77,7,1.13,10.78,7.38,1.37,10.05,16.65,2.23,18.67-4.49,1.16-4.66-4.24-7.46-6.65-3.89-3.34-7.82-3.75-12.58-4.41-7.24-1-18.1-3.21-25.69-1.52"/><path class="cls-1" d="M366,100.34c-.63,1.07-.67,2.39-1.8,3.41,1.81,3,.88,7.24,5.07,7.77-1.35,5.14.29,9.93,1.1,15a16,16,0,0,1,2.3,0c-.59-4.17,1.82-7.25,1.82-10.92s-1.92-6.78-1.82-10.92c-1.4-.79-4.13-2-5.65-2.59"/><path class="cls-1" d="M425.92,108.28c-.24,1.47.83,2.29,1.7,3.15,1.21,1.21.5,1.12,0,2.64,1.31-.12,1.21.9.71,1.72,2.37.08-1,2.52-1.42,3.36,1.58.46.31,1.8-.42,2.42l.53.05c-.17,1.29-.07,1.88-1.66,1.66-.06-1.22.44-2.36.38-3.5-.64-.42-.44-1.66-.4-2.43a9.61,9.61,0,0,0,.14-1.56c-.1-.52-.45-.68-.55-1a8,8,0,0,1,.41-4.64"/><path class="cls-12" d="M408.65,198.43c8.06.71,13.86-2.34,21-5.1-2.92-6.4-9.07-13.09-10.26-20.83-2.93,2.75-10.89,4.34-15,5"/><path class="cls-3" d="M398.85,178.17c-3.56,6.74-4.44,13.51-7,20.26-8.06.71-13.86-2.34-21-5.1,2.92-6.4,9.07-13.09,10.26-20.83,2.93,2.75,10.89,4.34,15,5"/><path class="cls-3" d="M364.11,194.4l-11.25,4.81c-12.44,35.19-15.4,72.44-16.39,109.43h-.25V334.2H360.9V308.64h-.13c.66-9-.5-22.14,1-38.29C363.38,253,392.71,192.54,364.11,194.4Z"/><path class="cls-3" d="M436.6,194.4l11.26,4.81c12.43,35.19,15.4,72.44,16.38,109.43h.26V334.2H439.81V308.64h.13c-.66-9,.51-22.14-1-38.29C437.34,253,408,192.54,436.6,194.4Z"/><circle class="cls-13" cx="384.88" cy="216.79" r="2.55"/><rect class="cls-14" x="336.22" y="290.82" width="24.11" height="7.33"/><rect class="cls-15" x="336.22" y="304.49" width="24.11" height="7.33"/><rect class="cls-16" x="336.22" y="318.17" width="24.11" height="7.33"/><rect class="cls-17" x="336.22" y="277.14" width="24.11" height="7.33"/><path class="cls-18" d="M423.79,186.42c-2-3.28-4.06-6.72-4.64-10.48-2.36,2.22-8.77,3.5-12.06,4l1.31,6.48Z"/><rect class="cls-17" x="371.18" y="374.89" width="17.19" height="19.96"/><rect class="cls-19" x="439.76" y="304.49" width="24.74" height="29.7"/><polygon class="cls-10" points="405.74 506.55 412.76 506.55 419.77 506.55 426.78 506.55 433.79 506.55 436.77 477.48 437.1 419.68 437.1 379.73 433.79 310.2 426.78 310.2 419.77 310.2 412.76 310.2 405.74 310.2 396.07 309.5 405.59 397.75 405.8 485.13 405.74 506.55"/><polygon class="cls-3" points="409.32 310.33 422.79 340.08 436.25 340.08 436.25 264.01 436.25 194.73 422.79 187.93 422.79 187.93 409.32 264.01 409.32 310.33"/><path class="cls-3" d="M446.36,219.72c-6.77-9.87-20-20.54-20.74-32.87-5.48,3.59-13,5.69-20.53,5.81,0,0-3.17,4.73-4.79,4.9-1.62-.17-3.22-5.51-4.78-5.88v1c-7.54-.12-15-2.22-20.53-5.81-.76,12.33-14,23-20.74,32.87-10.47,15.25-13.6,31.8-12.41,50.26,4.29-4.33,18.88-3.75,24.33-1.5-.45,8.95-2,18.81-2.45,27.57-.63,12.35.23,15.68,12.41,15.67,6.44,0,12.91.1,19.39.2v.14l4.78-.07,4.79.07v-.14c6.48-.1,13-.21,19.39-.2,12.17,0,13-3.32,12.41-15.67-.46-8.76-2-18.62-2.45-27.57,5.45-2.25,20-2.83,24.33,1.5C460,251.52,456.83,235,446.36,219.72Z"/><polygon class="cls-20" points="418.83 209.15 380.93 209.15 380.93 209.41 374.01 216.79 380.93 224.18 380.93 224.44 418.83 224.44 425.99 216.79 418.83 209.15"/><polygon class="cls-21" points="418.83 234.5 380.93 234.5 380.93 234.76 374.01 242.15 380.93 249.54 380.93 249.8 418.83 249.8 425.99 242.15 418.83 234.5"/><polygon class="cls-22" points="418.83 259.86 380.93 259.86 380.93 260.12 374.01 267.51 380.93 274.9 380.93 275.16 418.83 275.16 425.99 267.51 418.83 259.86"/><polygon class="cls-23" points="418.83 285.22 380.93 285.22 380.93 285.48 374.01 292.87 380.93 300.26 380.93 300.52 418.83 300.52 425.99 292.87 418.83 285.22"/><circle class="cls-24" cx="383.34" cy="216.79" r="2.55"/><circle class="cls-24" cx="416.88" cy="216.79" r="2.55"/><circle class="cls-24" cx="383.34" cy="242.15" r="2.55"/><circle class="cls-24" cx="416.88" cy="242.15" r="2.55"/><circle class="cls-24" cx="383.34" cy="267.51" r="2.55"/><circle class="cls-24" cx="416.88" cy="267.51" r="2.55"/><circle class="cls-24" cx="383.34" cy="292.87" r="2.55"/><circle class="cls-24" cx="416.88" cy="292.87" r="2.55"/><rect class="cls-3" x="407.36" y="202.35" width="1.96" height="107.99"/><polygon class="cls-17" points="462 259.86 435.81 259.86 435.81 231.5 457.56 231.5 462 259.86"/><path class="cls-17" d="M408.69,194.1l1.57,4.37c8.06.41,13.87-1.32,21-2.88a20,20,0,0,0-1.35-1.49Z"/></svg>