<svg xmlns="http://www.w3.org/2000/svg" viewBox="0 0 800 600"><defs><style>.cls-1{fill:#8a5d3b;}.cls-2{fill:#74acb8;}.cls-3{fill:#fddec3;}.cls-4{fill:#fdd9b6;}.cls-5{fill:#de887b;}.cls-6{fill:#b18e6a;}.cls-7{fill:none;stroke:#a56f29;stroke-width:0.25px;}.cls-10,.cls-7{stroke-miterlimit:10;}.cls-10,.cls-8{fill:#404041;}.cls-9{fill:#4962a2;}.cls-10{stroke:#fff;}.cls-11{fill:#481c11;opacity:0.05;}.cls-12{fill:#5083a2;}.cls-13{fill:#774c43;}.cls-14{fill:#84959b;}.cls-15{fill:#2e5d8e;}.cls-16{fill:#f1f9fd;}.cls-17{fill:#e5d9b9;}.cls-18{fill:#af3a60;}.cls-19{fill:#48497f;}.cls-20{fill:#b64d52;}.cls-21{fill:#c82127;}.cls-22{fill:#6b6265;}.cls-23{fill:#5877b0;}</style></defs><g id="Layer_3" data-name="Layer 3"><path class="cls-1" d="M422.44,133.14c.57.14,1.14.27,1.71.38.34,1.27-.23,2.66.32,3.86,1.51,0,3.25.31,4.77.32.28,4.33-2.7,7.12-6.83,8.53-1.3.67-1.66,2.47-5.21.63-.5.57-1.16,2-1.78,2.15-.85-11.8,4.85-10.67,6.92-20.61.05,2.62,1.41,3.62,2,6"/><path class="cls-1" d="M375.63,133.14c-.56.14-1.13.27-1.7.38-.35,1.27.22,2.66-.33,3.86-1.51,0-3.25.31-4.76.32-.29,4.33,2.69,7.12,6.82,8.53,1.3.67,1.67,2.47,5.22.63.5.57,1.15,2,1.77,2.15.86-11.8-4.85-10.67-6.92-20.61-.05,2.62-1.41,3.62-2,6"/><circle class="cls-2" cx="399.98" cy="113.81" r="2.45"/><path class="cls-3" d="M402.5,162.08c6.85-1.84,7.85-2.15,12-7.93,3.05-4.28,6.48-10.88,7.35-16.07,2.4-14.33,5.69-30.64.81-44.32-2.83-7.94-12.34-10.08-20.72-9.15h-3.85c-8.37-.93-17.88,1.21-20.71,9.15-4.88,13.68-1.6,30,.8,44.32.87,5.19,4.31,11.79,7.36,16.07,4.11,5.78,5.11,6.09,12,7.93Z"/><path class="cls-4" d="M425.29,110c2.35.22,3.91,4.21,3.48,8.92s-2.69,8.35-5,8.13"/><path class="cls-4" d="M376.89,128.05c-2.33.37-4.83-3.12-5.57-7.79s.55-8.75,2.89-9.12"/><path class="cls-5" d="M408.81,141.89l-1-.25-1-.2-1-.19-1-.19c-.33-.07-.65-.15-.95-.24a7,7,0,0,1-.88-.31,6,6,0,0,1-.8-.4,1.37,1.37,0,0,1-.26.2,2.32,2.32,0,0,1-.31.19l-.35.18-.36.18a3.9,3.9,0,0,0-.35.19l-.34.21-.19.16-.19-.16-.34-.21-.36-.19a3,3,0,0,0-.36-.18l-.34-.18a3.37,3.37,0,0,1-.32-.19l-.26-.2a5.84,5.84,0,0,1-.79.4,7.59,7.59,0,0,1-.88.31c-.31.09-.63.17-.95.24l-1,.19-1,.19-1,.2-1,.25a9.86,9.86,0,0,0-1,.33l2.14.67c.79.25,1.66.51,2.56.77s1.86.52,2.81.75l1.68.36,0,.23.62-.12.61.12,0-.23,1.68-.36c1-.23,1.91-.49,2.81-.75s1.77-.52,2.57-.77l2.13-.67A8.83,8.83,0,0,0,408.81,141.89Z"/><path class="cls-6" d="M398.09,126.65a1.23,1.23,0,1,1-1.22-1.22A1.22,1.22,0,0,1,398.09,126.65Z"/><path class="cls-6" d="M404.31,126.65a1.22,1.22,0,0,1-2.44,0,1.22,1.22,0,0,1,2.44,0Z"/><circle class="cls-2" cx="413.13" cy="112.89" r="1.83"/><circle class="cls-2" cx="386.83" cy="112.89" r="1.83"/><path class="cls-7" d="M394.2,107.05c-3.65-2-8.19-.94-12.22.21"/><path class="cls-7" d="M405.75,107.05c3.66-2,8.2-.94,12.23.21"/><polygon class="cls-3" points="418.31 170.04 399.3 195.69 381.65 170.04 389.8 170.04 389.8 158.81 399.98 158.81 410.16 158.81 410.16 170.04 418.31 170.04"/><polygon class="cls-8" points="431.45 314.33 369.74 314.33 368.5 289.64 430.22 289.64 431.45 314.33"/><polygon class="cls-9" points="433.96 519.75 405.67 519.75 405.67 290.01 430.26 290.01 433.96 519.75"/><polygon class="cls-9" points="394.14 519.75 365.85 519.75 368.31 290.01 392.9 290.01 394.14 519.75"/><path class="cls-10" d="M400.45,533a20.39,20.39,0,0,1,40.77,0"/><path class="cls-10" d="M399.31,533a20.39,20.39,0,0,0-40.77,0"/><rect class="cls-3" x="340.71" y="322.07" width="16.71" height="27.71" rx="4"/><path class="cls-8" d="M358,188.75a8.37,8.37,0,0,0-.56-2.43,8.26,8.26,0,0,0-1.62-2.56,7.55,7.55,0,0,0-2.39-1.73,7,7,0,0,0-2.92-.63h-3a7,7,0,0,0-2.92.63,7.55,7.55,0,0,0-2.39,1.73,8.08,8.08,0,0,0-1.62,2.56,8.37,8.37,0,0,0-.56,2.43h0V325.4h18V188.75Z"/><rect class="cls-3" x="442.53" y="322.07" width="16.71" height="27.71" rx="4"/><path class="cls-8" d="M459.86,188.75a8.37,8.37,0,0,0-.56-2.43,8.26,8.26,0,0,0-1.62-2.56,7.55,7.55,0,0,0-2.39-1.73,7,7,0,0,0-2.92-.63h-3a7,7,0,0,0-2.92.63,7.55,7.55,0,0,0-2.39,1.73,8.08,8.08,0,0,0-1.62,2.56,8.37,8.37,0,0,0-.56,2.43h0V325.4h18V188.75Z"/><path class="cls-8" d="M435.2,175.17l-15.42-6h-1.71c-5.39,1.25-11.76,11-18.59,11s-13.2-9.73-18.59-11h-1.11l-15.42,6-2.88,2v141h77v-141Z"/><path class="cls-11" d="M408.06,134c-2.78-.24-5.35.28-8.08.4-2.74-.12-5.3-.64-8.08-.4s-5.15,1.55-7.57,2l.22.29c.81,2.1,6.22.47,8.48.27,1.65-.14,5.57.06,7-.84,1.37.9,5.3.7,6.95.84,2.26.2,7.67,1.83,8.47-.27l.23-.29C413.21,135.55,410.79,134.25,408.06,134Z"/><path class="cls-11" d="M422.59,132.64c-5.53,4.74-7.09,6.14-8.76,8.74-1.5,2.32-4.89,7.59-7.26,9.27-1.57,1.12-5,2.91-6.26,4.31a3.82,3.82,0,0,0-.33.43,4,4,0,0,0-.34-.43c-1.26-1.4-4.68-3.19-6.26-4.31-2.37-1.68-5.75-7-7.25-9.27-1.68-2.6-3.24-4-8.77-8.74-2.36-2,.65,7.55,1.58,9.31,1.35,2.57,3.5,7.21,5.58,9.31a78.81,78.81,0,0,0,6.09,5.74c2.15,1.78,8,4.57,9.37,3.3,1.34,1.27,7.22-1.52,9.36-3.3a79,79,0,0,0,6.1-5.74c2.07-2.1,4.22-6.74,5.58-9.31C422,140.19,425,130.62,422.59,132.64Z"/><path class="cls-1" d="M374.37,105.91c.13-4.07-.47-9.06,0-13.41.68-6.22.55-5,4.62-9.12,4.86-4.89,10.53-9.07,17.76-9.44s17.6.47,23,4.78c4.75,3.79,3.45,4.18,4.17,10.41.49,4.28,0,7.85,4.65,9.72.67,4.07.64,8.22-3.05,10.73-1.87-4.11-5.27-10.1-4.94-14.72-1.84-1.6-3.53-5.46-6-6.75-4.12-2.12-8.54,1.32-12.84,1-4.74-.34-7.06-3.41-11.92-3.21s-6.13,4-11.27,3.35c-2.65,5.34-1.63,11.54-4.14,16.65"/><path class="cls-1" d="M372.78,99.93c-4.63-.21-2.46-3-3.2-6.39-.12-.57-.86-8.44-1-8,1.44-4.46,1.87-1.34,5.8-4.62,3.16-2.64,3.2-3.58,5.64-6.57,5.08-6.21,3.39-4.53,12.12-4.22,5.47.2,18-7.84,17.52.86,3.07.18,6.28.06,9.35.24,0,.94.24,2,.24,3,2.31-.09,3.85,1.12,6.15,1,.08,3.61.73,6.59,1.06,10.12,6.94,1.3,9.46,15.66,2.1,17.56-4.22,1.09-4.38-4-7-6.25-3.66-3.14-7.36-3.53-11.83-4.15-6.81-1-17-3-24.15-1.42"/><path class="cls-1" d="M370.38,96.53c-.6,1-.64,2.24-1.7,3.2,1.7,2.86.84,6.81,4.78,7.31-1.28,4.83.27,9.33,1,14.14a15.57,15.57,0,0,1,2.16,0c-.55-3.92,1.71-6.82,1.71-10.27s-1.8-6.38-1.71-10.26c-1.32-.75-3.89-1.85-5.31-2.44"/><polygon class="cls-12" points="418.86 196.65 380.95 196.65 380.95 196.91 374.04 204.3 380.95 211.69 380.95 211.95 418.86 211.95 426.01 204.3 418.86 196.65"/><polygon class="cls-13" points="418.86 222.01 380.95 222.01 380.95 222.27 374.04 229.66 380.95 237.05 380.95 237.31 418.86 237.31 426.01 229.66 418.86 222.01"/><polygon class="cls-14" points="418.86 247.37 380.95 247.37 380.95 247.63 374.04 255.02 380.95 262.41 380.95 262.67 418.86 262.67 426.01 255.02 418.86 247.37"/><polygon class="cls-15" points="418.86 272.73 380.95 272.73 380.95 272.99 374.04 280.38 380.95 287.77 380.95 288.03 418.86 288.03 426.01 280.38 418.86 272.73"/><circle class="cls-16" cx="383.37" cy="204.3" r="2.55"/><circle class="cls-16" cx="416.9" cy="204.3" r="2.55"/><circle class="cls-16" cx="383.37" cy="229.66" r="2.55"/><circle class="cls-16" cx="416.9" cy="229.66" r="2.55"/><circle class="cls-16" cx="383.37" cy="255.02" r="2.55"/><circle class="cls-16" cx="416.9" cy="255.02" r="2.55"/><circle class="cls-16" cx="383.37" cy="280.38" r="2.55"/><circle class="cls-16" cx="416.9" cy="280.38" r="2.55"/><rect class="cls-8" x="407.39" y="189.85" width="1.96" height="107.99"/><rect class="cls-17" x="372.43" y="379.87" width="17.19" height="19.96"/><path class="cls-1" d="M424.46,106.51c-.24,1.46.83,2.28,1.7,3.15,1.21,1.2.49,1.12,0,2.63,1.3-.11,1.21.91.7,1.73,2.38.07-1,2.51-1.42,3.36,1.58.46.31,1.79-.42,2.41l.53,0c-.16,1.29-.07,1.88-1.66,1.67-.05-1.23.45-2.36.38-3.51-.64-.41-.44-1.66-.4-2.42A9.78,9.78,0,0,0,424,114c-.1-.52-.46-.67-.55-1a8,8,0,0,1,.4-4.64"/><rect class="cls-18" x="340" y="285.1" width="17.22" height="7.01"/><rect class="cls-19" x="340" y="298.19" width="17.22" height="7.01"/><rect class="cls-20" x="340" y="311.28" width="17.22" height="7.01"/><rect class="cls-17" x="340" y="272.01" width="17.22" height="7.01"/><rect class="cls-21" x="442" y="296.26" width="18" height="29.7"/><rect class="cls-17" x="442.57" y="211.13" width="17.19" height="19.96"/><path class="cls-22" d="M405.75,179.92c6.57.59,11.3-1.9,17.11-4.15-2.39-5.22-7.4-10.67-8.37-17-2.38,2.25-8.87,3.54-12.21,4.06"/><path class="cls-8" d="M397.76,163.42c-2.9,5.49-3.61,11-5.66,16.5-6.57.59-11.3-1.9-17.11-4.15,2.38-5.22,7.39-10.67,8.37-17,2.38,2.25,8.87,3.54,12.2,4.06"/><path class="cls-23" d="M418.09,170.14c-1.66-2.67-3.31-5.48-3.78-8.54-1.92,1.8-7.15,2.85-9.83,3.26l1.07,5.28Z"/><path class="cls-17" d="M405.79,176.4l1.27,3.56c6.57.33,11.3-1.08,17.11-2.35-.32-.4-.7-.8-1.1-1.21Z"/></g></svg>