<svg xmlns="http://www.w3.org/2000/svg" viewBox="0 0 800 600"><defs><style>.cls-1{fill:#fddec3;}.cls-2,.cls-4{fill:#404041;}.cls-3{fill:#4962a2;}.cls-4{stroke:#fff;}.cls-21,.cls-4{stroke-miterlimit:10;}.cls-5{fill:#5083a2;}.cls-6{fill:#774c43;}.cls-7{fill:#84959b;}.cls-8{fill:#2e5d8e;}.cls-9{fill:#f1f9fd;}.cls-10{fill:#e5d9b9;}.cls-11{fill:#af3a60;}.cls-12{fill:#48497f;}.cls-13{fill:#b64d52;}.cls-14{fill:#c82127;}.cls-15{fill:#6b6265;}.cls-16{fill:#5877b0;}.cls-17{fill:#8a5d3b;}.cls-18{fill:#74acb8;}.cls-19{fill:#b18e6a;}.cls-20{fill:#de887b;}.cls-21{fill:none;stroke:#a56f29;}.cls-22{fill:#481c11;opacity:0.05;}</style></defs><g id="Layer_3" data-name="Layer 3"><polygon class="cls-1" points="418.31 170.04 399.3 195.69 381.65 170.04 389.8 170.04 389.8 158.81 399.98 158.81 410.16 158.81 410.16 170.04 418.31 170.04"/><polygon class="cls-2" points="431.45 314.33 369.74 314.33 368.5 289.64 430.22 289.64 431.45 314.33"/><polygon class="cls-3" points="433.96 519.75 405.67 519.75 405.67 290.01 430.26 290.01 433.96 519.75"/><polygon class="cls-3" points="394.14 519.75 365.85 519.75 368.31 290.01 392.9 290.01 394.14 519.75"/><path class="cls-4" d="M400.45,533a20.39,20.39,0,0,1,40.77,0"/><path class="cls-4" d="M399.31,533a20.39,20.39,0,0,0-40.77,0"/><rect class="cls-1" x="340.71" y="322.07" width="16.71" height="27.71" rx="4"/><path class="cls-2" d="M358,188.75a8.37,8.37,0,0,0-.56-2.43,8.26,8.26,0,0,0-1.62-2.56,7.55,7.55,0,0,0-2.39-1.73,7,7,0,0,0-2.92-.63h-3a7,7,0,0,0-2.92.63,7.55,7.55,0,0,0-2.39,1.73,8.08,8.08,0,0,0-1.62,2.56,8.37,8.37,0,0,0-.56,2.43h0V325.4h18V188.75Z"/><rect class="cls-1" x="442.53" y="322.07" width="16.71" height="27.71" rx="4"/><path class="cls-2" d="M459.86,188.75a8.37,8.37,0,0,0-.56-2.43,8.26,8.26,0,0,0-1.62-2.56,7.55,7.55,0,0,0-2.39-1.73,7,7,0,0,0-2.92-.63h-3a7,7,0,0,0-2.92.63,7.55,7.55,0,0,0-2.39,1.73,8.08,8.08,0,0,0-1.62,2.56,8.37,8.37,0,0,0-.56,2.43h0V325.4h18V188.75Z"/><path class="cls-2" d="M435.2,175.17l-15.42-6h-1.71c-5.39,1.25-11.76,11-18.59,11s-13.2-9.73-18.59-11h-1.11l-15.42,6-2.88,2v141h77v-141Z"/><polygon class="cls-5" points="418.86 196.65 380.95 196.65 380.95 196.91 374.04 204.3 380.95 211.69 380.95 211.95 418.86 211.95 426.01 204.3 418.86 196.65"/><polygon class="cls-6" points="418.86 222.01 380.95 222.01 380.95 222.27 374.04 229.66 380.95 237.05 380.95 237.31 418.86 237.31 426.01 229.66 418.86 222.01"/><polygon class="cls-7" points="418.86 247.37 380.95 247.37 380.95 247.63 374.04 255.02 380.95 262.41 380.95 262.67 418.86 262.67 426.01 255.02 418.86 247.37"/><polygon class="cls-8" points="418.86 272.73 380.95 272.73 380.95 272.99 374.04 280.38 380.95 287.77 380.95 288.03 418.86 288.03 426.01 280.38 418.86 272.73"/><circle class="cls-9" cx="383.37" cy="204.3" r="2.55"/><circle class="cls-9" cx="416.9" cy="204.3" r="2.55"/><circle class="cls-9" cx="383.37" cy="229.66" r="2.55"/><circle class="cls-9" cx="416.9" cy="229.66" r="2.55"/><circle class="cls-9" cx="383.37" cy="255.02" r="2.55"/><circle class="cls-9" cx="416.9" cy="255.02" r="2.55"/><circle class="cls-9" cx="383.37" cy="280.38" r="2.55"/><circle class="cls-9" cx="416.9" cy="280.38" r="2.55"/><rect class="cls-2" x="407.39" y="189.85" width="1.96" height="107.99"/><rect class="cls-10" x="372.43" y="379.87" width="17.19" height="19.96"/><rect class="cls-11" x="340" y="285.1" width="17.22" height="7.01"/><rect class="cls-12" x="340" y="298.19" width="17.22" height="7.01"/><rect class="cls-13" x="340" y="311.28" width="17.22" height="7.01"/><rect class="cls-10" x="340" y="272.01" width="17.22" height="7.01"/><rect class="cls-14" x="442" y="296.26" width="18" height="29.7"/><rect class="cls-10" x="442.57" y="211.13" width="17.19" height="19.96"/><path class="cls-15" d="M405.75,179.92c6.57.59,11.3-1.9,17.11-4.15-2.39-5.22-7.4-10.67-8.37-17-2.38,2.25-8.87,3.54-12.21,4.06"/><path class="cls-2" d="M397.76,163.42c-2.9,5.49-3.61,11-5.66,16.5-6.57.59-11.3-1.9-17.11-4.15,2.38-5.22,7.39-10.67,8.37-17,2.38,2.25,8.87,3.54,12.2,4.06"/><path class="cls-16" d="M418.09,170.14c-1.66-2.67-3.31-5.48-3.78-8.54-1.92,1.8-7.15,2.85-9.83,3.26l1.07,5.28Z"/><path class="cls-10" d="M405.79,176.4l1.27,3.56c6.57.33,11.3-1.08,17.11-2.35-.32-.4-.7-.8-1.1-1.21Z"/><path class="cls-17" d="M376.06,137.7c-.57.14-1.13.27-1.7.38-.35,1.27.22,2.67-.33,3.86-1.51,0-3.25.31-4.76.32-.29,4.33,2.69,7.12,6.82,8.53,1.3.67,1.66,2.47,5.21.63.5.58,1.16,2,1.78,2.15.85-11.8-4.85-10.66-6.92-20.6-.05,2.62-1.41,3.61-2,6"/><path class="cls-17" d="M422.87,137.7c.56.14,1.13.27,1.7.38.35,1.27-.22,2.67.33,3.86,1.51,0,3.25.31,4.76.32.29,4.33-2.69,7.12-6.82,8.53-1.3.67-1.67,2.47-5.22.63-.49.58-1.15,2-1.77,2.15-.85-11.8,4.85-10.66,6.92-20.6.05,2.62,1.41,3.61,2,6"/><path class="cls-1" d="M397.33,162.5h4.14l.42-.14c1.16-.22,2.36-.19,3.5-.46,3.37-.81,5.57-4,7.36-6.94,3.48-5.8,8.6-12.19,9.4-18.91l2.13-18.16a15.52,15.52,0,0,0,.08-4.76c-.37-2-1.48-3.73-2.05-5.65-1.16-3.94,0-8.2-.44-12.28a15.14,15.14,0,0,0-5.65-10c-3.64-2.85-9.27-4.47-13.89-4.62l-5.86,0c-4.63.15-10.25,1.77-13.89,4.62a15.14,15.14,0,0,0-5.65,10c-.48,4.09.72,8.34-.44,12.28-.57,1.93-1.68,3.68-2.05,5.65a15.84,15.84,0,0,0,.07,4.76L376.65,136c.8,6.73,5.92,13.11,9.4,18.92,1.78,3,4,6.13,7.36,6.93,1.14.27,2.34.24,3.5.46Z"/><circle class="cls-18" cx="412.15" cy="116.47" r="1.78"/><circle class="cls-18" cx="386.65" cy="116.47" r="1.78"/><path class="cls-19" d="M397.45,132.36a1.26,1.26,0,1,1-1.26-1.27A1.26,1.26,0,0,1,397.45,132.36Z"/><path class="cls-19" d="M403.87,132.36a1.26,1.26,0,1,1-1.26-1.27A1.26,1.26,0,0,1,403.87,132.36Z"/><path class="cls-20" d="M406.82,144.34,406,144l-.86-.28-.86-.27-.84-.28c-.27-.1-.54-.21-.8-.33a6.26,6.26,0,0,1-.74-.44,4.5,4.5,0,0,1-.66-.58,3.15,3.15,0,0,1-.22.29,3.31,3.31,0,0,1-.26.27l-.29.25-.31.26-.3.27a4.12,4.12,0,0,0-.28.31.17.17,0,1,1-.32,0c-.09-.11-.19-.21-.29-.31l-.3-.27-.3-.26-.29-.25a3.31,3.31,0,0,1-.26-.27,2,2,0,0,1-.22-.29,4.57,4.57,0,0,1-.67.58,5,5,0,0,1-.74.44,8.34,8.34,0,0,1-.8.33l-.83.28-.86.27-.86.28q-.44.17-.84.36a6.44,6.44,0,0,0-.8.47l1.79.95c.67.35,1.61,1.26,2.37,1.63s1.34.92,2.15,1.24c.47.19.94-.35,1.41-.19l0,.32.52-.16.51.16v-.32c.47-.16.94.38,1.41.19.8-.32,1.6-.87,2.36-1.24s1.49-1.28,2.15-1.63l1.8-.95A7.26,7.26,0,0,0,406.82,144.34Z"/><path class="cls-1" d="M424.45,116.91c1.64-.32,3.2,1.12,3.64,2.73a10.15,10.15,0,0,1-.33,4.94l-1.48,6.25a11.79,11.79,0,0,1-1.51,4,3.94,3.94,0,0,1-3.69,1.83"/><path class="cls-1" d="M374.35,116.91c-1.64-.32-3.2,1.12-3.64,2.73a10,10,0,0,0,.33,4.94l1.48,6.25a11.4,11.4,0,0,0,1.51,4,3.94,3.94,0,0,0,3.69,1.83"/><path class="cls-21" d="M405.81,110.82q5.38-.51,10.8-.66a1.49,1.49,0,0,1,.78.12,1.44,1.44,0,0,1,.4.38,11.56,11.56,0,0,1,1.14,1.71"/><path class="cls-21" d="M393,110.82q-5.39-.51-10.8-.66a1.49,1.49,0,0,0-.78.12,1.44,1.44,0,0,0-.4.38,11.56,11.56,0,0,0-1.14,1.71"/><path class="cls-17" d="M374.52,108.83c.12-3.86-.45-8.61,0-12.74.65-5.92.52-4.79,4.39-8.68,4.62-4.65,10-8.62,16.88-9s16.73.45,21.87,4.54c4.52,3.61,3.28,4,4,9.9.47,4.07,0,7.46,4.43,9.25.63,3.87.6,7.81-2.91,10.19-1.77-3.91-5-9.6-4.69-14-1.75-1.51-3.36-5.18-5.74-6.41-3.92-2-8.12,1.26-12.21,1-4.5-.32-6.72-3.24-11.34-3.05s-5.82,3.79-10.71,3.19c-2.52,5.08-1.55,11-3.93,15.82"/><path class="cls-17" d="M370.72,99.92c-.56,1-.6,2.13-1.61,3,1.62,2.72.79,6.47,4.54,7-1.21,4.59.26,8.87,1,13.44a15.73,15.73,0,0,1,2.06,0c-.53-3.73,1.62-6.48,1.62-9.76s-1.71-6.07-1.62-9.76c-1.26-.71-3.7-1.76-5.06-2.32"/><path class="cls-17" d="M422.76,108.66c-.24,1.47.83,2.29,1.7,3.16,1.21,1.2.49,1.11,0,2.63,1.31-.11,1.21.9.7,1.72,2.38.08-1,2.52-1.42,3.37,1.58.45.32,1.79-.42,2.41l.53,0c-.16,1.29-.07,1.88-1.65,1.66-.06-1.22.44-2.35.37-3.5-.63-.42-.44-1.66-.4-2.43a8.57,8.57,0,0,0,.15-1.56c-.1-.52-.45-.67-.55-1a8,8,0,0,1,.4-4.65"/><path class="cls-17" d="M373,103.15c-4.39-.2-2.33-2.86-3-6.08-.11-.54-.81-8-1-7.56,1.38-4.24,1.79-1.27,5.52-4.38,3-2.51,3-3.41,5.36-6.25,4.83-5.91,3.23-4.31,11.52-4,5.2.18,17.14-7.45,16.66.81,2.92.18,6,.06,8.89.23,0,.9.23,1.92.23,2.81,2.19-.07,3.66,1.07,5.85,1,.06,3.43.68,6.27,1,9.63,6.6,1.23,9,14.89,2,16.69-4,1-4.16-3.79-6.67-5.94-3.48-3-7-3.35-11.24-4-6.47-.9-16.18-2.87-23-1.35"/><path class="cls-22" d="M407.55,136.18c-2.79-.25-5.35.27-8.09.4-2.73-.13-5.29-.65-8.08-.4s-5.15,1.54-7.57,2l.23.28c.8,2.11,6.21.47,8.48.28,1.64-.14,5.57.06,6.94-.84,1.38.9,5.31.7,7,.84,2.26.19,7.67,1.83,8.48-.28l.23-.28C412.69,137.72,410.27,136.42,407.55,136.18Z"/><path class="cls-22" d="M422.08,134.82c-5.53,4.73-7.09,6.14-8.77,8.74-1.5,2.32-4.88,7.59-7.25,9.27-1.57,1.12-5,2.91-6.26,4.3-.13.15-.24.3-.34.44a3.88,3.88,0,0,0-.33-.44c-1.26-1.39-4.69-3.18-6.26-4.3-2.37-1.68-5.75-7-7.25-9.27-1.68-2.6-3.24-4-8.77-8.74-2.36-2,.65,7.55,1.57,9.3,1.36,2.58,3.51,7.22,5.58,9.31a77.18,77.18,0,0,0,6.1,5.75c2.14,1.78,8,4.56,9.36,3.3,1.35,1.26,7.22-1.52,9.37-3.3a75.34,75.34,0,0,0,6.09-5.75c2.08-2.09,4.23-6.73,5.59-9.31C421.43,142.37,424.44,132.8,422.08,134.82Z"/></g></svg>