<?xml version="1.0" encoding="utf-8"?>
<!-- Generator: Adobe Illustrator 22.0.0, SVG Export Plug-In . SVG Version: 6.00 Build 0)  -->
<svg version="1.1" id="Layer_1" xmlns="http://www.w3.org/2000/svg" xmlns:xlink="http://www.w3.org/1999/xlink" x="0px" y="0px"
	 viewBox="0 0 200 550" style="enable-background:new 0 0 200 550;" xml:space="preserve">
<style type="text/css">
	.st0{fill:#7C411E;}
	.st1{fill:#F9C2C4;stroke:#DEAAA7;stroke-miterlimit:10;}
	.st2{fill:#1A1A1A;}
	.st3{fill:#FFFFFF;}
	.st4{fill:#72A4A3;}
	.st5{fill:none;stroke:#DEAAA7;stroke-miterlimit:10;}
	.st6{fill:#AB7D4A;}
	.st7{fill:#FF4000;}
	.st8{fill:#9C5406;}
	.st9{fill:#393C8E;}
	.st10{opacity:5.000000e-02;fill:#310D0A;enable-background:new    ;}
	.st11{fill:#584449;}
	.st12{fill:#634E37;}
	.st13{fill:#AA1646;}
	.st14{fill:#2E2065;}
	.st15{fill:#B22732;}
	.st16{fill:#E6DAA9;}
	.st17{fill:#4E5B9D;}
	.st18{fill:#D00000;}
	.st19{fill:#496D8C;}
	.st20{fill:#662E27;}
	.st21{fill:#7C8585;}
	.st22{fill:#243776;}
	.st23{fill:#F4FAFC;}
</style>
<title>mylo</title>
<path class="st0" d="M130.4,86.5c0.8,0.2,1.5,0.4,2.3,0.5c0.5,1.7-0.3,3.6,0.4,5.2c2,0,4.3,0.4,6.4,0.4c0.4,5.8-3.6,9.5-9.1,11.4
	c-1.7,0.9-2.2,3.3-7,0.8c-0.7,0.8-1.5,2.6-2.4,2.9c-1.1-15.8,6.5-14.3,9.2-27.6c0.1,3.5,1.9,4.8,2.6,8"/>
<path class="st0" d="M67.8,86.5c-0.8,0.2-1.5,0.4-2.3,0.5c-0.5,1.7,0.3,3.6-0.4,5.2c-2,0-4.3,0.4-6.4,0.4c-0.4,5.8,3.6,9.5,9.1,11.4
	c1.7,0.9,2.2,3.3,7,0.8c0.7,0.8,1.5,2.6,2.4,2.9c1.1-15.8-6.5-14.3-9.2-27.6c-0.1,3.5-1.9,4.8-2.6,8"/>
<path class="st1" d="M74,94.8c3.3,9.2,10.1,30.1,9.7,41.2c-1.4,5.4-10.4,11.3-16.4,21.8c-1.3,2.2-3.3,3.9-4.7,6.1
	c-5.1,6-12.4,10.8-16.6,17.4c-4.7,7.5-5.3,18-6.8,26.3c-7.1,39.6-10.8,79.8-11,120c0,11.6,1.1,39.7,16.3,40.8
	c11.5,0.8,5.3-6.4,2.7-11.8c-2.9-6.1-3.2-13.1-2.8-20.9c1.9-0.4,3.8-0.4,5.7,0c2,6.9,9,11.6,10.4,2c0.9-6.2-7-8.2-9.2-14.2
	c-2.5-6.6-0.3-16.2-2-24c-2-8.8,3.9-18,4-27.5c0.2-16.6-4-27.2-0.9-42.5c2-9.9,0.7-27.1,6.5-35.3v0.9c-4.2,16.1,0.2,42.3,0.2,58.2
	c0,15.6-0.6,31.4,0.2,46.9c1.8,0.1,3.6,0.3,5.3,0.6l3.1,208.1v2.4c-0.2,0.7-0.3,1.3-0.3,2c-0.4,7.1-4.4,8.8-9.7,12
	c-4.6,2.8-9.8,5.6-15.3,6.8c-4.6,1-12.7-0.3-13.8,5.3c-1.7,7.7,5.9,6.3,10.8,7.1c2.8,0.4,4.9,1.5,7.8,1.6c3.3,0.1,6.6-0.1,9.9-0.7
	c6.6-0.9,13.3-1,20.1-1.7c5.9-0.6,15.4,1.5,16.7-5.3c1.5-8-3.2-15.5-2.3-23l0.1-4.2l0,0v-1.9l0,0l-3.1-204.7c3,0.4,6.1,0.7,9.4,0.8
	v0.1h0.1c0.7,0,1.4,0,2.1,0s1.4,0,2.1,0h0.1v-0.1c3.3-0.1,6.4-0.4,9.4-0.8l-3.1,204.7l0,0v1.8l0,0l0.1,4.2c0.8,7.6-3.8,15-2.3,23
	c1.3,6.8,10.7,4.7,16.7,5.3c6.8,0.7,13.5,0.7,20.1,1.7c3.3,0.5,6.6,0.7,9.9,0.7c2.9-0.1,5-1.2,7.8-1.6c4.9-0.8,12.5,0.6,10.9-7.1
	c-1.2-5.5-9.2-4.3-13.8-5.3c-5.6-1.2-10.8-4-15.5-6.8c-5.2-3.2-9.3-4.8-9.7-12c-0.1-0.7-0.2-1.3-0.4-2v-2.4l3.1-208.1
	c1.7-0.2,3.5-0.4,5.3-0.6c0.8-15.5,0.1-31.3,0.1-46.9c0-15.9,4.4-42.1,0.2-58.2v-0.9c5.8,8.2,4.5,25.4,6.5,35.3
	c3.1,15.2-1.1,25.9-0.9,42.5c0.1,9.5,6,18.7,4,27.5c-1.7,7.8,0.5,17.3-2,24c-2.3,6-10.2,8-9.2,14.2c1.4,9.5,8.4,4.9,10.4-2
	c1.9-0.4,3.8-0.4,5.7,0c0.4,7.8,0.1,14.7-2.9,20.9c-2.6,5.4-8.8,12.6,2.7,11.8c15.2-1.1,16.3-29.2,16.3-40.8
	c-0.2-40.2-3.9-80.4-11-120c-1.5-8.4-2-18.8-6.8-26.3c-4.1-6.6-11.5-11.4-16.6-17.4c-1.4-2.2-5.4-3.9-6.7-6.1
	c-12-20.8-11.8-40.2-11.8-40.2c0.5-8.7,3.6-17.6,5.4-22.8"/>
<path class="st2" d="M94.5,526.4c-0.8-5.5-2.1-10.5-2.1-14.2c-5.8-0.3-17.2-3.3-22.4-1.1c-2.6,1.1-10.4,7.5-13.3,9.3
	c-3.1,2-5.3,4-8.9,5.2c-0.8,0.3-1.7,0.5-2.6,0.7H33c-7.3,0-13.2,8.4-13.2,18.7l0,0c-0.2,2.9,8,2.9,15.3,2.9h57.5l1.9-2.9h0.1v-18.7
	H94.5z"/>
<path class="st2" d="M105.5,526.4c0.8-5.5,2.1-10.5,2.1-14.2c5.8-0.3,17.2-3.3,22.4-1.1c2.6,1.1,10.4,7.5,13.3,9.3
	c3.1,2,5.3,4,8.9,5.2c0.8,0.3,1.7,0.5,2.6,0.7H167c7.3,0,13.2,8.4,13.2,18.7l0,0c0.2,2.9-8,2.9-15.3,2.9h-57.5l-1.9-2.9h-0.1v-18.7
	H105.5z"/>
<path class="st1" d="M132,65.4c-0.8-6-3.4-11.6-4.4-17.5s-0.4-12-2.8-17.5c-5-11.7-15.5-16-26.3-15.5c-10.8-0.5-21.2,3.8-26.3,15.5
	c-2.4,5.5-1.8,11.7-2.8,17.5S66,59.4,65.2,65.4c-1.4,10.2,5.7,26,11.2,34c5.2,7.6,11.5,16.8,20.8,16.9c0.4,0,0.9,0,1.4,0
	s0.9,0,1.3,0c9.3-0.1,15.6-9.3,20.8-16.9C126.3,91.4,133.4,75.6,132,65.4z"/>
<path class="st1" d="M130.2,65c0.4-3,4.9-7.6,6.9-2.1c1.6,4.5-3.4,8.6-2.1,13.1c-0.6,0.8-1.4,1.5-2.3,2c-0.6-1.2-0.9-2.5-1-3.8"/>
<path class="st3" d="M104.7,60.2c8.9-7.1,11.2-3.1,17.8,1.4C118,62.8,110.5,65,104.7,60.2"/>
<path class="st4" d="M118,59.7c0-0.5-0.1-1-0.3-1.5c-2.3-1.6-4.4-2.4-7.3-1.4c-1.6,1.8-1.5,4.5,0.2,6.1c0,0,0,0,0,0
	c1.9,0.3,3.9,0.3,5.9,0C117.5,62.1,118,61,118,59.7z"/>
<circle class="st2" cx="113.6" cy="59.9" r="1.5"/>
<path class="st5" d="M105.8,63.8c2.9,2.1,6.2,2.6,9.5,3.4"/>
<path class="st3" d="M90.5,60.5c-8.9-7.1-11.2-3.1-17.8,1.4C77.3,63.1,84.8,65.3,90.5,60.5"/>
<path class="st4" d="M77.3,60c0-0.5,0.1-1,0.3-1.5c2.3-1.6,4.4-2.4,7.3-1.4c1.6,1.8,1.5,4.5-0.2,6.1c0,0,0,0,0,0
	c-1.9,0.3-3.9,0.3-5.9,0C77.8,62.4,77.3,61.2,77.3,60z"/>
<circle class="st2" cx="81.6" cy="60.2" r="1.5"/>
<path class="st5" d="M89.4,64c-2.9,2.1-6.2,2.6-9.5,3.4"/>
<circle class="st6" cx="95.2" cy="79.4" r="1.5"/>
<circle class="st6" cx="101.5" cy="79.4" r="1.5"/>
<path class="st7" d="M108.3,93c-0.3-0.1-0.7-0.2-1-0.3l-1-0.2l-1-0.2l-1-0.2c-0.3-0.1-0.6-0.2-1-0.3c-0.3-0.1-0.6-0.2-0.9-0.4
	c-0.3-0.1-0.5-0.3-0.8-0.5c-0.1,0.1-0.2,0.2-0.3,0.2l-0.3,0.2l-0.4,0.2l-0.4,0.2L99.9,92l-0.3,0.3l-0.2,0.2l-0.2-0.2L98.9,92
	l-0.4-0.2l-0.4-0.2l-0.4-0.2l-0.3-0.2c-0.1-0.1-0.2-0.2-0.3-0.2c-0.3,0.2-0.5,0.3-0.8,0.5c-0.3,0.1-0.6,0.3-0.9,0.4
	c-0.3,0.1-0.6,0.2-1,0.3l-1,0.2l-1,0.2l-1,0.2c-0.3,0.1-0.7,0.2-1,0.3c-0.3,0.1-0.7,0.2-1,0.4l2.2,0.8c0.8,0.3,1.7,0.6,2.6,0.9
	s1.9,0.6,2.8,0.9c0.6,0.2,1.1,0.3,1.7,0.4v0.3l0.6-0.1l0.6,0.1v-0.3c0.6-0.1,1.1-0.3,1.7-0.4c1-0.3,1.9-0.6,2.8-0.9s1.8-0.6,2.6-0.9
	l2.2-0.8C109,93.2,108.7,93.1,108.3,93z"/>
<path class="st1" d="M66.6,65c-0.4-3-4.9-7.6-6.8-2.1c-1.6,4.5,3.4,8.6,2.2,13.1c0.6,0.8,1.4,1.5,2.3,2c0.6-1.2,0.9-2.5,1-3.8"/>
<path class="st8" d="M89.8,26.2c0.4,1.1,1.3,2,2.4,2.3c1,0.1,2.1-0.1,3-0.5c1.1-0.4,2.2-0.8,3.4-1c1.2-0.2,2.4,0,3.4,0.7
	c0.4-0.3,0.8-0.7,1.2-0.9c0.4-0.2,0.9-0.5,1.3-0.7c0.4-0.2,0.9-0.4,1.3-0.7c0.4-0.3,0.8-0.6,1.1-1c0.8,0.3,1.6,0.5,2.4,0.7
	s1.6,0.4,2.4,0.5s1.6,0.2,2.5,0.3s1.7,0.1,2.6,0.2c1.5,2.8,2.7,5.6,3.8,8.5c1.1,2.9,2,5.7,3,8.6s1.8,5.8,2.9,8.7s3.2,5.8,4.6,8.7
	c0.2-6.2-0.8-12.4-1.5-18.2c-0.5-5.5-1.9-10.8-4.2-15.8c-2.1-4.6-5.7-8.5-10.1-11c-4.6-2.6-10.6-4-18.3-3.7
	c-2.9,0.1-5.8,0.4-8.7,1.1c-2.5,0.6-4.9,1.5-7.1,2.8c-2.1,1.2-4,2.8-5.7,4.6c-1.8,2-3.3,4.2-4.6,6.6c-0.7,1.3-1.4,2.6-2.2,4
	s-1.5,2.8-2.2,4.2s-0.4,2.9-1,4.4s-0.1,3-0.4,4.5c-0.3,1.8-0.3,3.6-0.2,5.4c0,1.4-0.5,10,0,11.7c0.5-1.1,2.6-5.1,3.5-8.4
	s0.4-6.2,1.4-10.1s1.8-7.8,2.3-10.7s2.9-4.8,2.8-4.9"/>
<polygon class="st9" points="94.5,517.9 86.2,517.9 78,517.9 69.7,517.9 61.5,517.9 58,483.7 57.6,415.7 57.6,368.7 61.5,286.9 
	69.7,286.9 78,286.9 86.2,286.9 94.5,286.9 105.9,286.1 94.6,389.9 94.4,492.7 "/>
<polygon class="st2" points="89.4,287 73.6,322 57.8,322 57.8,232.5 57.8,151.1 73.6,143.1 73.6,143.1 89.4,232.5 "/>
<path class="st10" d="M128.4,80c-7.1,6.1-9.1,7.9-11.2,11.2c-1.9,3-6.2,9.7-9.3,11.9c-2,1.4-6.4,3.7-8,5.5c-0.2,0.2-0.3,0.4-0.4,0.6
	c-0.1-0.2-0.3-0.4-0.4-0.6c-1.6-1.8-6-4.1-8-5.5c-3-2.1-7.4-8.9-9.3-11.9c-2.1-3.3-4.2-5.1-11.2-11.2c-3-2.6,0.8,9.7,2,11.9
	c1.7,3.3,4.5,9.2,7.1,11.9c2.5,2.6,5.1,5,7.8,7.4c2.8,2.3,10.3,5.9,12,4.2c1.7,1.6,9.2-1.9,12-4.2c2.7-2.3,5.3-4.8,7.8-7.4
	c2.7-2.7,5.4-8.6,7.1-11.9C127.6,89.6,131.4,77.4,128.4,80z"/>
<path class="st10" d="M108.9,85.3c-3.3-0.3-6.3,0.3-9.5,0.5c-3.2-0.1-6.2-0.8-9.5-0.5s-6.1,1.8-8.9,2.3l0.3,0.3
	c0.9,2.5,7.3,0.6,10,0.3c1.9-0.2,6.6,0.1,8.2-1c1.6,1.1,6.2,0.8,8.2,1c2.7,0.2,9,2.1,10-0.3l0.3-0.3C115,87.1,112.1,85.6,108.9,85.3
	z"/>
<path class="st0" d="M65,58.5c-3.1-8.4-5.4-35,6.8-36.2c1.6-21.5,39.6-15,51-8.7c6,9.5,11.1,32,9,44.7c-0.5,0.7-1.2,1.9-1.8,2.9
	c-1.3-7-4.2-14.7-9.8-18.9c-2.1-18.7-34.6-12.2-49-8.7c2.1,5.4-2.2,15.5-3.3,21.7c-2.7,1.6-3.2,3.4-4.8,6.2"/>
<path class="st0" d="M65,50.5c0.2-5.1-0.6-11.3,0-16.8c0.8-7.8,0.7-6.3,5.8-11.4C76.9,16.2,84,10.9,93,10.5s22,0.6,28.8,6
	c6,4.8,4.3,5.2,5.2,13c0.6,5.4,0,9.8,5.8,12.2c0.8,5.1,0.8,10.3-3.8,13.4c-2.3-5.2-6.6-12.6-6.2-18.4c-2.3-2-4.4-6.8-7.6-8.4
	c-5.2-2.7-10.7,1.7-16.1,1.3c-5.9-0.4-8.8-4.3-14.9-4s-7.7,5-14.1,4.2C66.9,36.3,68.2,44.1,65,50.5"/>
<path class="st0" d="M63,43c-5.8-0.3-3.1-3.8-4-8c-0.2-0.7-1.1-10.6-1.3-9.9c1.8-5.6,2.3-1.7,7.3-5.8c4-3.3,4-4.5,7.1-8.2
	c6.4-7.8,4.2-5.7,15.2-5.3C94.1,6,109.8-4,109.1,6.8c3.8,0.2,7.9,0.1,11.7,0.3c0,1.2,0.3,2.5,0.3,3.7c2.9-0.1,4.8,1.4,7.7,1.3
	c0.1,4.5,0.9,8.2,1.3,12.7c8.7,1.6,11.8,19.6,2.6,22c-5.3,1.4-5.5-5-8.8-7.8c-4.6-3.9-9.2-4.4-14.8-5.2C100.7,32.6,87.9,30,79,32"/>
<path class="st0" d="M60,40c-0.7,1.2-0.8,2.8-2.1,4c2.1,3.6,1,8.5,6,9.1c-1.6,6.1,0.3,11.7,1.3,17.7c0.9-0.1,1.8-0.1,2.7,0
	C67.2,65.9,70,62.3,70,58s-2.3-8-2.1-12.8c-2.2-1.1-4.4-2.1-6.7-3"/>
<path class="st0" d="M130.5,49.3c-0.3,1.7,1,2.7,2,3.7c1.4,1.4,0.6,1.3,0,3.1c1.5-0.1,1.4,1.1,0.8,2c2.8,0.1-1.1,3-1.7,4
	c1.9,0.5,0.4,2.1-0.5,2.8l0.6,0.1c-0.2,1.5-0.1,2.2-1.9,2c-0.1-1.4,0.5-2.8,0.4-4.1c-0.8-0.5-0.5-2-0.5-2.9c0.1-0.6,0.2-1.2,0.2-1.8
	c-0.1-0.6-0.5-0.8-0.6-1.2c-0.4-1.8-0.2-3.7,0.5-5.5"/>
<path class="st11" d="M110.2,155.4c9.5,0.8,16.3-2.8,24.7-6c-3.4-7.5-10.7-15.4-12.1-24.5c-3.4,3.2-12.8,5.1-17.6,5.9"/>
<path class="st2" d="M98.6,131.6c-4.2,7.9-5.2,15.9-8.2,23.8c-9.5,0.8-16.3-2.8-24.7-6c3.4-7.5,10.7-15.4,12.1-24.5
	c3.4,3.2,12.8,5.1,17.6,5.9"/>
<path class="st2" d="M57.8,150.6l-13.2,5.7c-14.6,41.4-18.1,85.2-19.3,128.8H25v30.1h29v-30.1h-0.2c0.8-10.6-0.6-26,1.2-45.1
	C56.9,219.5,91.4,148.5,57.8,150.6z"/>
<path class="st2" d="M143.1,150.6l13.2,5.7c14.6,41.4,18.1,85.2,19.3,128.8h0.3v30.1h-29v-30.1h0.1c-0.8-10.6,0.6-26-1.2-45.1
	C143.9,219.5,109.4,148.5,143.1,150.6z"/>
<circle class="st12" cx="82.2" cy="177" r="3"/>
<rect x="25" y="264.1" class="st13" width="28.4" height="8.6"/>
<rect x="25" y="280.2" class="st14" width="28.4" height="8.6"/>
<rect x="25" y="296.3" class="st15" width="28.4" height="8.6"/>
<rect x="25" y="248" class="st16" width="28.4" height="8.6"/>
<path class="st17" d="M128,141.3c-2.4-3.9-4.8-7.9-5.5-12.3c-2.8,2.6-10.3,4.1-14.2,4.7l1.5,7.6H128z"/>
<rect x="66.1" y="363" class="st16" width="20.2" height="23.5"/>
<rect x="146.8" y="280.2" class="st18" width="29.1" height="35"/>
<polygon class="st9" points="106.8,517.9 115,517.9 123.3,517.9 131.5,517.9 139.8,517.9 143.3,483.7 143.6,415.7 143.6,368.7 
	139.8,286.9 131.5,286.9 123.3,286.9 115,286.9 106.8,286.9 95.4,286.1 106.6,389.9 106.8,492.7 "/>
<polygon class="st2" points="111,287 126.8,322 142.6,322 142.6,232.5 142.6,151.1 126.8,143.1 126.8,143.1 111,232.5 "/>
<path class="st2" d="M154.5,180.4c-8-11.6-23.5-24.2-24.4-38.7c-6.4,4.2-15.3,6.7-24.1,6.8c0,0-3.7,5.6-5.6,5.8
	c-1.9-0.2-3.8-6.5-5.6-6.9v1.1c-8.9-0.1-17.7-2.6-24.2-6.8c-0.9,14.5-16.4,27.1-24.4,38.7c-12.3,18-16,37.4-14.6,59.1
	c5.1-5.1,22.2-4.4,28.6-1.8c-0.5,10.5-2.3,22.1-2.9,32.4c-0.8,14.5,0.3,18.4,14.6,18.4c7.6,0,15.2,0.1,22.8,0.2v0.2l5.6-0.1l5.6,0.1
	v-0.2c7.6-0.1,15.2-0.2,22.8-0.2c14.3,0,15.4-3.9,14.6-18.4c-0.5-10.3-2.4-21.9-2.9-32.4c6.4-2.6,23.6-3.3,28.6,1.8
	C170.5,217.9,166.9,198.4,154.5,180.4z"/>
<polygon class="st19" points="122.1,168 77.6,168 77.6,168.3 69.4,177 77.6,185.7 77.6,186 122.1,186 130.6,177 "/>
<polygon class="st20" points="122.1,197.8 77.6,197.8 77.6,198.1 69.4,206.8 77.6,215.5 77.6,215.8 122.1,215.8 130.6,206.8 "/>
<polygon class="st21" points="122.1,227.7 77.6,227.7 77.6,228 69.4,236.7 77.6,245.4 77.6,245.7 122.1,245.7 130.6,236.7 "/>
<polygon class="st22" points="122.1,257.5 77.6,257.5 77.6,257.8 69.4,266.5 77.6,275.2 77.6,275.5 122.1,275.5 130.6,266.5 "/>
<circle class="st23" cx="80.4" cy="177" r="3"/>
<circle class="st23" cx="119.9" cy="177" r="3"/>
<circle class="st23" cx="80.4" cy="206.8" r="3"/>
<circle class="st23" cx="119.9" cy="206.8" r="3"/>
<circle class="st23" cx="80.4" cy="236.7" r="3"/>
<circle class="st23" cx="119.9" cy="236.7" r="3"/>
<circle class="st23" cx="80.4" cy="266.5" r="3"/>
<circle class="st23" cx="119.9" cy="266.5" r="3"/>
<rect x="108.7" y="160" class="st2" width="2.3" height="127"/>
<polygon class="st16" points="172.9,227.7 142.1,227.7 142.1,194.3 167.7,194.3 "/>
<path class="st16" d="M110.2,150.3l1.8,5.1c9.5,0.5,16.3-1.6,24.7-3.4c-0.5-0.6-1-1.2-1.6-1.8L110.2,150.3z"/>
</svg>
