<svg xmlns="http://www.w3.org/2000/svg" viewBox="0 0 800 600"><defs><style>.cls-1{fill:#fddec3;}.cls-2,.cls-3{fill:#404041;}.cls-3{stroke:#fff;}.cls-3,.cls-7{stroke-miterlimit:10;}.cls-4{fill:#74acb8;}.cls-5{fill:#b18e6a;}.cls-6{fill:#de887b;}.cls-7{fill:none;stroke:#a56f29;}.cls-8{fill:#8a5d3b;}.cls-9{fill:#481c11;opacity:0.05;}</style></defs><g id="Layer_3" data-name="Layer 3"><polygon class="cls-1" points="418.33 170.04 399.32 195.69 381.67 170.04 389.82 170.04 389.82 158.81 400 158.81 410.18 158.81 410.18 170.04 418.33 170.04"/><polygon class="cls-2" points="431.48 314.33 369.76 314.33 368.52 289.64 430.24 289.64 431.48 314.33"/><polygon class="cls-2" points="433.98 519.75 405.69 519.75 405.69 290.01 430.28 290.01 433.98 519.75"/><polygon class="cls-2" points="394.16 519.75 365.87 519.75 368.34 290.01 392.93 290.01 394.16 519.75"/><path class="cls-3" d="M400.47,533a20.39,20.39,0,0,1,40.77,0"/><path class="cls-3" d="M399.33,533a20.39,20.39,0,0,0-40.77,0"/><rect class="cls-1" x="340.74" y="322.07" width="16.71" height="27.71" rx="4"/><path class="cls-2" d="M358.06,188.75a8.37,8.37,0,0,0-.56-2.43,8.26,8.26,0,0,0-1.62-2.56,7.55,7.55,0,0,0-2.39-1.73,7,7,0,0,0-2.92-.63h-3a7,7,0,0,0-2.92.63,7.55,7.55,0,0,0-2.39,1.73,8.26,8.26,0,0,0-1.62,2.56,8.37,8.37,0,0,0-.56,2.43h0V325.4h18V188.75Z"/><rect class="cls-1" x="442.56" y="322.07" width="16.71" height="27.71" rx="4"/><path class="cls-2" d="M459.88,188.75a8.37,8.37,0,0,0-.56-2.43,8.26,8.26,0,0,0-1.62-2.56,7.55,7.55,0,0,0-2.39-1.73,7,7,0,0,0-2.92-.63h-3a7,7,0,0,0-2.92.63,7.55,7.55,0,0,0-2.39,1.73,8.26,8.26,0,0,0-1.62,2.56,8.37,8.37,0,0,0-.56,2.43h0V325.4h18V188.75Z"/><path class="cls-2" d="M435.22,175.17l-15.42-6h-1.71a88.26,88.26,0,0,1-37.18,0H379.8l-15.42,6-2.88,2v141h77v-141Z"/><path class="cls-1" d="M398.53,162.5h4.15l.42-.14c1.15-.22,2.35-.19,3.49-.46,3.38-.81,5.58-4,7.36-6.94,3.48-5.8,8.61-12.19,9.4-18.91l2.14-18.16a15.84,15.84,0,0,0,.07-4.76c-.37-2-1.48-3.73-2.05-5.65-1.16-3.94,0-8.2-.44-12.28a15.14,15.14,0,0,0-5.65-10c-3.64-2.85-9.26-4.47-13.88-4.62l-5.87,0c-4.62.15-10.24,1.77-13.89,4.62a15.14,15.14,0,0,0-5.65,10c-.47,4.09.73,8.34-.44,12.28-.56,1.93-1.67,3.68-2.05,5.65a15.84,15.84,0,0,0,.08,4.76L377.86,136c.79,6.73,5.92,13.11,9.4,18.92,1.78,3,4,6.13,7.35,6.93,1.15.27,2.34.24,3.5.46Z"/><circle class="cls-4" cx="413.35" cy="116.47" r="1.78"/><circle class="cls-4" cx="387.86" cy="116.47" r="1.78"/><path class="cls-5" d="M398.65,132.36a1.26,1.26,0,1,1-1.26-1.27A1.26,1.26,0,0,1,398.65,132.36Z"/><path class="cls-5" d="M405.08,132.36a1.27,1.27,0,1,1-1.27-1.27A1.27,1.27,0,0,1,405.08,132.36Z"/><path class="cls-6" d="M408,144.34q-.4-.19-.84-.36l-.86-.28-.85-.27-.84-.28c-.28-.1-.54-.21-.8-.33a5,5,0,0,1-.74-.44,4.57,4.57,0,0,1-.67-.58,2,2,0,0,1-.22.29,3.31,3.31,0,0,1-.26.27l-.29.25-.3.26-.3.27c-.1.1-.2.2-.29.31l-.16.23a1.88,1.88,0,0,0-.16-.23,4.12,4.12,0,0,0-.28-.31l-.3-.27-.3-.26-.29-.25a3.44,3.44,0,0,1-.27-.27,3.15,3.15,0,0,1-.22-.29,4.5,4.5,0,0,1-.66.58,5.55,5.55,0,0,1-.74.44c-.26.12-.53.23-.8.33l-.84.28-.86.27L394,144l-.84.36a7.26,7.26,0,0,0-.8.47l1.8.95c.66.35,1.6,1.26,2.36,1.63s1.35.92,2.15,1.24c.47.19.94-.35,1.41-.19v.32l.51-.16.52.16,0-.32c.47-.16.94.38,1.41.19.81-.32,1.6-.87,2.37-1.24s1.48-1.28,2.15-1.63l1.79-.95A5.78,5.78,0,0,0,408,144.34Z"/><path class="cls-1" d="M425.65,116.91c1.64-.32,3.2,1.12,3.64,2.73a10,10,0,0,1-.33,4.94l-1.48,6.25a11.4,11.4,0,0,1-1.51,4,3.94,3.94,0,0,1-3.69,1.83"/><path class="cls-1" d="M375.55,116.91c-1.63-.32-3.2,1.12-3.64,2.73a10.15,10.15,0,0,0,.33,4.94l1.48,6.25a11.61,11.61,0,0,0,1.52,4,3.94,3.94,0,0,0,3.68,1.83"/><path class="cls-7" d="M407,110.82q5.39-.51,10.8-.66a1.46,1.46,0,0,1,.78.12,1.32,1.32,0,0,1,.4.38,11.62,11.62,0,0,1,1.15,1.71"/><path class="cls-7" d="M394.19,110.82q-5.38-.51-10.79-.66a1.46,1.46,0,0,0-.78.12,1.35,1.35,0,0,0-.41.38,11.56,11.56,0,0,0-1.14,1.71"/><path class="cls-8" d="M375.39,114.78l-.09-.27c-.47.74-.86,1.59-1.43,2.6Z"/><path class="cls-8" d="M427,101.73a7.31,7.31,0,0,1-1-.5c-1.14-8.15-3.71-16.67-6.57-21.25-8.49-4.83-36.44-9.75-38.65,5.78-.32.31-.63.62-.94.94l-.21.22c-8,2.26-6.5,21.07-4.27,27.59a6.12,6.12,0,0,1,2.24-2.19c.82-4.8,4.15-12.62,2.53-16.82,11-2.76,35.7-7.75,37.26,6.73,4.25,3.27,6.49,9.24,7.47,14.65.47-.78,1-1.65,1.39-2.23a34.24,34.24,0,0,0,.37-5.57A13.63,13.63,0,0,0,427,101.73Z"/><path class="cls-9" d="M408.27,135c-2.78-.25-5.34.27-8.08.4-2.74-.13-5.3-.65-8.08-.4s-5.15,1.54-7.57,2l.23.28c.8,2.11,6.21.47,8.47.28,1.65-.14,5.57.06,6.95-.84,1.38.9,5.3.7,6.95.84,2.26.19,7.67,1.83,8.47-.28l.23-.28C413.42,136.5,411,135.2,408.27,135Z"/><path class="cls-9" d="M422.81,133.6c-5.54,4.73-7.09,6.14-8.77,8.74-1.5,2.32-4.89,7.59-7.25,9.27-1.58,1.12-5,2.91-6.26,4.3a3.08,3.08,0,0,0-.34.44,3.08,3.08,0,0,0-.34-.44c-1.25-1.39-4.68-3.18-6.26-4.3-2.36-1.68-5.75-7-7.25-9.27-1.68-2.6-3.23-4-8.77-8.74-2.36-2,.65,7.55,1.58,9.3,1.35,2.57,3.5,7.22,5.58,9.31a78.93,78.93,0,0,0,6.09,5.75c2.15,1.78,8,4.56,9.37,3.3,1.35,1.26,7.22-1.52,9.37-3.3a78.93,78.93,0,0,0,6.09-5.75c2.08-2.09,4.23-6.74,5.58-9.31C422.16,141.15,425.17,131.58,422.81,133.6Z"/></g></svg>