<svg xmlns="http://www.w3.org/2000/svg" viewBox="0 0 800 600"><defs><style>.cls-1{fill:#74acb8;}.cls-2{fill:#fddec3;}.cls-3{fill:#fdd9b6;}.cls-4{fill:#de887b;}.cls-5{fill:#b18e6a;}.cls-6{fill:none;stroke:#a56f29;stroke-width:0.25px;}.cls-6,.cls-8{stroke-miterlimit:10;}.cls-7,.cls-8{fill:#404041;}.cls-8{stroke:#fff;}.cls-9{fill:#8a5d3b;}.cls-10{fill:#481c11;opacity:0.05;}</style></defs><g id="Layer_3" data-name="Layer 3"><circle class="cls-1" cx="400" cy="113.81" r="2.45"/><path class="cls-2" d="M402.52,162.08c6.85-1.84,7.85-2.15,12-7.93,3-4.28,6.48-10.88,7.35-16.07,2.41-14.33,5.69-30.64.81-44.32-2.83-7.94-12.34-10.08-20.72-9.15h-3.84c-8.38-.93-17.89,1.21-20.72,9.15-4.88,13.68-1.6,30,.81,44.32.87,5.19,4.3,11.79,7.35,16.07,4.11,5.78,5.11,6.09,12,7.93Z"/><path class="cls-3" d="M425.31,110c2.36.22,3.92,4.21,3.48,8.92s-2.69,8.35-5,8.13"/><path class="cls-3" d="M376.91,128.05c-2.33.37-4.83-3.12-5.57-7.79s.55-8.75,2.89-9.12"/><path class="cls-4" d="M408.83,141.89l-1-.25-1-.2-1-.19-1-.19c-.33-.07-.64-.15-1-.24a7.59,7.59,0,0,1-.88-.31,6.63,6.63,0,0,1-.8-.4,1.37,1.37,0,0,1-.26.2,2.32,2.32,0,0,1-.31.19l-.34.18a18.42,18.42,0,0,0-.72.37l-.34.21-.19.16-.19-.16-.34-.21-.36-.19a3,3,0,0,0-.36-.18l-.34-.18a2.32,2.32,0,0,1-.31-.19,1.89,1.89,0,0,1-.27-.2,5.84,5.84,0,0,1-.79.4,7.59,7.59,0,0,1-.88.31c-.31.09-.63.17-1,.24l-1,.19-1,.19-1,.2-1,.25a8.83,8.83,0,0,0-.95.33l2.13.67c.79.25,1.66.51,2.56.77s1.86.52,2.82.75c.55.13,1.11.25,1.67.36V145l.61-.12.61.12,0-.23q.86-.17,1.68-.36c1-.23,1.91-.49,2.82-.75s1.76-.52,2.56-.77l2.13-.67A8.83,8.83,0,0,0,408.83,141.89Z"/><path class="cls-5" d="M398.11,126.65a1.23,1.23,0,1,1-1.22-1.22A1.22,1.22,0,0,1,398.11,126.65Z"/><path class="cls-5" d="M404.34,126.65a1.23,1.23,0,1,1-1.23-1.22A1.22,1.22,0,0,1,404.34,126.65Z"/><circle class="cls-1" cx="413.15" cy="112.89" r="1.83"/><circle class="cls-1" cx="386.85" cy="112.89" r="1.83"/><path class="cls-6" d="M394.22,107.05c-3.65-2-8.19-.94-12.22.21"/><path class="cls-6" d="M405.78,107.05c3.65-2,8.19-.94,12.22.21"/><polygon class="cls-2" points="418.33 170.04 399.32 195.69 381.67 170.04 389.82 170.04 389.82 158.81 400 158.81 410.18 158.81 410.18 170.04 418.33 170.04"/><polygon class="cls-7" points="431.48 314.33 369.76 314.33 368.52 289.64 430.24 289.64 431.48 314.33"/><polygon class="cls-7" points="433.98 519.75 405.69 519.75 405.69 290.01 430.28 290.01 433.98 519.75"/><polygon class="cls-7" points="394.16 519.75 365.87 519.75 368.34 290.01 392.93 290.01 394.16 519.75"/><path class="cls-8" d="M400.47,533a20.39,20.39,0,0,1,40.77,0"/><path class="cls-8" d="M399.33,533a20.39,20.39,0,0,0-40.77,0"/><rect class="cls-2" x="340.74" y="322.07" width="16.71" height="27.71" rx="4"/><path class="cls-7" d="M358.06,188.75a8.37,8.37,0,0,0-.56-2.43,8.26,8.26,0,0,0-1.62-2.56,7.55,7.55,0,0,0-2.39-1.73,7,7,0,0,0-2.92-.63h-3a7,7,0,0,0-2.92.63,7.55,7.55,0,0,0-2.39,1.73,8.26,8.26,0,0,0-1.62,2.56,8.37,8.37,0,0,0-.56,2.43h0V325.4h18V188.75Z"/><rect class="cls-2" x="442.56" y="322.07" width="16.71" height="27.71" rx="4"/><path class="cls-7" d="M459.88,188.75a8.37,8.37,0,0,0-.56-2.43,8.26,8.26,0,0,0-1.62-2.56,7.55,7.55,0,0,0-2.39-1.73,7,7,0,0,0-2.92-.63h-3a7,7,0,0,0-2.92.63,7.55,7.55,0,0,0-2.39,1.73,8.26,8.26,0,0,0-1.62,2.56,8.37,8.37,0,0,0-.56,2.43h0V325.4h18V188.75Z"/><path class="cls-7" d="M435.22,175.17l-15.42-6h-1.71a88.26,88.26,0,0,1-37.18,0H379.8l-15.42,6-2.88,2v141h77v-141Z"/><path class="cls-9" d="M374,114c0-.08-.06-.19-.09-.28-.49.76-.89,1.62-1.49,2.66Z"/><path class="cls-9" d="M427.68,100.65a9.35,9.35,0,0,1-1.05-.51c-1.19-8.32-3.87-17-6.85-21.69-8.84-4.93-38-10-40.28,5.9-.32.32-.65.63-1,1l-.22.22c-8.37,2.31-6.77,21.51-4.45,28.16a6.35,6.35,0,0,1,2.33-2.23c.86-4.9,4.33-12.88,2.64-17.17,11.43-2.82,37.2-7.91,38.82,6.87,4.44,3.34,6.77,9.43,7.79,15,.49-.8,1.07-1.69,1.45-2.28a33.52,33.52,0,0,0,.38-5.69C428.23,105.93,428.1,103.27,427.68,100.65Z"/><path class="cls-10" d="M408.08,134c-2.78-.24-5.34.28-8.08.4-2.74-.12-5.3-.64-8.08-.4s-5.15,1.55-7.57,2l.23.29c.8,2.1,6.21.47,8.47.27,1.65-.14,5.57.06,6.95-.84,1.38.9,5.3.7,6.95.84,2.26.2,7.67,1.83,8.47-.27l.23-.29C413.23,135.55,410.81,134.25,408.08,134Z"/><path class="cls-10" d="M422.62,132.64c-5.54,4.74-7.09,6.14-8.77,8.74-1.5,2.32-4.89,7.59-7.25,9.27-1.58,1.12-5,2.91-6.26,4.31a3,3,0,0,0-.34.43,4,4,0,0,0-.34-.43c-1.25-1.4-4.68-3.19-6.26-4.31-2.37-1.68-5.75-7-7.25-9.27-1.68-2.6-3.24-4-8.77-8.74-2.36-2,.65,7.55,1.58,9.31,1.35,2.57,3.5,7.21,5.58,9.31a78.81,78.81,0,0,0,6.09,5.74c2.15,1.78,8,4.57,9.37,3.3,1.35,1.27,7.22-1.52,9.37-3.3a78.81,78.81,0,0,0,6.09-5.74c2.08-2.1,4.23-6.74,5.58-9.31C422,140.19,425,130.62,422.62,132.64Z"/></g></svg>