<svg id="Layer_2" data-name="Layer 2" xmlns="http://www.w3.org/2000/svg" viewBox="0 0 800 600"><defs><style>.cls-1{fill:none;}.cls-1,.cls-2{stroke:#dcb5b3;stroke-miterlimit:10;}.cls-2{fill:#f6cac9;}.cls-3{fill:#404041;}.cls-4{fill:#fff;}.cls-5{fill:#74acb8;}.cls-6{fill:#b18e6a;}.cls-7{fill:#f16522;}.cls-8{fill:#a56f29;}.cls-9{fill:#481c11;opacity:0.05;}.cls-10{fill:#8a5d3b;}</style></defs><path class="cls-1" d="M400.72,529.71c2.69-.44,5.6-2.71,8.23-2.78,3.46-.08,5.14,2,8.23,2.78"/><path class="cls-1" d="M395.24,529.71c-2.69-.44-5.6-2.71-8.23-2.78-3.46-.08-5.14,2-8.23,2.78"/><path class="cls-2" d="M377.93,144.47c2.79,7.85,8.57,25.54,8.23,35-1.21,4.59-8.8,9.63-13.91,18.54-1.09,1.89-2.8,3.34-4,5.19-4.31,5.1-10.58,9.17-14.11,14.76-4,6.35-4.48,15.26-5.73,22.36a599.55,599.55,0,0,0-9.33,102c0,9.85.92,33.74,13.83,34.66,9.81.7,4.49-5.46,2.32-10-2.48-5.2-2.76-11.13-2.42-17.72a10.6,10.6,0,0,1,4.82,0c1.72,5.88,7.61,9.82,8.83,1.73.8-5.28-5.91-7-7.83-12.08-2.14-5.66-.23-13.76-1.71-20.38-1.67-7.49,3.33-15.26,3.41-23.35.13-14.12-3.42-23.17-.81-36.12,1.71-8.46.61-23.06,5.53-30v.74c-3.55,13.65.18,36,.18,49.48,0,13.23-.54,26.65.13,39.82,1.54.13,3,.29,4.52.48l2.65,176.88,0,2a11.53,11.53,0,0,0-.3,1.67c-.33,6-3.78,7.47-8.24,10.17-3.95,2.39-8.39,4.78-13.14,5.76-3.95.81-10.75-.24-11.77,4.47-1.4,6.52,5,5.37,9.23,6,2.36.37,4.14,1.26,6.64,1.36a48.05,48.05,0,0,0,8.42-.56c5.59-.8,11.3-.85,17.09-1.43,5-.51,13.07,1.3,14.16-4.51,1.27-6.81-2.69-13.14-2-19.57l.06-3.56h0v-1.57h0l-2.61-174c2.57.31,5.23.56,8,.67v.09h.1c.61,0,1.19,0,1.78,0s1.17,0,1.78,0h.1v-.09c2.78-.11,5.44-.36,8-.67l-2.61,174h0v1.57h0l.06,3.56c.7,6.43-3.26,12.76-2,19.57,1.09,5.81,9.12,4,14.16,4.51,5.79.58,11.5.63,17.09,1.43a48.05,48.05,0,0,0,8.42.56c2.5-.1,4.28-1,6.64-1.36,4.19-.64,10.63.51,9.23-6-1-4.71-7.82-3.66-11.77-4.47-4.75-1-9.19-3.37-13.14-5.76-4.46-2.7-7.91-4.12-8.24-10.17a11.53,11.53,0,0,0-.3-1.67l0-2,2.65-176.88c1.48-.19,3-.35,4.52-.48.67-13.17.13-26.59.13-39.82,0-13.52,3.73-35.83.18-49.48v-.74c4.92,7,3.82,21.58,5.53,30,2.61,12.95-.94,22-.81,36.12.08,8.09,5.08,15.86,3.41,23.35-1.48,6.62.43,14.72-1.71,20.38-1.92,5.09-8.63,6.8-7.83,12.08,1.22,8.09,7.11,4.15,8.83-1.73a10.6,10.6,0,0,1,4.82,0c.34,6.59.06,12.52-2.42,17.72-2.17,4.55-7.49,10.71,2.32,10,12.91-.92,13.84-24.81,13.83-34.66a599.55,599.55,0,0,0-9.33-102c-1.25-7.1-1.73-16-5.73-22.36-3.53-5.59-9.8-9.66-14.11-14.76-1.2-1.85-4.61-3.3-5.7-5.19a74.66,74.66,0,0,1-10-34.17c.43-7.43,3-15,4.59-19.38"/><polygon class="cls-3" points="405.74 504.12 412.76 504.12 419.77 504.12 426.78 504.12 433.79 504.12 436.77 475.05 437.1 417.25 437.1 377.3 433.79 307.77 426.78 307.77 419.77 307.77 412.76 307.77 405.74 307.77 396.07 307.06 405.59 395.32 405.8 482.7 405.74 504.12"/><path class="cls-3" d="M395.29,511.37c-.68-4.65-1.77-8.92-1.8-12.06-4.92-.23-14.59-2.82-19.06-.91-2.18.93-8.87,6.35-11.29,7.93-2.62,1.71-4.5,3.44-7.55,4.43-.67.22-1.42.42-2.24.61H343c-6.21,0-11.24,7.11-11.24,15.89h0c-.17,2.45,6.8,2.45,13,2.45h48.88l1.65-2.45h.06V511.37Z"/><path class="cls-3" d="M404.71,511.37c.68-4.65,1.77-8.92,1.8-12.06,4.92-.23,14.59-2.82,19.06-.91,2.18.93,8.87,6.35,11.29,7.93,2.62,1.71,4.5,3.44,7.55,4.43.67.22,1.42.42,2.24.61H457c6.21,0,11.24,7.11,11.24,15.89h0c.17,2.45-6.8,2.45-13,2.45H406.32l-1.65-2.45h-.06V511.37Z"/><path class="cls-2" d="M427.23,119.48c-.69-5.08-2.93-9.83-3.74-14.85s-.33-10.18-2.34-14.85c-4.28-9.92-13.16-13.57-22.32-13.14-9.17-.43-18,3.22-22.32,13.14-2,4.67-1.55,9.94-2.34,14.85s-3.06,9.77-3.74,14.85c-1.18,8.71,4.87,22.13,9.54,28.93,4.46,6.49,9.77,14.3,17.71,14.39.39,0,.77,0,1.15,0l1.14,0c7.94-.09,13.26-7.9,17.72-14.39C422.36,141.61,428.41,128.19,427.23,119.48Z"/><path class="cls-2" d="M425.66,119.13c.32-2.54,4.14-6.48,5.82-1.78,1.37,3.83-2.9,7.32-1.83,11.12a6.68,6.68,0,0,1-1.94,1.68,8.66,8.66,0,0,1-.88-3.25"/><path class="cls-4" d="M404,115.11c7.56-6,9.55-2.63,15.12,1.22-3.84,1-10.23,2.86-15.12-1.22"/><path class="cls-5" d="M415.26,114.69a3.81,3.81,0,0,0-.24-1.31c-2-1.33-3.73-2-6.18-1.19a3.66,3.66,0,0,0-1,2.5,3.71,3.71,0,0,0,1.21,2.74,16.3,16.3,0,0,0,5,0A3.71,3.71,0,0,0,415.26,114.69Z"/><path class="cls-3" d="M412.84,114.85a1.28,1.28,0,1,1-1.28-1.28A1.28,1.28,0,0,1,412.84,114.85Z"/><path class="cls-1" d="M404.93,118.15c2.42,1.82,5.25,2.25,8.05,2.86"/><path class="cls-4" d="M392,115.31c-7.56-6-9.55-2.62-15.12,1.23,3.84,1,10.23,2.85,15.12-1.23"/><path class="cls-5" d="M380.7,114.9a3.72,3.72,0,0,1,.24-1.31c2-1.33,3.74-2,6.18-1.2a3.69,3.69,0,0,1-.23,5.24,16.31,16.31,0,0,1-5,0A3.72,3.72,0,0,1,380.7,114.9Z"/><path class="cls-3" d="M383.12,115.05a1.28,1.28,0,1,0,1.28-1.28A1.28,1.28,0,0,0,383.12,115.05Z"/><path class="cls-1" d="M391,118.35c-2.42,1.82-5.25,2.25-8,2.86"/><path class="cls-6" d="M397.2,131.43a1.27,1.27,0,1,1-1.26-1.27A1.26,1.26,0,0,1,397.2,131.43Z"/><path class="cls-6" d="M402.56,131.43a1.27,1.27,0,1,1-1.26-1.27A1.26,1.26,0,0,1,402.56,131.43Z"/><path class="cls-7" d="M407.05,143c-.28-.09-.57-.18-.86-.25l-.88-.2-.87-.19c-.29-.06-.58-.12-.86-.2s-.55-.14-.82-.23a5.61,5.61,0,0,1-.75-.31,4.33,4.33,0,0,1-.69-.41,2.23,2.23,0,0,1-.22.21l-.27.18-.29.18-.31.18a3.28,3.28,0,0,0-.31.2,3.06,3.06,0,0,0-.29.21c-.06,0-.11.11-.16.16l-.17-.16a2.16,2.16,0,0,0-.29-.21l-.3-.2-.31-.18-.3-.18-.27-.18-.22-.21a4.23,4.23,0,0,1-.68.41,5.75,5.75,0,0,1-.76.31c-.26.09-.53.16-.81.23s-.57.14-.86.2l-.88.19-.87.2c-.29.07-.58.16-.86.25s-.56.21-.82.33l1.83.67c.69.25,1.43.52,2.2.78s1.59.51,2.42.75c.47.13,1,.25,1.44.36l0,.23.53-.12.52.12v-.23l1.44-.36c.82-.24,1.63-.49,2.41-.75s1.52-.53,2.2-.78l1.83-.67Q407.47,143.14,407.05,143Z"/><path class="cls-2" d="M371.57,119.13c-.31-2.54-4.14-6.48-5.82-1.78-1.36,3.83,2.9,7.32,1.83,11.12a7,7,0,0,0,1.94,1.68,8.31,8.31,0,0,0,.88-3.25"/><path class="cls-8" d="M391.35,86.14a2.92,2.92,0,0,0,2.06,1.92,5.11,5.11,0,0,0,2.55-.43,16.7,16.7,0,0,1,2.85-.86,3.87,3.87,0,0,1,2.91.63,5.76,5.76,0,0,1,1-.77c.36-.21.73-.39,1.1-.57a11.46,11.46,0,0,0,1.09-.59,5,5,0,0,0,1-.82c.66.24,1.33.45,2,.63s1.36.32,2,.44,1.4.21,2.12.28,1.46.13,2.22.16a64.16,64.16,0,0,1,3.25,7.24c.92,2.43,1.72,4.87,2.5,7.32s1.57,4.9,2.45,7.36,2.7,4.92,3.89,7.38c.18-5.25-.7-10.52-1.26-15.45a41.15,41.15,0,0,0-3.56-13.43A20.94,20.94,0,0,0,413,77.25c-3.92-2.19-9-3.35-15.53-3.14a36.52,36.52,0,0,0-7.39.94,22.91,22.91,0,0,0-6,2.37,20.13,20.13,0,0,0-4.84,3.91,25.87,25.87,0,0,0-3.82,5.55c-.57,1.09-1.19,2.22-1.83,3.38s-1.27,2.36-1.88,3.58-.33,2.46-.83,3.71-.07,2.53-.37,3.81a23.45,23.45,0,0,0-.18,4.57c0,1.2-.39,8.53,0,9.95a46.94,46.94,0,0,0,3-7.17c.75-2.87.38-5.23,1.16-8.6s1.5-6.64,2-9.08,2.46-4.08,2.35-4.17"/><polygon class="cls-3" points="395.3 504.12 388.28 504.12 381.27 504.12 374.26 504.12 367.25 504.12 364.27 475.05 363.94 417.25 363.94 377.3 367.25 307.77 374.26 307.77 381.27 307.77 388.28 307.77 395.3 307.77 404.97 307.06 395.45 395.32 395.24 482.7 395.3 504.12"/><path class="cls-3" d="M446.36,217.28c-6.77-9.87-20-20.54-20.74-32.87-5.48,3.6-13,5.69-20.53,5.81v-1a37.94,37.94,0,0,1-4.79.77,37.79,37.79,0,0,1-4.78-.77v1c-7.54-.12-15-2.21-20.53-5.81-.76,12.33-14,23-20.74,32.87-10.47,15.26-13.6,31.81-12.41,50.26,4.29-4.32,18.88-3.74,24.33-1.49-.45,8.95-2,18.81-2.45,27.57-.63,12.35.23,15.68,12.41,15.67,6.44,0,12.91.09,19.39.2v.14l4.78-.07,4.79.07v-.14c6.48-.11,13-.21,19.39-.2,12.17,0,13-3.32,12.41-15.67-.46-8.76-2-18.62-2.45-27.57,5.45-2.25,20-2.83,24.33,1.49C460,249.09,456.83,232.54,446.36,217.28Z"/><polygon class="cls-3" points="391.03 307.9 377.57 337.65 364.11 337.65 364.11 261.58 364.11 192.3 377.57 185.5 377.57 185.5 391.03 261.58 391.03 307.9"/><path class="cls-3" d="M364.11,192c28.6-1.86-1.55,58.49-2.35,75.94-.9,19.9,7.87,59.43-25.54,50.08.71-40.84,2.88-82.29,16.64-121.21"/><polygon class="cls-3" points="409.32 307.9 422.79 337.65 436.25 337.65 436.25 261.58 436.25 192.3 422.79 185.5 422.79 185.5 409.32 261.58 409.32 307.9"/><path class="cls-9" d="M424.14,131.88c-6,5.15-7.71,6.68-9.54,9.51-1.64,2.53-5.32,8.27-7.9,10.1-1.71,1.22-5.44,3.17-6.81,4.69a3.6,3.6,0,0,0-.37.47,3.6,3.6,0,0,0-.37-.47c-1.37-1.52-5.1-3.47-6.81-4.69-2.58-1.83-6.26-7.57-7.9-10.1-1.83-2.83-3.52-4.36-9.54-9.51-2.57-2.2.7,8.22,1.71,10.13,1.48,2.8,3.82,7.85,6.08,10.14a87.24,87.24,0,0,0,6.63,6.25c2.34,1.94,8.73,5,10.2,3.59,1.47,1.38,7.86-1.65,10.2-3.59a87.24,87.24,0,0,0,6.63-6.25c2.26-2.29,4.61-7.34,6.08-10.14C423.44,140.1,426.72,129.68,424.14,131.88Z"/><path class="cls-9" d="M407.6,136.44c-2.78-.25-5.34.28-8.08.4-2.74-.12-5.3-.65-8.08-.4s-5.15,1.55-7.57,2l.23.28c.8,2.11,6.21.48,8.47.28,1.65-.14,5.57.06,6.95-.84,1.38.9,5.3.7,7,.84,2.26.2,7.67,1.83,8.47-.28l.23-.28C412.75,138,410.33,136.69,407.6,136.44Z"/><path class="cls-10" d="M370.25,113.62c-2.65-7.12-4.59-29.75,5.82-30.75,1.32-18.29,33.68-12.77,43.36-7.38,5.13,8.06,9.43,27.23,7.62,38-.39.63-1,1.58-1.55,2.44-1.09-5.93-3.59-12.47-8.35-16-1.75-15.86-29.4-10.4-41.67-7.38,1.81,4.61-1.9,13.17-2.83,18.43-2.32,1.34-2.74,2.88-4.1,5.25"/><path class="cls-10" d="M370.25,106.82c.13-4.32-.51-9.63,0-14.26.72-6.62.58-5.35,4.91-9.71,5.17-5.19,11.2-9.64,18.89-10s18.72.5,24.46,5.08c5.06,4,3.67,4.45,4.44,11.07.53,4.56,0,8.35,4.95,10.35.71,4.33.68,8.74-3.25,11.41-2-4.38-5.6-10.74-5.25-15.66-2-1.7-3.75-5.81-6.42-7.18-4.39-2.26-9.09,1.41-13.66,1.08-5-.37-7.52-3.63-12.69-3.42s-6.51,4.24-12,3.57c-2.82,5.68-1.74,12.27-4.4,17.7"/><path class="cls-3" d="M436.52,192c-28.6-1.86,1.55,58.49,2.34,75.94.91,19.9-7.86,59.43,25.55,50.08-.72-40.84-2.88-82.29-16.64-121.21"/></svg>