<?xml version="1.0" encoding="utf-8"?>
<!-- Generator: Adobe Illustrator 22.0.0, SVG Export Plug-In . SVG Version: 6.00 Build 0)  -->
<svg version="1.1" id="Layer_1" xmlns="http://www.w3.org/2000/svg" xmlns:xlink="http://www.w3.org/1999/xlink" x="0px" y="0px"
	 viewBox="0 0 200 550" style="enable-background:new 0 0 200 550;" xml:space="preserve">
<style type="text/css">
	.st0{fill:#F9C2C4;stroke:#DEAAA7;stroke-miterlimit:10;}
	.st1{fill:#1A1A1A;}
	.st2{fill:#FFFFFF;}
	.st3{fill:#72A4A3;}
	.st4{fill:none;stroke:#DEAAA7;stroke-miterlimit:10;}
	.st5{fill:#AB7D4A;}
	.st6{fill:#FF4000;}
	.st7{fill:#7C411E;}
	.st8{fill:none;stroke:#FD1A16;stroke-miterlimit:10;}
</style>
<title>rush</title>
<g>
	<path class="st0" d="M74,94.8c3.3,9.2,10.1,30.1,9.7,41.2c-1.4,5.4-10.4,11.3-16.4,21.8c-1.3,2.2-3.3,3.9-4.7,6.1
		c-5.1,6-12.4,10.8-16.6,17.4c-4.7,7.5-5.3,18-6.8,26.3c-7.1,39.6-10.8,79.8-11,120c0,11.6,1.1,39.7,16.3,40.8
		c11.5,0.8,5.3-6.4,2.7-11.8c-2.9-6.1-3.2-13.1-2.8-20.9c1.9-0.4,3.8-0.4,5.7,0c2,6.9,9,11.6,10.4,2c0.9-6.2-5-8.2-7.2-14.2
		c-2.5-6.6-2.3-16.2-4-24c-2-8.8,3.9-18,4-27.5c0.2-16.6-4-27.2-0.9-42.5c2-9.9,0.7-27.1,6.5-35.3v0.9c-4.2,16.1,0.2,42.3,0.2,58.2
		c0,15.6-0.6,31.4,0.2,46.9c1.8,0.1,3.6,0.3,5.3,0.6l3.1,208.1v2.4c-0.2,0.7-0.3,1.3-0.3,2c-0.4,7.1-4.4,8.8-9.7,12
		c-4.6,2.8-9.8,5.6-15.3,6.8c-4.6,1-12.7-0.3-13.8,5.3c-1.7,7.7,5.9,6.3,10.8,7.1c2.8,0.4,4.9,1.5,7.8,1.6c3.3,0.1,6.6-0.1,9.9-0.7
		c6.6-0.9,13.3-1,20.1-1.7c5.9-0.6,15.4,1.5,16.7-5.3c1.5-8-3.2-15.5-2.3-23l0.1-4.2l0,0v-1.9l0,0l-3.1-204.7c3,0.4,6.1,0.7,9.4,0.8
		v0.1h0.1c0.7,0,1.4,0,2.1,0s1.4,0,2.1,0h0.1v-0.1c3.3-0.1,6.4-0.4,9.4-0.8l-3.1,204.7l0,0v1.8l0,0l0.1,4.2c0.8,7.6-3.8,15-2.3,23
		c1.3,6.8,10.7,4.7,16.7,5.3c6.8,0.7,13.5,0.7,20.1,1.7c3.3,0.5,6.6,0.7,9.9,0.7c2.9-0.1,5-1.2,7.8-1.6c4.9-0.8,12.5,0.6,10.9-7.1
		c-1.2-5.5-9.2-4.3-13.8-5.3c-5.6-1.2-10.8-4-15.5-6.8c-5.2-3.2-9.3-4.8-9.7-12c-0.1-0.7-0.2-1.3-0.4-2v-2.4l3.1-208.1
		c1.7-0.2,3.5-0.4,5.3-0.6c0.8-15.5,0.1-31.3,0.1-46.9c0-15.9,4.4-42.2,0.2-58.2v-0.9c5.8,8.2,4.5,25.4,6.5,35.3
		c3.1,15.2-1.1,25.9-0.9,42.5c0.1,9.5,6,18.7,4,27.5c-1.7,7.8-1.5,17.3-4,24c-2.3,6-8.2,8-7.2,14.2c1.4,9.5,8.4,4.9,10.4-2
		c1.9-0.4,3.8-0.4,5.7,0c0.4,7.8,0.1,14.7-2.9,20.9c-2.6,5.4-8.8,12.6,2.7,11.8c15.2-1.1,16.3-29.2,16.3-40.8
		c-0.2-40.2-3.9-80.4-11-120c-1.5-8.4-2-18.8-6.8-26.3c-4.1-6.6-11.5-11.4-16.6-17.4c-1.4-2.2-5.4-3.9-6.7-6.1
		c-12-20.8-11.8-40.2-11.8-40.2c0.5-8.7,3.6-17.6,5.4-22.8"/>
	<polygon class="st1" points="106.8,517.9 115,517.9 123.3,517.9 131.5,517.9 139.8,517.9 143.3,483.7 143.6,415.7 143.6,368.7 
		139.8,286.9 131.5,286.9 123.3,286.9 115,286.9 106.8,286.9 95.4,286.1 106.6,389.9 106.8,492.7 	"/>
	<path class="st1" d="M94.5,526.4c-0.8-5.5-2.1-10.5-2.1-14.2c-5.8-0.3-17.2-3.3-22.4-1.1c-2.6,1.1-10.4,7.5-13.3,9.3
		c-3.1,2-5.3,4-8.9,5.2c-0.8,0.3-1.7,0.5-2.6,0.7H33c-7.3,0-13.2,8.4-13.2,18.7l0,0c-0.2,2.9,8,2.9,15.3,2.9h57.5l1.9-2.9h0.1v-18.7
		H94.5z"/>
	<path class="st1" d="M105.5,526.4c0.8-5.5,2.1-10.5,2.1-14.2c5.8-0.3,17.2-3.3,22.4-1.1c2.6,1.1,10.4,7.5,13.3,9.3
		c3.1,2,5.3,4,8.9,5.2c0.8,0.3,1.7,0.5,2.6,0.7H167c7.3,0,13.2,8.4,13.2,18.7l0,0c0.2,2.9-8,2.9-15.3,2.9h-57.5l-1.9-2.9h-0.1v-18.7
		H105.5z"/>
	<path class="st0" d="M132,65.4c-0.8-6-3.4-11.6-4.4-17.5s-0.4-12-2.8-17.5c-5-11.7-15.5-16-26.3-15.5c-10.8-0.5-21.2,3.8-26.3,15.5
		c-2.4,5.5-1.8,11.7-2.8,17.5S66,59.4,65.2,65.4c-1.4,10.2,5.7,26,11.2,34c5.2,7.6,11.5,16.8,20.8,16.9c0.4,0,0.9,0,1.4,0
		s0.9,0,1.3,0c9.3-0.1,15.6-9.3,20.8-16.9C126.3,91.4,133.4,75.6,132,65.4z"/>
	<path class="st0" d="M130.2,65c0.4-3,4.9-7.6,6.9-2.1c1.6,4.5-3.4,8.6-2.1,13.1c-0.6,0.8-1.4,1.5-2.3,2c-0.6-1.2-0.9-2.5-1-3.8"/>
	<path class="st2" d="M104.7,60.2c8.9-7.1,11.2-3.1,17.8,1.4C118,62.8,110.5,65,104.7,60.2"/>
	<path class="st3" d="M118,59.7c0-0.5-0.1-1-0.3-1.5c-2.3-1.6-4.4-2.4-7.3-1.4c-1.6,1.8-1.5,4.5,0.2,6.1c0,0,0,0,0,0
		c1.9,0.3,3.9,0.3,5.9,0C117.5,62.1,118,61,118,59.7z"/>
	<circle class="st1" cx="113.6" cy="59.9" r="1.5"/>
	<path class="st4" d="M105.8,63.8c2.9,2.1,6.2,2.6,9.5,3.4"/>
	<path class="st4" d="M100.9,52.5c3.2-0.5,6.6-3.2,9.7-3.3c4.1-0.1,6,2.3,9.7,3.3"/>
	<path class="st2" d="M90.5,60.5c-8.9-7.1-11.2-3.1-17.8,1.4C77.3,63.1,84.8,65.3,90.5,60.5"/>
	<path class="st3" d="M77.3,60c0-0.5,0.1-1,0.3-1.5c2.3-1.6,4.4-2.4,7.3-1.4c1.6,1.8,1.5,4.5-0.2,6.1c0,0,0,0,0,0
		c-1.9,0.3-3.9,0.3-5.9,0C77.8,62.4,77.3,61.2,77.3,60z"/>
	<circle class="st1" cx="81.6" cy="60.2" r="1.5"/>
	<path class="st4" d="M89.4,64c-2.9,2.1-6.2,2.6-9.5,3.4"/>
	<path class="st4" d="M94.4,52.7c-3.2-0.5-6.6-3.2-9.7-3.3c-4.1-0.1-6,2.3-9.7,3.3"/>
	<circle class="st5" cx="95.2" cy="79.4" r="1.5"/>
	<circle class="st5" cx="101.5" cy="79.4" r="1.5"/>
	<path class="st6" d="M107.3,93c-0.3-0.1-0.7-0.2-1-0.3l-1-0.2l-1-0.2l-1-0.2c-0.3-0.1-0.6-0.2-1-0.3c-0.3-0.1-0.6-0.2-0.9-0.4
		c-0.3-0.1-0.5-0.3-0.8-0.5c-0.1,0.1-0.2,0.2-0.3,0.2l-0.3,0.2l-0.4,0.2l-0.4,0.2L98.9,92l-0.3,0.3l-0.2,0.2l-0.2-0.2L97.9,92
		l-0.4-0.2l-0.4-0.2l-0.4-0.2l-0.3-0.2c-0.1-0.1-0.2-0.2-0.3-0.2c-0.3,0.2-0.5,0.3-0.8,0.5c-0.3,0.1-0.6,0.3-0.9,0.4
		c-0.3,0.1-0.6,0.2-1,0.3l-1,0.2l-1,0.2l-1,0.2c-0.3,0.1-0.7,0.2-1,0.3c-0.3,0.1-0.7,0.2-1,0.4l2.2,0.8c0.8,0.3,1.7,0.6,2.6,0.9
		s1.9,0.6,2.8,0.9c0.6,0.2,1.1,0.3,1.7,0.4v0.3l0.6-0.1l0.6,0.1v-0.3c0.6-0.1,1.1-0.3,1.7-0.4c1-0.3,1.9-0.6,2.8-0.9
		s1.8-0.6,2.6-0.9l2.2-0.8C108,93.2,107.7,93.1,107.3,93z"/>
	<path class="st0" d="M66.6,65c-0.4-3-4.9-7.6-6.8-2.1c-1.6,4.5,3.4,8.6,2.2,13.1c0.6,0.8,1.4,1.5,2.3,2c0.6-1.2,0.9-2.5,1-3.8"/>
	<path class="st7" d="M89.8,26.2c0.4,1.1,1.3,2,2.4,2.3c1,0.1,2.1-0.1,3-0.5c1.1-0.4,2.2-0.8,3.4-1c1.2-0.2,2.4,0,3.4,0.7
		c0.4-0.3,0.8-0.7,1.2-0.9c0.4-0.2,0.9-0.5,1.3-0.7c0.4-0.2,0.9-0.4,1.3-0.7c0.4-0.3,0.8-0.6,1.1-1c0.8,0.3,1.6,0.5,2.4,0.7
		s1.6,0.4,2.4,0.5s1.6,0.2,2.5,0.3s1.7,0.1,2.6,0.2c1.5,2.8,2.7,5.6,3.8,8.5c1.1,2.9,2,5.7,3,8.6s1.8,5.8,2.9,8.7s3.2,5.8,4.6,8.7
		c0.2-6.2-0.8-12.4-1.5-18.2c-0.5-5.5-1.9-10.8-4.2-15.8c-2.1-4.6-5.7-8.5-10.1-11c-4.6-2.6-10.6-4-18.3-3.7
		c-2.9,0.1-5.8,0.4-8.7,1.1c-2.5,0.6-4.9,1.5-7.1,2.8c-2.1,1.2-4,2.8-5.7,4.6c-1.8,2-3.3,4.2-4.6,6.6c-0.7,1.3-1.4,2.6-2.2,4
		s-1.5,2.8-2.2,4.2s-0.4,2.9-1,4.4s-0.1,3-0.4,4.5c-0.3,1.8-0.3,3.6-0.2,5.4c0,1.4-0.5,10,0,11.7c0.5-1.1,2.6-5.1,3.5-8.4
		s0.4-6.2,1.4-10.1s1.8-7.8,2.3-10.7s2.9-4.8,2.8-4.9"/>
	<polygon class="st1" points="94.5,517.9 86.2,517.9 78,517.9 69.7,517.9 61.5,517.9 58,483.7 57.6,415.7 57.6,368.7 61.5,286.9 
		69.7,286.9 78,286.9 86.2,286.9 94.5,286.9 105.9,286.1 94.6,389.9 94.4,492.7 	"/>
	<path class="st2" d="M154.5,180.4c-8-11.6-23.5-24.2-24.4-38.7c-6.4,4.2-15.3,6.7-24.1,6.8v-1.1c-1.9,0.4-3.7,0.7-5.6,0.9
		c-1.9-0.2-3.8-0.5-5.6-0.9v1.1c-8.9-0.1-17.7-2.6-24.2-6.8c-0.9,14.5-16.4,27.1-24.4,38.7c-12.3,18-16,37.4-14.6,59.1
		c5.1-5.1,22.2-4.4,28.6-1.8c-0.5,10.5-2.3,22.1-2.9,32.4c-0.8,14.5,0.3,18.4,14.6,18.4c7.6,0,15.2,0.1,22.8,0.2v0.2l5.6-0.1
		l5.6,0.1v-0.2c7.6-0.1,15.2-0.2,22.8-0.2c14.3,0,15.4-3.9,14.6-18.4c-0.5-10.3-2.4-21.9-2.9-32.4c6.4-2.6,23.6-3.3,28.6,1.8
		C170.5,217.9,166.9,198.4,154.5,180.4z"/>
	<line class="st8" x1="72.8" y1="179" x2="127.9" y2="179"/>
	<line class="st8" x1="72.8" y1="189.9" x2="127.9" y2="189.9"/>
	<line class="st8" x1="72.8" y1="184.4" x2="127.9" y2="184.4"/>
	<line class="st8" x1="72.8" y1="195.4" x2="127.9" y2="195.4"/>
	<line class="st8" x1="72.8" y1="206.3" x2="127.9" y2="206.3"/>
	<line class="st8" x1="72.8" y1="200.8" x2="127.9" y2="200.8"/>
	<line class="st8" x1="72.8" y1="211.7" x2="127.9" y2="211.7"/>
	<line class="st8" x1="72.8" y1="222.6" x2="127.9" y2="222.6"/>
	<line class="st8" x1="72.8" y1="217.2" x2="127.9" y2="217.2"/>
	<line class="st8" x1="72.8" y1="228.1" x2="127.9" y2="228.1"/>
	<line class="st8" x1="72.8" y1="239" x2="127.9" y2="239"/>
	<line class="st8" x1="72.8" y1="233.5" x2="127.9" y2="233.5"/>
	<polygon class="st1" points="89.4,287 73.6,322 57.8,322 57.8,232.5 57.8,151 73.6,143 73.6,143 89.4,232.5 	"/>
	<path class="st1" d="M57.8,151c33.7-2.6-2.2,77.5-3.3,100.6c-1.2,26.4,8.8,78.7-30.4,66.5c1.1-54.1,4-109,20.4-160.7"/>
	<polygon class="st1" points="111,287 126.8,322 142.6,322 142.6,232.5 142.6,151 126.8,143 126.8,143 111,232.5 	"/>
	<path class="st1" d="M142.6,151c-33.7-2.6,2.2,77.5,3.3,100.6c1.2,26.4-8.9,78.7,30.4,66.5c-1.1-54.1-4-109-20.4-160.7"/>
</g>
</svg>
